<svg xmlns="http://www.w3.org/2000/svg" xmlns:xlink="http://www.w3.org/1999/xlink" version="1.1" x="0px" y="0px" viewBox="0 0 100 125" enable-background="new 0 0 100 100" xml:space="preserve"><g><path d="M60.447,69.105c-0.493-0.246-1.094-0.047-1.342,0.447C59.083,69.598,56.804,74,50,74c-6.741,0-9.015-4.271-9.105-4.447   c-0.248-0.494-0.848-0.693-1.342-0.447c-0.494,0.247-0.694,0.848-0.447,1.342C39.219,70.674,41.975,76,50,76   s10.781-5.326,10.895-5.553C61.142,69.953,60.941,69.353,60.447,69.105z"/><path d="M50,9C30.149,9,14,25.149,14,45c0,19.855,22.644,46,36,46s36-26.145,36-46C86,25.149,69.851,9,50,9z M50,89   c-12.311,0-34-25.437-34-44c0-18.748,15.252-34,34-34s34,15.252,34,34C84,63.563,62.311,89,50,89z"/><path d="M44.73,58.197c0.597-2.983-0.43-6.426-2.889-9.693c-2.893-3.843-7.216-6.622-10.759-6.916   c-5.248-0.444-7.264,1.953-8.01,3.932c-1.991,5.28,2.303,13.719,6.017,16.982c2.16,1.899,4.728,2.944,7.229,2.944   C40.548,65.446,43.85,62.601,44.73,58.197z M36.319,63.446c-2.016,0-4.114-0.868-5.909-2.446   c-3.653-3.212-6.96-10.812-5.466-14.774c0.683-1.811,2.29-2.691,4.914-2.691c0.336,0,0.688,0.016,1.059,0.046   c2.962,0.247,6.797,2.766,9.326,6.127c2.112,2.806,3.01,5.682,2.526,8.098C42.073,61.285,39.602,63.446,36.319,63.446z"/><path d="M68.917,41.588c-3.543,0.294-7.866,3.073-10.759,6.916c-2.459,3.268-3.485,6.71-2.889,9.693   c0.881,4.403,4.183,7.249,8.411,7.249c0.001,0,0,0,0.001,0c2.501,0,5.068-1.045,7.229-2.944c3.714-3.264,8.008-11.702,6.017-16.982   C76.181,43.541,74.161,41.145,68.917,41.588z M75.056,46.226C76.55,50.188,73.243,57.788,69.59,61   c-1.795,1.578-3.894,2.447-5.909,2.446c-3.282,0-5.754-2.161-6.45-5.642c-0.483-2.416,0.414-5.292,2.526-8.098   c2.529-3.361,6.364-5.88,9.326-6.127c0.37-0.03,0.723-0.046,1.059-0.046C72.766,43.534,74.373,44.415,75.056,46.226z"/></g><text x="0" y="115" fill="#000000" font-size="5px" font-weight="bold" font-family="'Helvetica Neue', Helvetica, Arial-Unicode, Arial, Sans-serif">Created by Anniken &amp; Andreas</text><text x="0" y="120" fill="#000000" font-size="5px" font-weight="bold" font-family="'Helvetica Neue', Helvetica, Arial-Unicode, Arial, Sans-serif">from the Noun Project</text></svg>