<svg xmlns="http://www.w3.org/2000/svg" xmlns:xlink="http://www.w3.org/1999/xlink" version="1.1" x="0px" y="0px" viewBox="0 0 100 125" enable-background="new 0 0 100 100" xml:space="preserve"><g><path d="M55.5509605,48.1457901c0.0013275,0.0008469,0.0057869,0.0029678,0.0072784,0.003891   c-0.0373459-0.0245018-0.065239-0.0448914-0.0779152-0.0568047C55.5073318,48.1180801,55.4805298,48.0927086,55.5509605,48.1457901   z"/><path d="M61.4636459,48.3105736c-0.1178322,0.0512848-0.2123871,0.0923004-0.2839165,0.1221886   c-0.0715752,0.0299263-0.1195068,0.0487595-0.1442986,0.0564194c-0.0247879,0.0077019-0.0810661,0.0261459-0.1439133,0.0443001   c-0.062851,0.018116-0.1338158,0.0374413-0.2129822,0.0577698c-0.0791664,0.0203743-0.16679,0.0409737-0.2617912,0.0626144   c-0.0950012,0.021637-0.2900429,0.0560646-0.481636,0.0837555c-0.1915512,0.0276489-0.3804016,0.0481567-0.5666313,0.0615311   c-0.1862679,0.0134163-0.3700714,0.0203934-0.5503502,0.0205116c-0.180233,0.0001183-0.3620872-0.0142021-0.5412445-0.0233765   c-0.1791191-0.0091782-0.3511391-0.0254288-0.5167503-0.0447121c-0.1656532-0.0192833-0.3254967-0.0403633-0.4789658-0.0640717   c-0.1534729-0.0237465-0.4703827-0.1032753-0.7399025-0.1761627c-0.2695618-0.0729332-0.4890671-0.1428757-0.658268-0.2095871   c-0.1640434-0.064682-0.2781982-0.123085-0.3247566-0.1520729c0.0420685,0.027607,0.0966873,0.0606766,0.1669273,0.0984421   c0.1325874,0.0713158,0.3113708,0.1587296,0.5360069,0.2643738c0.2245903,0.105648,0.4966316,0.2258148,0.7252579,0.3222542   c0.2286224,0.0963974,0.3864975,0.1471519,0.5523758,0.1912384c0.1659241,0.0440445,0.3401375,0.0780449,0.5218582,0.104847   c0.1817207,0.0268059,0.3706093,0.0488358,0.5672302,0.0488853c0.1966629,0.0000877,0.3896103-0.0111923,0.5831871-0.0346794   s0.3876419-0.0571213,0.5818176-0.1017609c0.1942139-0.0446014,0.3885956-0.098938,0.5350189-0.1462669   c0.1464233-0.0473709,0.2384148-0.079689,0.3222504-0.1110039c0.0837936-0.031311,0.1595535-0.0612106,0.2269402-0.0908394   c0.0673904-0.0296288,0.1265755-0.0584145,0.1617928-0.0759811c0.0352631-0.0175209,0.069973-0.0365181,0.1227341-0.0698242   c0.0527649-0.0333061,0.1250954-0.0814781,0.2171898-0.1450882c0.0920944-0.0635719,0.2041206-0.1424179,0.303566-0.1997566   c0.0993996-0.0573807,0.0993996-0.0573807,0.0328522-0.0195465C61.7152443,48.1849747,61.5815201,48.2592888,61.4636459,48.3105736   z"/><path d="M44.2901344,47.8044014c-0.0132866,0.0112534-0.0421638,0.0301781-0.0808144,0.0527534   c0.0015526-0.000843,0.0062103-0.0027466,0.0075951-0.0035439C44.2899704,47.8041992,44.2618942,47.8282013,44.2901344,47.8044014z   "/><path d="M43.4887161,48.1832237c0.2297783-0.0939102,0.4128151-0.1720047,0.5489235-0.236412   c0.0720139-0.0340843,0.1283035-0.064312,0.1716805-0.0896568c-0.0480804,0.0265961-0.1649971,0.0789757-0.3320503,0.1351051   c-0.1724472,0.0578804-0.3952751,0.1164322-0.6681976,0.1753654c-0.2729645,0.0589294-0.5935135,0.1220284-0.7480125,0.1377983   c-0.1544952,0.0158119-0.3152275,0.0286217-0.4816132,0.0393639c-0.1663857,0.010704-0.339016,0.018074-0.5183907,0.0180168   c-0.1793747-0.0000992-0.3617249,0.0048485-0.5417519-0.0045624c-0.1799812-0.0094147-0.3632164-0.0258522-0.5485458-0.0488319   c-0.1852875-0.0229797-0.3727989-0.0531616-0.5627022-0.0906601c-0.1899033-0.0375023-0.3829308-0.0819473-0.4766846-0.1084518   c-0.0937157-0.0265083-0.1801834-0.0515862-0.2582245-0.0759888c-0.0780029-0.0244026-0.1478958-0.04739-0.2097168-0.0687103   c-0.0618248-0.0213203-0.1170387-0.0426826-0.1414185-0.0516167c-0.0243835-0.0089378-0.0712967-0.0302391-0.141201-0.0637779   c-0.0699005-0.0335808-0.1622543-0.0794029-0.277256-0.136692c-0.1150436-0.0572853-0.2447968-0.1384087-0.2447968-0.1384087   c-0.0644951-0.0411644-0.0644951-0.0411644,0.0318031,0.021244c0.0963402,0.0623627,0.2041664,0.1468849,0.2928581,0.2151337   c0.0886917,0.0682526,0.1584511,0.1201096,0.2094536,0.1561012c0.0509605,0.0359955,0.0846481,0.0567207,0.1189308,0.076046   c0.0343246,0.0193253,0.0919304,0.0511703,0.1576767,0.0842247c0.0657883,0.0330582,0.1398811,0.0668335,0.2219658,0.1023979   c0.0820808,0.0356026,0.1723137,0.0725822,0.3161125,0.1274147c0.1437988,0.0548744,0.3351021,0.119133,0.5267792,0.1736946   c0.1916351,0.0545654,0.3836708,0.098156,0.575779,0.1315651c0.192112,0.0334511,0.3842354,0.0546608,0.5806122,0.0647316   c0.1964188,0.0100708,0.3861923-0.0021973,0.569046-0.0196342c0.1828499-0.0173988,0.3585854-0.0423431,0.5265121-0.0778275   c0.1679649-0.0354843,0.3282051-0.0780182,0.5615082-0.1625328C42.9810982,48.383152,43.2589798,48.2771797,43.4887161,48.1832237z   "/><path d="M46.3078842,57.0187798l0.0006981,0.0000305C46.280426,57.0166588,46.2769737,57.0164146,46.3078842,57.0187798z"/><path d="M52.7884064,53.2980881c0.0241508,0.07267,0.0530434,0.146965,0.0856895,0.2223663   c0.0326424,0.0753975,0.0474434,0.1128693,0.0829582,0.1780472c0.0355568,0.0651779,0.0910416,0.1544609,0.1684647,0.2674065   c0.0774651,0.1129494,0.1736984,0.2521896,0.2874374,0.4157295c0.1137009,0.1634979,0.1607857,0.2506638,0.2045212,0.3396416   c0.0437813,0.088974,0.0834351,0.1699524,0.1172104,0.2437782c0.0337334,0.0738258,0.0602379,0.1409645,0.082325,0.1995735   c0.0221252,0.0586548,0.0724945,0.2082405,0.1088295,0.3522148c0.036335,0.1440125,0.0626144,0.2849503,0.0774918,0.424099   c0.0148811,0.1391487,0.0171394,0.2771416,0.0018768,0.4098091c-0.0152206,0.1326675-0.0516739,0.2846527-0.1016617,0.4350853   c-0.049984,0.1504745-0.11409,0.2949219-0.1940346,0.4336128c-0.0799866,0.1386909-0.1771774,0.2711105-0.2906685,0.3970375   c-0.113533,0.1259308-0.2711334,0.267807-0.4395523,0.3951645c-0.1684608,0.1273956-0.3476372,0.2385788-0.5370979,0.3349457   c-0.1894646,0.0963669-0.3898392,0.1771812-0.4928818,0.2157974c-0.2122078,0.0605545-0.1029968,0.0390663-0.2121201,0.0610046   c0.1092529-0.0215263,0.3280334-0.0555954,0.5390244-0.1149826c0.2109489-0.0594292,0.4152489-0.1382408,0.6124496-0.2365952   c0.1096191-0.0546303,0.215786-0.1159134,0.3180923-0.1806374l0.5996361-0.3321953   c0.1397285-0.0900803,0.2561226-0.1907463,0.3491402-0.3020897c0.2307854-0.2694817,0.3530807-0.6308632,0.3669205-1.0841942   c0.0455284-0.4380798-0.0712318-0.9154854-0.3503189-1.4321709c-0.1843109-0.3194046-0.4339867-0.5887527-0.7148628-0.8343048   c-0.0360069-0.0420952-0.074192-0.0877724-0.1064606-0.1265488c-0.1003532-0.1205864-0.1793289-0.2163086-0.2364731-0.2871704   c-0.0571022-0.0708618-0.0907326-0.116642-0.1244621-0.1672249c-0.0336914-0.0505791-0.0783768-0.1167107-0.1191483-0.1820717   c-0.0407753-0.0653191-0.0778809-0.1298218-0.1108742-0.1937561c-0.0329552-0.0639381-0.054718-0.1295357-0.0690002-0.1781006   c-0.0013733-0.0047073-0.0010719-0.0036011-0.0021858-0.0074081c0.0034714,0.0117836,0.0185699,0.0632133,0.0360756,0.1233635   C52.7443581,53.1547432,52.7642937,53.2254143,52.7884064,53.2980881z"/><path d="M52.6860962,52.9551544c-0.0086174-0.0292511-0.0078888-0.0267563,0.0025749,0.0087967   C52.6882439,52.9625206,52.6860962,52.9551544,52.6860962,52.9551544z"/><path d="M46.8296967,52.8054352l0.0004349-0.001236C46.8391342,52.7785454,46.8381424,52.7813911,46.8296967,52.8054352z"/><path d="M45.4600716,55.2986298c0.0436859-0.1419334,0.1016808-0.2887268,0.1267929-0.3461647   c0.025116-0.0573921,0.0550537-0.1230621,0.0925484-0.1950645c0.0374947-0.0720062,0.0812721-0.1508217,0.1295509-0.2374191   c0.0483208-0.0866356,0.0998268-0.1712151,0.2217941-0.3286667c0.1220093-0.1574478,0.225296-0.2915459,0.3084488-0.400341   c0.0831528-0.1088333,0.1431808-0.1951218,0.1820183-0.258358c0.0388374-0.0632744,0.0555458-0.0999489,0.0920334-0.173542   c0.0364914-0.0736351,0.0691757-0.1463585,0.0970306-0.2176666c0.0278511-0.0713501,0.0513763-0.1409225,0.0744476-0.2072029   c0.0226746-0.0652885,0.0442429-0.1268272,0.04496-0.1287689c-0.0020218,0.0057755-0.0019035,0.0054054-0.0051537,0.0146866   c-0.016777,0.04776-0.0418816,0.1121788-0.0781059,0.1743126c-0.0362244,0.0621719-0.0766296,0.1246452-0.1206856,0.1877785   c-0.0440559,0.0631752-0.092083,0.1268959-0.1283531,0.1756821c-0.0362663,0.0487862-0.0722237,0.0928078-0.1329308,0.1606255   c-0.0607109,0.0678177-0.1445313,0.1593323-0.2509308,0.2745781c-0.0358543,0.0388451-0.0769196,0.0818596-0.1170044,0.1240807   c-0.1867714,0.1474609-0.3544083,0.3111496-0.5034904,0.4906616c-0.2385864,0.0986633-0.5176697,0.4237747-0.8407288,0.9958687   c-0.2563438,0.4918823-0.4363213,0.8641281-0.5398941,1.116745l-0.9178123,2.3134308   c-0.0088348,0.0289803,0.0053978,0.0114326,0.0427055-0.0526466c0.2921486-0.541687,0.5325394-0.962822,0.7211723-1.2633934   c0.396843-0.6056633,0.6821136-1.010807,0.8684616-1.2380524c0.0157166,0.3800697,0.1134758,0.6975555,0.3037796,0.9444466   c0.0871506,0.1159859,0.1981697,0.2225609,0.3330917,0.3196793l0.581707,0.362648   c0.0988541,0.069931,0.2017365,0.1365662,0.3083954,0.1968307c0.1918564,0.1083565,0.3918114,0.1975975,0.599453,0.2678108   c0.2076416,0.0701752,0.4243736,0.1154709,0.5323868,0.1426201c-0.1078949-0.0275612,0.0001183-0.0004921-0.2086868-0.0718842   c-0.100956-0.043869-0.2968674-0.1349258-0.4811363-0.2409134s-0.3574677-0.2262802-0.5191154-0.3621559   c-0.1616478-0.1358795-0.3117256-0.2856979-0.4186211-0.4172935c-0.1068535-0.1316338-0.1971054-0.268856-0.2698097-0.4114685   c-0.0727005-0.1426163-0.1293259-0.2901955-0.1714783-0.4430466c-0.0421562-0.152813-0.0707283-0.3064919-0.0790863-0.4397697   c-0.0084-0.1332741,0.0009651-0.2709618,0.0229759-0.4091339C45.3828087,55.5799484,45.4163437,55.440567,45.4600716,55.2986298z"/><path d="M63.7837524,46.1739006c-0.1710434-0.1648369-0.3866043-0.3395424-0.6467171-0.524086   c-0.0288048-0.0210762-0.0517654-0.0345879-0.0796928-0.0545235c0.0067024,0.0038567,0.0162086,0.008873,0.0225792,0.0125694   c0.1092415,0.0631485,0.1762352,0.1037064,0.2734985,0.1711922c0.0972672,0.0675278,0.2235069,0.1601143,0.3779831,0.277317   c0.1544724,0.1171989,0.3389549,0.2565689,0.4572868,0.34375s0.1504059,0.1068611,0.1844406,0.1260643   c0.0340347,0.0192451,0.0700836,0.0380974,0.1068039,0.0587044c0.0366821,0.020649,0.0745316,0.0427208,0.1040192,0.0592308   c0.0047989,0.0026894,0.0043411,0.0024109,0.0076141,0.0042572c-0.0033112-0.0018883-0.0387955-0.0217705-0.0742111-0.0428886   c-0.0371552-0.0221214-0.0701141-0.0474586-0.1003723-0.0732384c-0.0303421-0.0257797-0.0583038-0.051342-0.0835037-0.0764885   c-0.0251999-0.0251884-0.195549-0.2167625-0.3465347-0.3770027c-0.1509895-0.1602402-0.2821236-0.2893105-0.391346-0.3902397   c-0.1092606-0.1009712-0.1969986-0.1749001-0.2628822-0.2187157c-0.0658836-0.0438576-0.2251358-0.1491699-0.3762894-0.2471504   c-0.1511116-0.0979843-0.2931938-0.1861-0.428688-0.2600098c-0.1354942-0.0739479-0.2621651-0.1384811-0.3827057-0.1919212   c-0.1204948-0.0534401-0.3112564-0.1234512-0.5199356-0.1912727c-0.2086792-0.0677795-0.4372673-0.1284904-0.6849823-0.1848984   c-0.247673-0.0564079-0.5136337-0.114109-0.8015556-0.1677971c-0.2879257-0.05373-0.5328217-0.0786362-0.7552185-0.097332   c-0.2223969-0.0186577-0.4300652-0.0284233-0.6229324-0.0237961c-0.1928253,0.0046692-0.3705215,0.0141563-0.5345001,0.0201912   c-0.1639404,0.0059891-0.4815025,0.0418243-0.7707062,0.0962372c-0.2891579,0.0544128-0.5475273,0.1245346-0.7728271,0.2153969   c-0.2252998,0.0909004-0.4205818,0.1915283-0.5848351,0.2939034c-0.1577759,0.0983925-0.2894173,0.1849594-0.4494629,0.334919   c-0.1489639,0.0708923-0.2352371,0.1171837-0.2439919,0.1330223c-0.185173,0.1177063-0.4029503,0.317543-0.6533318,0.5995445   c-0.2668953,0.3409767-0.4299965,0.637413-0.4892273,0.889389c-0.0125618,0.0529289-0.0088005,0.097641,0.0098572,0.134903   c-0.0472946,0.0830917-0.0474625,0.1354485,0.0011711,0.1560745c-0.0116577,0.016777-0.0309105,0.0438309-0.0701752,0.0990639   c0.0199776-0.0279694,0.0487595-0.0643845,0.0734863-0.0970116c0.0067253,0.0025024,0.0078278,0.0086479,0.0162239,0.0100632   c0.0328789,0.0119896,0.1518059,0.0089455,0.356781-0.0092239c0.4873734-0.1011543,0.872345-0.1552429,1.1549492-0.1623497   c0.0743484-0.0016251,0.1418762,0.0030327,0.2141953,0.0032806c0.1036148,0.0234642,0.2601433,0.0649986,0.4071732,0.1025429   c0.1544456,0.0393829,0.2952003,0.0707207,0.421772,0.0976372c0.1266136,0.0269585,0.2390518,0.0502777,0.4077721,0.0783081   c0.1687164,0.0280342,0.3812294,0.064064,0.5622482,0.0870972c0.181057,0.0230751,0.3300133,0.0404739,0.4472427,0.0527649   c0.1172333,0.012291,0.2038803,0.0189705,0.3075066,0.0269165s0.239109,0.0186119,0.3598785,0.0279846   c0.1207657,0.0093727,0.2268639,0.0180283,0.3187294,0.0182762c0.0918655,0.000206,0.1695442-0.0012589,0.3524513-0.0108528   c0.1829529-0.0096359,0.4539223-0.0276413,0.6843376-0.0441132c0.2304192-0.0164719,0.4203796-0.030262,0.5701752-0.0409241   c0.1497993-0.0106583,0.2600021-0.0184021,0.3708305-0.02882c0.1108284-0.0104218,0.261322-0.0311928,0.4250565-0.0634613   c0.1042137-0.0205612,0.2233543-0.0525627,0.3385887-0.0816002c0.0610352-0.0024872,0.1198463-0.0053139,0.1675911-0.0098534   c0.0789223-0.0035324,0.1712341-0.0170059,0.2711525-0.0361176c0.0073662,0.0043831,0.0091629,0.0102348,0.0220146,0.0132751   c0.7755127-0.0531769,1.4780731-0.0192909,2.1077194,0.1016617c0.0852432,0.0025101,0.1139221-0.0156326,0.0860901-0.0543365   C64.5962524,46.9545441,64.3087234,46.6593857,63.7837524,46.1739006z M58.690506,46.845562   c-0.1396904-0.0023613-0.1988754-0.0030594-0.2893715-0.0086212c-0.0905342-0.0055618-0.2153625-0.0145569-0.3735085-0.0279808   c-0.1581078-0.0134239-0.3495789-0.0286903-0.5745392-0.042057c-0.1081657-0.0064507-0.186779-0.0110931-0.2531509-0.015152   c-0.0093117-0.00243-0.022831-0.0064087-0.0311127-0.0084381l-1.2002258-0.273407   c0.0216484,0.0004272-0.2003479-0.038559-0.6659393-0.1169281c-0.1089211-0.0142822-0.2129669-0.0197601-0.3120956-0.0164261   c-0.0222588,0.0031929-0.0400734,0.0137672-0.0616188,0.0181427c0.1147537-0.1235657,0.2291832-0.2336121,0.3431625-0.3235741   c0.0147896-0.0325432,0.3268051-0.2559357,0.9360085-0.6702194c0.0158195-0.0386353,0.2881775-0.1493416,0.7868729-0.3236961   c0.0071068,0.0692291,0.015934,0.1411896,0.0315361,0.2232895c0.0946198,0.3552246,0.2385559,0.6511879,0.4317703,0.8879814   c0.350647,0.4031906,0.8103218,0.629261,1.3670387,0.6977425C58.7788429,46.8457718,58.7411118,46.8464088,58.690506,46.845562z    M61.9803276,46.7591553c-0.008316,0.0082779-0.0246239,0.0176773-0.0369987,0.0265388   c-0.0551643,0.0086136-0.1192284,0.0215302-0.1713791,0.0283012c-0.1689987,0.0219879-0.3211937,0.0378914-0.4581223,0.046257   c-0.1369743,0.0083618-0.2160034,0.0133324-0.3360405,0.0163956c-0.1200371,0.0031013-0.2816849,0.0019188-0.4842567-0.0012589   c-0.2026176-0.0031357-0.4460449-0.0090866-0.7301598-0.0144882c-0.2841606-0.0054016-0.3456116-0.0069351-0.4224663-0.0117226   c-0.0238762-0.0015068-0.0594635-0.0000763-0.0864067-0.0005608c0.5096245-0.0588913,0.912674-0.2927475,1.1952324-0.7243004   c0.1631622-0.2226448,0.2764626-0.5283546,0.3399353-0.9171753c0.0052376-0.0475349,0.0054398-0.0839233,0.0084-0.1263809   c0.7290039,0.2934608,1.1871223,0.6475906,1.360878,1.0655594C62.2431374,46.3936348,62.1835976,46.5978966,61.9803276,46.7591553z   "/><path d="M37.3829041,46.3657951c0.012989-0.0023384,0.0150528-0.0080719,0.0226402-0.0121117   c0.0987778,0.0242271,0.1902924,0.0424652,0.2689476,0.0500679c0.0475159,0.0070038,0.1061516,0.0128822,0.1670799,0.0185242   c0.1134911,0.0349274,0.2307549,0.0729675,0.3337021,0.0988655c0.1618538,0.0406837,0.3110695,0.0691681,0.4212036,0.0852852   c0.1101761,0.0161171,0.2198219,0.0295296,0.3688736,0.0478706c0.1490517,0.018383,0.3380814,0.0419731,0.5673332,0.0702782   s0.4989166,0.0602493,0.681118,0.0792885c0.1821976,0.0190353,0.259716,0.0244713,0.351429,0.0289917   c0.0917549,0.0045204,0.1982002,0.0013428,0.3192596-0.001812c0.1210632-0.0031128,0.2569427-0.0068245,0.3608475-0.0093956   c0.1039047-0.0026131,0.190773-0.0048485,0.3084717-0.0110435c0.1177368-0.0062332,0.2673798-0.0159454,0.449337-0.0296364   c0.1819916-0.0136909,0.3960838-0.0387039,0.5660172-0.0580368c0.1699333-0.0192871,0.2834663-0.0368042,0.4112549-0.0571671   c0.1278267-0.0203667,0.2700233-0.0443993,0.4262543-0.0757942c0.1486931-0.0299072,0.3070335-0.0633011,0.4117317-0.0814476   c0.072319,0.0034904,0.1400185,0.0023155,0.2142944,0.0077972c0.2818527,0.0216064,0.6635361,0.0954781,1.1450424,0.221611   c0.2037582,0.0287018,0.3223877,0.037899,0.3558083,0.027626c0.0084457-0.0009689,0.0098495-0.0071068,0.0167198-0.009243   c0.0230103,0.0338364,0.0498886,0.0716896,0.0684013,0.1006584c-0.0363998-0.0571594-0.054203-0.0851898-0.0649757-0.1025505   c0.0496292-0.018116,0.0521355-0.0704231,0.0092239-0.1557961c0.0204926-0.0362282,0.0265884-0.0806961,0.0168037-0.1342049   c-0.0461769-0.2546844-0.1937943-0.5591469-0.4427643-0.9133873c-0.2355385-0.2945328-0.4427185-0.5053635-0.6215858-0.6324425   c-0.0079231-0.0162849-0.0917549-0.0669403-0.2368736-0.1454086c-0.1520309-0.1580505-0.2791023-0.2512817-0.431591-0.3576241   c-0.1587486-0.1107025-0.3485794-0.2212982-0.5689011-0.3236732c-0.2202797-0.1023331-0.4746933-0.1856804-0.7607193-0.2549133   c-0.2859802-0.0692787-0.6012344-0.1213913-0.7646904-0.1358566c-0.163456-0.0144272-0.3403969-0.0330772-0.5327644-0.0476303   c-0.1923676-0.0145988-0.4002533-0.0155334-0.6233101-0.0083504c-0.2230606,0.0071793-0.4688911,0.0194511-0.7592316,0.0582314   c-0.2902985,0.0388222-0.5588913,0.0827484-0.8091736,0.1263275c-0.2502441,0.0435333-0.4816513,0.0923805-0.6935349,0.1493568   c-0.2118835,0.0569344-0.4060287,0.1170998-0.529129,0.1642189c-0.1231422,0.0471649-0.252964,0.1050873-0.3920784,0.1719551   c-0.1391182,0.0668259-0.2855339,0.1475449-0.4415245,0.2375793s-0.3204765,0.1870308-0.3885117,0.2274284   c-0.0680733,0.0403557-0.159523,0.1096687-0.2738075,0.2048492c-0.1142883,0.0951805-0.2518921,0.2173424-0.410923,0.3695869   c-0.1590347,0.1522484-0.3390427,0.334816-0.3655205,0.3586349c-0.0264359,0.023819-0.0556984,0.0479202-0.087307,0.072094   c-0.0315628,0.0241699-0.0658035,0.047802-0.1040306,0.0679893c-0.0382271,0.0201912-0.0785904,0.0401192-0.0785904,0.0401192   C35.243,45.9034882,35.243,45.9034882,35.2732849,45.8885307c0.0302391-0.0149536,0.0692062-0.0350723,0.1069183-0.0537758   c0.0377502-0.0187454,0.0747032-0.035675,0.1096764-0.053154c0.034977-0.017437,0.0680161-0.0354271,0.1906929-0.1163788   c0.1226349-0.0809975,0.314064-0.2106895,0.4743729-0.3197517c0.1603127-0.1090622,0.2911415-0.1950455,0.3917503-0.2574463   c0.1006508-0.0624046,0.169632-0.0994873,0.2820091-0.1569061c0.0065689-0.0033646,0.0162849-0.0078812,0.0231819-0.0113754   c-0.0289268,0.0185127-0.0525475,0.0307999-0.0824051,0.0503502c-0.269268,0.1709099-0.493576,0.3342781-0.6728516,0.4900627   c-0.5492783,0.4577637-0.851635,0.7377472-0.9070702,0.8399124c-0.0298424,0.0372086-0.0020828,0.056778,0.0831528,0.058712   C35.907753,46.2704353,36.6111488,46.2727737,37.3829041,46.3657951z M42.4150124,45.760685   c0.2051659-0.2265358,0.3641396-0.5147057,0.4769287-0.8645554c0.0198059-0.0812302,0.032383-0.1525955,0.0430222-0.2213898   c0.4890785,0.199791,0.7553024,0.3244247,0.7691422,0.3637962c0.5870476,0.4451256,0.887146,0.6843185,0.9002495,0.7175789   c0.1092415,0.0957146,0.2178268,0.2116013,0.3260498,0.3408775c-0.0213394-0.0054855-0.0385666-0.0169716-0.0606728-0.0213356   c-0.0987854-0.0084572-0.2029686-0.0083466-0.3125038,0.0003319c-0.4690285,0.0542755-0.6926956,0.0817528-0.6710472,0.082428   l-1.2127304,0.2112389c-0.008358,0.0016251-0.0219536,0.0048332-0.0313301,0.0067596   c-0.0665207,0.0006256-0.1453972,0.0012817-0.2537994,0.0021439c-0.2253456,0.0017891-0.4173431,0.007103-0.5759544,0.0123711   c-0.1586075,0.0052681-0.2837448,0.0078163-0.3744049,0.0087051c-0.0907021,0.000885-0.149826-0.0014572-0.2894669-0.0062828   c-0.0506134-0.0017471-0.0882645-0.0043144-0.1347313-0.0062828C41.5732765,46.3473511,42.0440292,46.145298,42.4150124,45.760685z    M37.7207298,45.5163651c0.1950493-0.4084511,0.6707726-0.7385674,1.4139442-0.9940796   c0.0007362,0.0425758-0.000946,0.0789375,0.0018692,0.1266632c0.0433731,0.3915901,0.1408081,0.7027168,0.2922249,0.9334602   c0.2599678,0.4455528,0.6504745,0.6998367,1.156353,0.7849274c-0.0269508-0.0008965-0.0623894-0.0041466-0.0863266-0.003891   c-0.0770302,0.0008392-0.1384811-0.0008125-0.4225235-0.0100784c-0.2840004-0.0092201-0.5274391-0.015831-0.7299385-0.0231133   c-0.2024612-0.0072861-0.3639412-0.0144653-0.4836769-0.0236855c-0.1197395-0.0092659-0.1984138-0.0183029-0.3347359-0.0337219   c-0.1363678-0.015419-0.2875366-0.0391579-0.4551811-0.0697899c-0.051693-0.0094566-0.1150131-0.0256233-0.169651-0.0370979   c-0.0119057-0.0094604-0.0276794-0.0196953-0.0355492-0.0283852C37.6728401,45.966053,37.6238899,45.7589989,37.7207298,45.5163651   z"/><path d="M54.124836,42.6705818c0.7047844-0.3204536,1.3429947-0.5625839,1.9146347-0.7263107   c0.4892693-0.1332512,1.0656357-0.2308807,1.7290916-0.2929268c0.3453255-0.0555229,1.1607208-0.0915413,2.4461899-0.107975   c0.1955986-0.0128746,0.9106293,0.0036507,2.1451378,0.049614c0.161644,0.0039749,0.5211143-0.000473,1.0783348-0.0133934   c1.2365646-0.0720787,1.8660126-0.0948944,1.8883591-0.0685234c0.0649033-0.0047913,0.1059113-0.0260849,0.1229706-0.0637894   l-2.6294861-2.2499275l0.811203,1.0481186l-1.0768242-0.5757065c-0.0526047-0.023243-0.0784035-0.0205002-0.0773468,0.008194   l0.2276497,0.1922951c0.0207405,0.0298004,0.0126572,0.0402527-0.0242081,0.0313492   c-0.4848557-0.3183975-0.9345818-0.5238533-1.3491859-0.6163673c-0.0555687,0.0190926-0.0626945,0.056797-0.0214615,0.1131134   l0.4646759,0.5238991c-0.4840279-0.2027283-0.8701897-0.3294792-1.1584435-0.3801651   c-0.2075272-0.0412216-0.2891426-0.0032425-0.2447624,0.1140175c-0.2584038-0.1033745-0.6551361-0.1624794-1.190239-0.1773529   c-0.32164,0.0742836-0.8775253,0.3189583-1.6676903,0.734024c-0.1017952,0.0365868-0.1428566,0.0040436-0.1231842-0.0976334   c-0.0255508-0.0070724-0.0563698-0.0022926-0.0925064,0.0142975l-0.9726486,0.7514534   c-0.0276566-0.0081139-0.0267258-0.0322723,0.0028343-0.0723915c0.2876701-0.40345,0.5600739-0.7602196,0.817131-1.0703163   c0.0585823-0.0901299,0.0587997-0.1286507,0.0006104-0.1154823c-0.2458,0.0706253-0.841568,0.6264572-1.7873535,1.6674957   c-0.0799599,0.0391922-0.0802917-0.0432243-0.0010376-0.247242c0.0573082-0.1723251,0.2208023-0.4802666,0.4904785-0.9238167   c0.021389-0.0465889,0.0043869-0.0498657-0.0510025-0.0097923c-0.2671432,0.2814751-0.4757538,0.5707169-0.6258736,0.8677711   l-0.1463966,0.135006l0.2069283-0.7986794c0.0433884-0.1263275-0.1206779,0.1619492-0.4922028,0.8647842   c-0.0488434,0.0842209-0.2375336,0.4593315-0.5659866,1.1252441C54.0614738,42.509655,54.0453453,42.6320267,54.124836,42.6705818z   "/><path d="M37.7546539,40.9586678c1.2352219,0.017746,1.9501343,0.0380478,2.144825,0.0609932   c1.2828903,0.0826492,2.0953598,0.1606255,2.4373627,0.2338829c0.6593971,0.0961075,1.2299461,0.2233009,1.7117348,0.3815842   c0.5624199,0.1930008,1.187294,0.4676399,1.8746643,0.8240395c0.0813332-0.0344048,0.0715408-0.1574364-0.0294151-0.3691406   c-0.2937202-0.6819572-0.4628258-1.0662689-0.5072746-1.1528969c-0.3348236-0.7210693-0.4838142-1.0173836-0.4469757-0.8890228   l0.165493,0.8083153l-0.139267-0.1423569c-0.1345978-0.3044205-0.328022-0.6040382-0.5803185-0.8988953   c-0.0532646-0.0428658-0.0704002-0.0404739-0.0514488,0.0071297c0.246479,0.4568939,0.3939095,0.7728157,0.4422531,0.9478874   c0.0686302,0.20784,0.0640335,0.2901077-0.0137939,0.2468529c-0.8908806-1.0883942-1.457222-1.6741753-1.69907-1.7573509   c-0.0574074-0.0161591-0.059185,0.0223007-0.0053368,0.1153374c0.2407799,0.3229294,0.4943848,0.6932487,0.7609062,1.1110039   c0.0274582,0.041584,0.0271454,0.0657349-0.0009003,0.0724487l-0.932621-0.8005371   c-0.0352211-0.0184898-0.0657692-0.0248451-0.0916519-0.0191002c0.0144234,0.1025658-0.0282745,0.1329536-0.1280518,0.0911636   c-0.7677383-0.4552231-1.3102989-0.7281837-1.6276779-0.8189545c-0.5351181-0.0127373-0.9344063,0.0258446-1.1977844,0.1157837   c0.0503502-0.1147919-0.0291481-0.1569557-0.2385712-0.1264954c-0.2904587,0.0357819-0.6826134,0.1424408-1.1764641,0.3199806   l0.4910202-0.4992485c0.0440865-0.0541,0.038929-0.0921478-0.0155945-0.11409   c-0.4188423,0.0710182-0.8785515,0.2530594-1.3791313,0.546032c-0.0372849,0.0069962-0.0448112-0.0038338-0.022583-0.0325279   l0.2372818-0.1803284c0.0025177-0.028614-0.0231171-0.0326462-0.0768623-0.0121384l-1.1050262,0.5194473l0.8641052-1.0049515   l-2.7419128,2.1114769c0.0150986,0.0385361,0.0549393,0.0618973,0.1195107,0.0700417   c0.0237083-0.0252228,0.6511421,0.0300522,1.8823318,0.1657066C37.2342186,40.9313736,37.5929642,40.9543228,37.7546539,40.9586678   z"/><path d="M53.183857,43.0381279c0.1264801-0.2006226,0.4719009-0.6757126,1.0363007-1.425148   c0.0508652-0.0998497,0.0588379-0.1352654,0.0238876-0.106205l-0.344738,0.3554573   c-0.0218048,0.0196991-0.0289459,0.0201569-0.0214615,0.0013771c0.0466919-0.1117859,0.1002502-0.2262077,0.1607513-0.3433418   c0.1625175-0.2580338,0.3016205-0.5032082,0.4171906-0.7355614l0.0160751-0.3174744   c-0.1140289,0.0238876-0.29142,0.2514305-0.5322227,0.6825485l-0.6842918,1.4672737   c-0.0872154,0.1943436-0.1454544,0.3286591-0.1747513,0.4028206c-0.0093193,0.0197868-0.0156784,0.0432701-0.0190353,0.0704994   C53.0670967,43.1552696,53.1078606,43.1378403,53.183857,43.0381279z"/><path d="M46.2114639,41.6659584c0.0065231,0.0191803-0.0006332,0.0183258-0.0213852-0.0024834l-0.3259125-0.3727417   c-0.0334435-0.0308342-0.0273285,0.004982,0.018383,0.1073189c0.5250053,0.7775421,0.8455124,1.2697296,0.9614792,1.4766464   c0.0707359,0.1035042,0.110527,0.1230049,0.1194115,0.0584641c-0.0019455-0.0273666-0.0070457-0.0511627-0.0153465-0.0713844   c-0.0254631-0.075573-0.0767021-0.2126656-0.1537552-0.4112778l-0.6077957-1.5006142   c-0.2182541-0.442955-0.3837433-0.6792717-0.4963875-0.709034l-0.0002594,0.3178482   c0.1034622,0.2380371,0.2296829,0.4900398,0.3787498,0.7561264C46.1229973,41.4348831,46.1706161,41.5519371,46.2114639,41.6659584   z"/><path d="M48.8276138,88.9535446c0.4171524,0.0172501,0.8338203,0.0287933,1.2448006,0.0283813   c1.686367-0.0017319,3.2782326-0.1558685,4.7751923-0.4810028c0.3640099-0.0519409,0.4067459-0.0627365,0.1782112-0.0436172   c0.3218575-0.0734253,0.6454353-0.1437073,0.9578781-0.2342987c1.8160248-0.5266495,3.4700813-1.3069458,4.8099174-2.2471313   c1.3397942-0.9401779,2.3905945-1.812851,3.291317-2.6678772c0.9006805-0.8551102,1.6390533-1.7010422,2.246521-2.5072708   c0.6074677-0.8061905,1.0778809-1.5811462,1.3930054-2.390213c0.3151703-0.809021,0.4654007-1.6100693,0.4660797-2.337471   c0.0006866-0.7274017-0.1550522-1.3797073-0.470108-1.9485092c-0.0965881-0.1743469-0.2094269-0.3346176-0.3258209-0.4864197   c-0.3444138-0.5159531-0.7745438-0.9308395-1.30159-1.2311783c-0.3000107-0.2319183-1.0923004-0.614563-2.3768768-1.1478424   c-0.0644951-0.0280685-0.1050873-0.0328522-0.1555748-0.0472565c-0.0000992-0.2314835,0.0023346-0.4541702,0.0096321-0.6719513   c0.0166092-0.4947128,0.0315208-0.9970093,0.0483818-1.4255676c0.0168228-0.428566,0.0376091-0.7828903,0.0648804-1.0617371   c0.0272751-0.2788086,0.0581017-0.4803314,0.1136971-0.8063049c0.0556335-0.3259354,0.1266174-0.7611694,0.1786728-1.1172791   c0.0521011-0.3561172,0.092598-0.6315918,0.126152-0.8251419c0.0335159-0.193512,0.0554886-0.3047409,0.1010208-0.5193481   c0.0029068-0.0136642,0.0067902-0.031456,0.0098953-0.0460739c0.010994-0.0170593,0.0214157-0.0312271,0.0324097-0.0484543   c0.7154617-1.1191406,1.4093323-2.4145966,1.9749603-3.6509972c0.5656204-1.2364044,1.0566025-2.3893318,1.4234085-3.4800949   c0.1329956-0.3954773,0.2512589-0.7832184,0.3639832-1.1742554c0.1710892,0.1155968,0.3870926,0.1416855,0.5943909,0.0663261   c0.2420883-0.0880318,0.4806366-0.2590523,0.6321335-0.3997879c0.1515427-0.1407356,0.2030716-0.2001038,0.255188-0.2654724   c0.0520782-0.0653687,0.103157-0.1384048,0.1565018-0.2171783s0.1058044-0.1656265,0.2011108-0.3700485   c0.0953445-0.2044258,0.2354431-0.4620972,0.3682785-0.6735992c0.1328278-0.2115059,0.2347565-0.3888664,0.3168259-0.5252037   c0.0820694-0.1363335,0.1403809-0.2313499,0.1756134-0.291008c0.0352249-0.0596123,0.0666122-0.1077652,0.1471176-0.2214966   s0.206398-0.2791939,0.3908081-0.4809952c0.1843643-0.2017593,0.4068527-0.4554062,0.5805511-0.6695976   c0.1737366-0.2142334,0.2454376-0.3224335,0.3132172-0.4325981c0.0677338-0.1102028,0.1296844-0.2233315,0.1848602-0.3395386   c0.0551834-0.1162453,0.1051559-0.2345238,0.1508255-0.3490524c0.0457153-0.1144867,0.0865402-0.2324409,0.1279373-0.3568115   c0.0414429-0.1244125,0.085556-0.2551003,0.1264801-0.394249c0.0409698-0.1391068,0.0809402-0.286171,0.1192093-0.6050262   c0.0382767-0.3189011,0.0796814-0.7251434,0.132576-1.0635262s0.0962219-0.6109428,0.1283569-0.8161774   c0.0320969-0.2052383,0.054451-0.3386497,0.1035614-0.5554733c0.049118-0.2167816,0.1444092-0.5337639,0.2325363-0.8233528   c0.0881195-0.2896233,0.1641617-0.5533104,0.2400818-0.7872658s0.1504135-0.4381599,0.1875305-0.5632973   c0.037117-0.1250954,0.048317-0.1723785,0.0613022-0.2239151c0.0129929-0.0514946,0.0278168-0.1074448,0.0452576-0.1678238   c0.0174332-0.060379,0.0356293-0.1257782,0.0678558-0.428833c0.0303879-0.2862778,0.0291901-0.7008171-0.0135956-1.0616989   c-0.0100861-0.2419548-0.0375137-0.4684563-0.0964203-0.6669273c-0.1173935-0.3406906-0.278801-0.6248589-0.4842987-0.8525429   c-0.169754-0.1600075-0.2752762-0.2443924-0.3165741-0.2531548c-0.0749741-0.0416908-0.1529922-0.0737305-0.2340851-0.0961266   l-0.1239319-0.0262527c-0.3917694-0.0428619-0.7872543,0.0769806-1.1862335,0.3504944   c0.4142227-1.7948914,0.5210495-3.866703,0.3161392-6.2193222c-0.4200974-3.2332916-0.7752075-5.2660675-1.0653458-6.0984097   c-0.2158966-0.8386517-0.4585876-1.6436615-0.726799-2.4166927c-0.1495056-0.62323-0.4581146-1.5933609-0.9307404-2.9210548   c-0.8449173-1.8271179-2.5103836-3.967741-4.9963913-6.4217491c-1.996994-1.9078283-3.9678574-3.147644-5.91259-3.7194471   c-2.738472-0.9581242-5.4272423-1.3075819-8.0663567-1.0484562l-0.3539963,0.0384264   c-0.9431839,0.1122732-1.8800125,0.3025322-2.8104858,0.5708189c-0.8986855,0.275363-1.7018509,0.5867786-2.4095001,0.934247   l-0.3754082,0.2079239c0.3043175-0.316721,0.6187439-0.6200581,0.9503288-0.9007769   c1.0901375-0.9782085,2.4270973-1.9151497,4.0108833-2.8108664l-0.8569527,0.2662582   c-0.5491676,0.1773663-1.0541534,0.3545094-1.5149536,0.5313454l-0.6580048,0.2650871   c-0.4165382,0.1766119-0.7888908,0.3529596-1.1170616,0.5290422c-0.5994759,0.3022184-1.135746,0.7033119-1.6087723,1.2032394   c-0.5554008,0.5659637-0.9768791,1.1523476-1.2845917,1.7560349c-0.1446609-0.3340664-0.2847137-0.6215401-0.418335-0.8447027   c-0.1814041-0.3035469-0.3942604-0.5743418-0.6386185-0.8123426c-0.3605499-0.3578548-0.8038902-0.6403065-1.3300171-0.8473129   c-0.5681114-0.230916-1.4211655-0.4843063-2.5592117-0.7602119l-0.0054932,0.0007257   c-0.0137672,0.0024719-0.0203018,0.0085487-0.0196037,0.0183144c0.1644592,0.101511,0.5339737,0.3616838,1.1085777,0.7804747   L38.9036255,13.5688c0.314846,0.2592125,0.6139526,0.5604677,0.8973198,0.9037237   c0.0576668,0.0697889,0.1112518,0.1546583,0.1629868,0.2463274c-0.5371399-0.1023169-1.1366463-0.1543283-1.8174629-0.140729   l-0.2621956,0.0336237c-0.5162697,0.0822992-0.9833717,0.2546158-1.4013443,0.5168676   c-0.0646629-0.0153313-0.5354271,0.3897076-1.4123268,1.2152395l-0.930603,1.059906l-0.8504982,1.1969242l-0.7703476,1.3339043   l-0.2491608,0.5310097c-0.5245914,0.7836361-1.0774002,1.7508163-1.6622696,2.9260254   c-0.7199955,1.4462872-1.3295746,3.6838779-1.8287754,6.7129002c-0.1581974,1.066843-0.2609062,2.1378403-0.3081665,3.2129478   l-0.029211,1.6157532c0.0082321,1.0792618,0.0719929,2.16259,0.1912022,3.2500725   c0.0245647,0.2240753,0.0615425,0.4491043,0.0908356,0.6735306c0.0083046,0.3721924,0.0270443,0.7215919,0.0662365,1.021946   c0.0527706,0.4043274,0.095026,0.7624245,0.1874294,1.2984848c0.0019035,0.0110245,0.0046997,0.024498,0.0066452,0.0356865   c-0.1891594-0.2474365-0.3277969-0.4052429-0.4112072-0.4649391c-0.4007435-0.3209686-0.8064384-0.4696465-1.2170849-0.4460373   l-0.1250839,0.0198402c-0.0821495,0.0181503-0.1617126,0.0461655-0.2387314,0.0839615   c-0.0416813,0.0065994-0.1514091,0.0854187-0.3291817,0.2364616c-0.2169495,0.2167854-0.3928394,0.4923172-0.5275879,0.8265076   c-0.0690556,0.1952248-0.1081314,0.4200516-0.130703,0.6612244c-0.0613518,0.3581581-0.0838585,0.7719688-0.0682335,1.0593948   c0.016573,0.3043327,0.0313644,0.370594,0.0456791,0.4317665c0.0143166,0.0612144,0.0262356,0.1178589,0.0365372,0.1699638   c0.0103016,0.0521088,0.0190716,0.0998802,0.0496902,0.226757c0.0306187,0.1268806,0.0944843,0.3346519,0.1582298,0.5722008   c0.0637856,0.237545,0.1261768,0.5047989,0.1992073,0.7985725c0.0730724,0.2937737,0.1519108,0.6152344,0.1898003,0.8342552   c0.0378895,0.2190628,0.0533257,0.3534393,0.0748386,0.5600586s0.0507317,0.4810638,0.0861149,0.8217087   c0.0354271,0.3406487,0.0558414,0.7485428,0.0776253,1.0689507c0.0217857,0.3204079,0.0541172,0.4693146,0.0878296,0.610363   c0.0337524,0.1410904,0.0710564,0.2738838,0.1060219,0.4002151c0.0349236,0.1263733,0.0696449,0.2462616,0.109375,0.3629646   c0.039732,0.116745,0.0835381,0.2374229,0.1326599,0.3563499c0.0491219,0.1188889,0.1051502,0.2350998,0.1671391,0.3486099   c0.0619907,0.1135101,0.1280231,0.2252884,0.290472,0.4481735c0.1624889,0.2228851,0.3715744,0.487606,0.54529,0.6986465   c0.1737576,0.2109985,0.2909679,0.3827057,0.3654938,0.5004539c0.0745678,0.1177483,0.1034431,0.1674461,0.1355419,0.2288094   c0.0321007,0.0613594,0.0854359,0.1592903,0.160368,0.2996597c0.074934,0.1403694,0.1675968,0.3227768,0.2893715,0.5408287   c0.1217327,0.2180977,0.2483978,0.4826202,0.3330593,0.6916924c0.0846195,0.209034,0.1325932,0.2984886,0.1817818,0.3799248   c0.0492268,0.0813904,0.0964527,0.1569786,0.1451015,0.2249489c0.0486507,0.0679703,0.0971012,0.1299095,0.2411633,0.278244   c0.1440639,0.1483765,0.3734856,0.3314514,0.6107006,0.4318085c0.2031155,0.0859566,0.420166,0.0710487,0.5970154-0.0355911   c0.0923824,0.3963585,0.1905556,0.78965,0.3030033,1.1914215c0.3101368,1.1082191,0.7410393,2.2849426,1.2422256,3.5488319   c0.5011482,1.2639313,1.1273346,2.5933609,1.7841911,3.7479172c0.0101166,0.0177803,0.0197868,0.0324402,0.0298615,0.0500565   c0.0023613,0.0147552,0.0053368,0.0326996,0.0075226,0.0465164c0.0344505,0.2166824,0.0506363,0.3288727,0.0741386,0.5238876   c0.0235443,0.1949692,0.0498009,0.4722061,0.083477,0.8305283c0.0336342,0.3583298,0.0821075,0.7966309,0.1208687,1.1250381   c0.038723,0.3283691,0.0591202,0.5311813,0.0719795,0.8110504c0.0128632,0.2798615,0.0153656,0.6348419,0.0101318,1.0636673   c-0.0052757,0.4288712-0.0162468,0.931282-0.0251732,1.4261856c-0.0039368,0.2173691-0.0138702,0.4411392-0.025856,0.6717453   c-0.0509377,0.0117645-0.0914345,0.0144043-0.1568756,0.0389633c-1.3103981,0.4664078-2.1213646,0.8076935-2.4328957,1.0238953   c-0.5416527,0.2726669-0.9923744,0.6646805-1.3628941,1.1619339c-0.1242085,0.1457367-0.2453117,0.3001709-0.3508682,0.4694901   c-0.3439274,0.5518265-0.5330811,1.1952591-0.5698738,1.9217148s0.0719414,1.5341644,0.3450184,2.3583908   c0.273035,0.8242188,0.7028618,1.6223755,1.2679844,2.4587936c0.5651226,0.8364639,1.2589512,1.7193222,2.1143818,2.6196671   c0.8554764,0.9003448,1.8598785,1.8259735,3.1494865,2.8339462s2.9012604,1.8724213,4.6877518,2.491951   c0.3073921,0.1065826,0.6268997,0.1934738,0.9445953,0.2833786c-0.2273941-0.0308762-0.1852646-0.0179749,0.1755142,0.0526657   c1.4782448,0.4018326,3.0601158,0.6378632,4.7442055,0.7264633C47.9941368,88.9393616,48.4104996,88.9492722,48.8276138,88.9535446   z M28.1321163,41.7136612c0.0032215,0.0048065,0.0066719,0.0081329,0.0098534,0.0130196l-0.0157356-0.0169678   C28.1282234,41.7110405,28.1301689,41.7123299,28.1321163,41.7136612z M30.5085068,53.1938171   c-0.0324516,0.1700478-0.071434,0.2973442-0.1169453,0.3819313c-0.000494,0.0228806-0.0831509,0.1384468-0.2223377,0.317997   c-0.0620899-0.1248016-0.1397209-0.2971268-0.2062454-0.4646645c-0.1040058-0.2618866-0.1915054-0.4843941-0.2720966-0.6635818   c-0.0805912-0.1791496-0.1455135-0.3203011-0.1956444-0.4146576c-0.050169-0.0943565-0.0694485-0.1385918-0.138937-0.2442474   c-0.0694885-0.1056938-0.1742153-0.2477455-0.309288-0.4423103c-0.1350727-0.1945229-0.3003178-0.4441071-0.509449-0.732193   c-0.2091331-0.2880478-0.2457333-0.3613434-0.2963696-0.4600487c-0.0506763-0.0987434-0.0970154-0.1986961-0.1431427-0.298111   c-0.0461254-0.0993767-0.0902481-0.1993561-0.1311855-0.300972c-0.0408974-0.1015778-0.0735149-0.1943893-0.1046696-0.2952271   c-0.0311565-0.1008759-0.0568218-0.2125397-0.0774784-0.3342476c-0.0206985-0.1217461-0.0404835-0.2523766-0.058012-0.3800735   c-0.0175285-0.1277008-0.066597-0.5709648-0.0996418-0.9609604c-0.0330849-0.3899956-0.0559387-0.7169571-0.0841999-0.9806137   c-0.0282631-0.2636566-0.0609741-0.4659081-0.0983448-0.6073608c-0.0373726-0.1414566-0.1264381-0.4829102-0.1998806-0.7997971   c-0.0734844-0.3168449-0.1415386-0.606781-0.2109604-0.8681145c-0.0693817-0.2613754-0.1308403-0.4966927-0.1901188-0.7020187   c-0.0593185-0.205368-0.0674553-0.22892-0.0788975-0.2703743c-0.0114422-0.0414963-0.0219784-0.0893707-0.0316868-0.1433754   c-0.0097103-0.0540428-0.0191231-0.1139221-0.0249386-0.1587334c-0.0058174-0.0448532-0.0495186-0.5054703-0.0514278-0.8685875   c-0.0007725-0.1506195,0.01161-0.2737656,0.0259609-0.3905296c0.0426826-0.0873451,0.0828571-0.1751518,0.1320419-0.2614708   c0.1380615-0.236618,0.3110104-0.3860397,0.5140972-0.4601974c0.0857735,0.005703,0.1778755,0.0182266,0.2837505,0.0517273   c0.0348377,0.0110245,0.0735378,0.0288124,0.1108952,0.0441589l0.2712574,0.4124794   c0.3437309,0.4282875,0.5934124,0.7572212,0.7490463,0.9868431c0.1071243,0.1566391,0.2343807,0.3664131,0.3817234,0.6294022   c0.1801682,0.3329659,0.3880138,0.9124718,0.6231194,1.7344971c-0.1550388-0.2938156-0.3141556-0.5689392-0.4796982-0.8159714   c-0.1919041-0.2864151-0.3938694-0.5398102-0.6062202-0.7569389c-0.2123108-0.2171288-0.3701515-0.3638153-0.5361862-0.4695778   c-0.1660366-0.1057625-0.3377762-0.1620522-0.5106678-0.1691322c-0.1728935-0.0071182-0.3421974,0.0427551-0.4278278,0.0748711   c-0.1743374,0.0744934-0.0856323,0.0321159-0.1743374,0.0744934c0.0887051-0.0423775,0.2641754-0.0886345,0.4278755-0.080986   c0.1636581,0.0076447,0.3133488,0.0509033,0.454443,0.1325035c0.1410942,0.0816422,0.2751102,0.2048874,0.4368572,0.3913155   c0.1617451,0.18647,0.3414783,0.4222374,0.515028,0.6857224c0.1735497,0.2634811,0.3321285,0.5611954,0.479517,0.8903008   c0.0559311,0.1248779,0.1072426,0.2547035,0.1580868,0.3833008l-0.0370636-0.0216293   c0.0411243,0.251297,0.018219,0.4655342-0.0686798,0.6426277l-0.6028461,0.890152   c-0.085413,0.1349792-0.1509705,0.2683601-0.1967525,0.400219c-0.0904408,0.2683411-0.1121845,0.529583-0.0652752,0.7836418   c0.0334606,0.1768227,0.1178608,0.3550606,0.2531567,0.5346718c0.605854,0.6256561,0.9709473,1.0513382,1.0952816,1.2771225   c0.1262245,0.1799736,0.2840576,0.4870987,0.4702587,0.9085274c0.0094013,0.0983963,0.0191498,0.2015533,0.0296726,0.3173103   c0.0334797,0.3690453,0.0764446,0.7969856,0.1179333,1.169384c0.0181808,0.1633759,0.0362949,0.3115578,0.0540848,0.4535484   L30.5085068,53.1938171z M31.0382729,77.5132294c-0.0025864-0.009819-0.0050659-0.0208359-0.0076542-0.0307465   c0.0080605,0.0239258,0.0189266,0.0488815,0.0272751,0.0729218C31.0518456,77.5411911,31.044281,77.5274887,31.0382729,77.5132294z    M71.930809,42.8426247c0.002037-0.0012169,0.0040741-0.0023918,0.0061111-0.0036469l-0.016716,0.0162659   C71.9236832,42.8504753,71.9273376,42.8472672,71.930809,42.8426247z M69.7699738,51.1258698   c0.1358185-0.2190971,0.5223389-0.6254272,1.1596451-1.2190247c0.144371-0.17239,0.2378006-0.3460312,0.2803345-0.5209274   c0.0599747-0.2512894,0.0516968-0.5133057-0.0248108-0.7859688c-0.0388794-0.1340027-0.0975037-0.2706337-0.175827-0.4098091   l-0.5561905-0.9200211c-0.0776596-0.1813583-0.0895081-0.3964767-0.0354996-0.6453514l-0.0381088,0.0196953   c0.0573578-0.1258011,0.1153183-0.2528,0.1776123-0.3745995c0.1641464-0.3210869,0.3378525-0.6102638,0.5247726-0.8644562   c0.1868744-0.2541885,0.3784943-0.4803467,0.5496445-0.6582489c0.1711197-0.1778564,0.3113022-0.294014,0.4564438-0.3682671   s0.2968445-0.1097412,0.4606628-0.1089134c0.1638641,0.0007858,0.3367386,0.0559921,0.4231491,0.1028786   c-0.0864105-0.0468864,0,0-0.1702728-0.0833321c-0.0838547-0.0364838-0.2503738-0.0950584-0.4234009-0.0968361   c-0.1730347-0.0018234-0.3474579,0.0455284-0.5187225,0.1425705c-0.1712646,0.097084-0.3364258,0.2354431-0.5596695,0.4413452   c-0.2232437,0.2059402-0.4379807,0.4485664-0.6444168,0.7247238c-0.1780396,0.2381897-0.3512039,0.5047722-0.5211792,0.790287   c0.2771835-0.808918,0.5146713-1.3769875,0.711731-1.7002525c0.1607437-0.2550125,0.2986069-0.4579582,0.413681-0.6088715   c0.1672821-0.2212982,0.433548-0.5369301,0.7988739-0.9469337l0.2921753-0.3979607   c0.0381088-0.0134125,0.0776672-0.0291405,0.1130295-0.038372c0.1074448-0.0279922,0.200119-0.0357628,0.2860489-0.0370407   c0.1989899,0.0845718,0.3639984,0.2426643,0.4896622,0.4860916c0.0446777,0.0887566,0.0802917,0.1784515,0.1184082,0.267868   c0.0083313,0.1173401,0.0143509,0.2409554,0.0057983,0.3913612c-0.0205994,0.3625374-0.0879745,0.8203125-0.0960846,0.8648071   c-0.0081558,0.0444527-0.0205917,0.1037827-0.0331039,0.1572418c-0.0124741,0.0534172-0.0254822,0.1006813-0.0390549,0.1415482   c-0.0135345,0.0407829-0.0228958,0.0639381-0.0926895,0.2659492c-0.0698318,0.2019691-0.1433105,0.4338379-0.2260437,0.6912842   c-0.0827789,0.2574463-0.1657257,0.543438-0.2554092,0.8561211s-0.196228,0.6490669-0.2408524,0.7883835   c-0.0445786,0.1393585-0.0876999,0.3396797-0.1294785,0.6015015c-0.0418167,0.2618637-0.0815277,0.5872269-0.1346207,0.9749756   c-0.0531006,0.3877869-0.1249237,0.827961-0.1490097,0.9545784c-0.024086,0.1265755-0.0505981,0.2560577-0.077507,0.3765526   c-0.0269547,0.1204948-0.0583038,0.2306938-0.0946426,0.3298302c-0.036293,0.0990906-0.0736313,0.1901054-0.1197433,0.289444   c-0.0461044,0.0993385-0.0952759,0.1969109-0.1464615,0.293808c-0.0512314,0.0968971-0.1026611,0.1943321-0.1583328,0.2903404   c-0.0556793,0.0959663-0.0959778,0.1672668-0.3196869,0.4441719c-0.2237167,0.2769089-0.4015961,0.5176392-0.5465164,0.7049828   c-0.1449203,0.1873474-0.2568054,0.3238068-0.3316269,0.4257622c-0.0748596,0.1019592-0.0964127,0.1451416-0.1513596,0.2367859   c-0.0549088,0.0916481-0.1270294,0.2292557-0.2167435,0.4040413c-0.0897217,0.1747856-0.1885605,0.3924789-0.3059235,0.648674   c-0.0752335,0.164257-0.161911,0.3328056-0.2303696,0.4542694c-0.1348877-0.1932945-0.2059097-0.3065681-0.2051773-0.3298607   c-0.0411224-0.086834-0.073494-0.2159882-0.0971146-0.3875122l-0.0138321-0.249054   c0.0250931-0.1408386,0.0507736-0.2878838,0.0773697-0.4500961c0.0605927-0.3697319,0.1255798-0.7949142,0.1780396-1.161747   c0.0164261-0.1150665,0.0314865-0.2175903,0.04599-0.3153839C69.4612274,51.5976677,69.6346512,51.2990494,69.7699738,51.1258698z    M34.0058403,61.2185593c-0.5675888-1.296772-1.0399551-2.5119095-1.404335-3.6493416   c-0.3643379-1.1374359-0.6377754-2.1910019-0.8144035-3.1675072c-0.0014553-0.0080299-0.0030556-0.0177002-0.0045109-0.0258141   c0.0060978-0.1791229,0.0046101-0.3507957-0.0049152-0.5083275c-0.014864-0.2463722-0.0387135-0.469017-0.0603867-0.6686935   c-0.0216713-0.1996346-0.0395775-0.377224-0.1077881-0.7814827c-0.0682526-0.4042587-0.1785393-0.9979172-0.2876377-1.5095444   c-0.0264339-0.1238899-0.0503597-0.2278557-0.0755253-0.3422394c-0.0111923-0.1004677-0.0227489-0.2003593-0.0335369-0.3013268   c-0.1711063-1.6025352-0.2985935-3.2571907-0.3484306-4.9678879c-0.0379086-1.3017082-0.0481091-2.6339073-0.0449791-3.5960693   c0.1810894-0.907711,0.3121452-1.4913292,0.3900928-1.7308121c0.3183002-1.0875282,0.723711-2.0887604,1.2161522-3.0036888   c0.4413834-0.7678566,1.0327873-1.5811119,1.7742538-2.4397736c0.3986664-0.4365807,0.772583-0.8328934,1.1324539-1.2063637   c0.6161041,0.5191307,1.3525505,1.0729332,2.2303619,1.6674728c1.1663322,0.7225075,1.9118996,1.0990829,2.2367439,1.1298065   c0.0131989-0.0280075-0.0099258-0.0974884-0.0692978-0.2085686c-0.3794022-0.4599953-0.653904-0.8427467-0.8235016-1.1481628   c-0.2178154-0.3783684-0.411869-0.8269615-0.5820847-1.3458748c-0.1300697-0.3365059-0.2547684-0.9265785-0.3741722-1.7701702   c-0.0090294-0.0816479-0.0108566-0.1655617-0.0177994-0.2478523c0.6314201,0.9957066,1.4163742,2.0462475,2.3565903,3.152338   c0.971138,1.0041924,1.5702667,1.5845146,1.7974625,1.7409286c0.4200287,0.3590813,0.8538284,0.6996803,1.3013191,1.0217476   c0.8950233,0.6441383,1.8449669,1.2142448,2.8498344,1.7102814c-0.6447296-0.6312904-1.2138977-1.3116112-1.7075844-2.040966   c-0.147049-0.1670227-0.4748268-0.7416611-0.9834175-1.7238731c-0.0204124-0.0430679-0.0352058-0.0898628-0.055172-0.1332245   c1.0435867,0.8077354,2.0823631,1.4573441,3.1162033,1.9450951c0.2276611,0.1475754,1.1965828,0.5667763,2.9067192,1.2575645   c0.7174225,0.2735634,1.4824715,0.5432053,2.2951927,0.8089294c0.0510597-0.0185013,0.0598564-0.0471954,0.0263939-0.0861588   c-0.5620728-0.4906883-1.2032814-1.2311745-1.9236679-2.2214966c-0.1146126-0.1708374-0.2174377-0.3315582-0.3206329-0.4925575   c1.4746704,0.2935448,3.0287628,0.1170502,4.6643295-0.542202c-0.7204285-0.1759148-1.4131813-0.7820892-2.0782509-1.8185654   c-0.1748962-0.1246643-0.658123-1.1440697-1.4496765-3.0582161c-0.1741562-0.4697056-0.3458595-0.9766483-0.5156822-1.5134678   c0.4004326,0.8120747,0.8701553,1.5689526,1.4267654,2.2566605c0.6001511,0.7344265,1.4613304,1.4933949,2.5834999,2.2767811   l0.5919418,0.3734436c2.3574638,1.2011452,3.6555405,1.8977814,3.8942299,2.0898972   c0.8176003,0.6398926,1.5962791,1.4379997,2.336071,2.3943253l0.0402451-0.0954056   c0.0698357-0.2905464-0.1600227-0.8699417-0.6896095-1.7382622c-0.4725761-0.7816887-0.9586868-1.4831314-1.455925-2.1189728   c0.7984772,0.2071762,1.7157326,0.4354935,2.7410698,0.6831589c0.7711639,0.4039307,1.4132156,0.7584343,1.9185219,1.0606041   c0.5354462,0.3183403,1.0425797,0.760067,1.5212784,1.325222c0.3689194,0.3473206,0.9291306,1.2536964,1.680542,2.7190895   c0.1401901,0.1378288,0.3013535,0.0704384,0.4833984-0.2022934c0.1721268-0.5663071,0.2784195-1.1499443,0.3188324-1.750946   C67.63414,38.2195435,67.614563,37.75,67.5693512,37.2737541c0.1536179,0.2522354,0.2913513,0.4893494,0.4196167,0.7173462   l0.5104294,2.0824509c0.1114273,0.4644547,0.2059479,0.9040718,0.2835693,1.3188858   c0.0864334,0.4753227,0.1506577,0.8792992,0.1927185,1.2119789c0.0711136,0.6497536,0.1326828,1.1995888,0.1849899,1.65242   c-0.0399857,0.6449776-0.0877991,1.3375282-0.1432114,2.0231094c-0.1378937,1.7058563-0.3504562,3.3517418-0.6039352,4.9433212   c-0.0159531,0.100235-0.0326233,0.1993675-0.0489883,0.2991142c-0.0310745,0.1129494-0.0603409,0.2156105-0.0931015,0.3379822   c-0.1352844,0.5053177-0.2760239,1.0925064-0.3649826,1.492733c-0.0889587,0.4002228-0.1159897,0.5766106-0.1479263,0.7749023   c-0.0319366,0.1982536-0.0671997,0.4193802-0.0947647,0.6646385c-0.0175858,0.1568413-0.0279312,0.3281746-0.0310745,0.5072594   c-0.0018692,0.0080719-0.0040054,0.017746-0.0058746,0.0257378c-0.2266846,0.9660606-0.5540237,2.0041809-0.9765015,3.1213036   c-0.4224854,1.1171684-0.9568329,2.306366-1.5905075,3.5721588c-0.6336288,1.2657509-1.3811646,2.5786743-2.0174828,3.4124908   s-1.302433,1.6232071-1.9141273,2.413063c-0.6117363,0.789856-1.1732559,1.5759277-1.7327614,2.3227539   s-1.0752029,1.4830399-1.1278648,1.5540009c-0.0526237,0.0709229-0.1624222,0.1768494-0.3309631,0.3174667   c-0.1685829,0.1406174-0.3968506,0.3062592-0.6883011,0.4859467c-0.2914543,0.1796875-0.6088562,0.3863983-1.8269043,1.0100403   c-1.2180901,0.6236877-2.3977699,1.0645676-3.5393906,1.3404999c-0.8490067,0.2052231-1.6807175,0.3029175-2.4964256,0.3104401   c-0.0672455-0.0016174-0.1342621-0.0015259-0.2016449-0.0043793c-0.0680122-0.0006256-0.1354866-0.0041733-0.20327-0.0060425   c-0.8142052-0.04953-1.6396523-0.1900101-2.4769211-0.4386673c-1.1258774-0.3344116-2.2812729-0.8354721-3.4656258-1.52108   c-1.1843109-0.6855698-1.4906502-0.9083862-1.7724495-1.1028366c-0.2817955-0.194458-0.5012474-0.3716583-0.6623192-0.5207672   c-0.1610756-0.1491089-0.265255-0.2605743-0.3141785-0.3340836c-0.0489235-0.073555-0.5260162-0.8353958-1.0463028-1.6100388   c-0.5202866-0.7746811-1.0405731-1.5886307-1.6107941-2.4089661c-0.5701752-0.8203049-1.1947556-1.6429672-1.787262-2.5084915   C35.2523117,63.8649673,34.5734291,62.5152931,34.0058403,61.2185593z M38.7569199,85.6658249   c-1.497448-0.8837814-2.5677071-1.8050079-3.4981689-2.712059c-0.4972839-0.4848022-0.9541283-0.9542618-1.3770142-1.4105911   c0.5257225-1.2122116,0.9125557-2.4250259,1.1465797-3.6383896c0.315567-1.5394211,0.4894257-2.9238968,0.5215759-4.1534729   c-0.002449-0.3634796,0.0800858-1.9086075,0.2459068-4.6130676c0.0418282-0.3660889,0.0832977-0.8104401,0.1244316-1.3536377   c0.0689812-0.7171249,0.078373-1.3193817,0.0402069-1.8299637c0.1888084,0.2815247,0.373642,0.5575562,0.548996,0.8305817   c0.549633,0.855751,1.0970535,1.6720276,1.6184387,2.4654694c0.5214233,0.793396,1.0002365,1.5745544,1.2766418,2.0079498   c0.2764053,0.4333649,0.3927536,0.568985,0.5527802,0.7130966s0.363987,0.3109512,0.6086807,0.5133438   c0.2446899,0.2023544,0.5415459,0.4285278,1.3470154,0.9126892c0.8054695,0.4841156,2.054409,1.0636673,3.2652321,1.4653473   c1.2108612,0.4017258,2.3880615,0.6069183,3.5247536,0.636734c0.1596336,0.0042114,0.3147926-0.004425,0.4719887-0.0080338   c0.1569328,0.0117188,0.3116302,0.0283432,0.4714241,0.0323868c1.1367226,0.0287476,2.3229408-0.1155167,3.552845-0.4543152   c1.2299461-0.3387604,2.5070572-0.8532104,3.3364372-1.2951736c0.8293343-0.4420013,1.1374435-0.6525726,1.3922272-0.8420715   s0.4670715-0.3456116,0.6343193-0.4812851c0.1672478-0.1356812,0.2904282-0.2650986,0.5887947-0.68367   s0.8168221-1.173996,1.3783913-1.939537c0.561573-0.7654953,1.1503487-1.552475,1.7433548-2.3787766   c0.1891785-0.2636185,0.3880196-0.529747,0.5910645-0.801178c-0.0644913,0.5079651-0.0861244,1.1098862-0.0541344,1.8296051   c0.0130501,0.5448608,0.031601,0.9910049,0.054512,1.3588715c0.0262985,2.7090073,0.0289993,4.2561111,0.0078697,4.6189804   c-0.0312424,1.229599,0.0710678,2.6211777,0.3069,4.1748123c0.1711769,1.2238312,0.4949608,2.4549484,0.9575882,3.6926727   c-0.4458427,0.4339218-0.9262466,0.8792038-1.4478378,1.3377228c-0.9759979,0.8579407-2.0922737,1.7227631-3.6332474,2.5282211   c-1.5410156,0.8054962-3.2352867,1.3810883-5.0813484,1.7813492c-1.5815353,0.342865-3.2981491,0.5009766-5.1335335,0.5102386   c-1.8326874-0.1037445-3.5389977-0.3501663-5.1008797-0.7741165C41.9167137,87.2117538,40.2543259,86.549614,38.7569199,85.6658249   z"/><path d="M55.5545464,64.2688446c-0.0349541-0.00737-0.0763245-0.0185165-0.1240616-0.0333557l-0.2670212-0.0863113   c-0.0701981-0.0279541-0.1395149-0.0573883-0.2206421-0.098671c-0.0865021-0.0440521-0.1644783-0.0829544-0.231926-0.1173019   c-0.0674477-0.0343513-0.1243668-0.0639458-0.1703033-0.0890808c-0.0458984-0.0251732-0.0909386-0.027935-1.0013847-0.5688057   c-0.9104424-0.5409126-1.0910988-0.6172142-1.2416115-0.6738091c-0.1505547-0.0565948-0.2811279-0.1014519-0.3924141-0.1339798   c-0.0562592-0.0164604-0.0932846-0.0217476-0.1397018-0.0327911c-0.0084991-0.0030136-0.0190849-0.0090828-0.0274582-0.0119743   c-0.1837921-0.0642319-0.4033813-0.0784874-0.6588135-0.0428543c-0.2052116,0.0355415-0.4014702,0.097496-0.5887299,0.1859093   c-0.056263,0.0262451-0.1473618,0.077404-0.2733459,0.1534271c-0.3367043,0.2456322-0.5172272,0.3705101-0.5416107,0.3746338   c-0.0268936,0.0200882-0.0935669,0.0478592-0.1827698,0.0799789c-0.0874329-0.0366859-0.152626-0.0678635-0.1784363-0.0893059   c-0.0241318-0.0053635-0.1979942-0.1393661-0.5215836-0.4020386c-0.1218872-0.0824165-0.2102585-0.1381874-0.2650757-0.1673164   c-0.1824455-0.0979195-0.3752441-0.1699219-0.5783958-0.2159615c-0.2532425-0.0487823-0.4732742-0.0458298-0.6601372,0.0088234   c-0.0085526,0.002449-0.0194054,0.0079613-0.028038,0.0105362c-0.0469131,0.0086327-0.084198,0.0120544-0.1411514,0.0255814   c-0.1128426,0.0267448-0.2455826,0.0647888-0.3988037,0.1136017c-0.1532631,0.0487289-0.3375931,0.1156273-1.2747002,0.6089134   c-0.9371071,0.4932442-0.982235,0.4936829-1.0293808,0.516449c-0.0471458,0.0227623-0.1054955,0.0493622-0.174633,0.080204   s-0.1489868,0.0656357-0.2376862,0.1051826c-0.0832253,0.0371361-0.15411,0.0629921-0.2257156,0.0872498l-0.2708244,0.0723763   c-0.0484657,0.012352-0.0903244,0.0213318-0.1256104,0.0269051c-0.3127403,0.0406647-0.5930595,0.0595665-0.8408852,0.0567055   c-0.0376053,0.0007629-0.0539017,0.014595-0.0488815,0.0415573c0.0105972,0.065979,0.067131,0.1340561,0.1695633,0.2041931   c0.105751,0.0859451,0.2241745,0.1674118,0.3506508,0.2459946c0.1373215,0.2101364,0.4696274,0.6640701,0.9993439,1.3650055   c0.1047478,0.1372452,0.2890053,0.3243408,0.5474739,0.5580139c0.134346,0.159256,0.2790337,0.3216324,0.4294891,0.4720612   c0.2935066,0.2934799,0.59832,0.5452194,0.9118996,0.7591553c0.3135376,0.2138901,0.6402626,0.3822021,0.8810196,0.4766846   c0.240715,0.0944824,0.3727989,0.1387024,0.4919319,0.1748657c0.1191292,0.0361328,0.2258606,0.0624771,0.3193436,0.0836868   c0.093441,0.0211716,0.1749115,0.033989,0.2953949,0.04702c0.0426407,0.0046005,0.0949478,0.0103149,0.1459389,0.0158386   c-0.1224289,0.0548325-0.2447662,0.110321-0.3654099,0.176712c-0.418232,0.2086258-1.0612488,0.7199554-1.9290123,1.5339966   c0.6169739-0.4595108,1.2917366-0.7899323,2.024334-0.9912796c0.4618759-0.1301575,0.9385338-0.2080612,1.4299736-0.2337036   c0.0393143-0.0052185,0.0966949-0.0076599,0.1496315-0.0107422c0.0527191,0.0058289,0.1098251,0.0111923,0.1488037,0.018425   c0.4894371,0.0509262,0.9614487,0.1532745,1.4159927,0.3070908c0.7212601,0.2388153,1.3781433,0.603569,1.9706078,1.0942459   c-0.8247185-0.8576965-1.4405136-1.4014664-1.8474274-1.6313553c-0.1170387-0.0725403-0.2363663-0.1342087-0.3558083-0.1952591   c0.0512123-0.0028992,0.1037407-0.0059357,0.1465416-0.008316c0.1210175-0.006813,0.2030411-0.0153961,0.297451-0.0317688   c0.0944481-0.0163345,0.2023544-0.0371475,0.3232079-0.0671158c0.1208496-0.0299225,0.2550354-0.0673294,0.5003204-0.1492844   c0.2452888-0.0819473,0.5802574-0.2331924,0.9044228-0.4306564c0.3241692-0.1974716,0.6415329-0.4332123,0.9497871-0.711174   c0.1578827-0.1423721,0.3106422-0.2969666,0.4529228-0.4490051c0.2703743-0.2201614,0.4640808-0.397644,0.5757751-0.529335   c0.5651131-0.6726913,0.9202995-1.1088943,1.0683098-1.3117142c0.1303864-0.0719757,0.2528877-0.1472244,0.3629265-0.2276077   c0.1058769-0.0647659,0.1658821-0.1298294,0.1798515-0.1951675c0.0064011-0.0266953-0.009182-0.0413666-0.046669-0.044014   C56.1437302,64.3588867,55.8648071,64.3255768,55.5545464,64.2688446z M54.4446564,66.1930313   c-0.0902176,0.1680603-0.2249565,0.3484192-0.3837204,0.5354462c-0.0097542,0.0080414-0.0189323,0.0162888-0.0286865,0.0242538   c-0.3286591,0.268692-0.6521873,0.5007706-0.9769592,0.6891327c-0.1984673,0.1150818-0.3969536,0.2092209-0.5953484,0.293869   c-0.0106544-0.0013809-0.0171051-0.0116959-0.0291595-0.0099792c-0.1702232,0.0355911-0.3218575,0.0600739-0.4548264,0.0733948   c-0.5586815,0.0569611-1.0569878,0.1014175-1.5203552,0.13871c-0.35606-0.0281601-0.5820351-0.0438538-0.6629944-0.0454712   c-0.1582832-0.0081635-0.283844-0.0132065-0.3869133-0.0160675c-0.0118713-0.0003891-0.0229225-0.000824-0.0357819-0.001152   c-0.0102272-0.0002441-0.0190163-0.0003433-0.0286293-0.0005493c-0.1036377-0.0024796-0.2307549-0.0039291-0.3911171-0.0039444   c-0.0809288-0.0025177-0.3073959,0.0014648-0.6643372,0.011261c-0.4607773-0.0610962-0.9562454-0.1312027-1.5112877-0.2168732   c-0.1321526-0.0201492-0.28228-0.0523987-0.4504662-0.0967407c-0.0119781-0.0023193-0.0189171,0.0076675-0.029583,0.0084991   c-0.193779-0.0947418-0.387188-0.1990509-0.5794601-0.3241959c-0.3146553-0.2048035-0.6257515-0.4532623-0.9401817-0.7385178   c-0.009304-0.0084686-0.0180359-0.0171432-0.0273399-0.02565c-0.1489182-0.1949692-0.2742043-0.3820572-0.3556595-0.5545807   c-0.1066895-0.213768-0.1378822-0.363678-0.0935822-0.4496918c0.076458-0.1879272,0.232605-0.31147,0.4646683-0.3738327   c0.449379-0.0360413,0.9263649-0.0318222,1.4380684,0.0230942c0.4629936,0.0379944,0.9864693,0.1180573,1.5704689,0.2401581   c0.1041832,0.0264587,0.2027588,0.0573349,0.2957611,0.0926437c0.5132942,0.2448196,0.824646,0.3724594,0.9340134,0.3830032   c0.1310196,0.0279694,0.2741508-0.0000153,0.4240723-0.0598755c0.1467094,0.0674896,0.2881279,0.1027985,0.4204216,0.0816422   c0.1097908-0.0048599,0.427269-0.1163406,0.9525223-0.3343887c0.0946846-0.0304642,0.1947289-0.0561905,0.3001251-0.0772552   c0.5894966-0.0918808,1.1164436-0.1448746,1.5807571-0.1589279c0.5138664-0.0284729,0.9904366-0.0081024,1.4373512,0.0510254   c0.2285118,0.0741882,0.3781548,0.205658,0.4448166,0.3972549C54.6011009,65.8369293,54.5622139,65.9850464,54.4446564,66.1930313z    M55.2632446,64.7761078c-0.0383759,0.0540314-0.1335106,0.1242065-0.2751694,0.2076569   c-0.0835075,0.008316-0.1729889,0.0149765-0.2709885,0.0199356c-0.1036682,0.0051956-0.189167,0.0084-0.284584,0.0097198   c-0.0954208,0.0012741-0.2015686,0.0017319-0.3184357-0.0009079c-0.1168633-0.0026474-0.2444229-0.0068893-0.3821678-0.0142441   c-0.1377411-0.007309-0.2593498-0.0182724-0.3881493-0.036293c-0.1288452-0.0180206-0.2650299-0.0356598-0.4078674-0.0594559   c-0.1427956-0.0238419-0.2929192-0.0492325-0.4527626-0.0770874c-0.1598473-0.0278625-0.256443-0.0351944-0.3406792-0.0391922   c-0.0842323-0.0039978-0.1631508-0.0065079-0.2367897-0.007225c-0.0736389-0.0006866-0.1420822,0.0003357-0.206028,0.0029831   c-0.0639458,0.0026855-0.1660728,0.0128326-0.2608147,0.0257645c-0.094738,0.0129242-0.1824989,0.0292206-0.2636757,0.0462875   c-0.0811768,0.0171127-0.1559372,0.0351715-0.2228127,0.0565414c-0.0668335,0.0214081-0.1107979,0.0359192-0.1679726,0.0613937   c-0.0572128,0.0254822-0.1251907,0.0605392-0.2052956,0.1042862c-0.0111771,0.0060959-0.026947,0.0156937-0.0386124,0.0221634   c-0.1969719,0.0671844-0.4164848,0.1446686-0.6808701,0.2427063c-0.0142212,0.0054321-0.0229492,0.0103073-0.0366402,0.0156937   c-0.0497017,0.008667-0.0956192,0.0181961-0.1640625,0.0222549c0.0153618-0.0061035,0.0298691-0.0117874,0.0401611-0.0163956   c-0.002903,0.0010223-0.0047035,0.0015411-0.016716,0.0064545c-0.0069923,0.0025101-0.0253334,0.0069275-0.0375671,0.0105667   c-0.0583153,0.0031128-0.1374702,0.0011902-0.2089653,0.001091c-0.0714188-0.003624-0.1505775-0.0057526-0.2086792-0.0118866   c-0.0119209-0.0042877-0.0299759-0.0096054-0.0367851-0.0124359c-0.0111122-0.0052414-0.012516-0.0056686-0.0154877-0.0069046   c0.0099182,0.0050507,0.0236702,0.0112381,0.0382919,0.0179596c-0.0681381-0.0075684-0.1135025-0.0194473-0.162674-0.0306549   c-0.013382-0.0060806-0.0217819-0.0113525-0.0356979-0.0175018c-0.2589951-0.1115036-0.4742203-0.2002258-0.6674538-0.2774734   c-0.0113411-0.0070496-0.0265808-0.0174484-0.037426-0.0241318c-0.0777588-0.0478134-0.1438217-0.0863266-0.1996574-0.1147461   c-0.0557899-0.0283813-0.0989532-0.0451279-0.1646004-0.069931c-0.0656433-0.0248032-0.1394234-0.0466766-0.2196045-0.0679321   c-0.0801773-0.0212936-0.1669617-0.0420532-0.2608948-0.0598526c-0.0939751-0.0177612-0.1954346-0.033165-0.2591629-0.0391464   c-0.0637245-0.0059738-0.1320305-0.0105057-0.2056198-0.0136108c-0.0735855-0.0030594-0.1524925-0.0046616-0.2368469-0.0050049   c-0.0843506-0.0003433-0.1811523,0.0020218-0.3422127,0.0216064c-0.1610603,0.0195923-0.3122902,0.0372086-0.4561844,0.053627   c-0.1438522,0.0164185-0.2807541,0.0270386-0.4103394,0.0383911c-0.1295815,0.0113525-0.2516098,0.016037-0.3895454,0.0162811   c-0.1379356,0.000206-0.2655144-0.0021439-0.3823471-0.0054855c-0.1168747-0.0033875-0.2228546-0.0093307-0.3180809-0.0155334   s-0.1804504-0.0138397-0.283699-0.0243759c-0.0976105-0.0099564-0.1865768-0.0212402-0.2695656-0.0338364   c-0.1371803-0.0906448-0.2285843-0.1656418-0.2641487-0.2215805c-0.0357895-0.041275-0.0540581-0.0770187-0.0720406-0.1126862   c0.0700874-0.0173416,0.1426239-0.0390701,0.219902-0.069397c0.1242409-0.0442963,0.3663673-0.1755753,0.7262878-0.393856   c-0.0057259,0.0084915,0.2109756-0.129528,0.6291275-0.400322c0.3153458-0.1442642,0.6940651-0.3172417,0.9699974-0.4475403   c0.552887-0.2611046,0.7055893-0.3219795,0.8368721-0.3715858c0.131279-0.0496063,0.2408104-0.0883026,0.3284149-0.1137085   c0.0876427-0.0254478,0.1514168-0.0388107,0.2336197-0.0494461c0.0822029-0.0105972,0.1894646-0.0172348,0.2945213-0.0130424   c0.1050148,0.0041885,0.2081871,0.0186691,0.3090172,0.0458679c0.0778351,0.0210381,0.1474342,0.0501862,0.2137794,0.0784721   c0.0534096,0.0346489,0.1065178,0.0685234,0.1641579,0.1131783c0.1239166,0.0906448,0.3042946,0.259594,0.5411682,0.5068436   c0.0238228,0.0235214,0.0851212,0.0685005,0.1839752,0.135025c0.033371,0.0150223,0.0592728,0.0175743,0.0899582,0.0281143   c0.0119972,0.0071602,0.0124435,0.0133133,0.026825,0.020649c0.0195351,0.008709,0.0472908,0.0052376,0.069809,0.0095177   c0.0254021,0.0052643,0.0496292,0.0084953,0.0728111,0.0099716c0.0232391-0.0002518,0.0475235-0.0022354,0.0731812-0.0061722   c0.0227127-0.0031166,0.0502472,0.0017548,0.0702324-0.005928c0.01474-0.0065918,0.0154877-0.0127182,0.0278473-0.0192375   c0.0311813-0.0089302,0.0572014-0.0101585,0.0912819-0.0234413c0.1021423-0.0613518,0.1657257-0.1031303,0.1906624-0.125412   c0.2493324-0.234684,0.4382095-0.3941193,0.566597-0.4782639c0.059845-0.0416107,0.1145668-0.0726814,0.1696892-0.104538   c0.0677757-0.0248299,0.1387863-0.0503998,0.2176285-0.0673599c0.1021004-0.0220108,0.2058792-0.0311127,0.3109818-0.0298805   c0.1051445,0.0012321,0.2119026,0.0133705,0.2934799,0.0282021c0.0815353,0.0148315,0.1445313,0.031498,0.230732,0.0613823   c0.0862007,0.0298882,0.1935654,0.0741692,0.3221474,0.1305046c0.12854,0.0562973,0.2778893,0.1249809,0.8165855,0.4141655   c0.2688103,0.1443138,0.638092,0.3365669,0.9455376,0.4968605c0.4037514,0.2919807,0.6130753,0.4410591,0.6077919,0.4323006   c0.3481941,0.2365341,0.5832367,0.3801193,0.7050552,0.430748c0.0756187,0.0342941,0.1468964,0.0597229,0.2159843,0.0806656   C55.3212051,64.7020035,55.3011513,64.7367477,55.2632446,64.7761078z"/><path d="M54.2656708,64.9327164c-0.0209656-0.0016708-0.0423775-0.0030441-0.0642776-0.0041275l0.2668076,0.0335007   c-0.0352898-0.0078125-0.0724106-0.0143738-0.1114883-0.0196304   C54.3475304,64.9407272,54.3171844,64.9374924,54.2656708,64.9327164z"/><path d="M44.5440941,64.6894989c-0.0392609,0.0032425-0.0766945,0.0078964-0.1123047,0.0138855l0.268158-0.0197372   c-0.0219307-0.0000534-0.0434036,0.0002136-0.0643806,0.0008087C44.5838509,64.6865768,44.55336,64.6882324,44.5440941,64.6894989z   "/><path d="M46.4930725,56.9550705c-0.0549927,0.019043-0.0932198,0.0424385-0.1232109,0.0679436   c-0.0343971-0.0022392-0.0606232-0.0041695-0.0612793-0.0042038c0.0071526,0.0005684,0.0068665,0.0005302,0.0186615,0.0014496   c0.012085,0.0009193,0.0271149,0.0042229,0.0401878,0.005455c-0.066246,0.0584412-0.0727959,0.1324005-0.0100479,0.2243423   c0.0611382,0.0945892,0.1719246,0.176239,0.3324471,0.2449875c0.0428925,0.031208,0.273613,0.0850792,0.6922073,0.1616898   c0.1357269,0.043354,0.2672348,0.1038017,0.3944397,0.1813049c0.1013756,0.0644379,0.2052879,0.1480179,0.3089256,0.2293892   c0.0404816,0.04179,0.081337,0.0843582,0.1201019,0.1203804c0.1022072,0.0949821,0.1824112,0.1676102,0.2405853,0.2189522   c0.0581741,0.0513039,0.0972023,0.0821915,0.1326714,0.1074944c0.0065079,0.0046425,0.0175209,0.0121002,0.0250206,0.0174294   c0.0217552,0.0221481,0.042778,0.038353,0.0646248,0.0611992l-0.0198822-0.0300179   c0.0229492,0.01614,0.042305,0.0303955,0.0665283,0.0463562c0.0495644,0.0327225,0.0970345,0.062027,0.1430893,0.0868301   c0.0460587,0.0248413,0.0902214,0.0459747,0.1384735,0.0656586c0.0482483,0.0196419,0.1040421,0.0381203,0.16045,0.0532265   c0.056366,0.0151482,0.1137047,0.0257645,0.1716843,0.0321426c0.0579834,0.006382,0.1165314,0.0088539,0.1793137,0.00811   c0.0331726-0.0003738,0.0638847-0.0042496,0.0961761-0.0064583c0.0321198,0.0038681,0.0626183,0.0093193,0.0956993,0.0114098   c0.0626755,0.0039825,0.1212425,0.0045204,0.179512,0.0011253c0.0582314-0.0033569,0.1160355-0.0110207,0.17313-0.0232315   c0.0570908-0.0121689,0.1137733-0.0277443,0.1629601-0.0449066c0.0491867-0.0171661,0.0944099-0.035965,0.1416855-0.0583992   c0.0472717-0.022438,0.0961761-0.0492516,0.147377-0.0793762c0.0249901-0.0146828,0.0450706-0.0279121,0.0688248-0.0428276   l-0.0214043,0.0289307c0.0230141-0.0216827,0.044796-0.0367775,0.0676537-0.0577621   c0.00774-0.0049438,0.0191536-0.0118179,0.0259132-0.0161324c0.0367508-0.0234566,0.0773315-0.0522995,0.1380386-0.1005287   c0.0607491-0.0482712,0.1445694-0.1167068,0.2515755-0.206295c0.0405998-0.0339775,0.0835838-0.0744286,0.1262054-0.1140976   c0.1076279-0.0758781,0.215683-0.1539803,0.3202362-0.2130661c0.1310577-0.0708733,0.2654915-0.1244583,0.4032631-0.160759   c0.4219589-0.0549202,0.6551819-0.0968475,0.6996231-0.1257782c0.1638336-0.0604019,0.2787323-0.1362457,0.3446083-0.2275772   c0.0673904-0.0885582,0.0646973-0.1627312,0.0015907-0.2245255c0.013092-0.000576,0.0282936-0.0030632,0.0403633-0.0033798   c0.0582542-0.0014687,0.0582542-0.0014687,0.0194206-0.0004883c0,0-0.0271797,0.0005455-0.0620804,0.0010223   c-0.0286331-0.0270348-0.0656204-0.0523605-0.1195641-0.0741882c-0.1511917-0.0450897-0.3509331-0.0221024-0.5992661,0.0690422   c-0.2055016,0.0452385-0.4563179,0.1940308-0.744545,0.4283371c-0.0426064,0.0276375-0.0836487,0.0525818-0.1307564,0.0883217   c-0.0740776,0.0562019-0.220295,0.1855354-0.3383789,0.2925911c-0.1180763,0.1070976-0.209362,0.1961174-0.2784348,0.2618217   c-0.0690727,0.0656662-0.1154099,0.1072273-0.1387482,0.1257095c-0.0233841,0.018486-0.0752945,0.0574074-0.1221771,0.0915031   c-0.0468407,0.0340919-0.0914726,0.0642586-0.133812,0.0904541s-0.0820503,0.0490303-0.1200104,0.0675735   c-0.0379181,0.0185852-0.0864563,0.0416946-0.1353264,0.0611153c-0.048912,0.0194168-0.0991821,0.0353203-0.1507187,0.0487785   c-0.0515327,0.0134544-0.104454,0.0243034-0.1591873,0.0314331c-0.0466537,0.0061684-0.1006393,0.0107841-0.1517258,0.0137215   c-0.050869-0.0056458-0.1045113-0.0129852-0.1508179-0.0215225c-0.0542488-0.0099564-0.1065712-0.02351-0.1573219-0.0395927   c-0.0507545-0.0161171-0.1001396-0.0345573-0.1480064-0.0564613c-0.0478287-0.0219078-0.0950851-0.0475159-0.1320152-0.067997   c-0.0369263-0.0205231-0.075428-0.0453377-0.1163559-0.0736961c-0.0409241-0.0283585-0.0839577-0.0607529-0.1290092-0.0972328   c-0.0450096-0.036438-0.0948906-0.0780296-0.1172714-0.0976677c-0.0223389-0.0196342-0.0664978-0.0635567-0.1320801-0.1327133   c-0.0655861-0.0691566-0.1522102-0.1627693-0.2645836-0.2757759c-0.1123695-0.1130447-0.25177-0.249733-0.3228226-0.3096619   c-0.0452385-0.0381622-0.0849991-0.0652199-0.1261902-0.0950508c-0.2757034-0.2488213-0.518486-0.4102936-0.7213478-0.4660301   C46.8446655,56.951088,46.6463585,56.9178391,46.4930725,56.9550705z"/><path d="M49.0924377,59.5812035l-0.0239296-0.4459152c-0.011528-0.0778008-0.0377121-0.1490097-0.078476-0.2136269   l-0.0685921,0.7252502c-0.0139771,0.0415268-0.0231247,0.0750694-0.0274467,0.100666   c-0.0307503,0.2272682-0.0568771,0.3776894-0.0783005,0.4512177c-0.1616325,0.5026894-0.2468262,0.7998352-0.255619,0.8914375   c-0.0368919,0.1761818-0.0354767,0.3388634,0.0042496,0.4880524c0.10149,0.3004379,0.2450142,0.5008507,0.4305267,0.6011963   c0.2369461,0.1180191,0.440136,0.1245956,0.6094933,0.0197334c-0.0032806-0.0161819-0.0116768-0.0274086-0.0251007-0.0336876   c-0.1119843-0.0591736-0.1798515-0.1008682-0.2035217-0.1251717c-0.0474663-0.0387878-0.0935822-0.0879822-0.1383057-0.1475029   c-0.0839157-0.109993-0.14534-0.257225-0.1841927-0.441658c-0.0215874-0.1072388-0.0295982-0.2487297-0.0240746-0.4244766   C49.0640564,60.6161613,49.0851402,60.1343231,49.0924377,59.5812035z"/><path d="M46.1395874,43.6859627l0.3758659,0.6108704c0.099781,0.1240044,0.2411461,0.5725594,0.4240646,1.3457527   c0.1011276,0.4030266,0.171711,0.8293877,0.2117424,1.2790489c0.041256,0.4424553,0.0573807,0.8554955,0.04842,1.2390747   c0.0062523,0.1390533-0.0356293,0.7211456-0.1256447,1.7462349c-0.0098915,0.1384315-0.0073967,0.2296066,0.0075645,0.2736053   c0.0555191,0.0064507,0.1043243-0.0642166,0.1463356-0.2120399c0.20784-0.6304893,0.3208961-1.0539322,0.339138-1.2702866   c0.1035156-0.8124161,0.121376-1.4370384,0.0536194-1.873909c-0.0472069-0.3205833-0.1335602-0.6748848-0.2590561-1.0628204   c0.0095444-0.0151062-0.1175957-0.3077126-0.3813782-0.8777313C46.7694931,44.4320488,46.4892426,44.0327835,46.1395874,43.6859627   z"/></g><text x="0" y="115" fill="#000000" font-size="5px" font-weight="bold" font-family="'Helvetica Neue', Helvetica, Arial-Unicode, Arial, Sans-serif">Created by Jhonatan</text><text x="0" y="120" fill="#000000" font-size="5px" font-weight="bold" font-family="'Helvetica Neue', Helvetica, Arial-Unicode, Arial, Sans-serif">from the Noun Project</text></svg>