<svg xmlns="http://www.w3.org/2000/svg" xmlns:xlink="http://www.w3.org/1999/xlink" version="1.1" x="0px" y="0px" viewBox="0 0 100 125" enable-background="new 0 0 100 100" xml:space="preserve"><g><path d="M45.682,42.003L32.685,28.501c-2.059,2.181-3.547,4.738-4.162,7.393c-0.371,1.601-0.79,5.783-0.79,5.783l-5.056,10.096   c-0.08,0.179-0.118,0.388-0.118,0.601c0,0.854,0.688,1.546,1.544,1.546h3.63v5.362c0,4.08,1.611,6.133,3.982,7.016l13.966-4.133   V42.003z M33.833,45.29c-1.245,0-2.256-1.01-2.256-2.257c0-1.246,1.011-2.256,2.256-2.256c1.246,0,2.256,1.011,2.256,2.256   C36.09,44.28,35.079,45.29,33.833,45.29z"/><path d="M94.909,51.364L17.19,74.359l3.644,11.404l74.087-20.94C94.917,59.577,94.912,54.789,94.909,51.364z"/><path d="M21.633,69.279c-6.609-5.851-10.792-14.384-10.792-23.884c0-10.623,5.227-20.037,13.232-25.84l-2.709-2.815   C12.634,23.273,6.96,33.675,6.96,45.395c0,9.8,3.965,18.688,10.367,25.158L21.633,69.279z"/><g><path d="M61.684,47.275c2.73,0,4.952-2.221,4.952-4.952s-2.222-4.953-4.952-4.953s-4.953,2.222-4.953,4.953    S58.953,47.275,61.684,47.275z"/><path d="M94.907,47.6c-0.001-0.875-0.002-1.408-0.002-1.513c0-24.838-20.294-45.045-45.236-45.045    c-10.379,0-20.519,3.587-28.551,10.102l-0.072,0.06l28.245,29.345v20.548L94.907,47.6z M61.684,34.663    c1.528,0,2.951,0.455,4.147,1.229l5.062-5.062l1.914,1.915l-4.998,4.997c0.959,1.28,1.534,2.862,1.534,4.58    c0,4.224-3.436,7.659-7.659,7.659c-4.225,0-7.661-3.436-7.661-7.659S57.459,34.663,61.684,34.663z"/></g><g><path d="M67.171,82.44c11.377,0,21.792,6.712,27.773,17.502h0.007c0,0-0.014-16.597-0.026-31.367L21.848,89.229    c-2.525,3.826-4.456,7.692-6.821,10.713h24.375C45.488,88.983,55.864,82.44,67.171,82.44z"/><path d="M67.171,86.155c-9.31,0-17.937,5.115-23.449,13.787h46.902C85.182,91.392,76.533,86.155,67.171,86.155z"/></g></g><text x="0" y="115" fill="#000000" font-size="5px" font-weight="bold" font-family="'Helvetica Neue', Helvetica, Arial-Unicode, Arial, Sans-serif">Created by Luis Prado</text><text x="0" y="120" fill="#000000" font-size="5px" font-weight="bold" font-family="'Helvetica Neue', Helvetica, Arial-Unicode, Arial, Sans-serif">from the Noun Project</text></svg>