<svg xmlns="http://www.w3.org/2000/svg" viewBox="0 0 64 80" x="0px" y="0px"><title>cat, pets</title><g data-name="Cat"><path d="M12.76,26.393c-.29,1.99-.56,5.73.99,7.92,2.61,3.69,7.62,10.97,7.67,11.04a1.123,1.123,0,0,1,.18.49l.52,6.7a1,1,0,0,1-.91,1.08,5.493,5.493,0,0,0-3.32,1.54,2.312,2.312,0,0,0-.426.91.318.318,0,0,0-.01.033c-.012.05-.035.095-.044.147a.637.637,0,0,0-.02.07c-.01.05-.01.1-.02.15h.012a1,1,0,0,0,1,1H55.516a3.976,3.976,0,0,0,3.943-4v-.16a4,4,0,0,0-4-4H50.2a1,1,0,0,0,0,2h5.255a2,2,0,0,1,2,2v.16a2,2,0,0,1-1.943,2H41.94l-.05-1.426c-.14-4.68-.95-17.59-2.99-21.06-2.48-4.22-9.76-9.3-15.47-12.24a4.824,4.824,0,0,1-1.96-2.34l-7.23,5.31a2.477,2.477,0,0,1,.03.27A2.691,2.691,0,0,1,12.76,26.393Zm22.15,11.53a1.012,1.012,0,0,1-1.06.94c-3.29-.2-8,.33-8.29,1.83C25,43.633,28.67,52.1,30.95,53.1a1,1,0,0,1-.41,1.91.953.953,0,0,1-.4-.08c-3.38-1.48-7.24-10.98-6.54-14.62.74-3.84,8.77-3.54,10.37-3.45A1.011,1.011,0,0,1,34.91,37.923ZM11.589,23.306a.682.682,0,1,1-.681.681A.682.682,0,0,1,11.589,23.306ZM4.882,13.642c1.494-1.162,5.74-3.626,5.782-3.651a1,1,0,0,0,.265-.222l2.714-3.238,1.386,3.017a1,1,0,0,0,.7.561,6.748,6.748,0,0,1,3.376,1.667,17.429,17.429,0,0,1,1.7,4.633l-7.523,5.52a2.661,2.661,0,0,0-.966-.509,4.351,4.351,0,0,0-3.546-2.272A3.974,3.974,0,0,1,5.257,16a3.792,3.792,0,0,0-.46-1.309C4.443,13.988,4.443,13.988,4.882,13.642Z"/></g><text x="0" y="79" fill="#000000" font-size="5px" font-weight="bold" font-family="'Helvetica Neue', Helvetica, Arial-Unicode, Arial, Sans-serif">Created by The Icon Z</text><text x="0" y="84" fill="#000000" font-size="5px" font-weight="bold" font-family="'Helvetica Neue', Helvetica, Arial-Unicode, Arial, Sans-serif">from the Noun Project</text></svg>