<svg xmlns="http://www.w3.org/2000/svg" viewBox="0 0 60 75" x="0px" y="0px"><title>laptop</title><g><path d="M35.364,45.544a.684.684,0,0,1-.659.709H24.486a.687.687,0,0,1-.663-.709V44.187H1.027v2.267A1.812,1.812,0,0,0,2.776,48.32H57.228a1.808,1.808,0,0,0,1.744-1.866V44.187H35.364Z"/><path d="M53.487,14.512a2.834,2.834,0,0,0-2.838-2.832H8.541a2.832,2.832,0,0,0-2.835,2.832V42.568H53.487ZM50.549,39.158H8.641V15.811H50.549Z"/></g><text x="0" y="75" fill="#000000" font-size="5px" font-weight="bold" font-family="'Helvetica Neue', Helvetica, Arial-Unicode, Arial, Sans-serif">Created by Mario Köstl</text><text x="0" y="80" fill="#000000" font-size="5px" font-weight="bold" font-family="'Helvetica Neue', Helvetica, Arial-Unicode, Arial, Sans-serif">from the Noun Project</text></svg>