<svg xmlns:dc="http://purl.org/dc/elements/1.1/" xmlns:cc="http://creativecommons.org/ns#" xmlns:rdf="http://www.w3.org/1999/02/22-rdf-syntax-ns#" xmlns:svg="http://www.w3.org/2000/svg" xmlns="http://www.w3.org/2000/svg" xmlns:sodipodi="http://sodipodi.sourceforge.net/DTD/sodipodi-0.dtd" xmlns:inkscape="http://www.inkscape.org/namespaces/inkscape" viewBox="0 0 26.458333 33.0729175" version="1.1" x="0px" y="0px"><g transform="translate(131.02975,-196.70833)"><path d="m -117.80054,198.08603 c -1.75441,0 -3.17517,1.42013 -3.17517,3.17382 v 5.81843 c 0,1.65883 1.27142,3.01844 2.8938,3.16076 v 6.4592 h -1.61413 a 0.26472925,0.26461612 0 0 0 0,0.52919 h 1.8955 1.55443 1.43041 a 0.26472925,0.26461612 0 0 0 0,-0.52919 h -1.43041 -1.3063 v -6.45673 c 1.6382,-0.12652 2.92704,-1.49312 2.92704,-3.16323 v -5.81843 c 0,-1.75369 -1.42072,-3.17382 -3.17517,-3.17382 z m -10.31876,2.64504 c -1.31469,0 -2.38126,1.06594 -2.38126,2.38007 v 4.76039 c 0,1.22468 0.92647,2.23386 2.11668,2.3656 v 6.46111 h -0.29773 -1.55437 a 0.26472925,0.26461612 0 0 0 0,0.52919 h 1.55437 1.62156 a 0.26472925,0.26461612 0 0 0 0,-0.52919 h -0.79467 v -6.46111 c 1.19021,-0.13169 2.11659,-1.14092 2.11659,-2.3656 v -4.76039 c 0,-1.31413 -1.06648,-2.38007 -2.38117,-2.38007 z m 20.63754,0 c -1.31469,0 -2.38117,1.06594 -2.38117,2.38007 v 4.76039 c 0,1.22473 0.9264,2.23391 2.11665,2.3656 v 6.46111 h -0.0778 a 0.26472925,0.26461612 0 0 0 0,0.52919 h 2.45889 a 0.26472925,0.26461612 0 0 0 0,-0.52919 h -1.85207 v -6.46111 c 1.19022,-0.13169 2.11665,-1.14087 2.11665,-2.3656 v -4.76039 c 0,-1.31413 -1.06655,-2.38007 -2.38124,-2.38007 z m -5.18476,5.18833 c -0.89414,0 -1.62357,0.73285 -1.62357,1.6284 0,0.89555 0.72943,1.6279 1.62357,1.6279 0.89411,0 1.62354,-0.73235 1.62354,-1.6279 0,-0.89555 -0.72943,-1.6284 -1.62354,-1.6284 z m -9.90536,0.52912 c -0.54375,0 -0.98823,0.44862 -0.98823,0.99291 v 4.8e-4 3.4e-4 c 1.5e-4,0.0465 0.004,0.0928 0.0112,0.13866 -0.32267,0.27816 -0.52784,0.69033 -0.52784,1.14829 0,0.83164 0.67592,1.51352 1.50515,1.51352 0.82924,0 1.50549,-0.68188 1.50549,-1.51352 0,-0.45787 -0.20518,-0.86997 -0.52786,-1.14813 0.007,-0.0459 0.0112,-0.0924 0.0112,-0.13889 v -3.2e-4 -4.7e-4 c 0,-0.54429 -0.44482,-0.9929 -0.98855,-0.9929 z m 9.25405,2.87544 a 0.26469099,0.26457786 0 0 0 -0.0353,0.004 h -1.02561 c -0.27245,0 -0.52256,0.10608 -0.70851,0.27854 a 0.26469105,0.2645779 0 0 0 -0.0472,0.0452 0.26469105,0.2645779 0 0 0 -0.0454,0.0726 l -1.70282,2.96009 c -0.2589,0.44997 -0.10361,1.03172 0.34544,1.29194 0.44913,0.2602 1.03131,0.10361 1.29017,-0.34638 l 0.43102,-0.74878 0.36735,-0.63911 v 2.39122 0.10406 a 0.26469105,0.26457793 0 0 0 0,0.13372 v 5.91001 c 0,0.55204 0.45826,1.00102 1.01237,1.00102 0.30495,0 0.59409,-0.13035 0.79292,-0.34266 0.0319,0.0324 0.0647,0.0632 0.0996,0.0908 0.20181,0.16023 0.45237,0.25743 0.71273,0.25743 0.52069,0 0.94753,-0.42776 0.94753,-0.94836 v -5.96712 a 0.26469105,0.26457793 0 0 0 0,-0.13642 v -2.4937 l 0.36778,0.63911 0.43053,0.74887 c 0.0297,0.0515 0.0638,0.0984 0.10136,0.14203 -0.0728,0.12293 -0.11641,0.26465 -0.11641,0.41563 a 0.26469105,0.2645779 0 1 0 0.52907,0 c 0,-0.0447 0.0112,-0.0874 0.0306,-0.12765 0.24179,0.0735 0.51177,0.0519 0.74588,-0.0836 0.005,-0.002 0.007,-0.005 0.0112,-0.007 0.0654,0.0638 0.0984,0.13754 0.0984,0.218 v 7.32682 a 0.26475108,0.26463792 0 1 0 0.5295,0 v -7.32682 c 0,-0.23764 -0.1072,-0.4524 -0.26881,-0.60623 0.13709,-0.27537 0.13956,-0.61243 -0.0243,-0.89706 l -1.72319,-2.99544 a 0.26469105,0.2645779 0 0 0 0,-4.8e-4 0.26469462,0.2645815 0 0 0 -0.007,-0.0112 0.26469105,0.2645779 0 0 0 -0.0641,-0.0703 c -0.18608,-0.1726 -0.43619,-0.27868 -0.70875,-0.27868 h -1.15537 a 0.26477492,0.26466176 0 0 0 -0.0112,1.6e-4 0.26469105,0.2645779 0 0 0 -0.25631,0.20361 c -0.0157,0.0263 -0.0351,0.0508 -0.0575,0.0726 -0.0348,0.0339 -0.0771,0.0616 -0.12338,0.0809 -0.0465,0.0202 -0.0973,0.0297 -0.15237,0.0297 -0.0551,0 -0.10585,-0.0112 -0.15237,-0.0297 -0.0465,-0.0202 -0.0883,-0.047 -0.12316,-0.0809 -0.0225,-0.0225 -0.0418,-0.0465 -0.058,-0.0728 a 0.26469105,0.2645779 0 0 0 -0.18676,-0.19418 0.26469099,0.26457786 0 0 0 -0.0879,-0.0135 z m -8.66272,1.00698 a 0.26469105,0.2645779 0 0 0 -0.23903,0.15012 0.26472925,0.26461612 0 0 0 -0.002,0.005 0.26469105,0.2645779 0 0 0 -0.004,0.0112 c -0.0157,0.0373 -0.0398,0.0719 -0.0694,0.10091 -0.0297,0.029 -0.0654,0.0528 -0.10518,0.069 -0.0396,0.0157 -0.0829,0.0252 -0.13012,0.0252 -0.0472,0 -0.0908,-0.009 -0.13035,-0.0252 -0.0396,-0.0157 -0.0751,-0.04 -0.10472,-0.069 -0.0297,-0.029 -0.053,-0.0636 -0.0692,-0.10091 a 0.26469105,0.2645779 0 0 0 -0.002,-0.004 0.26472925,0.26461612 0 0 0 0,-9.5e-4 0.26469105,0.2645779 0 0 0 -0.24804,-0.15709 0.26469105,0.2645779 0 0 0 -0.0353,0.005 h -1.01303 c -0.2544,0 -0.4881,0.0993 -0.66187,0.26058 a 0.26469105,0.2645779 0 0 0 -0.0706,0.0816 l -1.5732,2.74266 c -0.15035,0.26216 -0.15124,0.57207 -0.0299,0.82795 -0.13709,0.1362 -0.22882,0.32079 -0.23837,0.52497 a 0.26469105,0.26457793 0 0 0 -0.002,0.0348 v 6.70895 a 0.26472925,0.26461612 0 0 0 0.52941,0 v -6.70895 c 0,-0.0625 0.0232,-0.12001 0.0708,-0.17147 0.2117,0.12068 0.45419,0.14293 0.67387,0.0816 0.0112,0.0285 0.018,0.0587 0.018,0.0897 a 0.26469105,0.2645779 0 1 0 0.52901,0 c 0,-0.13687 -0.0382,-0.26562 -0.10203,-0.37846 0.0312,-0.0378 0.0602,-0.0778 0.0852,-0.12158 l 0.39306,-0.68588 0.053,-0.0926 -0.64567,3.86192 c -0.0485,0.28993 0.0744,0.56112 0.26177,0.73945 0.18743,0.17844 0.44024,0.28423 0.7099,0.28423 h 0.0587 v 2.48023 c 0,0.4869 0.39839,0.88904 0.8851,0.88904 0.24107,0 0.46024,-0.0989 0.62029,-0.25771 0.16002,0.15867 0.37923,0.25771 0.62028,0.25771 0.48669,0 0.88497,-0.40214 0.88497,-0.88904 v -2.48023 h 0.0584 c 0.26964,0 0.52289,-0.10585 0.71032,-0.28423 0.18743,-0.17821 0.31025,-0.44952 0.26178,-0.73945 l -0.64552,-3.86102 0.0524,0.0917 0.39349,0.68588 c 0.24222,0.42232 0.78921,0.56986 1.21005,0.3253 0.42084,-0.24455 0.56577,-0.79078 0.32353,-1.21308 l -1.57349,-2.74266 a 0.26469105,0.2645779 0 0 0 -9e-5,-7e-5 0.26469536,0.26458224 0 0 0 -0.007,-0.0135 0.26469105,0.2645779 0 0 0 -0.0647,-0.0706 c -0.1735,-0.16024 -0.40662,-0.25919 -0.66021,-0.25919 h -0.91902 a 0.26469105,0.2645779 0 0 0 -0.0537,-0.007 z m -3.84588,6.36721 a 0.26472925,0.26461612 0 0 0 0,0.52919 h 0.43291 a 0.26472925,0.26461612 0 0 0 0,-0.52919 z m 15.32311,0 a 0.26472925,0.26461612 0 0 0 0,0.52919 h 1.49771 a 0.26472925,0.26461612 0 0 0 0,-0.52919 z" style="color:#000000;font-style:normal;font-variant:normal;font-weight:normal;font-stretch:normal;font-size:medium;line-height:normal;font-family:sans-serif;font-variant-ligatures:normal;font-variant-position:normal;font-variant-caps:normal;font-variant-numeric:normal;font-variant-alternates:normal;font-feature-settings:normal;text-indent:0;text-align:start;text-decoration:none;text-decoration-line:none;text-decoration-style:solid;text-decoration-color:#000000;letter-spacing:normal;word-spacing:normal;text-transform:none;writing-mode:lr-tb;direction:ltr;text-orientation:mixed;dominant-baseline:auto;baseline-shift:baseline;text-anchor:start;white-space:normal;shape-padding:0;clip-rule:nonzero;display:inline;overflow:visible;visibility:visible;opacity:1;isolation:auto;mix-blend-mode:normal;color-interpolation:sRGB;color-interpolation-filters:linearRGB;solid-color:#000000;solid-opacity:1;vector-effect:none;fill:#000000;fill-opacity:1;fill-rule:nonzero;stroke:none;stroke-width:2.64583278;stroke-linecap:round;stroke-linejoin:round;stroke-miterlimit:4;stroke-dasharray:none;stroke-dashoffset:86.95724487;stroke-opacity:1;color-rendering:auto;image-rendering:auto;shape-rendering:auto;text-rendering:auto;enable-background:accumulate"/></g><text x="0" y="41.458334" fill="#000000" font-size="5px" font-weight="bold" font-family="'Helvetica Neue', Helvetica, Arial-Unicode, Arial, Sans-serif">Created by Lia Rahdiah</text><text x="0" y="46.458334" fill="#000000" font-size="5px" font-weight="bold" font-family="'Helvetica Neue', Helvetica, Arial-Unicode, Arial, Sans-serif">from the Noun Project</text></svg>