<svg xmlns="http://www.w3.org/2000/svg" xmlns:xlink="http://www.w3.org/1999/xlink" version="1.1" x="0px" y="0px" viewBox="0 0 100 125" enable-background="new 0 0 100 100" xml:space="preserve"><g display="none"><circle display="inline" cx="29.207" cy="20.747" r="6.217"/><circle display="inline" cx="11.902" cy="43.783" r="6.217"/><rect x="17.933" y="46.131" transform="matrix(-0.7071 -0.7071 0.7071 -0.7071 1.1003 98.9343)" display="inline" width="6.218" height="6.217"/><rect x="13.531" y="50.525" transform="matrix(-0.7071 -0.7071 0.7071 -0.7071 -9.521 103.3221)" display="inline" width="6.218" height="6.217"/><rect x="9.141" y="54.922" transform="matrix(-0.7071 -0.7071 0.7071 -0.7071 -20.1216 107.7285)" display="inline" width="6.217" height="6.218"/><rect x="17.93" y="54.921" transform="matrix(-0.707 -0.7072 0.7072 -0.707 -5.1267 113.9345)" display="inline" width="6.218" height="6.217"/><rect x="13.532" y="59.315" transform="matrix(-0.7071 -0.7071 0.7071 -0.7071 -15.7334 118.3307)" display="inline" width="6.218" height="6.217"/><rect x="22.206" y="59.196" transform="matrix(-0.7072 -0.707 0.707 -0.7072 -0.8335 124.2642)" display="inline" width="6.218" height="6.217"/><rect x="26.602" y="54.739" transform="matrix(-0.7072 -0.707 0.707 -0.7072 9.8226 119.7633)" display="inline" width="6.218" height="6.217"/><rect x="30.997" y="59.134" transform="matrix(-0.7069 -0.7073 0.7073 -0.7069 14.193 130.3656)" display="inline" width="6.219" height="6.216"/><rect x="35.395" y="63.53" transform="matrix(-0.7072 -0.707 0.707 -0.7072 18.6175 140.9877)" display="inline" width="6.218" height="6.217"/><rect x="39.785" y="67.923" transform="matrix(-0.7069 -0.7073 0.7073 -0.7069 22.9769 151.5836)" display="inline" width="6.219" height="6.216"/><rect x="17.812" y="63.592" transform="matrix(-0.7072 -0.707 0.707 -0.7072 -11.4447 128.6616)" display="inline" width="6.217" height="6.218"/><rect x="22.171" y="67.954" transform="matrix(-0.7071 -0.7071 0.7071 -0.7071 -7.0939 139.1866)" display="inline" width="6.218" height="6.217"/><rect x="26.529" y="72.319" transform="matrix(-0.7071 -0.7071 0.7071 -0.7071 -2.7412 149.72)" display="inline" width="6.218" height="6.217"/><rect x="22.172" y="76.679" transform="matrix(-0.7069 -0.7073 0.7073 -0.7069 -13.2808 154.071)" display="inline" width="6.219" height="6.217"/><rect x="4.741" y="59.318" transform="matrix(-0.7069 -0.7073 0.7073 -0.7069 -30.7541 112.1078)" display="inline" width="6.219" height="6.216"/><rect x="22.323" y="41.731" transform="matrix(-0.7071 -0.7071 0.7071 -0.7071 11.7065 94.529)" display="inline" width="6.218" height="6.217"/><rect x="26.689" y="37.366" transform="matrix(-0.7071 -0.7071 0.7071 -0.7071 22.2513 90.1643)" display="inline" width="6.218" height="6.217"/></g><g><path d="M23.062,0.013c4.506,0,8.161,3.649,8.161,8.156c0,4.505-3.655,8.148-8.161,8.148c-4.505,0-8.15-3.643-8.15-8.148   C14.912,3.663,18.557,0.013,23.062,0.013z"/><path d="M76.701,0.013c4.506,0,8.161,3.649,8.161,8.156c0,4.505-3.655,8.148-8.161,8.148s-8.15-3.643-8.15-8.148   C68.551,3.663,72.195,0.013,76.701,0.013z"/><path d="M95.449,28.607v25.029c0,4.882-6.432,4.882-6.432,0v-24.36h-2.047l0.01,66.133c0,2.512-2.055,4.578-4.577,4.578   c-2.532,0-4.568-2.066-4.568-4.578l-0.021-38.38h-2.016v38.38c0,2.512-2.046,4.578-4.568,4.578s-4.568-2.066-4.568-4.578   l-0.01-66.133l-3.028,0.01L52.958,52.177c-0.061,0.152-0.132,0.304-0.223,0.446c-0.031,0.07-0.071,0.132-0.112,0.192   c-0.132,0.223-0.313,0.425-0.517,0.607c-0.05,0.041-0.111,0.092-0.172,0.132c-0.081,0.071-0.172,0.142-0.273,0.192   c-0.202,0.132-0.426,0.243-0.658,0.314c-0.081,0.03-0.162,0.05-0.243,0.071c-0.071,0.029-0.151,0.04-0.232,0.05   c-0.172,0.03-0.345,0.051-0.527,0.051c-0.172,0-0.354-0.021-0.527-0.051c-0.081-0.01-0.162-0.021-0.233-0.05   c-0.081-0.021-0.162-0.041-0.243-0.071c-0.112-0.041-0.223-0.081-0.334-0.132s-0.223-0.111-0.324-0.183   c-0.102-0.051-0.193-0.121-0.274-0.192c-0.061-0.03-0.111-0.081-0.172-0.132c-0.192-0.183-0.365-0.385-0.517-0.607   c-0.041-0.061-0.081-0.132-0.111-0.192c-0.041-0.071-0.082-0.143-0.112-0.213l-0.111-0.233L36.376,29.286l-3.029-0.01l-0.01,66.133   c0,2.512-2.036,4.578-4.558,4.578c-2.532,0-4.578-2.066-4.578-4.578l0.01-38.38h-2.026l-0.01,38.38   c0,2.512-2.046,4.578-4.579,4.578c-2.522,0-4.578-2.066-4.578-4.578l0.01-66.133h-2.046v24.36c0,4.882-6.432,4.882-6.432,0V28.607   c0-5.885,3.626-10.585,9.4-10.585h18.273c0.891,0,1.722,0.102,2.481,0.304c2.512,0.639,4.355,2.249,5.521,4.335l0.679,1.448   L50,43.618l9.097-19.509l0.679-1.448c1.164-2.086,3.008-3.697,5.521-4.335c0.759-0.202,1.589-0.304,2.48-0.304h18.272   C91.823,18.022,95.449,22.722,95.449,28.607z"/><path d="M40.904,24.109l-0.679-1.448C40.499,23.117,40.722,23.603,40.904,24.109z"/></g><text x="0" y="115" fill="#000000" font-size="5px" font-weight="bold" font-family="'Helvetica Neue', Helvetica, Arial-Unicode, Arial, Sans-serif">Created by gilbert bages</text><text x="0" y="120" fill="#000000" font-size="5px" font-weight="bold" font-family="'Helvetica Neue', Helvetica, Arial-Unicode, Arial, Sans-serif">from the Noun Project</text></svg>