<svg xmlns="http://www.w3.org/2000/svg" xmlns:xlink="http://www.w3.org/1999/xlink" version="1.1" x="0px" y="0px" viewBox="0 0 90 112.5" enable-background="new 0 0 90 90" xml:space="preserve"><path d="M58.004,9.842c-1.027-0.025-2.011,0.073-2.927,0.276c-2.209,0.479-4.147,1.588-5.6,3.041  c-3.072,3.074-3.796,5.662-3.869,9.292c-0.057,2.833,1.703,5.24,4.063,6.323c1.271,0.551,3.079,0.5,4.303-0.104  c0.615-0.301,1.072-0.713,1.333-1.213c0.254-0.5,0.348-1.104,0.124-1.942l-2.265-8.464c-0.355-1.323,0.822-1.511,1.104-0.656  l2.849,8.672c0.318,1.183,0.197,2.303-0.26,3.193c-0.464,0.895-1.235,1.547-2.109,1.973c-1.751,0.864-3.964,0.938-5.781,0.14  c-1.506-0.656-2.934-1.807-3.865-3.369c-2.776,14.344-8.949,14.426-17.682,21.969c-6.672,5.754-8.521,15.566-5.459,22.713  c1.219,2.844-1.224,4.025-2.781,1.068c-2.827-5.355-3.032-11.328-0.563-16.595c0.938-1.994-0.369-4.442-2.265-4.353  c-0.902,0.047-1.705,0.677-2.104,1.645c-3.964,9.292-2.262,19.229,1.25,23.745c1.76,2.255,4.38,3.323,6.995,2.927  c1.15-0.177,2.792-0.724,4.489-1.573c1.574,1.042,3.417,1.652,5.532,1.652h13.573c-0.229-2.584-2.016-5.068-4.224-5.177  c-0.636-0.042-1.026-0.828-0.74-1.489l3.959-8.991c0.76-1.728,0.708-3.369,0.14-4.864c-0.568-1.5-1.729-2.754-3.036-3.661  c-1.339-0.927-0.521-2.621,0.822-1.818c1.683,1.015,3.073,2.667,3.823,4.651c0.75,1.989,0.812,4.369-0.183,6.63l-3.566,8.083  c0.656,0.197,1.271,0.536,1.839,0.974c3.317-1.004,5.399-2.447,6.796-4.353l1.901,10.016h11.599c-0.24-2.563-2-4.98-4.178-4.98  c-0.411,0-0.765-0.323-0.859-0.787c-0.849-4.03-1.448-7.541-1.448-12.238c0-0.959,1.068-1.058,1.167-0.262  c0.521,4.084,0.75,7.699,1.927,11.62c3.213,0.052,4.975,3.333,5.161,6.646h5.907c0-3.631-2.412-6.594-5.464-6.86  c-5.051-18.276-1.276-17.677-3.265-36.745c-0.219-2.072,0.708-3.905,3.016-5.02l6.255-3.033c4.115-1.781,4.417-4.364,4.615-6.645  c0.229-2.667-1.089-4.021-3.031-4.021c-5.344,0-5.527-0.932-7.776-3.514C64.457,11.165,61.071,9.926,58.004,9.842z"/><text x="0" y="105" fill="#000000" font-size="5px" font-weight="bold" font-family="'Helvetica Neue', Helvetica, Arial-Unicode, Arial, Sans-serif">Created by Cuputo</text><text x="0" y="110" fill="#000000" font-size="5px" font-weight="bold" font-family="'Helvetica Neue', Helvetica, Arial-Unicode, Arial, Sans-serif">from the Noun Project</text></svg>