<svg xmlns="http://www.w3.org/2000/svg" viewBox="0 0 128 160" x="0px" y="0px"><g><path d="M100.115,56.736a4.408,4.408,0,0,1-1.491-.063,2.56,2.56,0,0,1-1.774-1.522,7.614,7.614,0,0,1-.495-2.135c-.039-.392-.078-.785-.109-1.169a4.353,4.353,0,0,1-4.3-.605,1.335,1.335,0,0,1-.251-.314,1.513,1.513,0,0,1-.165-.314c-.086-.188-.126-.329-.188-.463a2.068,2.068,0,0,0-.142-.313.186.186,0,0,1-.031-.048.2.2,0,0,0,.078-.117l-.1.11a.756.756,0,0,0-.384-.008,3.2,3.2,0,0,0-.612.149c-.44.133-.879.314-1.35.486-.236.079-.471.165-.762.236a3.147,3.147,0,0,1-.879.047,13.307,13.307,0,0,1-1.436-.181,9.469,9.469,0,0,1-2.676-.816,2.75,2.75,0,0,1-.643-.463,1.232,1.232,0,0,1-.393-.973,1.294,1.294,0,0,1,.157-.487,19.07,19.07,0,0,1-2.346-.447,5,5,0,0,1-2.206-1.161,3.2,3.2,0,0,1-.643-.581,2.428,2.428,0,0,1-.534-1.625,8.492,8.492,0,0,0-2.409-.345,18.2,18.2,0,0,0-3.218.314c-1.138.18-2.331.424-3.618.534a12.97,12.97,0,0,1-2,.039l-.526-.039-.479-.071a3.631,3.631,0,0,1-1.1-.306c-.511-.228-.934-.495-1.358-.73-.2-.126-.408-.235-.6-.337-.11-.063-.165-.079-.244-.118l-.1-.055-.172-.047a.685.685,0,0,0-.369-.024,2.669,2.669,0,0,0-.479.244c-.094.062-.235.133-.353.2-.134.063-.22.094-.33.149-.22.086-.431.173-.643.259-.4.172-.817.361-1.256.541a4.245,4.245,0,0,1-1.491.346,1.969,1.969,0,0,1-.9-.22,1.939,1.939,0,0,1-.612-.534,4.385,4.385,0,0,0-.7-.117,2.482,2.482,0,0,0-1.8.643l-.094.071c-.142.2-.314.408-.511.651-.643.824-1.546,1.962-2.676,3.171-.149.141-.29.274-.439.408,3.343.361,6.584,1.185,8.9,3.877,3.516,4.1,1.3,11.262,1.672,16.08a18.084,18.084,0,0,1-.18,4.387l.023-.023a1.59,1.59,0,0,1,.7-.353c.015-.079.023-.157.047-.244a1.527,1.527,0,0,1,.612-.9,1.132,1.132,0,0,1,.706-.173.662.662,0,0,1,.22.047c.031-.117.063-.227.1-.337a3.589,3.589,0,0,1,.855-1.389,1.7,1.7,0,0,1,.871-.448,1.281,1.281,0,0,1,.613.055c.039.016.07.04.1.055A17.2,17.2,0,0,1,65.379,62.8a9.749,9.749,0,0,1,.652-.918l.007-.023.22-.361a14.385,14.385,0,0,1,.918-1.4,12.855,12.855,0,0,1,2.276-2.253c.212-.149.432-.282.644-.423a4.279,4.279,0,0,1,.675-.385c.235-.118.463-.228.69-.337.212-.079.416-.15.62-.22l.3-.11.039-.016.071-.023a.836.836,0,0,0,.094-.024l.157-.039.612-.165c.4-.11.793-.212,1.161-.3.455-.1.864-.212,1.256-.314-.282.031-.565.055-.848.086a35.083,35.083,0,0,1-4.261.2,15.25,15.25,0,0,1-3.508-.463,8.787,8.787,0,0,1-2.221-.879c-.479-.274-.73-.471-.7-.557.071-.212,1.264.259,3.1.518a21.349,21.349,0,0,0,3.328.165c1.256-.039,2.653-.157,4.136-.306s2.919-.259,4.246-.267a16.441,16.441,0,0,1,3.508.353c2.833.636,4.85,3.21,6.035,5.737.863,1.75,1.577,3.767,3.108,5.368.212.228.416.463.635.7q.3.258.613.518a4.628,4.628,0,0,0,.674.51,5.788,5.788,0,0,0,.762.486c1,.6,2.244,1.107,3.531,1.813,1.107-3.492,2.19-6.655,3.022-9.292-.141-.573-.306-1.2-.471-1.868C100.35,57.819,100.232,57.285,100.115,56.736Z"/><path d="M58.912,98.5c.165-.149.338-.306.511-.455s.345-.306.525-.455c.181-.2.354-.392.542-.589s.361-.4.541-.6c.157-.2.306-.385.463-.581.338-.408.644-.847.974-1.287a18.1,18.1,0,0,0,2.9-5.933,20.255,20.255,0,0,0,.393-7.1c-.259-2.519-.785-4.991-1.052-7.581-.039-.321-.071-.643-.11-.965a12.71,12.71,0,0,0-.3-1.719c-.259.448.086,1.546-.644,1.3-.368-.126-.533-1.083-.643-1.4a1.943,1.943,0,0,0-.345-.714c-.008-.016-.087.031-.165.1a2.554,2.554,0,0,0-.667,1.829l.243,2.158L60.694,72.84a1.608,1.608,0,0,0-.322-.306.286.286,0,0,0-.063.118,2.065,2.065,0,0,0-.07.463l-.024.659-.628-.047a.687.687,0,0,0-.463.078.991.991,0,0,0-.282.495c-.087.235-.157.518-.243.8-.048.142-.095.291-.157.448-.055.125-.118.259-.181.384a6.68,6.68,0,0,1-1.774,2.308c-.086.07-.172.133-.259.2A14.347,14.347,0,0,1,53.191,81.8,35.018,35.018,0,0,1,46.913,85.8c-1.389.707-2.888,1.013-3.72,2.457-.683,1.169-1.3,3.688-3.053,3.727-.086-.5-.369-.926-.487-1.4-.1-.416-.078-.879-.164-1.311a6.608,6.608,0,0,0-.832-2.174,7.009,7.009,0,0,0-3.689-2.707,18.71,18.71,0,0,0-6.8-1.342c-.016,1.922.2,3.712,2.919,3.822,1.374.054,2.818-.1,4.183.054,1.735.2,4.3,1.452,3.037,3.658-1.114,1.93-3.751,2.911-5.894,2.943-.055,0-.109-.008-.172-.008-.306,1.1.6,2.386.926,3.382.565,1.758-.487,3.108.675,4.952,1.766,2.818,4.607,3.83,7.856,3.524a33.742,33.742,0,0,0,6.78-1.436c.306-.141.62-.29.958-.439,1.216-.6,2.66-1.24,4.2-1.939a28.665,28.665,0,0,0,4.693-2.645C58.52,98.77,58.716,98.637,58.912,98.5Z"/><path d="M94.527,32.172c-.055-.04-.071-.04-.032.007Z"/><path d="M75.794,68.712c-.142.173-.212.235-.33.361-.11.11-.22.228-.306.322a.914.914,0,0,0-.291.526.772.772,0,0,0,.048.282l.023.086a.377.377,0,0,1,.016.04l.118.219.031.055h.063c.023.032.1.008.2,0a2.474,2.474,0,0,0,.745-.353,17.607,17.607,0,0,0,1.656-1.318c.283-.244.581-.5.911-.746a3.564,3.564,0,0,1,.612-.376c.188-.095.361-.157.541-.244a7.215,7.215,0,0,0,1.915-1.044,1.341,1.341,0,0,0,.314-1.6,3.432,3.432,0,0,0-.2-.51l-.063-.133-.031-.063c-.008-.016-.18-.282-.18-.282l-.173-.275a1.536,1.536,0,0,1-.165-.149,1.3,1.3,0,0,0-.369-.3,2.134,2.134,0,0,0-2.37-.024l-.039.188-.079.259q-.093.26-.188.5a3.2,3.2,0,0,1-.212.345,1.287,1.287,0,0,0,.157.1.919.919,0,0,1,.259.188,2.622,2.622,0,0,1,.377.416,5.855,5.855,0,0,1,.683,1.35c.117.314.172.5.133.51s-.173-.094-.369-.368c-.416-.558-.793-1.382-1.515-1.554a1.278,1.278,0,0,0-1.5.816.826.826,0,0,0-.047.2c-.007.024-.015.1-.023.1l.023.188a2.005,2.005,0,0,0,.047.354c.016.094.063.219.095.368a1.24,1.24,0,0,1,.023.62A2.424,2.424,0,0,1,75.794,68.712Z"/><path d="M84.474,60.063a.812.812,0,0,0-.063-.094c0,.142,0,.283-.008.4a9.508,9.508,0,0,0-.032,1.546,2.669,2.669,0,0,0,.142.643l.172.345.181.275c.165.243.369.495.573.785-.032-.345-.063-.706-.11-1.075A8.264,8.264,0,0,0,84.474,60.063Z"/><path d="M79.561,59.82A1.41,1.41,0,0,1,79.247,59l-.008-.149v-.078l.016-.126a1.888,1.888,0,0,0-.307.345,3.025,3.025,0,0,0-.439.981c.016.055.023.1.039.165a9.866,9.866,0,0,1,.1,1.554,2.416,2.416,0,0,1,.785-.157,3.743,3.743,0,0,1,1.06.086.438.438,0,0,0,.259-.431,1.089,1.089,0,0,0-.369-.534A9.033,9.033,0,0,1,79.561,59.82Z"/><path d="M36.294,90.059c1.068-1.272-2.024-1.209-2.378-1.2a21.309,21.309,0,0,1-2.825-.031.168.168,0,0,0-.063-.008C30.181,92.193,34.7,91.95,36.294,90.059Z"/><path d="M98.137,75.485c.071-.887.165-1.758.275-2.629l-.471-.275c-.393-.235-.769-.479-1.178-.706-1.161-.659-2.472-1.2-3.727-1.986a7.79,7.79,0,0,1-.919-.62,7.263,7.263,0,0,1-.863-.706c-.275-.267-.557-.526-.808-.785-.2-.243-.4-.486-.6-.73a12.3,12.3,0,0,1-1.954-3.3c-.055-.125-.094-.243-.141-.369a20.931,20.931,0,0,1-.848,3.344c-.525,1.577-1.216,3.06-1.734,4.449a14.591,14.591,0,0,1-.965,2.159l-.33.51-.385.479-.047.054c-.007.008-.07.063-.07.063a.169.169,0,0,1-.04.039l-.1.087-.2.173-.408.345a7.714,7.714,0,0,1-.879.635c-.3.2-.6.424-.894.581-.589.346-1.162.683-1.727.966a11.2,11.2,0,0,1-1.711.816,3.736,3.736,0,0,1-1.891.165,3.114,3.114,0,0,1-.863-.291,4.16,4.16,0,0,1-.369-.235l-.173-.118-.023-.016c-.008-.008-.063-.055-.063-.055L74,77.486l-.055-.063a2.494,2.494,0,0,1-.455-.682,3.12,3.12,0,0,1-.235-.691c0-.016,0-.024-.008-.031.016.361.039.729.063,1.13.078.918.2,1.938.314,3.029s.188,2.158.188,3.131a12.442,12.442,0,0,1-.275,2.6c-.345,1.507-.871,2.221-1.02,2.182-.2-.047.031-.973.094-2.315a33.7,33.7,0,0,0-.306-5.455c-.118-1.091-.2-2.15-.212-3.123a12.285,12.285,0,0,1,.22-2.6c.306-1.475.84-2.268.989-2.2a.1.1,0,0,1,.039.055c.063-.33.11-.51.157-.51a5.078,5.078,0,0,1,.188,1.86,7.619,7.619,0,0,0,.283,2.056,2.576,2.576,0,0,0,.228.526,1.355,1.355,0,0,0,.149.235l.078.1.126.126.063.062c.023.008.164.087.164.087a1.944,1.944,0,0,0,.267.157,2.38,2.38,0,0,0,.628.164,2.745,2.745,0,0,0,1.4-.2,12.809,12.809,0,0,0,1.514-.808c.55-.306,1.091-.651,1.649-1,.282-.164.518-.361.792-.541a6.71,6.71,0,0,0,.793-.612,6.421,6.421,0,0,0,2.135-3.438c.188-.51.384-1.012.588-1.514a19.5,19.5,0,0,1-2.2,1.389,10.5,10.5,0,0,0-2.253,1.577,23.044,23.044,0,0,0-1.342,2.072,3.077,3.077,0,0,1-1.867,1.452c-.095.016-.189.016-.275.023l-.071.008h-.078l-.11-.008a1.472,1.472,0,0,1-.463-.062,1.438,1.438,0,0,1-.762-.463,1.752,1.752,0,0,1-.345-1.068c.024-.243.055-.361.1-.369s.1.118.165.33c.518,1.7,2.315.7,2.9-.353a16.939,16.939,0,0,1,1.3-2.284,10.307,10.307,0,0,1,2.433-1.907,12.588,12.588,0,0,0,2.472-1.781,2.4,2.4,0,0,0,.753-2.127c-.141-.573-1.122-1.185-1.122-1.7l-.283-.456-.2-.423a4.016,4.016,0,0,1-.219-1.013,10.184,10.184,0,0,1,.062-1.742,2.988,2.988,0,0,0-.094-1.271,1.371,1.371,0,0,0-.8-.542,2.863,2.863,0,0,0-1.17-.133,1.1,1.1,0,0,0-.769.321c-.047.04-.031.063-.055.079l-.015.016-.008.078V59a.425.425,0,0,0,.094.283c.165.251.439.51.683.8a1.646,1.646,0,0,1,.486,1.193l-.015.11a1.312,1.312,0,0,1-.071.2,1.2,1.2,0,0,1-.165.275.124.124,0,0,0-.031.023,2.626,2.626,0,0,1,.4.236,2.43,2.43,0,0,1,.628.526l.282.306.173.274.173.275.023.031.039.071c.008.016.047.1.047.1l.071.157a5.586,5.586,0,0,1,.267.667,3.126,3.126,0,0,1,.133,1.562,2.531,2.531,0,0,1-.831,1.4,8.063,8.063,0,0,1-2.292,1.256c-.181.078-.377.149-.534.219a3.511,3.511,0,0,0-.377.236c-.29.212-.58.439-.871.675a16.6,16.6,0,0,1-1.812,1.365,3.528,3.528,0,0,1-1.17.487,1.333,1.333,0,0,1-.808-.079l-.212-.094c-.063-.047-.118-.1-.181-.157a1.427,1.427,0,0,1-.259-.329l-.109-.228-.024-.055c-.063-.125-.024-.047-.031-.078-.008-.016-.024-.055-.024-.055l-.039-.157a2.1,2.1,0,0,1-.063-.683,1.969,1.969,0,0,1,.6-1.107c.126-.125.236-.227.338-.329a2.533,2.533,0,0,0,.29-.291,1.857,1.857,0,0,0,.377-.525c.047-.048-.032-.307-.086-.636a2.424,2.424,0,0,1-.04-.448v-.2a1.478,1.478,0,0,1,.04-.282,2.012,2.012,0,0,1,.361-.816c.007-.087.023-.181.039-.291A3.607,3.607,0,0,1,75.9,64.5l.054-.095.1-.117c.032-.024.024-.032.071-.071a1.132,1.132,0,0,1,.189-.11,1.779,1.779,0,0,1,.47-.157.2.2,0,0,0,.063-.015l.055-.11a2.935,2.935,0,0,0,.173-.346c.016-.094.039-.18.062-.274l.048-.134v-.047l-.008-.055a8.78,8.78,0,0,1-.079-2.4,4.77,4.77,0,0,1,.84-2.323,3.258,3.258,0,0,1,2.127-1.272,5.352,5.352,0,0,1,2.2.118,3.3,3.3,0,0,1,.511.157,3.43,3.43,0,0,1,.51.212l.47.259.416.314a5.108,5.108,0,0,1,1.217,1.546,8.737,8.737,0,0,1,.808,3.218c.039.51.055.988.055,1.436a14.368,14.368,0,0,0,.369-2.386,7.267,7.267,0,0,0-.188-2.2,10.623,10.623,0,0,0-1.389-2.465,5.767,5.767,0,0,0-2.112-1.405,4.6,4.6,0,0,0-3.092-.039,5.356,5.356,0,0,0-2.213,1.436,6.21,6.21,0,0,0-.706.872c-.173.3-.345.572-.471.824s-.22.494-.314.7c-.079.2-.133.4-.188.549-.1.291-.173.44-.228.44s-.055-.181-.031-.495c.015-.156.023-.353.062-.58.063-.236.142-.5.22-.809.1-.29.251-.6.4-.949a7.489,7.489,0,0,1,.7-1.036c-.651.243-1.366.5-2.072.738-.361.125-.738.251-1.122.384-.189.063-.377.134-.573.2l-.141.055-.071.024-.024.008-.3.133c-.2.079-.392.173-.6.259-.157.094-.314.188-.479.283a9.082,9.082,0,0,0-.981.7,10.775,10.775,0,0,0-1.758,1.939c-.243.392-.51.769-.722,1.2l-.165.314-.023.039c0,.008-.032.087-.032.087l-.078.18c-.11.244-.212.487-.322.73a11.675,11.675,0,0,0-.565,2.849c-.078,1.036-.031,2.166-.008,3.359l.008.447.024.4c.023.3.039.6.062.9s.032.6.055.91c.04.283.071.573.11.864.267,2.315.824,4.85,1.107,7.534A27.174,27.174,0,0,1,68.51,85.3a10.922,10.922,0,0,1-.227,2.025c-.047.329-.1.659-.157.989l-.023.125L68.1,88.5l-.032.11-.063.22-.117.447a20.016,20.016,0,0,1-3.453,6.7c-.361.463-.715.934-1.091,1.358l-.6.69c-.188.189-.376.385-.565.573s-.377.385-.565.573c-.227.189-.455.377-.683.557-.149.126-.306.244-.455.369a29.343,29.343,0,0,0,6.2-4.826c.432-.51.832-1.036,1.248-1.538l1.122-1.358.063,1.687a32.266,32.266,0,0,1-1.044,8.421c-.471,2.025-.745,3.265-.918,3.265-.157-.008-.18-1.311.055-3.414.173-1.687.573-3.916.628-6.38-.063.062-.118.141-.173.2a26.011,26.011,0,0,1-8.17,5.619c-.667.3-1.248.541-1.758.745a48.041,48.041,0,0,1,6.208,18.812c2.935-1.962,5.423-4.5,8.28-6.608,3.359-2.488,6.89-4.7,10.32-7.079,2.763-1.915,5.415-3.987,8.123-5.972.243-.338.455-.691.7-1.036a2.883,2.883,0,0,0,.338-.62c.1-.228.2-.448.314-.683L92.165,99c.023-.047.07-.22.109-.322l.236-.706a12.589,12.589,0,0,0,.439-1.46,48.88,48.88,0,0,0,1.06-10.689c.047-2.794.165-4.529.345-4.529s.4,1.727.589,4.513a36.757,36.757,0,0,1-.707,11.034,12.668,12.668,0,0,1-.478,1.554c-.087.259-.181.51-.267.754a2.728,2.728,0,0,1-.149.408l-.149.3a54.423,54.423,0,0,1,7.251-4.309C95.555,91.668,97.713,80.468,98.137,75.485Zm-8.4,9.441c-.322,1.632-.785,3.885-1.437,6.365a32.626,32.626,0,0,1-2.283,6.215c-.809,1.484-1.452,2.3-1.609,2.229-.173-.086.188-1.075.761-2.637.534-1.538,1.2-3.7,1.852-6.145s1.256-4.685,1.813-6.278,1.036-2.527,1.2-2.472C90.218,82.266,90.069,83.294,89.74,84.926Z"/><path d="M105.687,31.285l-1.452.973-.44-1.57a4.786,4.786,0,0,1-.149-.769c-.031-.2-.055-.392-.078-.6-.055-.385-.1-.762-.165-1.123-.031-.188-.071-.376-.11-.549a.97.97,0,0,0-.086.1L100.939,30.6l.008-1.468c-.118.15-.228.3-.338.448l-.494.69-.5-.682c-.117-.157-.227-.306-.345-.463-.016.164-.039.321-.055.447-.031.463-.094.753-.212.769s-.282-.212-.447-.667a5.7,5.7,0,0,1-.181-2.041l.11-1.208.856.894c.2.22.431.456.659.7.016.024.039.039.055.063a8.042,8.042,0,0,0,.855-2.425c-.031-.5-.07-.989-.141-1.444a6.891,6.891,0,0,0-.62-2.206,1.817,1.817,0,0,0-.18-.235c-.393.541-.762,1.146-1.1,1.672A28.851,28.851,0,0,1,97.1,26.05c-.463.589-.855.871-.981.761s-.039-.478.173-1.193.565-1.71,1.075-2.95c.235-.542.479-1.123.816-1.766.031-.283.063-.581.086-.895a1.7,1.7,0,0,0-.047-.6c0-.008-.047-.008.032-.032l-.071-.015c-.024,0-.055-.024-.071-.008,0,.008.008.023.008.031s.024.04.024.04a.668.668,0,0,0-.11-.032,7.813,7.813,0,0,0-.879-.165,6.151,6.151,0,0,1-1.3-.329,3.149,3.149,0,0,1-.777-.455,2.858,2.858,0,0,1-.369-.369l-.023-.024c-.016-.023-.087-.133-.087-.133l-.015-.032-.047-.078a3.022,3.022,0,0,1-.134-.291,14.357,14.357,0,0,1-.423-1.381c-.189-.714-.377-1.46-.613-2.095l-.5.855a6.309,6.309,0,0,1-.118,2.825,2.266,2.266,0,0,1-.73,1.186,1.3,1.3,0,0,1-.588.266,17.826,17.826,0,0,1,.2,2.739c-.063.864-.2,1.366-.353,1.374s-.283-.518-.44-1.35c-.188-.793-.479-1.923-.769-3.32l-.2-.957,1.028.251c.212.055.251.023.306-.024a1.269,1.269,0,0,0,.275-.541A6.4,6.4,0,0,0,91.647,15a3.974,3.974,0,0,0-.126-.6l-.173-.2a8.3,8.3,0,0,1-.722-1.021c-.321-.549-.635-1.091-.949-1.624a5.317,5.317,0,0,0-.848-1.146.324.324,0,0,0-.118-.094,3.1,3.1,0,0,0-.737.871l-.887,1.444-.973-1.3c-.385-.526-.761-1.059-1.075-1.436a2.572,2.572,0,0,0-.4-.416.615.615,0,0,0-.29-.133c-.079.007-.157.007-.235.007a1.552,1.552,0,0,0-.291.055c-.094.016-.188.04-.282.055-.11.04-.228.079-.338.118-.22.079-.329.126-.526.212s-.376.18-.557.259a3.75,3.75,0,0,1-1.993.424c-.471-.094-.691-.212-.683-.338s.235-.251.6-.369A5.278,5.278,0,0,0,81.421,8.9c.149-.118.313-.251.486-.384.071-.055.165-.118.259-.181-.533-.235-1.083-.471-1.585-.667l-.455.024a9.438,9.438,0,0,0-1.413.164c-.126.024-.267.079-.408.118l-.18.055c0,.008-.016.016-.016.016l-.047.023-.079.047a1.833,1.833,0,0,0-.6.424c-.761.62-.722,2.048-1.319,3.618l-.321.832-.707-.589c-.369-.3-.745-.627-1.091-.879a1.618,1.618,0,0,0-.259-.172,3.988,3.988,0,0,0-.274.879l-.142.62-.572-.11a3.805,3.805,0,0,1-1.123-.432c-.306-.157-.588-.322-.855-.479-.542-.313-1.052-.6-1.53-.839a5.114,5.114,0,0,0-.683-.3c-.1-.023-.212-.062-.3-.078l-.118-.008c-.055-.016-.008,0-.016-.016-.149.016-.141.008-.22.157a1.577,1.577,0,0,0-.078.5,10.314,10.314,0,0,0,.212,1.868c.07.455.086.722.015.745s-.235-.18-.447-.6a6.363,6.363,0,0,1-.612-1.97,2.359,2.359,0,0,1,.031-.8,1.27,1.27,0,0,1,.244-.494l.047-.063.094-.078.016-.016.078-.047.071-.055c.055-.023.117-.047.18-.071a1.548,1.548,0,0,1,.612-.07,4.277,4.277,0,0,1,.479.078,6.534,6.534,0,0,1,.856.291c.557.227,1.1.51,1.648.792.282.142.557.291.839.424.055.024.11.055.173.079a2.961,2.961,0,0,1,.345-.746,1.2,1.2,0,0,1,.511-.432.938.938,0,0,1,.4-.086,1.163,1.163,0,0,1,.345.031,2.33,2.33,0,0,1,.808.424c.149.11.283.22.416.33.1-.361.2-.738.306-1.122A4.293,4.293,0,0,1,76.2,8.07l-.283-.055a4.643,4.643,0,0,1-.565-.157,3.108,3.108,0,0,1-.973-.62l-.024-.023-.141-.055a4.218,4.218,0,0,1-1-.667c-.04.008-.079.015-.11.023-.283.032-.314.063-.416.071a3.3,3.3,0,0,0-.793.526,2.471,2.471,0,0,1-.416.251c-.149.086-.322.016-.51.063-.377.125-.7-.04-1.028-.04h-.094l-.071.11a2.954,2.954,0,0,1-.706-.259,3,3,0,0,1-.448-.368c-.219-.252-.353-.432-.431-.518a.464.464,0,0,0-.079-.087c-.141-.29-1.444.848-1.585.981a4.275,4.275,0,0,0-1.114,1.907c-.2-.078-.283-.235-.409-.424a13.018,13.018,0,0,0-.8-1.357c-.1-.141-.228-.259-.345-.4a3.181,3.181,0,0,0-.44-.337,1.69,1.69,0,0,0-.541-.22,1.868,1.868,0,0,0-.667-.086.707.707,0,0,0-.487.126,1.348,1.348,0,0,0-.33.517c-.07.15-.109.267-.2.5-.125.337-.251.706-.4,1.036a5.4,5.4,0,0,1,.267.581l.1.3c.015.062.031.078.055.18l.031.142c.047.18.094.36.134.572a4.623,4.623,0,0,0,.259,1.021,2.535,2.535,0,0,0,.6.784,4.871,4.871,0,0,0,.4.369c.189.149.306.212.495.353a1.977,1.977,0,0,1,.494.432,2.569,2.569,0,0,1,.22.377,3.089,3.089,0,0,1,.078.392,2.827,2.827,0,0,1-.008.455,15.373,15.373,0,0,1,1.547.393,5.117,5.117,0,0,1,1.961,1.114,4.588,4.588,0,0,1,1.248,3.446,13.421,13.421,0,0,1-.227,2.268c-.087.525-.173.808-.251.808s-.165-.29-.22-.824-.071-1.295-.173-2.2a5.65,5.65,0,0,0-.306-1.382c-.039-.1-.078-.212-.118-.314a3.459,3.459,0,0,0-.227-.368l-.126-.189A.309.309,0,0,1,67,17.174l-.071-.063c-.086-.094-.18-.188-.274-.282a7.821,7.821,0,0,0-3.626-1.217l-.636-.11.134-.69.078-.377a1.967,1.967,0,0,0,.016-.29.088.088,0,0,1-.008-.063c-.016-.008-.024-.008-.016-.024a1.434,1.434,0,0,0-.212-.165c-.157-.109-.408-.274-.549-.392a4.138,4.138,0,0,1-.526-.486,3.913,3.913,0,0,1-.855-1.193,4.911,4.911,0,0,1-.306-1.287c-.032-.181-.071-.369-.11-.558a4.538,4.538,0,0,1-.283.487c-.329-.393-.675-.808-1.02-1.224a5.476,5.476,0,0,0-.526.706,8.527,8.527,0,0,0-1,2.323c-.157.573-.157.918-.259.942-.079.015-.259-.33-.252-1.013a6.621,6.621,0,0,1,.691-2.707,5.43,5.43,0,0,1,.683-1.052c-.047-.055-.094-.1-.134-.157l-.251-.267-.172-.172A4.668,4.668,0,0,0,56.071,6.8a.665.665,0,0,0-.447-.008,1.539,1.539,0,0,0-.518.471,3.447,3.447,0,0,0-.282.432l-.142.243-.149.322c-.369.816-.69,1.742-1.044,2.621L52.5,9.962,51.99,9.5c-.164-.126-.321-.236-.486-.354a1.413,1.413,0,0,0-.157-.094l-.11-.063c-.071-.039-.149-.062-.22-.1a2.548,2.548,0,0,0-.416-.133c-.259-.055-.416-.024-.439.008-.024.008-.063.063-.11.149l.1.1c1.216,1.546,1.012,2.5.84,2.5-.11.023-.236-.126-.463-.424a7.825,7.825,0,0,0-1.193-1.24,2.206,2.206,0,0,0-1.028-.495.653.653,0,0,0-.424.063.109.109,0,0,1-.071.024l-.2.165-.094.055H47.6a.333.333,0,0,0-.04.094,4.512,4.512,0,0,0,.04,1.836l.047.33c.023.18.047.361.07.549a8.738,8.738,0,0,1,.055,1.209.112.112,0,0,0-.008.055,3.159,3.159,0,0,1,.879.3c.267.125.518.275.769.424a5.177,5.177,0,0,1,.142-.542,2.934,2.934,0,0,1,.659-1.138,1.718,1.718,0,0,1,1.46-.479,2.736,2.736,0,0,1,1.138.448l.2.125.235.2a3.071,3.071,0,0,1,.393.384c.439.5.737.965,1.067,1.3l.118.118.062.055c.126.094.236.157.33.219a5.862,5.862,0,0,0,.6.369,14.205,14.205,0,0,0,1.884.746c.486.141.753.267.745.361s-.3.141-.824.141a6.847,6.847,0,0,1-2.252-.424,5.543,5.543,0,0,1-.667-.306c-.11-.055-.22-.11-.338-.172l-.039-.016-.07-.047a.313.313,0,0,0-.04-.032l-.086-.07-.181-.141c-.463-.393-.824-.887-1.2-1.264a2.4,2.4,0,0,0-1.24-.7.388.388,0,0,0-.369.125,1.753,1.753,0,0,0-.345.636,7.339,7.339,0,0,0-.267,1.24l-.134.989-.839-.5c-.573-.345-1.029-.682-1.484-.926a1.948,1.948,0,0,0-.541-.219c-.032.109-.071.235-.11.353V15.4a1.087,1.087,0,0,0,.11.424,3.655,3.655,0,0,0,.683.879c.525.518,1.02.91,1.326,1.217.322.313.455.518.408.588s-.29-.016-.675-.2a9.683,9.683,0,0,1-1.624-.95,4.013,4.013,0,0,1-1.013-1.02,2.026,2.026,0,0,1-.314-.918c0-.016-.008-.039-.008-.055-.078-.039-.165-.071-.251-.118a6.6,6.6,0,0,1-1.358-.981c-.329-.29-.667-.588-1-.895-.259-.219-.51-.431-.769-.627a4.827,4.827,0,0,0-.769-.495c-.244-.133-.463-.165-.416-.141-.024.031.031-.071-.11.188a3.523,3.523,0,0,0-.149.463c-.063.2-.11.424-.157.652q-.141.647-.283,1.318c-.423-.259-.855-.526-1.295-.792l-.659-.354a2.263,2.263,0,0,0-.322-.149l-.149-.063a4.364,4.364,0,0,0-1.153-.274,1.151,1.151,0,0,0-.236,0h-.1a.081.081,0,0,1-.039.008l-.024.008c0,.023.008.117.008.117a1.368,1.368,0,0,0,.055.393,11.124,11.124,0,0,1,1.711,1.4,16.5,16.5,0,0,1,1.585,1.883,15.3,15.3,0,0,1,1.334,2.2c.095-.11.2-.22.291-.33a1.773,1.773,0,0,1,.738-.369,2.012,2.012,0,0,1,1.53.345,5.263,5.263,0,0,1,1.028.919,9.975,9.975,0,0,1,.981,1.357,2.7,2.7,0,0,1,.6-.494,2.892,2.892,0,0,1,.5-.22,2.816,2.816,0,0,1,.588-.078,3.22,3.22,0,0,1,.6.117,4.637,4.637,0,0,1,.5.283c.031.031.008,0,.094.071l.039.039.071.063a2.214,2.214,0,0,1,.243.314,2.107,2.107,0,0,1,.212.557,3.784,3.784,0,0,1,.078.949c-.015.573-.094,1.1-.078,1.492a3.1,3.1,0,0,0,.942,2.111,1.679,1.679,0,0,0,.439.235l.251.063.063.015.032.008.007-.157c-.117-.015-.055-.133-.055-.164a1.247,1.247,0,0,1,.181.164c.11,0,.228.095.33.087l.259.023c.172-.008.384-.031.573-.055.776-.141,1.538-.345,2.3-.416a3.174,3.174,0,0,1,2.1.409,3.021,3.021,0,0,1,1.013,1.216,3.3,3.3,0,0,1,.3.9c.039.212.039.33-.008.346s-.125-.071-.243-.243a8.616,8.616,0,0,0-.487-.738,2.7,2.7,0,0,0-.949-.832,2.511,2.511,0,0,0-1.593-.126c-.644.118-1.358.377-2.206.581-.227.039-.424.094-.683.126a4.656,4.656,0,0,1-.706.047,2.866,2.866,0,0,1-1.624-.5A4.229,4.229,0,0,1,48.5,24.206c-.031-.628.047-1.122.055-1.609a2.465,2.465,0,0,0-.047-.62.576.576,0,0,0-.071-.181c-.008-.007.024.016,0-.015l-.07-.063-.016-.016c0-.008-.008-.008-.016-.008a.576.576,0,0,0-.737-.023,1.861,1.861,0,0,0-.715.816l-.557,1.271-.62-1.232a11.33,11.33,0,0,0-1.287-2.056c-.463-.581-1.083-1.044-1.4-.949-.078-.016-.165.07-.259.1a3.061,3.061,0,0,0-.259.282c-.07.126-.149.2-.227.361s-.142.306-.212.463a5.149,5.149,0,0,0-.353,1.6c-.126,2.1,1.043,3.116.847,3.241-.055.032-.361-.117-.769-.62a4.337,4.337,0,0,1-.918-2.629,5.481,5.481,0,0,1,.274-1.985c.048-.134.095-.259.142-.393-.432-.423-1.06-1.114-1.986-2.087a21.635,21.635,0,0,0-1.64-1.546,8.572,8.572,0,0,0-2.276-1.429c-.22-.094-.432-.117-.651-.188-.2.016-.432-.071-.628,0a2.05,2.05,0,0,0-.3.047c-.1.047-.205.086-.307.126a.522.522,0,0,0-.321.251,2.019,2.019,0,0,0-.134,1.326c.032.141.055.29.1.432.024.07.04.149.071.219l.039.1a2.174,2.174,0,0,0,.126.274,8.013,8.013,0,0,0,.957,1.162c.393.408.785.824,1.185,1.248-.706.023-1.42.054-2.15.086a6.6,6.6,0,0,0-1.091.1l-.259.039a1.21,1.21,0,0,0-.2.032l-.086.039c.023,0,.055.008.078.008a12.835,12.835,0,0,1,2.111.635,15.071,15.071,0,0,1,5.251,3.72,12.483,12.483,0,0,1,1.969,2.794c.3.644.346.973.236,1.044s-.385-.11-.871-.6c-.487-.47-1.209-1.24-2.339-2.2a16.136,16.136,0,0,0-4.928-2.951,8.61,8.61,0,0,0-3.728-.51c-.73.087-2.1.189-2.143,1.185-.047,1.06,1.719.989,2.174,1.994-.722.008-1.452-.071-2.182-.118-1.24-.086-1.342,2.033-.471,2.605.566.369,1.515-.266,2.064-.392a4.237,4.237,0,0,1,2.732.1,8,8,0,0,1,2.174,1.358,4.689,4.689,0,0,1,1.075,1.279,1.2,1.2,0,0,1,.149.471.254.254,0,0,1-.094.228.265.265,0,0,1-.259.007,2.082,2.082,0,0,1-.4-.133c-.314-.141-.8-.337-1.365-.589a13.106,13.106,0,0,0-2.064-.659c-.259-.063-.118-.094-.9-.078v.031c0,.4.055.808.087,1.216-.016-.2-3.422-.839-3.815-.463-.988.95,1.688,3.14,2.292,3.618a7.131,7.131,0,0,0,4.866,1.335,52.375,52.375,0,0,1,5.462,0c2.15.18,4.991.7,7.063-.032a9.04,9.04,0,0,1,2.818-.62,1.245,1.245,0,0,1,1.271,1.24c-.479,2.637-1.036,5.149-1.7,7.73-.314,1.248-.785,2.473-1.208,3.7,0,.133.007.259.007.4.173-.267.4-.588.667-.965.212-.3.479-.644.762-1a16.484,16.484,0,0,1,1.193-1.75,6.089,6.089,0,0,1,1.8-1.522,6.726,6.726,0,0,1,2.542-.66l.44-.031.149.479a3.289,3.289,0,0,0,.29.753,3.222,3.222,0,0,0,.55.181,2.644,2.644,0,0,0,1.452-.142c.3-.141.612-.29.934-.431.2-.087.416-.173.627-.267.1-.047.228-.094.306-.141s.15-.079.252-.142a3.246,3.246,0,0,1,.777-.376,1.852,1.852,0,0,1,1.036,0,4.414,4.414,0,0,1,.808.321c.227.126.447.244.659.369a11.731,11.731,0,0,0,1.232.659,1.749,1.749,0,0,0,.361.134l.071.031a.727.727,0,0,1,.094.016l.243.031.479.079.432.023a12.338,12.338,0,0,0,1.781-.015c1.193-.094,2.37-.314,3.54-.471a18.216,18.216,0,0,1,3.437-.243,9.443,9.443,0,0,1,3.116.651l.424.173-.1.423a1.506,1.506,0,0,0,.219,1.311,3.032,3.032,0,0,0,1.091.863,11.351,11.351,0,0,0,2.26.785c.691.079,1.452.133,2.276.235l1.468.173-1.248.785c-.267.165-.486.471-.447.487a.37.37,0,0,0,.078.094,1.839,1.839,0,0,0,.385.243,9.227,9.227,0,0,0,2.338.62,12.009,12.009,0,0,0,1.3.133,1.547,1.547,0,0,0,.526-.031,5.286,5.286,0,0,0,.6-.2c.432-.165.9-.361,1.4-.526a5.924,5.924,0,0,1,.832-.2,2.07,2.07,0,0,1,1.06.094l-.016-.016.055.024c-.016,0-.024-.008-.039-.008a1.832,1.832,0,0,1,.416.243,3.317,3.317,0,0,1,.259.314,3.7,3.7,0,0,1,.259.542c.062.149.117.306.165.416.015.031.039.086.047.11-.016,0-.032.007.031.055l.055.055a1,1,0,0,0,.11.062l.212.126a3.373,3.373,0,0,0,.455.2c.157.055.322.079.479.126l.486.039a3.5,3.5,0,0,0,1.845-.549l.9-.558.086,1.044a16.6,16.6,0,0,0,.5,3.893,1.437,1.437,0,0,0,.966.9,4.37,4.37,0,0,0,1.538.04l.526-.055.071.455c.117.753.227,1.467.337,2.142.016.071.024.142.039.22.2-.738.393-1.468.589-2.213a63.083,63.083,0,0,0,1.6-8.131,21.162,21.162,0,0,0-.165-2.276,7.793,7.793,0,0,0-.275-1.3,1.915,1.915,0,0,0-.243-.5c-.1-.118-.086-.078-.1-.086a1,1,0,0,0-.345.188l-.644.487-.353-.691a5.228,5.228,0,0,1-.494-1.97c-.016-.133-.024-.259-.032-.392a2.09,2.09,0,0,1-.2.18,1.075,1.075,0,0,1-.926.259.711.711,0,0,1-.408-.329,1.1,1.1,0,0,1-.126-.314,1.946,1.946,0,0,1,0-.809c.039-.172.094-.266.149-.274.126-.032.22.4.456.855a.932.932,0,0,0,.094.126v-.032a.12.12,0,0,1,.031-.031,1.076,1.076,0,0,0,.141-.141,8.169,8.169,0,0,0,.793-1.107l.691-1.044.306,1.272c.2.824.227,1.734.447,2.511.1-.023.2-.047.322-.063a1.307,1.307,0,0,1,.761.173,1.687,1.687,0,0,1,.487.439,1.168,1.168,0,0,1,.11.181q.234-3.237.259-6.5a12.189,12.189,0,0,1-1.586.227c-.565.063-.91.063-.957-.07s.172-.377.675-.683c.525-.322,1.334-.628,2.127-1.083a3.138,3.138,0,0,0,.988-.871c.055-.094.087-.2.142-.306l.07-.149a1.117,1.117,0,0,0,.04-.126,2.075,2.075,0,0,0,.039-.337,3.916,3.916,0,0,0,.015-.44A5.672,5.672,0,0,0,105.687,31.285ZM53.019,32.5c-.04.024-.126-.023-.244-.118a2.988,2.988,0,0,0-.51-.384,5.215,5.215,0,0,0-2.15-.754,4.91,4.91,0,0,0-1.515.016,7.379,7.379,0,0,0-1.672.714,4.334,4.334,0,0,1-2.432.573,3.416,3.416,0,0,1-.644-.125,2.692,2.692,0,0,1-.722-.369c-.377-.275-.667-.565-.934-.769a1.683,1.683,0,0,0-.345-.212.447.447,0,0,0-.079.063c-.086.078-.2.2-.321.321a2.37,2.37,0,0,1-1.107.754l-.024.008H40.3a3.237,3.237,0,0,1-2.119-.6,8,8,0,0,1-1.358-1.146,14.037,14.037,0,0,1-1.734-2.244c-.832-1.35-1.107-2.276-.966-2.339s.652.7,1.633,1.86a18.356,18.356,0,0,0,1.836,1.923,7.416,7.416,0,0,0,1.225.91,2.162,2.162,0,0,0,1.255.369c.008-.031.024,0,.032-.016a1.061,1.061,0,0,1,.11-.086,3.626,3.626,0,0,0,.3-.3c.118-.118.22-.243.384-.393a1.384,1.384,0,0,1,.848-.408A1.988,1.988,0,0,1,43,30.233c.361.29.636.557.9.746a2.965,2.965,0,0,0,.291.18,2.278,2.278,0,0,0,.478.1,3.317,3.317,0,0,0,1.743-.392,7.761,7.761,0,0,1,1.993-.691,5.378,5.378,0,0,1,1.891.149,4.631,4.631,0,0,1,2.315,1.287,1.717,1.717,0,0,1,.385.62C53.05,32.391,53.058,32.478,53.019,32.5Zm5.509,2.6a3.043,3.043,0,0,1-.016.361l-.031.361a3.817,3.817,0,0,1-.385,1.42,1.367,1.367,0,0,1-.785.652,1.768,1.768,0,0,1-.816.047,11.051,11.051,0,0,1-1.507-.393c-.086.4-.164.738-.219,1-.071.393-.142.62-.244.628s-.212-.2-.314-.6a7.075,7.075,0,0,1-.086-1.727l.031-.479.566.055c.58.063,1.294.236,1.891.283a.772.772,0,0,0,.29-.024c.032-.015.008-.008.063-.086a3.326,3.326,0,0,0,.2-.926l.032-.314c.008-.055.015-.212.015-.306a5.914,5.914,0,0,0,.024-.636c-.008-.188-.016-.369-.024-.549s-.055-.361-.07-.534a5.215,5.215,0,0,0-.652-1.75c-.557-.942-1.106-1.468-.981-1.632.087-.126.856.117,1.743,1.083a4.9,4.9,0,0,1,1.075,2.024c.047.212.11.432.149.66.016.235.039.471.063.714S58.528,34.871,58.528,35.1Zm32.75-6.765a7.346,7.346,0,0,1,.18-.934c.275-1.162.691-1.68.8-1.632.141.047-.047.706-.079,1.742-.015.267-.031.565-.023.887a9.256,9.256,0,0,0,.047,1.028,10.585,10.585,0,0,0,.157,1.146.028.028,0,0,1,.008-.016,4.411,4.411,0,0,1,.494-.542,1.608,1.608,0,0,1,.965-.455h.032l.031.008a2.463,2.463,0,0,1,.4.086,1.354,1.354,0,0,1,.432.291,1.225,1.225,0,0,1,.243.4,1.431,1.431,0,0,1,.1.322l.095.455a3.54,3.54,0,0,0,.125.361l.126.314a2.032,2.032,0,0,1,.682-.016l.181.016.165.039a1.829,1.829,0,0,1,.274.071,2.483,2.483,0,0,1,.636.314,2.1,2.1,0,0,1,.8,1.067,4.52,4.52,0,0,1,.094,2.048c-.079.581-.189,1.091-.275,1.554a3.272,3.272,0,0,0-.008,1.978c.2.369.55.463.51.565-.007.047-.094.071-.251.071a1.041,1.041,0,0,1-.651-.314,1.764,1.764,0,0,1-.487-1.036,6.615,6.615,0,0,1-.047-1.374q.058-.717.118-1.554a3.939,3.939,0,0,0-.141-1.514.912.912,0,0,0-.361-.448,1.6,1.6,0,0,0-.275-.117c-.024-.016-.149-.032-.22-.055a.761.761,0,0,1-.094-.016l-.078-.008a.836.836,0,0,0-.291.008.061.061,0,0,1-.023.008c0,.008,0,0-.016.016l-.047.055a.737.737,0,0,1-.534.219.747.747,0,0,1-.494-.227,1.616,1.616,0,0,1-.165-.259l-.063-.157-.1-.259-.2-.495c-.047-.125-.133-.368-.181-.549l-.094-.471a.044.044,0,0,0-.008-.031c-.015.015-.039.031-.062.055a3.011,3.011,0,0,0-.346.361c-.235.282-.439.58-.667.91l-.6.863-.432-.9a5.943,5.943,0,0,1-.479-2.763A8.138,8.138,0,0,1,91.278,28.334ZM78.839,11.782a1.984,1.984,0,0,1,1.342.016,2.8,2.8,0,0,1,1.373,1.562,10.088,10.088,0,0,1,.455,1.373c.149-.125.291-.243.448-.361a4.828,4.828,0,0,1,1.585-.737,2.456,2.456,0,0,1,1.075-.024,1.921,1.921,0,0,1,.6.251,1.305,1.305,0,0,1,.211.165c.055.047.1.1.149.149l.095.126a5.025,5.025,0,0,1,.682,1.828,12.239,12.239,0,0,1,.173,1.3c.039.369.086.785.1,1.209.039.824.024,1.585.008,2.3a10.633,10.633,0,0,0,.377,3.6,6.011,6.011,0,0,0,1.279,2.033c.408.432.643.683.6.769s-.384-.039-.934-.369a5.236,5.236,0,0,1-1.8-2.072A6.987,6.987,0,0,1,86.1,23.06a16.442,16.442,0,0,1-.181-2.111c-.023-.73-.031-1.483-.086-2.229-.016-.369-.071-.746-.117-1.185a9.823,9.823,0,0,0-.165-1.146,4.189,4.189,0,0,0-.448-1.326l-.031-.047a.275.275,0,0,0-.1-.087.846.846,0,0,0-.149-.054,1.316,1.316,0,0,0-.5,0,4.454,4.454,0,0,0-2.135,1.294l-.746.848-.251-1.036c-.212-.91-.3-1.672-.494-2.3a2.228,2.228,0,0,0-.809-1.287c-.722-.424-1.412-.2-1.42-.361C78.454,11.971,78.58,11.884,78.839,11.782ZM75.378,24.5l.141.126.275.243c.094.094.2.235.3.361a9.189,9.189,0,0,1,.989,1.7c.251.518.471,1.028.714,1.444.063.11.118.212.18.314l.2.259.086.126.1.1c.086.086.172.165.259.251.173.141.306.227.455.337.173.087.33.2.494.267a9.219,9.219,0,0,0,1.735.51c.439.094.691.173.691.267s-.252.181-.715.243a5.01,5.01,0,0,1-2.024-.141,5.4,5.4,0,0,1-.668-.243,5.541,5.541,0,0,1-.682-.416c-.094-.071-.189-.149-.291-.22a1.2,1.2,0,0,1-.172-.157l-.15-.157L77,29.37c-.086-.118-.165-.243-.243-.361a15.927,15.927,0,0,1-.848-1.515,9.655,9.655,0,0,0-.824-1.405,2.262,2.262,0,0,0-.172-.227l-.275-.251-.126-.118h-.008a.6.6,0,0,0-.078-.039c-.008.007-.016,0-.023,0h-.016l-.141.078-.157.063a.541.541,0,0,1-.212.063,1.15,1.15,0,0,1-.44-.024l-.086-.031-.016-.008h-.016l-.133-.055H73.18l-.047-.039a2.969,2.969,0,0,1-.384-.3,3.73,3.73,0,0,1-.777-1.311c-.016-.039-.032-.071-.047-.118-.04.11-.071.212-.1.314a3.287,3.287,0,0,1-.534,1.13,1.02,1.02,0,0,1-.793.416c-.18-.031-.267-.078-.275-.133s.079-.11.236-.181a1.023,1.023,0,0,0,.329-.424,4.179,4.179,0,0,0,.2-1,4.847,4.847,0,0,1,.126-.722,2.2,2.2,0,0,1,.416-.911l.369-.447.416.447a5.1,5.1,0,0,1,.722,1.138,2.868,2.868,0,0,0,.573.887.323.323,0,0,0,.094.063l.1-.055a1.21,1.21,0,0,1,.306-.118,1.183,1.183,0,0,1,.369-.031,2.329,2.329,0,0,1,.329.055,1.721,1.721,0,0,1,.252.11l.117.055.063.031.024.016h.008l.094.07V24.5Zm-5.219-8.735c.062-.031.212.11.4.44.2.314.392.847.7,1.318.173.228.314.322.495.275a1.353,1.353,0,0,0,.392-.141s.181-.1.181-.134l.157-.165a9.45,9.45,0,0,1,.988-1.13,2.626,2.626,0,0,1,.228-.157,2.174,2.174,0,0,1,.314-.133,1.229,1.229,0,0,1,.753.047,1.432,1.432,0,0,1,.346.188,5.19,5.19,0,0,1,.745-.6,2.482,2.482,0,0,1,1.947-.455A1.975,1.975,0,0,1,79,16.06a3.955,3.955,0,0,1,.463,1.145l.047.251.031.314a3.591,3.591,0,0,1,.008.581,9.709,9.709,0,0,1-.079,1c-.157,1.256-.353,2.331-.368,3.2a2.456,2.456,0,0,0,.494,1.813,1.727,1.727,0,0,0,.416.353c.11.086.165.157.157.2s-.094.063-.243.055a1.173,1.173,0,0,1-.644-.2,2.7,2.7,0,0,1-1.114-2.166,20.683,20.683,0,0,1,.086-3.367c.016-.3.039-.612.031-.9a3.37,3.37,0,0,0-.015-.408l-.016-.18-.055-.243c-.126-.526-.463-1.076-.722-1.107a1.326,1.326,0,0,0-.91.275,5,5,0,0,0-.966.824l-.518.541-.463-.588c-.117-.157-.266-.322-.306-.322,0-.008.008-.008.008-.016a.069.069,0,0,1-.039.008.411.411,0,0,1-.079.047c-.274.2-.573.6-.941.95a2.823,2.823,0,0,1-.338.274,1.57,1.57,0,0,1-.361.2,2.069,2.069,0,0,1-.785.157,1.2,1.2,0,0,1-.8-.29,1.624,1.624,0,0,1-.408-.549,6.065,6.065,0,0,1-.408-1.562C70.1,16.005,70.08,15.785,70.159,15.761ZM59.846,24.355l-.133-.5a7.436,7.436,0,0,1-.188-1.185,2.648,2.648,0,0,0-.11-.589c-.032-.071-.055-.165-.079-.165,0-.016-.008-.031-.008-.055-.015-.031-.086-.078-.125-.117a1.067,1.067,0,0,0-.832-.267,3.022,3.022,0,0,0-1.852.855l-.526.518L55.64,22.3a14.51,14.51,0,0,0-1.06-1.523,1.073,1.073,0,0,0-.408-.329c-.055-.032-.157,0-.282.117-.432.534-.612,1.076-.738,1.013-.055-.016-.079-.142-.071-.369a2.327,2.327,0,0,1,.291-1.028,1,1,0,0,1,.855-.518,1.616,1.616,0,0,1,.981.455,6.806,6.806,0,0,1,.934,1.02,3.062,3.062,0,0,1,.644-.447,3.444,3.444,0,0,1,1.514-.479,2.316,2.316,0,0,1,1.782.557,1.056,1.056,0,0,1,.141.134,3.013,3.013,0,0,1,.2.251,1.908,1.908,0,0,1,.244.494,3.956,3.956,0,0,1,.18.871c.016.165.031.314.047.456.416-.024.84-.063,1.3-.079a3.325,3.325,0,0,1,1.083.181,1.634,1.634,0,0,1,.494.251,1.468,1.468,0,0,1,.408.337c.11.126.22.244.33.369a3.777,3.777,0,0,1,.236.369,6.481,6.481,0,0,1,.384.714,9.52,9.52,0,0,1,.432,1.342c.188.793.486,1.052.91,1.177.4.1.667.126.675.22,0,.079-.228.22-.73.259a1.545,1.545,0,0,1-.957-.3,2.533,2.533,0,0,1-.73-1.052c-.173-.384-.33-.808-.534-1.161a4.4,4.4,0,0,0-.384-.581,2.413,2.413,0,0,0-.2-.275l-.228-.219a1.485,1.485,0,0,0-1.162-.361c-.525.031-1.169.125-1.852.164ZM78.831,39.808A5.1,5.1,0,0,1,76.4,38.544c-.879-.753-1.688-1.836-2.669-2.77a7.785,7.785,0,0,0-.769-.628c-.141-.1-.314-.2-.478-.3a2.433,2.433,0,0,0-.408-.2,6.5,6.5,0,0,0-2.214-.118,3.083,3.083,0,0,1-1.8-.6,3.285,3.285,0,0,1-.533-.51,5.579,5.579,0,0,1-.7.848,4.157,4.157,0,0,1-1.7,1.051,3.341,3.341,0,0,1-1.8-.007A4.648,4.648,0,0,1,62,34.7a6.83,6.83,0,0,1-1.46-1.358c-.259-.361-.377-.589-.322-.644.126-.133.84.6,2.19,1.295a3.114,3.114,0,0,0,2.386.275,4.477,4.477,0,0,0,2.119-2.26l.47-.926.636.879a4.278,4.278,0,0,0,.824.918,1.841,1.841,0,0,0,1.075.33,6.84,6.84,0,0,1,2.622.227,3.712,3.712,0,0,1,.635.33c.165.11.322.2.487.321a9.979,9.979,0,0,1,.926.817c1.06,1.122,1.742,2.213,2.456,2.974,1.4,1.554,2.841,1.656,2.794,1.884C79.827,39.831,79.474,39.918,78.831,39.808Zm11.976,6.019a11.718,11.718,0,0,1-2.025-.581,10.631,10.631,0,0,1-2.825-1.506,7.964,7.964,0,0,1-2.433-3.179c-.086-.2-.181-.408-.267-.612a5.959,5.959,0,0,1-.188-.612c-.04-.157-.087-.306-.126-.455a1.4,1.4,0,0,0-.188.039A2.64,2.64,0,0,1,82.2,38.9a3.053,3.053,0,0,1-.479-.157,3.8,3.8,0,0,1-1.248-1.028,8.786,8.786,0,0,1-1.224-2.072c-.526-1.216-.628-2.017-.5-2.056.157-.055.526.62,1.217,1.672A11.685,11.685,0,0,0,81.3,36.975a2.93,2.93,0,0,0,.895.651.7.7,0,0,0,.777-.133l.745-.558.283.919q.153.529.329,1.083a5.237,5.237,0,0,0,.173.557c.078.172.157.345.235.526a7.645,7.645,0,0,0,2,2.778,13.582,13.582,0,0,0,2.433,1.6c.761.392,1.381.722,1.812.942.432.243.66.416.628.5S91.293,45.921,90.807,45.827Zm7.455-.895a4.547,4.547,0,0,1-2.629.322,8.12,8.12,0,0,1-1.765-.431,6.014,6.014,0,0,1-.958-.432,3.868,3.868,0,0,1-.455-.275c-.2-.157-.314-.259-.479-.4a5.081,5.081,0,0,1-1.271-2.088,15.216,15.216,0,0,1-.526-2.37,9.129,9.129,0,0,0-.573-2.252c-.047.031-.086.063-.141.1a1.875,1.875,0,0,1-1.177.408,2.218,2.218,0,0,1-1.711-1.091,5.965,5.965,0,0,1-.762-2.754c-.078-1.539.165-2.418.3-2.41.165,0,.212.895.5,2.308a5.886,5.886,0,0,0,.855,2.236,1.145,1.145,0,0,0,.9.518,1.361,1.361,0,0,0,.377-.227,8.261,8.261,0,0,1,.784-.558l.5-.282.329.479a7.7,7.7,0,0,1,1.123,3.3c.243,1.585.518,2.974,1.365,3.814A6.4,6.4,0,0,0,95.8,44.328a5.08,5.08,0,0,0,2.276.118c.526-.11.777-.314.856-.236C98.992,44.25,98.843,44.619,98.262,44.932Z"/><path d="M40.281,85.868c.746,1.146.432,2.017.526,3.327a26.893,26.893,0,0,0,1.938-3.311c.479-.966,1.649-1.154,2.59-1.539,4.709-1.938,10.226-5.878,11.168-11.269.494-2.873-.039-5.9.063-8.814a44.789,44.789,0,0,0,.07-6.733c-.722-6.106-6.16-6.875-11.206-7.181a.994.994,0,0,1-.942-1.24c.471-2.064,1.342-4.144,1.962-6.2A55.234,55.234,0,0,0,47.909,36.5c-2.221.235-4.214.942-6.608.769-2.644-.188-5.226-.165-7.871-.188a14.752,14.752,0,0,1-3.767-.44,26.716,26.716,0,0,1-2.48,11.678c-1.491,3.155-2.182,5.768.18,8.609a4.6,4.6,0,0,1,1.17,1.923c.58,3.139-1.389,6.231-2.779,8.923-1.287,2.472-3.366,5.659-3.139,8.555.157,2.04,1.586,2.809,3.194,3.319a1.265,1.265,0,0,1,.079-.651A1.294,1.294,0,0,1,26.2,78.5a1.661,1.661,0,0,1,.471-.369l.18-.1a1.867,1.867,0,0,1,.306-.1,2.508,2.508,0,0,1,.644-.087,6.212,6.212,0,0,1,2.166.55c.832.329,1.8,1.114,2.707.745a2.363,2.363,0,0,0,1.319-2.221,3.769,3.769,0,0,0-.557-1.977,2.431,2.431,0,0,0-3.053-1.076,4.763,4.763,0,0,0-1.468.824c-.871.691-1.562,1.413-2.1,1.845s-.91.6-1,.51c-.1-.1.071-.448.416-1.02a14.754,14.754,0,0,1,1.735-2.371,5.706,5.706,0,0,1,1.813-1.318,4.023,4.023,0,0,1,2.409-.392c.447.086,2.393.682,2.393,1.287a11.725,11.725,0,0,1,.4-2.912c.188-.667.361-1,.447-.989.212.039-.086,1.538.086,3.885a13.32,13.32,0,0,0,.911,3.955,9.865,9.865,0,0,0,1.146,2.057,9.113,9.113,0,0,0,.792.949,6.189,6.189,0,0,0,.455.447l.244.2.117.109.063.048.032.031a5.8,5.8,0,0,0,2.189,1.028,6.3,6.3,0,0,0,2.268.047,11.856,11.856,0,0,0,3.814-1.342c2.08-1.114,3.242-2.095,3.383-1.938.1.109-.832,1.349-2.9,2.746a11.531,11.531,0,0,1-4.089,1.743,7.4,7.4,0,0,1-2.731.015,7.091,7.091,0,0,1-2.676-1.2l-.047-.04a.114.114,0,0,1-.031-.023l-.032-.032-.07-.062-.142-.118-.282-.243a6.136,6.136,0,0,1-.51-.51,9.131,9.131,0,0,1-.9-1.107,9.241,9.241,0,0,1-.824-1.436,3.74,3.74,0,0,1-1.012,1.507,2.533,2.533,0,0,1-.754.518,2.858,2.858,0,0,1-.777.3l-.306.07-.07.016-.04.008-.094.016-.031.008-.244.007a1.7,1.7,0,0,1-.455-.023,1.877,1.877,0,0,1-.4-.079,6.7,6.7,0,0,1-1.248-.486,9.019,9.019,0,0,1-1.648-.063c-.345-.024-.588-.031-.816-.031a.912.912,0,0,1,.243.4.965.965,0,0,1,.118.377,19.055,19.055,0,0,1,9.418,2.33A7.612,7.612,0,0,1,40.281,85.868ZM32.245,68.783c-.542.981-1.052,1.4-1.2,1.326-.322-.212.9-2.464.918-5.478a11.376,11.376,0,0,0-.588-3.743c-.314-.934-.612-1.515-.456-1.641.126-.1.707.291,1.3,1.24a7.984,7.984,0,0,1,1.068,4.16A9.122,9.122,0,0,1,32.245,68.783ZM41.5,53.165c-1.648-.738-3.179-1.373-4.278-1.758-1.122-.408-1.867-.659-1.82-.855.031-.157.792-.251,2.024-.063a18.773,18.773,0,0,1,4.639,1.475A17.493,17.493,0,0,1,46.144,54.6c.926.856,1.342,1.531,1.216,1.641-.141.141-.769-.275-1.781-.887C44.566,54.727,43.13,53.958,41.5,53.165Zm8.687,10.642a3.608,3.608,0,0,1-.6,1.3,5.906,5.906,0,0,1-1.209,1.169,9.848,9.848,0,0,1-2.566,1.272c-.675.219-1.138.3-1.232.133s.212-.518.793-.957,1.412-.942,2.228-1.523a9.486,9.486,0,0,0,1.044-.879,4.469,4.469,0,0,0,.659-.84c.314-.526.44-.965.644-.965C50.107,62.512,50.342,62.983,50.185,63.807Z"/></g><text x="0" y="143" fill="#000000" font-size="5px" font-weight="bold" font-family="'Helvetica Neue', Helvetica, Arial-Unicode, Arial, Sans-serif">Created by Hey Rabbit</text><text x="0" y="148" fill="#000000" font-size="5px" font-weight="bold" font-family="'Helvetica Neue', Helvetica, Arial-Unicode, Arial, Sans-serif">from the Noun Project</text></svg>