<svg xmlns="http://www.w3.org/2000/svg" xmlns:xlink="http://www.w3.org/1999/xlink" version="1.1" x="0px" y="0px" viewBox="0 0 100 125" enable-background="new 0 0 100 100" xml:space="preserve"><g><path d="M67.6618958,31.6737671c-0.0354614-0.2322388-0.1107788-0.5545044-0.2278442-0.8128662   c-0.1170654-0.2583008-0.2808838-0.4500732-0.4921875-0.5548706c-0.2113647-0.1048584-0.4473267-0.1149902-0.7380981-0.0123291   c-0.0899048,0.0316772-0.1798096,0.0701904-0.2680054,0.1134033c0.0187378-0.0469971,0.038269-0.0968018,0.0596313-0.15271   c0.0447388-0.7483521-0.0223389-1.8144531-0.2011719-3.1984253c-0.1104736-0.6721191-0.3154297-1.7203369-0.6148682-3.1446533   c-0.1342773-0.5821533-0.2866821-1.1300049-0.4573975-1.6434937c-0.1408691-0.4238892-0.2948608-0.822998-0.4605713-1.2000732   c-0.0656128-0.2470703-0.1334839-0.4891357-0.2055054-0.7219849c-0.0314941-0.1043091-0.0698853-0.2155151-0.1152954-0.3337402   c-0.1255493-0.3077393-0.2092285-0.5007935-0.2509766-0.5790405c-0.4970093-0.972168-1.0289307-1.8283691-1.5958252-2.5685425   l-0.3971558-0.4990845c-0.0656738-0.078064-0.1309814-0.1532593-0.1958618-0.225769   c-0.0438843-0.0722656-0.0866699-0.1394653-0.1281738-0.2003174c-0.4238281-0.6314697-0.7818604-1.0838013-1.0740967-1.3569946   c-0.3400879-0.3379517-0.9943848-0.8012085-1.9622803-1.3896484c-0.1394653-0.0957642-0.2824707-0.1884155-0.4302979-0.2767334   c-1.5480347-0.9197388-2.6289673-1.5029907-3.2428589-1.7496338c-1.0229492-0.3574219-1.9568481-0.5493774-2.8016357-0.5758667   l-0.3300171-0.0067749c-0.4249268,0.0053101-0.770752,0.0282593-1.0373535,0.0686646   c-0.184082,0.0437622-0.3485718,0.0933228-0.4940186,0.1484985c-0.1454468-0.0551758-0.3099976-0.1047363-0.4940796-0.1484985   c-0.2666016-0.0404053-0.6124268-0.0633545-1.0373535-0.0686646l-0.3299561,0.0067749   c-0.8448486,0.0264893-1.7787476,0.2184448-2.8016968,0.5758667c-0.6138306,0.2466431-1.6948242,0.829895-3.2427979,1.7496338   c-0.1478882,0.0883179-0.2908936,0.1809692-0.4303589,0.2767334c-0.9678955,0.5884399-1.6221924,1.0516968-1.9622192,1.3896484   c-0.2922974,0.2731934-0.6503296,0.7255249-1.0741577,1.3569946c-0.0415039,0.0608521-0.0842896,0.1280518-0.1281738,0.2003174   c-0.0648193,0.0725098-0.130127,0.1477051-0.1958618,0.225769l-0.3971558,0.4990845   c-0.5668945,0.7401733-1.0988159,1.5963745-1.5957642,2.5685425c-0.0418091,0.0782471-0.1254883,0.2713013-0.2510376,0.5790405   c-0.0453491,0.1182251-0.0838013,0.2294312-0.1152954,0.3337402c-0.0720215,0.2328491-0.1398926,0.4749146-0.2054443,0.7219849   c-0.1657104,0.3770752-0.3197632,0.7761841-0.4606323,1.2000732c-0.1706543,0.5134888-0.3231201,1.0613403-0.4573364,1.6434937   c-0.2994995,1.4243164-0.5044556,2.4725342-0.6148682,3.1446533c-0.178894,1.3839722-0.2459106,2.4500732-0.2011719,3.1984253   c0.0213013,0.0559082,0.0408325,0.1057129,0.0595703,0.15271c-0.0881958-0.0432129-0.1781006-0.0817261-0.2680054-0.1134033   c-0.2907715-0.1026611-0.5267334-0.0925293-0.7380371,0.0123291c-0.2113647,0.1047974-0.3751221,0.2965698-0.4921875,0.5548706   c-0.1171265,0.2583618-0.1924438,0.5806274-0.2279053,0.8128662c-0.0354614,0.2322998-0.0370483,0.3278198-0.0335083,0.4388428   c0.00354,0.1109619,0.0097656,0.2386475,0.0209351,0.3834839s0.0284424,0.3069458,0.0808105,0.6177979   s0.1243286,0.6951294,0.1869507,1.0137939c0.062561,0.3186035,0.1101074,0.5723267,0.1499023,0.7581787   c0.0397339,0.1858521,0.0574951,0.302063,0.0716553,0.430481c0.0141602,0.1283569,0.0285034,0.3344727,0.0437622,0.607605   c0.0151978,0.2731323,0.0267944,0.6127319,0.0421143,1.0177612c0.0152588,0.4050293,0.0354614,0.8752441,0.0615234,1.1860352   s0.0356445,0.4111938,0.0501099,0.5137939c0.0145264,0.1026001,0.0447388,0.2055664,0.065979,0.3125   s0.0422363,0.2167358,0.0950928,0.4454956c0.0529175,0.2288208,0.1329956,0.5529175,0.2277222,0.8522339   c0.0947876,0.2992554,0.2010498,0.5748901,0.3231812,0.8248901c0.1220703,0.249939,0.2578125,0.4749756,0.3916626,0.6567993   c0.1338501,0.1818848,0.2609253,0.3323975,0.3912964,0.463562c0.0060425,0.0061035,0.012207,0.0115356,0.0182495,0.0175171   c-0.0467529,0.0980835-0.0603027,0.2161255-0.0405273,0.354248l-0.0129395-0.0223389l-0.0043945,0.0247192   c-0.0097046,0.1287842-0.0024414,0.760498,0.0219116,1.8950806c0.0471191,1.6848755,0.0800781,2.7011108,0.0988159,3.0485229   c0.0151978,0.6965942,0.0211182,1.4609375,0.0178223,2.2930908c0,0.0008545,0.000061,0.0016479,0.000061,0.0025024   c-0.1315308,0.9503174-0.2727051,1.9941406-0.423584,3.1323242c-0.1291504,0.9640503-0.2498169,2.0521851-0.3620605,3.2644043   c-0.1303101,1.4008789-0.2102661,2.3829346-0.2399292,2.946106l-0.2769775,6.1205444   c-0.0079956,0.1594849-0.0094604,0.3287964-0.0042725,0.5078735l-0.015686,0.4208374   c-0.0303955,0.6506958-0.1105347,1.9623413-0.2404785,3.9349976c-0.1016235,1.6159668-0.2330933,2.9769287-0.3942871,4.0841675   l0.7495728-4.8461914l0.5414429-3.7127686c0.1077881-0.8710327,0.1706543-1.4263916,0.1887207-1.6660156l0.2594604-2.9068604   c-0.0585327,2.7134399-0.1026611,4.3515015-0.1322021,4.9122925c-0.0056763,0.1039429-0.0112305,0.2069702-0.0167236,0.3096313   c-0.1525879,1.416626-0.3999634,3.6080933-0.7423706,6.5758057l-0.2872925,2.1789551L32.92453,77.4401855   c-0.0611572,0.4973145-0.12323,0.9761353-0.1861572,1.4365234c-0.1035156,0.8022461-0.1950684,1.37677-0.2747192,1.7255859   l1.2503662-5.24823c0.0159302-0.0482178,0.0701904-0.2955322,0.1625977-0.7410278   c0.0458984,0.0534668,0.1021118,0.0516357,0.1688843-0.0070801l-0.1589966,1.6798706   c-0.0356445,0.3853149-0.0975952,1.1773071-0.1859131,2.3759766l-0.0133667,0.2363892   c0.041626,0.5181274,0.0595703,0.8969116,0.053833,1.1364136c-0.0043945,0.5254517-0.012207,0.8899536-0.0234985,1.0933228   c-0.0997925,1.5789185-0.1512451,2.4856567-0.1544189,2.7203369c-0.0037231,0.071106-0.0259399,0.3331299-0.0664063,0.7848511   c0.0785522-0.8440552,0.2358398-2.1259155,0.4719238-3.8457031l0.197876-1.2975464l0.0452271-0.2420654   c0.0671997-0.1799927,0.1205444-0.3789673,0.1600342-0.5968018c0.0048828,0.2203369,0.0075073,0.3723755,0.0079956,0.4553833   c0.008667,0.5317993,0.0114136,0.8956299,0.0081177,1.0914307c-0.0020752,0.2324219-0.012085,0.5258179-0.0300903,0.880188   l-0.0808105,1.3709106c0.0176392-0.2515869,0.0393677-0.5270386,0.0652466-0.8278198l0.2536011-2.7476196l0.0732422-0.71698   l0.0568237-0.5014038l-0.0578003,2.5440674l-0.0130615,0.7427979c-0.0078735,0.7695923-0.0107422,1.2127686-0.008606,1.3294678   c0.0016479,0.3717041,0.0170288,1.519104,0.0459595,3.4421997c0.0053711,0.4329834,0.0047607,0.786377-0.0018311,1.0603638   c-0.0209351,0.6083374-0.0751343,1.2214355-0.1627197,1.8392334l0.2861328-1.7800903l0.1036987-0.848938   c0.2029419-2.5482788,0.3156738-3.8950195,0.3381348-4.0402222l0.3892822-3.9196777l0.1313477-1.2089233   c-0.001709,0.1082153-0.0036621,0.2263794-0.0057983,0.3544922l-0.005127,0.7737427   c-0.0062256,0.3764038-0.0119629,0.8210449-0.0171509,1.3339844c-0.0021362,0.1607056-0.0057983,0.3519287-0.0110474,0.5736694   l-0.0783081,2.244873c-0.0073853,0.1888428-0.0134277,0.5441895-0.0181274,1.0661011   c0.0015869,0.288269,0.0031738,0.4518433,0.0048828,0.4906616c0.0195923,0.7753296,0.0367432,1.3297729,0.0514526,1.6633911   l0.0714111,1.0005493c0.0114746,0.1871948,0.019104,0.3525391,0.0229492,0.4959717   c0.006958,0.286499-0.003418,0.5363159-0.031189,0.7493896c0.0192871-0.1473389,0.031189-0.3085327,0.0356445-0.4834595   c0.0015869-0.0523682,0.0025024-0.1112061,0.0028687-0.1764526c-0.0003052-0.5292969,0.0003052-0.7816772,0.0018921-0.7570801   c0.0003052-0.0728149,0.0060425-0.2692261,0.0172729-0.5893555c0.0116577-0.3087769,0.0321655-0.6381836,0.0615234-0.9882202   c0.0414429-0.5057373,0.1744995-1.822876,0.3990479-3.9500122c0.0151978,0.182251,0.0307617,0.2543945,0.0465698,0.2144775   c0.0075684,0.0159912,0.015564,0.0229492,0.0240479,0.022644c-0.0020142,0.4877319-0.0019531,0.7234497,0.0002441,0.7064819   c0.0449219,2.3469849,0.0679932,3.8092041,0.0690918,4.3866577c0.0004272,0.6218262-0.0219727,1.2481079-0.0673218,1.8789063   c-0.0020752,0.0795288-0.0010376,0.1651001,0.0015259,0.2532959c-0.0023193-0.1280518,0.0019531-0.2489624,0.0129395-0.3626099   c0.005127-0.1113892,0.072998-0.6797485,0.2037354-1.7050171c0.0358276-0.5870972,0.1272583-1.7176514,0.274231-3.3916626   c0.0168457-0.1108398,0.1497803-1.5882568,0.3986816-4.4300537c0.0454102,0.121521,0.0941162,0.2575073,0.1465454,0.4094238   c0.0124512,0.0204468,0.0267944,0.0360718,0.0427856,0.0477905c0.0084229,0.3820801,0.0184937,0.826355,0.0302124,1.3363037   c0.0028076,0.1635132,0.0037842,0.3635254,0.0029907,0.6000977l-0.0132446,1.0475464l-0.0073853,2.7606812   c-0.0010376,0.2703857-0.0065918,0.8102417-0.0166626,1.6196899c-0.0059814,0.4719849-0.0114746,0.809021-0.0163574,1.0109863   l-0.0458374,1.6405029c-0.0004883,0.3043213,0.0169067,0.5552368,0.052124,0.7526245   c-0.0496826-0.2973022-0.0526123-0.6375732-0.0089111-1.020752l0.076355-0.6998901   c0.1810303-1.3287964,0.2976074-2.2188721,0.3496094-2.670166c0.0978394-0.8134155,0.1886597-1.6138916,0.272583-2.4013672   c0.0409546-0.3687744,0.0767212-0.7583008,0.1078491-1.1662598c0.026001,0.5651245,0.0485229,1.1305542,0.0653076,1.6964722   c0.0048218,0.1072388,0.0164795,0.5915527,0.0349121,1.453064c0.0023193,0.0686035,0.0059204,0.3201904,0.0108032,0.7546997   l0.0140991,0.5096436c0.0019531,0.125061,0.0040283,0.3262939,0.0061035,0.6037598   c0.0026855,0.2418823-0.0025024,0.6777954-0.015564,1.3077393c-0.0013428,0.0649414,0.0001831,0.1744385,0.0045776,0.3284912   c0.0047607,0.1598511,0.010498,0.2737427,0.0172729,0.3417358c-0.020874-0.2653809-0.017334-0.5683594,0.0106201-0.9088745   l0.041687-0.4778442l0.1671753-1.6333618c0.0600586-0.7877808,0.130188-1.8635864,0.2103882-3.227356l0.0605469-1.1817017   l0.0883179-2.6452026l0.0598755-1.355896c0.0036011,0.3979492,0.0092163,0.762207,0.0170898,1.0898438   c0.0046387,0.2555542,0.0117188,0.4835815,0.0211792,0.684082c0.0042114,0.1071167,0.0158691,0.2550659,0.0350342,0.4439697   c0.003479,0.0515137,0.0050659,0.1000977,0.0046997,0.145752l-0.0045776,0.1287842l-0.0231934,0.2556152   c-0.0021973,0.0283203-0.0029907,0.0545654-0.0024414,0.0787964l0.0343018,1.031189   c0.0385742,0.4539185,0.0684204,0.9333496,0.0896606,1.4382935c0.0686646,1.6031494,0.1077881,2.6115723,0.1173096,3.0251465   c0.0134277,0.5667114,0.0161743,1.0463867,0.0081787,1.4390259c-0.0089722,0.5917358-0.0219727,0.9990234-0.0390015,1.2232056   l0.1603394-1.6316528c0.0563965-0.6807861,0.0861816-1.0913696,0.0894775-1.2317505   c0.0239258-0.4320068,0.0365601-0.6832275,0.0379028-0.7537231c0.0241699-1.2232666,0.0531006-2.1679077,0.086853-2.8339844   c0.015625-0.3493652,0.0343018-0.6196289,0.0560303-0.81073c-0.0036011-0.0112305,0.0253296-0.6231079,0.0869141-1.8357544   c0.0048218-0.071228,0.0093384-0.1400146,0.0140381-0.210144l0.0307007,0.6771851   c0.0332031,0.4945679,0.0889893,1.5420532,0.1672363,3.142395l0.0405273,0.6374512   c0.0155029,0.3032837,0.0288696,0.6616821,0.0401001,1.0753174c0.0076904,0.3436279,0.0031738,0.8672485-0.0135498,1.5709229   c-0.0427856,0.9158325-0.0830078,1.5323486-0.1206665,1.8494873c0.0314941-0.2781982,0.1171265-0.8781128,0.2568359-1.7998047   c0.0151367-0.1060181,0.0390625-0.3050537,0.0716553-0.5971069c0.0369873-0.3181763,0.0789185-0.8419189,0.1257935-1.571106   l0.0472412-0.9768677c0.0126953-0.8563232,0.0307007-1.6664429,0.053894-2.4304199   c0.0107422-0.3731689,0.0239868-0.7304077,0.0397339-1.0717773c0.0128174-0.4562378,0.0211792-0.7304688,0.0250244-0.8226318   l0.0360718-0.7869263l0.0253906-0.9087524c0.0625,1.4641724,0.1342163,2.84729,0.2155151,4.1450806   c0.0396118,0.6676025,0.0663452,1.0681152,0.0802612,1.2016602c0.006958,0.0621948,0.0106201,0.0667114,0.0109863,0.0136719   c0.0256348,0.2109985,0.0549927,0.3751221,0.0882568,0.4923706c0.0127563,0.0449829,0.0262451,0.0808716,0.0401001,0.1119995   l-0.0527344,1.5476074c-0.0169067,0.4072266-0.0375977,0.8473511-0.0621338,1.3203125   c-0.0296021,0.6039429-0.1036987,1.3150024-0.2224121,2.1331177c-0.0103149,0.116333-0.0153198,0.2322388-0.0150146,0.3476563   c0.0003052,0.039856,0.0012817,0.0700073,0.0029907,0.0905151c-0.0031128-0.1381226,0.0018311-0.2687988,0.0147705-0.3920898   c0.003479-0.041626,0.027771-0.1932373,0.072876-0.454834l0.5301514-2.588562   c0.05896-0.3039551,0.1245117-0.7420654,0.1966553-1.314209c0.4041748-3.3457642,0.6845703-5.9259644,0.8414917-7.7411499   c0.0157471,0.5926514,0.0297241,1.1351929,0.0418091,1.6265869l-0.0142212,1.1951904   c-0.0030518,0.2250366-0.0078735,0.4874878-0.0145264,0.7874146c-0.0211792,0.8309937-0.0374756,1.3912964-0.0490112,1.6808472   l-0.1763916,4.7972412c-0.0334473,0.69104-0.0792847,1.2595215-0.1373291,1.7069092   c0.0372314-0.2636719,0.0715942-0.4915161,0.1029053-0.6821899c0.1796265-0.9905396,0.2754517-1.5527954,0.2877197-1.6867065   c0.0217285-0.2003784,0.043457-0.3990479,0.0651855-0.5963745c-0.0108032,0.3356323-0.0386353,0.7385864-0.0841064,1.2105713   c0.0563965-0.6000366,0.0890503-0.9772339,0.0979614-1.1315308c0.0036011-0.1035156,0.0074463-0.204834,0.0112305-0.3057861   c0.2961426-2.6766357,0.5881958-5.0690918,0.8761597-7.175293c0.1052856-0.9225464,0.1864624-2.262207,0.2435303-4.0188599   c0.0255737-0.8584595-0.0099487-2.4073486-0.1063843-4.6466064c-0.0166626-0.4748535-0.0749512-1.3847046-0.1748657-2.7290649   c0.0467529,0.319458,0.0921021,0.6305542,0.1359863,0.9330444l0.3024902,7.5056763   c0.038208,1.246582,0.0717773,2.8950806,0.1008301,4.9454956l-0.0197754,1.2063599   c-0.00354,0.1967163-0.0236206,0.6074219-0.0602417,1.2320557c-0.0073242,0.2079468-0.0078125,0.3411865-0.0015259,0.3996582   c-0.0036621-0.2151489,0.0146484-0.5081787,0.0548096-0.8792114c0.024231-0.2816162,0.1292725-1.1074829,0.3151855-2.477478   c0.0910034-0.8361206,0.1522827-1.5196533,0.1837769-2.0505371c0.0404053-0.6159058,0.0812378-1.4273682,0.1224365-2.4307251   c0.0231323,0.2460327,0.0345459,0.4213257,0.0341187,0.5249634c0.0439453,0.3031006,0.1038208,0.5334473,0.1796875,0.69104   c-0.0927734-0.2177734-0.1478271-0.4945679-0.1652222-0.8303223c-0.008606-0.3063354-0.0178833-0.6108398-0.0274048-0.9144897   c0.0285034-0.7368774,0.057251-1.5652466,0.0861816-2.486084c0.0236206-1.4816895,0.0118408-2.6757813-0.0354614-3.5823364   c-0.0245361-0.7791138-0.1411743-2.1342163-0.3499146-4.0653076c-0.1637573-1.9020386-0.4451294-3.4998169-0.8435059-4.7946167   c0.4182739,0.3656616,0.8390503,0.7067261,1.2461548,1.0091553c0.975708,0.7249146,1.7763062,1.152832,2.5928955,1.4302368   c0.8165283,0.2774048,1.644043,0.3981323,2.4727783,0.3683472c0.1195068-0.0042725,0.2387085-0.0123901,0.3573608-0.0231323   c0.1185913,0.0107422,0.237854,0.0188599,0.3573608,0.0231323c0.8287354,0.0297852,1.656189-0.0909424,2.4727173-0.3683472   c0.8165894-0.2774048,1.6171875-0.7053223,2.5929565-1.4302368c0.4087524-0.3036499,0.8312988-0.6462402,1.2512207-1.0136108   c-0.0239868,0.0766602-0.050293,0.1668091-0.0792236,0.2721558c-0.0657349,0.3056641-0.1615601,0.96698-0.2874756,1.9838867   L56.049469,62.899292c-0.0148926,0.1412354-0.010437,0.2047729,0.0133057,0.1907349   c0.0163574-0.0507813,0.0323486-0.1004028,0.0481567-0.1491699c-0.0227661,0.166748-0.0431519,0.3318481-0.05896,0.4938354   c-0.2598877,3.4431152-0.4441528,7.098938-0.5529175,10.9674683c-0.017395,0.3357544-0.0724487,0.6125488-0.1651611,0.8303223   c0.0758057-0.1575928,0.1356812-0.3879395,0.1796265-0.69104c-0.0028076-0.6890259,0.5143433-4.5256348,1.5515137-11.5098267   c0.0318604-0.1721191,0.0629272-0.3381348,0.0934448-0.4992676l0.1066284,1.3512573   c-0.18396,1.5007324-0.3005981,2.5897217-0.3494873,3.2650146c-0.0108032,0.1325073-0.0235596,0.362793-0.0383301,0.6907959   l-0.0376587,1.1704102c-0.050293,1.2473755-0.076355,1.9450073-0.0783081,2.0927734   c-0.0103149,0.3520508-0.0087891,0.8120117,0.0044556,1.3798828c0.0594482,1.7029419,0.0949707,2.6216431,0.1066895,2.7561035   c0.0137329,0.2372437,0.0378418,0.5726929,0.0722656,1.0062866c0.1490479,1.7606812,0.296936,3.6051636,0.4437866,5.5335083   c0.0592041,0.7855225,0.1068115,1.6953125,0.1427612,2.7293701c0.0089111,0.1542969,0.0415649,0.5314941,0.0979614,1.1315308   c-0.0477295-0.4962158-0.076355-0.9171143-0.0858154-1.2626343c-0.0076294-1.9855957-0.0073853-3.2008057,0.0006104-3.6455688   c0.0081177-0.7879028,0.019165-1.4915771,0.0331421-2.1109619c0.0196533-0.9233398,0.0499878-2.1395874,0.0910645-3.6487427   l0.0161743-0.9328613c0.0136108-0.5298462,0.0354004-1.1088257,0.0652466-1.7368774l0.0161743-0.5789185   c0.0046387-0.2574463,0.0070801-0.5228271,0.0075684-0.7955322c0.0571899,0.4705811,0.1223145,0.9924927,0.1958008,1.5687256   l0.2403564,2.6253052c0.2266235,2.6652832,0.4017334,5.0709839,0.5255127,7.2171631   c0.0202026,0.3583374,0.0708008,0.4956665,0.1517944,0.4120483c0.0408936-0.0234375,0.0779419-0.09375,0.1112061-0.2109985   c0.0332031-0.1172485,0.0626221-0.2813721,0.0881958-0.4923706c0.0003662,0.0530396,0.0040283,0.0485229,0.0110474-0.0136719   c0.013855-0.1335449,0.0406494-0.5340576,0.0802002-1.2016602c0.0813599-1.2977905,0.1530151-2.6808472,0.2155762-4.1450806   l0.0253906,0.9087524l0.0360107,0.7869263c0.0039063,0.0921631,0.012207,0.366394,0.0250244,0.8226318   c0.0157471,0.3413696,0.0289917,0.6986084,0.0397339,1.0717773c0.0232544,0.7639771,0.0411987,1.5740967,0.053894,2.4304199   l0.0472412,0.9768677c0.046875,0.729187,0.0888062,1.2529297,0.1257935,1.571106   c0.0326538,0.2920532,0.0565186,0.4910889,0.0716553,0.5971069c0.1397705,0.9216919,0.2253418,1.5216064,0.256897,1.7998047   c-0.0376587-0.3171387-0.0779419-0.9336548-0.1207275-1.8494873c-0.0167236-0.7036743-0.0211792-1.2272949-0.0134888-1.5709229   c0.0112305-0.4136353,0.0245361-0.7720337,0.0400391-1.0753174l0.0405884-0.6374512   c0.0782471-1.6003418,0.1339722-2.6478271,0.1671753-3.142395l0.0307007-0.6772461   c0.0046997,0.0701904,0.0092163,0.1389771,0.0140381,0.2102051c0.0615845,1.2126465,0.0905762,1.8245239,0.0869141,1.8357544   c0.0217285,0.1911011,0.0404053,0.4613647,0.0560303,0.81073c0.0337524,0.6660767,0.0626831,1.6107178,0.086853,2.8339844   c0.0013428,0.0704956,0.0140381,0.3217163,0.0379639,0.7537231c0.0032349,0.1403809,0.0330811,0.5509644,0.0894165,1.2317505   l0.1604004,1.6317749c-0.0170288-0.2241821-0.0300293-0.6314697-0.0390015-1.2233276   c-0.0079956-0.3926392-0.0053101-0.8723145,0.0081177-1.4390259c0.0095825-0.4135742,0.048645-1.4219971,0.1173096-3.0251465   c0.0212402-0.5049438,0.0511475-0.984375,0.0896606-1.4382935l0.0343018-1.031189   c0.0006104-0.024231-0.0002441-0.0504761-0.0023804-0.0787964l-0.0232544-0.2556152l-0.0045776-0.1287842   c-0.0003662-0.0456543,0.0012207-0.0942383,0.0046997-0.145752c0.019165-0.1889038,0.0308228-0.336853,0.0350342-0.4439697   c0.0094604-0.2005005,0.0165405-0.4285278,0.0211792-0.684082c0.0078735-0.3276367,0.0134888-0.6918335,0.0170898-1.0897827   l0.0599365,1.355835l0.0882568,2.6452026l0.0606079,1.1817017c0.0801392,1.3637695,0.1502686,2.4395752,0.2103271,3.227356   l0.1671753,1.6333618l0.041748,0.4778442c0.0278931,0.3405151,0.0314331,0.6434937,0.0106201,0.9088745   c0.0067139-0.0679932,0.0125122-0.1818848,0.0172729-0.3417358c0.0043945-0.1540527,0.0058594-0.2635498,0.0045166-0.3284912   c-0.0130615-0.6299438-0.0182495-1.0658569-0.015564-1.3077393c0.0021362-0.2774658,0.0041504-0.4786987,0.0061035-0.6037598   l0.0141602-0.5096436c0.0048828-0.4345093,0.0084839-0.6860962,0.0107422-0.7546997   c0.0184326-0.8615112,0.0300903-1.3458252,0.0349121-1.453064c0.0199585-0.6727295,0.0465088-1.3448486,0.0795288-2.0164795   c0.0151367-0.5919189,0.0413818-1.4349976,0.0784912-2.5285034c0.0484619,0.6712036,0.0963745,1.2749023,0.1437378,1.81073   c0.0765991,0.9084473,0.1218262,1.4026489,0.1356201,1.482605l0.0228882,0.1497192l0.0790405,0.3200684   c0.0033569,0.0475464,0.0042725,0.0760498,0.0028687,0.0853882c-0.0076294,0.0756226-0.0101929,0.1266479-0.0077515,0.1531982   l0.0134888,0.2703857c0.0117798,0.2017822,0.0568848,0.6703491,0.1352539,1.4057617   c0.0187378,0.2116089,0.0352173,0.567688,0.0494995,1.0681152c0.0062256,0.1257324,0.0130615,0.2252808,0.0206299,0.298584   c0.0540161,0.5355225,0.100708,0.9420166,0.1400757,1.2196045c0.0418091,0.2780762,0.0754395,0.4252319,0.1010132,0.4415283   c-0.0476685-0.133606-0.078064-0.3427124-0.0912476-0.6272583c-0.0073242-0.1748047-0.0120239-0.359436-0.0142212-0.553833   l0.0029297-0.4668579l-0.0054932-0.5224609c-0.0019531-0.0039673,0.0075073-0.3295288,0.0283813-0.9766846   c-0.0021973-0.0390015,0.0221558-0.324585,0.0731201-0.8568115l0.0148926-0.225647   c0.0041504-0.0162964,0.0042114-0.1393433,0.0002441-0.3692017c-0.0009766-0.0309448,0.0010376-0.0927734,0.0060425-0.1853638   l0.0162964-0.1290283c0.0454712-0.1463013,0.0698853-0.2481689,0.0733032-0.3054199   c0.0046387-0.0090332,0.0115967-0.1609497,0.0209351-0.4556885c0.0151978-1.206543,0.0237427-1.9481201,0.0256958-2.2278442   c0.1800537,2.0444336,0.2771606,3.1140747,0.2913818,3.2077637c0.1470337,1.6740112,0.2384033,2.8045654,0.274292,3.3916626   c0.1306763,1.0252686,0.1986084,1.5936279,0.2037354,1.7050171c0.0109253,0.1136475,0.0151978,0.234436,0.0129395,0.3624268   c0.0025024-0.0881348,0.00354-0.173584,0.0014648-0.2531128c-0.0452881-0.6307983-0.067749-1.2570801-0.0673218-1.8789063   c0.0011597-0.5774536,0.0241699-2.0396729,0.0690918-4.3866577c0.0021973,0.0169678,0.0023193-0.21875,0.0002441-0.7064819   c0.0084839,0.0003052,0.0165405-0.0066528,0.0240479-0.0227051c0.0269165,0.0678101,0.0529175-0.1848145,0.0779419-0.7579346   c0.0169678-1.5201416,0.067749-3.6096802,0.1521606-6.2661133c0.020752,0.21521,0.0427246,0.4420776,0.06604,0.6815796   l0.3840332,3.534729l0.3892822,3.9196777c0.0224609,0.1452026,0.1351318,1.4919434,0.3380737,4.0402222l0.1037598,0.848938   l0.2861328,1.7800903c-0.0875854-0.6177979-0.1418457-1.230896-0.1627808-1.8392334   C65.302887,86.5,65.3022156,86.1466064,65.3075867,85.713623c0.0289917-1.9230957,0.0443115-3.0704956,0.0459595-3.4421997   c0.0021362-0.1166992-0.0007324-0.5598755-0.008606-1.3294678l-0.0130615-0.7427979l-0.0578003-2.5440674l0.0568237,0.5014038   l0.0732422,0.71698l0.2536621,2.7476196c0.0258789,0.3007202,0.0475464,0.5761719,0.0652466,0.8276978l-0.0808716-1.3707886   c-0.0179443-0.3543701-0.0280151-0.6477661-0.0300903-0.880188c-0.0032349-0.1958008-0.0005493-0.5596313,0.0081177-1.0914307   c0.0009766-0.1690674,0.0110474-0.6228027,0.0302124-1.3613892c0.0044556-0.2354736,0.0067139-0.4013062,0.0066528-0.4973755   l-0.0307617-1.3495483c-0.0018311-0.2208862-0.0040894-0.4447021-0.0068359-0.6709595   c0.0263672,0.2025757,0.0535278,0.4113159,0.0819702,0.6278687c0.0289917,0.2319946,0.102478,0.7401123,0.220459,1.524231   c0.0195313,0.1414185,0.0721436,0.7095337,0.1577759,1.7041626c-0.0464478-0.5557251-0.0889282-1.1810913-0.1274414-1.8760986   c-0.022522-0.3034668-0.0657959-1.2537842-0.1298218-2.8479004c0.0317993,0.0771484,0.0645752,0.1498413,0.0992432,0.2141724   c0.0866089,0.0947266,0.1572876,0.1039429,0.2120361,0.0275269c0.0374146-0.1202393,0.0542603-0.2584839,0.050415-0.4146729   c0.0001831-0.0562134-0.0009766-0.1172485-0.003479-0.1831055l-0.1879272-2.9353638   c-0.0623779-1.4763184-0.1452637-3.164917-0.2487183-5.0658569c-0.0198975-0.3775024-0.0463257-1.2434082-0.0794067-2.5961914   c0.1373291,1.3241577,0.2906494,2.8148193,0.4602051,4.4730835c0.2540283,2.1608887,0.4012451,3.510498,0.4415283,4.0488892   c0.0827026,1.0333252,0.1294556,1.7611084,0.1401978,2.1832886c0.0168457,0.7078247,0.0105591,1.2797241-0.0188599,1.7156982   c0.0199585-0.2688599,0.0316162-0.6097412,0.0350952-1.022583c0.0040894-0.3400879,0.000061-0.973999-0.0119629-1.9017944   c-0.0001831-0.2548218,0.0021973-0.5214844,0.0072021-0.7999878l0.0146484-0.6235962   c0.0344849-0.9053345,0.0615845-1.7759399,0.0812988-2.6118164c0.0048218-0.1446533,0.0058594-0.331665,0.0031738-0.5610352   c-0.0027466-0.2293701-0.0131226-0.5792847-0.0311279-1.0496826l-0.1135254-2.6872559   c-0.1358643-3.9122925-0.211853-5.9246216-0.2278442-6.0368042c0.0014648-0.0765381-0.0269165-0.4155273-0.085083-1.0169678   l-0.2838135-2.4557495l-0.4668579-4.3916626l-0.2120972-2.1600342c0.0030518-0.3447876,0.0079346-0.6763306,0.0148315-0.993103   c0.0187378-0.3474121,0.0516968-1.3636475,0.098877-3.0485229c0.024292-1.1345825,0.0316162-1.7662964,0.0219116-1.8950806   l-0.0044556-0.0247192l-0.0129395,0.0223389c0.0198364-0.1381226,0.0062256-0.2561646-0.0405273-0.354248   c0.0060425-0.0059814,0.0122681-0.0114136,0.0182495-0.0175171c0.1304321-0.1311646,0.2574463-0.2816772,0.3912964-0.463562   c0.1339111-0.1818237,0.2695923-0.4068604,0.3917236-0.6567993c0.1220703-0.25,0.2283325-0.5256348,0.3231201-0.8248901   c0.0947266-0.2993164,0.1748047-0.6234131,0.2277222-0.8522339c0.0529175-0.2287598,0.0738525-0.338562,0.0950928-0.4454956   s0.0515137-0.2098999,0.065979-0.3125s0.0240479-0.2030029,0.0501099-0.5137939s0.0463257-0.7810059,0.0615845-1.1860352   s0.0268555-0.7446289,0.0421143-1.0177612c0.0151978-0.2731323,0.029541-0.479248,0.0437622-0.607605   c0.0141602-0.128418,0.0318604-0.2446289,0.0716553-0.430481c0.0397339-0.1858521,0.0873413-0.4395752,0.1499023-0.7581787   c0.062561-0.3186646,0.1345825-0.7029419,0.1868896-1.0137939c0.0523682-0.3108521,0.0697021-0.4729614,0.0808105-0.6177979   c0.0111694-0.1448364,0.0174561-0.272522,0.0209351-0.3834839C67.6989441,32.0015869,67.6973572,31.9060669,67.6618958,31.6737671z    M35.747406,42.0111694c-0.0197754,0.0496216-0.0366821,0.071228-0.0567627,0.0843506   c-0.0201416,0.0131226-0.0614014,0.0211182-0.1229858,0.0206909s-0.1203613-0.0282593-0.2045288-0.081543   c-0.0842285-0.0532837-0.1692505-0.1281128-0.2618408-0.2181396c-0.0925903-0.0899658-0.1869507-0.2027588-0.281311-0.3397217   c-0.0943604-0.1370239-0.2071533-0.3167725-0.3114014-0.5167847c-0.1043091-0.1999512-0.2012939-0.427002-0.2967529-0.6790161   c-0.09552-0.2520142-0.1773071-0.5333252-0.2536621-0.8417969c-0.076355-0.3084106-0.0921631-0.4037476-0.1068726-0.5059814   c-0.0146484-0.1022949-0.0262451-0.2015991-0.0310059-0.2984009s-0.0154419-0.1893311-0.0197754-0.2750244   c-0.0043945-0.0856934-0.0406494-0.5981445-0.0863037-1.0474854c-0.0457153-0.4494019-0.088501-0.8340454-0.1286621-1.1541748   c-0.0402222-0.3201904-0.0757446-0.5764771-0.1036987-0.7659302c-0.0280151-0.1893921-0.0332031-0.2778931-0.0530396-0.4404907   s-0.0583496-0.3823853-0.1194458-0.6621704s-0.1439209-0.6205444-0.2484131-1.0192871   c-0.1044922-0.3988037-0.1347656-0.5513916-0.1615601-0.699585s-0.0478516-0.277771-0.0632935-0.3882446   s-0.0241089-0.2012939-0.0302734-0.2619019s0.0299072-0.3955078,0.0981445-0.6483154   c0.0133057-0.0493774,0.0274048-0.0949097,0.0418701-0.1384277c0.0072021-0.0007324,0.0144043-0.0015869,0.0227661-0.0036621   c0.2905884-0.1798096,0.5269165-0.260376,0.7089844-0.2415771c0.2156372,0.0079346,0.3996582,0.1021729,0.5523071,0.2820435   c-0.0984497,0.0128784-0.192688,0.0477905-0.2825928,0.1049805c-0.0239258,0.0004883-0.0519409,0.00354-0.0841675,0.0093384   c-0.0910645,0.0296021-0.1738892,0.0942383-0.2485352,0.1939697c-0.194458,0.3251953-0.2954712,0.6123047-0.3029175,0.8612671   c-0.0341187,0.4174194-0.0209351,0.7513428,0.0394897,1.00177c0.0108032,0.0439453,0.0236206,0.0911865,0.0373535,0.1399536   c0.0279541,0.2260742,0.0614014,0.4031372,0.1002808,0.5306396c0.093689,0.3006592,0.2111206,0.6393433,0.352478,1.0160522   c0.0546875,0.1660156,0.0911255,0.2945557,0.109314,0.3857422c0.0288086,0.1342163,0.0476685,0.2647095,0.0566406,0.3914795   c0.0134277,0.1990356,0.0181885,0.409729,0.0142822,0.632019c0.0002441,0.0476074,0.0045166,0.0706177,0.0127563,0.0690308   c0.0133667-0.0064087,0.0307007-0.039978,0.0519409-0.1005249c0.0645142-0.2311401,0.1056519-0.4023438,0.1234131-0.5136719   c0.0678101-0.4101563,0.0957642-0.7067261,0.0839233-0.8897705c0.0010376-0.1108398-0.0219727-0.3045044-0.0690918-0.5809937   c-0.1361694-0.5270386-0.2161255-0.8851929-0.2398682-1.0744629c-0.031311-0.1999512-0.0498047-0.3652344-0.0559082-0.4968872   l0.031311-0.3889771c0.0119629-0.0594482,0.0270996-0.1162109,0.0446777-0.1709595   c0.0784912-0.1568604,0.1716309-0.2850342,0.2798462-0.3837891c0.1227417-0.0981445,0.2421265-0.1521606,0.3584595-0.164917   c0.0620728,0.1077271,0.1218262,0.2219238,0.1786499,0.3439331c0.0855713,0.2050171,0.1687622,0.4425659,0.2497559,0.7109985   c0.0184326,0.6508179,0.0480957,1.2848511,0.0849609,1.8743286c0.0150146,0.2407837,0.0297241,0.470459,0.0444336,0.6925049   c-0.050293,0.1408691-0.1505127,0.3904419-0.3012085,0.7496948c-0.0593872,0.1604614-0.1064453,0.3140869-0.1411133,0.4609375   c-0.0702515,0.2955933-0.0855103,0.5567017-0.0457764,0.7834473c0.0265503,0.1690063,0.0791626,0.3303833,0.1576538,0.4841919   c0.3092651,0.5014648,0.5192261,0.8571167,0.6313477,1.0689697c0.0308228,0.4265747,0.0684204,0.8438721,0.1099243,1.0944214   c0.1124878,0.6782837,0.1289063,0.8521729,0.1442261,1.0223999s0.0269775,0.3197021,0.0301514,0.4482422   s0.0043335,0.2349854,0.0010986,0.314209C35.783905,41.8694458,35.7672424,41.9616089,35.747406,42.0111694z    M64.0018005,33.0673218c0.0380249,0.4621582,0.0769043,1.0836182,0.1165771,1.8644409   c0.0014648,0.0370483,0.0020142,0.0722656,0.0032349,0.1089478c-0.0331421,0.3849487-0.0662842,0.7338257-0.0970459,1.026123   c-0.1131592,1.0737305-0.2711792,2.1368408-0.4134521,3.1948242c-0.142334,1.0579834-0.348938,2.0990601-0.5349731,3.1380615   c-0.1860962,1.0390015-0.4506836,2.0708618-0.5367432,2.6118164c-0.0861206,0.5409546-0.1429443,1.0617065-0.199707,1.5686035   s-0.1210938,0.9993896-0.1849365,1.4788208c-0.0639038,0.4794312-0.1087036,0.9346924-0.1369019,1.0880737   s-0.0653076,0.322937-0.1113281,0.4984741c-0.0459595,0.1754761-0.0948486,0.3588257-0.1536865,0.5480957   c-0.0588379,0.189209-0.1257935,0.3723755-0.6052856,1.3497925c-0.4794922,0.977478-1.0664673,1.9489136-1.7484131,2.9390259   s-1.5333252,1.9407349-2.4868164,2.9060059c-0.9534302,0.965271-2.0073242,1.9441528-2.7501221,2.4033203   c-0.7427368,0.4591675-1.4970703,0.788147-2.2610474,0.9994507c-0.6194458,0.1712646-1.2518311,0.2578735-1.901123,0.2685547   c-0.649292-0.0106812-1.2817383-0.09729-1.9011841-0.2685547c-0.7639771-0.2113037-1.5182495-0.5402832-2.2610474-0.9994507   s-1.7966309-1.4380493-2.7501221-2.4033203c-0.1116943-0.1130981-0.2217407-0.2260132-0.3305664-0.3387451   c-0.272644-0.560791-0.6213989-1.0838623-1.0465698-1.5691528c-0.4135742-0.6315308-1.210144-1.6864014-2.3917236-3.1669312   c-0.0996704-0.1399536-0.1904297-0.2689819-0.2731934-0.3882446c-0.0661011-0.1272583-0.1306152-0.2545166-0.1931152-0.381958   c-0.4794922-0.977417-0.5464478-1.1605835-0.6052856-1.3497925c-0.0588379-0.18927-0.1077881-0.3726196-0.1537476-0.5480957   c-0.0460205-0.1755371-0.0831299-0.3450928-0.1113281-0.4984741c-0.0281372-0.1533813-0.072937-0.6086426-0.1368408-1.0880737   s-0.1281738-0.9719238-0.1849976-1.4788208c-0.0567627-0.506897-0.1135864-1.0276489-0.199646-1.5686035   s-0.350708-1.5728149-0.5367432-2.6118164c-0.1860962-1.0390015-0.3927002-2.0800781-0.5350342-3.1380615   c-0.1422729-1.0579834-0.300293-2.1210938-0.4133911-3.1948242c-0.0308228-0.2922974-0.0639648-0.6411743-0.0971069-1.026062   c0.0012817-0.0366821,0.0018311-0.0718994,0.0032349-0.1090088c0.0396729-0.7808228,0.0785522-1.4022827,0.1165771-1.8644409   c0.1116943-1.1264648,0.2096558-1.9453125,0.2939453-2.456543c0.0039673-0.0441284,0.0029297-0.0888062-0.0031128-0.1340942   c-0.0021973-0.0212402-0.0072632-0.0318604-0.0150757-0.0318604l-0.0054321,0.0015259   c-0.1472778,0.2765503-0.28302,0.550293-0.4095459,0.8217163c0.163147-0.881958,0.4413452-1.9501343,0.8352661-3.2055664   l-0.1764526,0.2407837c-0.0540771,0.0744629-0.1062012,0.1469727-0.1569214,0.2180176l0.5386963-1.2374268l0.5045166-1.246582   c0.109436-0.2601929,0.2197876-0.5130615,0.3311768-0.758667c0.302002-0.6989746,0.5419312-1.1559448,0.7197876-1.3707886   l-0.0136719,0.0163574c-0.2854004,0.3598633-0.7938843,1.1781616-1.5255127,2.4550171   c-0.2480469,0.4362793-0.44104,0.805481-0.5791016,1.107666c0.0543213-0.2208252,0.1148071-0.4528198,0.1813965-0.6956787   l0.3161011-0.6709595l0.6659546-1.53479c0.1364746-0.3064575,0.2665405-0.5852051,0.3902588-0.8363647   c0.2877197-0.5742798,0.5259399-0.9748535,0.7149658-1.2028198c-0.4266357,0.4763794-0.8856812,1.1074829-1.3779297,1.8969727   c-0.2502441,0.3961792-0.4724731,0.7833862-0.668457,1.1621704c0.0317383-0.0776367,0.0640869-0.15625,0.0975952-0.2369385   c0.994812-2.2688599,1.8650513-3.6474609,2.6107788-4.1356812l-0.0463867,0.0297241   c-0.6706543,0.4454346-1.1624146,0.866333-1.4777222,1.2631226l0.3599854-0.706543   c0.2678223-0.4949341,0.5154419-0.8718262,0.7427979-1.1306763l-0.0409546,0.0374756   c-0.2798462,0.2619019-0.5444336,0.5526733-0.7949829,0.8700562c0.6137695-1.0822754,1.3278809-1.7941284,2.1429443-2.1333008   l-0.0563965,0.0216675c-0.7526245,0.2879028-1.333313,0.6316528-1.7421265,1.031189   c-0.1253662,0.1187744-0.2442627,0.2423096-0.3587646,0.3690796c0.1582642-0.2369385,0.3303223-0.4659424,0.517395-0.6860962   c0.548645-0.6500244,1.0975342-1.1290894,1.6466675-1.4373169l-0.0632935,0.0350342   c-0.8469238,0.4594116-1.4732666,0.8747559-1.880127,1.2461548c0.2143555-0.2635498,0.4672852-0.5327148,0.7594604-0.8076172   c0.6357422-0.4766235,1.5703735-0.8305664,2.803894-1.0618286l2.0863037-0.0993652   c0.5593262,0.0680542,1.2089844,0.1168823,1.9489136,0.1464844c1.4996948,0.0305176,2.8944092,0.0287476,4.1849976-0.005188   c1.2905884,0.0339355,2.6852417,0.0357056,4.1849365,0.005188c0.7399292-0.0296021,1.3896484-0.0784302,1.9489746-0.1464844   l2.0863037,0.0993652c1.2335205,0.2312622,2.1680908,0.5852051,2.803833,1.0618286   c0.2922363,0.2748413,0.545105,0.5440674,0.7594604,0.8076172c-0.4068604-0.3713989-1.0332031-0.7867432-1.880127-1.2461548   l-0.0632935-0.0350342c0.5491333,0.3082275,1.0980225,0.7872925,1.6466675,1.4373169   c0.1871338,0.2201538,0.3591309,0.4490967,0.517395,0.6860352c-0.1144409-0.126709-0.2333374-0.2502441-0.3587646-0.3690186   c-0.4087524-0.3995361-0.9894409-0.7432861-1.7421265-1.031189l-0.0563354-0.0216675   c0.8150635,0.3391724,1.5291138,1.0510254,2.1428833,2.1333008c-0.2504883-0.3173828-0.5150757-0.6081543-0.7949219-0.8700562   l-0.0410156-0.0374756c0.227417,0.2588501,0.4749756,0.6357422,0.7427979,1.1306763l0.3599854,0.706543   c-0.3152466-0.3967896-0.8070679-0.817688-1.4777222-1.2631226l-0.0463867-0.0297241   c0.7457275,0.4882202,1.6160278,1.8668213,2.6108398,4.1356812c0.0335083,0.0806885,0.0657959,0.1593018,0.0975342,0.2369385   c-0.1959839-0.3787842-0.4182129-0.7659912-0.668457-1.1621704c-0.4922485-0.7894897-0.9512939-1.4205933-1.3779297-1.8969727   c0.1890869,0.2279663,0.4272461,0.62854,0.7150269,1.2028198c0.1236572,0.2511597,0.2537842,0.5299072,0.3902588,0.8363647   l0.6659546,1.53479l0.3161011,0.6709595c0.0665894,0.2429199,0.1270752,0.4748535,0.1813965,0.6957397   c-0.1380615-0.3021851-0.3310547-0.6714478-0.5791016-1.1077271c-0.7316895-1.2768555-1.2401733-2.0951538-1.5255127-2.4550171   l-0.0137329-0.0163574c0.1778564,0.2148438,0.4177856,0.671814,0.7198486,1.3707886   c0.1113281,0.2456055,0.2216797,0.4984741,0.3311768,0.758667l0.5044556,1.246582l0.5386963,1.2374268   c-0.0506592-0.0710449-0.1028442-0.1435547-0.1569214-0.2180176L63.3057556,28.0625   c0.3939209,1.2554321,0.6721191,2.3236084,0.8352661,3.2055664c-0.1265259-0.2714233-0.262207-0.545166-0.4094849-0.8217163   l-0.0054932-0.0015259c-0.0078125,0-0.0128784,0.0106201-0.0150757,0.0318604   c-0.0059814,0.0452881-0.007019,0.0899658-0.0030518,0.1340942C63.7921448,31.1220093,63.8901062,31.9408569,64.0018005,33.0673218   z M67.1639099,32.1824341c-0.0154419,0.1104736-0.036499,0.2400513-0.0632935,0.3882446s-0.0570679,0.3007813-0.1615601,0.699585   c-0.1044922,0.3987427-0.1873169,0.739502-0.2484131,1.0192871s-0.0996094,0.4995728-0.1194458,0.6621704   s-0.0250244,0.2510986-0.0529785,0.4404907c-0.0280151,0.1894531-0.0635376,0.4457397-0.1036987,0.7659302   c-0.0401611,0.3201294-0.0830078,0.7047729-0.1286621,1.1541748c-0.0457153,0.4493408-0.0819702,0.961792-0.0863037,1.0474854   s-0.0150757,0.1782227-0.0197754,0.2750244c-0.0048218,0.0968018-0.0164185,0.196106-0.0310669,0.2984009   c-0.0146484,0.1022339-0.0304565,0.1975708-0.1068726,0.5059814c-0.076355,0.3084717-0.1581421,0.5897827-0.2536011,0.8417969   c-0.09552,0.2520142-0.1925049,0.4790649-0.2967529,0.6790161c-0.1043091,0.2000122-0.2171021,0.3797607-0.3114624,0.5167847   c-0.0943604,0.1369629-0.1887207,0.2497559-0.28125,0.3397217c-0.0925903,0.0900269-0.1776733,0.164856-0.2619019,0.2181396   c-0.0841675,0.0532837-0.1429443,0.0811157-0.2045288,0.081543c-0.0615234,0.0004272-0.1028442-0.0075684-0.1229248-0.0206909   c-0.0201416-0.0131226-0.0369873-0.034729-0.0568237-0.0843506c-0.0198364-0.0495605-0.036499-0.1417236-0.0396729-0.2210083   c-0.0031738-0.0792236-0.0020752-0.1856689,0.0010986-0.314209s0.0148315-0.2780151,0.0301514-0.4482422   c0.0153809-0.1702271,0.0317993-0.3441162,0.1442261-1.0223999c0.0415649-0.2505493,0.0791016-0.6678467,0.1099854-1.0944214   c0.1120605-0.211853,0.3220825-0.5675049,0.6312866-1.0689697c0.0785522-0.1538086,0.1311035-0.3151855,0.1577148-0.4841919   c0.0396729-0.2267456,0.0244141-0.487854-0.0458374-0.7834473c-0.034668-0.1468506-0.081665-0.3004761-0.1410522-0.4609375   c-0.1507568-0.3592529-0.2509766-0.6088257-0.3012085-0.7496948c0.0146484-0.2220459,0.0293579-0.4517212,0.0443726-0.6925049   c0.0368652-0.5894775,0.0665283-1.2234497,0.0849609-1.8743286c0.0809937-0.2684326,0.1642456-0.5059814,0.2497559-0.7109985   c0.0568237-0.1220093,0.1165771-0.2362061,0.1787109-0.3439331c0.116272,0.0127563,0.2356567,0.0667725,0.3584595,0.164917   c0.1081543,0.0987549,0.2012939,0.2269287,0.2798462,0.3838501c0.0175171,0.0546875,0.0326538,0.1114502,0.0446777,0.1708984   l0.03125,0.388916c-0.0061035,0.1317139-0.0245972,0.2969971-0.0559082,0.4969482   c-0.0236816,0.18927-0.1036987,0.5474243-0.2398682,1.0744629c-0.0470581,0.2764893-0.0701294,0.4701538-0.0690918,0.5809937   c-0.0118408,0.1830444,0.0161743,0.4796143,0.0839233,0.8897705c0.0177612,0.1113281,0.0588989,0.2825317,0.1234741,0.5136719   c0.0212402,0.0605469,0.0385132,0.0941162,0.0518799,0.1005249c0.0083008,0.0015869,0.0125732-0.0214233,0.0128174-0.0690308   c-0.0039063-0.22229,0.0008545-0.4329834,0.0142822-0.632019c0.0089722-0.12677,0.027832-0.2572632,0.0566406-0.3914795   c0.0181274-0.0911865,0.0545654-0.2197266,0.109314-0.3857422c0.1412964-0.376709,0.2587891-0.7153931,0.352417-1.0160522   c0.0388794-0.1275024,0.0723267-0.3045654,0.1003418-0.5305786c0.0136719-0.0488281,0.0264893-0.0960083,0.0372925-0.1400146   c0.0604858-0.2504272,0.0736694-0.5843506,0.0395508-1.00177c-0.0075073-0.2489624-0.1084595-0.5360718-0.3029175-0.8612671   c-0.074707-0.0997314-0.1575317-0.1643677-0.2485962-0.1939697c-0.0322266-0.0057983-0.0602417-0.0088501-0.0841064-0.0093384   c-0.0899048-0.057251-0.1841431-0.0921021-0.2825928-0.1049805c0.1525879-0.1798706,0.3366089-0.2741089,0.5523071-0.2820435   c0.1820679-0.0187988,0.418335,0.0617676,0.7089233,0.2415771c0.0083618,0.0020752,0.015625,0.0029297,0.0227661,0.0036621   c0.0144653,0.0435181,0.0285645,0.0890503,0.0418701,0.1384277c0.0682373,0.2528076,0.1043091,0.5877075,0.0981445,0.6483154   S67.1794128,32.0719604,67.1639099,32.1824341z"/><path d="M40.742218,34.3043213c0.1629639,0.0131226,0.338501,0.0267944,0.4681396,0.0430298   s0.203125,0.0266724,0.2703857,0.0360107c0.0671997,0.0092773,0.1281128,0.0184326,0.1827393,0.0256348   c0.0546265,0.0072632,0.1026611,0.0150146,0.2036133,0.0354614s0.2537842,0.053833,0.3858032,0.0786133   s0.2435913,0.0396118,0.3343506,0.0498047s0.1617432,0.0159302,0.2506714,0.0205078   c0.0889893,0.0045776,0.2087402,0.0115356,0.3218994,0.0147705s0.2196655,0.0031738,0.319519,0.0011597   c0.0997925-0.0020752,0.1928711-0.0050049,0.2989502-0.0106201c0.1060181-0.0056152,0.222168-0.0149536,0.3300781-0.0257568   c0.1079712-0.0108032,0.2081909-0.0162964,0.3002319-0.0259399s0.1761475-0.0211792,0.373291-0.0632324   c0.1633911-0.0349121,0.3842773-0.0856323,0.5906982-0.135498c0.3848267-0.0305786,0.5845947-0.0397339,0.5983887-0.0272827   c0.0648804,0.0056763,0.126709,0.0187988,0.1854248,0.0394287c0.2406616,0.114502,0.380188,0.1722412,0.4185791,0.1732178   c0.088562,0.0223389,0.1586304,0.0149536,0.2103271-0.0220337c0.0889893-0.0609131,0.0775757-0.1834106-0.0317383-0.3659058   c-0.0095825-0.020874-0.022644-0.0440063-0.0396118-0.0695801c0.0038452,0.0008545,0.0079346,0.0011597,0.0118408,0.0020142   c-0.0043335-0.0010376-0.0084839-0.0023193-0.0128174-0.0032959c-0.0085449-0.0128174-0.0170898-0.0255737-0.0274658-0.0395508   c-0.053772-0.1031494-0.2293701-0.2893677-0.5267944-0.5587158c-0.1392212-0.1238403-0.3575439-0.2700195-0.6548462-0.4385376   c-0.1964722-0.112793-0.3410645-0.1825562-0.4359741-0.2112427c-0.3085938-0.1435547-0.6173096-0.2548218-0.9276733-0.3270874   c-0.0842285-0.0195923-0.1680298-0.036377-0.2498779-0.0507202c-0.2357788-0.0715942-0.4128418-0.1098022-0.5802612-0.1381836   c-0.1776123-0.0301514-0.3485107-0.0491943-0.5123901-0.0563965c-0.1639404-0.0072021-0.3208008-0.005127-0.4715576,0.0107422   s-0.6586914,0.1117554-1.1236572,0.2489624c-0.4649048,0.137146-0.8872681,0.2990723-1.2611694,0.4951782   c-0.3739014,0.196167-0.7026978,0.413208-0.8526001,0.5274048c-0.2936401,0.2241821-0.1495361,0.1146851-0.2932739,0.2246704   c0.144043-0.1095581,0.4726563-0.2896118,0.8389893-0.4379272s0.7660522-0.2755127,1.1994629-0.3898315   c0.3023071-0.0797729,0.62323-0.1432495,0.8964233-0.1918335c-0.015625,0.0078125-0.0308228,0.0148926-0.0464478,0.0230103   c-0.0679932,0.0352173-0.1364136,0.0728149-0.2050171,0.1131592c-0.0686035,0.0404053-0.1271362,0.1084595-0.7879639,0.5528564   c-0.6607666,0.444397-0.770813,0.5030518-0.8952637,0.5617065c-0.1243286,0.0586548-0.2592773,0.1165161-0.404541,0.1740723   c-0.1452026,0.0574951-0.3013306,0.1131592-0.3831787,0.1395874c-0.1677856,0.0499268-0.081604,0.0270996-0.1676025,0.0505371   c0.0661011-0.0178223,0.1798096-0.0473633,0.300354-0.0793457c-0.0353394,0.0124512-0.0696411,0.0253296-0.1026001,0.0388794   c-0.1386719,0.057312-0.258606,0.1208496-0.3121338,0.15625c-0.1004028,0.0747681-0.0531616,0.0358276-0.1000977,0.0751343   c0.0469971-0.0391846,0.1544189-0.1090698,0.2830811-0.1625977c0.1287231-0.0534668,0.2774048-0.090271,0.4449463-0.1124878   c0.1674805-0.0222778,0.354187-0.0244751,0.5134888-0.0176392c0.1593018,0.006897,0.2850952,0.0119629,0.4232178,0.0183716   C40.4286804,34.2797241,40.5792542,34.2911987,40.742218,34.3043213z M44.3821716,34.0097046   c0.1174316-0.1696167,0.2056274-0.362915,0.2647095-0.5799561c0.0344849-0.1721802,0.0509033-0.298584,0.0504761-0.3826294   c0.4793091,0.1252441,0.8130493,0.2697144,1.0010376,0.4334717c0.3065796,0.2433472,0.4390869,0.4353027,0.3987427,0.5762939   c-0.1117554,0.0080566-0.2462769,0.019165-0.4046021,0.032959c-0.2160645,0.0188599-0.4747314,0.0471802-0.7751465,0.0854492   c-0.300415,0.038208-0.3692017,0.0455322-0.4511108,0.0514526s-0.1723633,0.0119629-0.2714844,0.015686   c-0.0279541,0.0010376-0.0581665,0.0008545-0.0874634,0.0011597   C44.2114563,34.1876831,44.3036194,34.1106567,44.3821716,34.0097046z M40.2149353,34.0597534   c0.0704956-0.024292,0.1396484-0.0524292,0.2067871-0.0865479c0.069458-0.0343628,0.1193848-0.0617065,0.1498413-0.0820923   l0.5726929-0.3828125l0.4022217-0.2299194c0.0757446-0.0407715,0.1585693-0.0803833,0.2483521-0.1188354   c0.0313721-0.0146484,0.0783081-0.0346069,0.1391602-0.0592041c-0.0116577,0.1640625,0.0272217,0.3356323,0.1176758,0.5150146   c0.0940552,0.2128296,0.2310181,0.3796997,0.4086914,0.5027466c-0.0066528-0.0008545-0.0126343-0.0015259-0.0194092-0.0024414   c-0.1155396-0.0158081-0.2540283-0.0323486-0.4163208-0.0511475s-0.2171021-0.0223389-0.270752-0.0252686   c-0.0535889-0.0029297-0.1130371-0.0060425-0.1784668-0.0070801c-0.0654907-0.0010986-0.1368408-0.0026855-0.215271-0.0014648   c-0.0783691,0.0012817-0.2658691,0.0021362-0.4404297,0.0028076c-0.1745605,0.0007324-0.336731,0.0074463-0.4862061,0.0150757   c-0.0806274,0.0041504-0.1572266,0.0098267-0.2304077,0.0168457C40.2071838,34.0635376,40.210907,34.0616455,40.2149353,34.0597534   z"/><path d="M46.8547668,34.1187134c-0.0016479-0.0006714-0.0042114-0.0014038-0.0059204-0.0020752   c0.006897,0.0026855,0.0164185,0.0064087,0.0165405,0.0064697C46.86203,34.1217651,46.8594666,34.1206665,46.8547668,34.1187134z"/><path d="M46.7793274,34.0922241c0.026062,0.0078125,0.0494995,0.0162964,0.069519,0.0244141   C46.8334656,34.1105957,46.8097229,34.1015625,46.7793274,34.0922241z"/><polygon points="46.8730164,34.1263428 46.865387,34.1231079 46.8655701,34.12323  "/><path d="M46.7310486,34.0790405c-0.001709-0.0004272-0.00354-0.0005493-0.005249-0.0009155   c0.0167847,0.0040283,0.0336914,0.0080566,0.0499878,0.0130005C46.761261,34.086792,46.7463684,34.0826416,46.7310486,34.0790405z"/><polygon points="46.7770081,34.0914307 46.7757874,34.0911255 46.7793274,34.0922241  "/><polygon points="53.2207336,34.0921631 53.2242126,34.0911255 53.223053,34.0914307  "/><path d="M60.9619446,34.3162231c-0.0328979-0.0135498-0.0671997-0.0264282-0.1025391-0.0388794   c0.1205444,0.0319824,0.2342529,0.0615234,0.300354,0.0793457c-0.0859985-0.0234375,0.0001221-0.0006104-0.1676636-0.0505371   c-0.0818481-0.0264282-0.237915-0.0820923-0.3831787-0.1395874c-0.1452637-0.0575562-0.2801514-0.1154175-0.404541-0.1740723   s-0.234436-0.1173096-0.8952637-0.5617065s-0.7193604-0.5124512-0.7879639-0.5528564   c-0.0685425-0.0403442-0.1370239-0.0779419-0.2050171-0.1131592c-0.015625-0.0081177-0.0308228-0.0151978-0.0464478-0.0230713   c0.2731934,0.048645,0.5941162,0.1121216,0.8964233,0.1918945c0.4334717,0.1143188,0.8331299,0.2415161,1.1994629,0.3898315   c0.366394,0.1483154,0.6950073,0.3283691,0.8390503,0.4378662c-0.1437378-0.1099243,0.0003662-0.0004272-0.2932739-0.2246094   c-0.1499023-0.1141968-0.4787598-0.3312378-0.8526611-0.5274048c-0.3739014-0.196106-0.7962646-0.3580322-1.2611694-0.4951782   c-0.4649048-0.137207-0.9728394-0.2331543-1.1236572-0.2489624c-0.1507568-0.0158691-0.3076172-0.0179443-0.4715576-0.0107422   c-0.1638794,0.0072021-0.3347778,0.0262451-0.5123901,0.0563965c-0.1674194,0.0283813-0.3444824,0.0665894-0.5802612,0.1381836   c-0.0818481,0.0143433-0.1656494,0.0311279-0.2498779,0.0507202c-0.3103638,0.0722046-0.6190796,0.1835327-0.9276733,0.3270874   c-0.0948486,0.0286865-0.2394409,0.0984497-0.4359741,0.2112427c-0.2973022,0.1685181-0.515564,0.3146973-0.6548462,0.4385376   c-0.2974243,0.2693481-0.4729614,0.4555664-0.5267944,0.5587158c-0.010376,0.013916-0.0189209,0.0267334-0.0274658,0.0395508   c-0.0043335,0.0009766-0.0084839,0.0022583-0.0128174,0.0032959c0.0039063-0.0008545,0.0079956-0.0011597,0.0119019-0.0020142   c-0.0170288,0.0256348-0.0300903,0.0487061-0.0396729,0.0695801c-0.1092529,0.1824951-0.1207275,0.3049927-0.0317383,0.3659058   c0.0516968,0.0369873,0.1218262,0.0443726,0.2103271,0.0220337c0.0383911-0.0009766,0.1779785-0.0587158,0.4185791-0.1732178   c0.0587158-0.0206299,0.1205444-0.0337524,0.1854858-0.0394287c0.0137329-0.0124512,0.213501-0.0032959,0.5983887,0.0272827   c0.2064209,0.0498657,0.4273071,0.1005859,0.5906372,0.135498c0.1972046,0.0420532,0.28125,0.0535889,0.373291,0.0632324   c0.0921021,0.0096436,0.1922607,0.0151367,0.3002319,0.0259399c0.1079102,0.0108032,0.2240601,0.0201416,0.3301392,0.0257568   c0.1060181,0.0056152,0.1990967,0.0085449,0.2989502,0.0106201c0.0997925,0.0020142,0.2062988,0.0020752,0.319458-0.0011597   c0.1131592-0.0032959,0.2329102-0.0101929,0.3218994-0.0147705s0.1599731-0.0103149,0.2507324-0.0205078   s0.2023315-0.0250244,0.3343506-0.0498047s0.28479-0.0581665,0.3858032-0.0786133   c0.1008911-0.0204468,0.1489868-0.0282593,0.2036133-0.0354614s0.1154785-0.0163574,0.1827393-0.0256348   c0.0671997-0.0093384,0.140686-0.0197754,0.2703247-0.0360107s0.3051758-0.0299072,0.4681396-0.0430298   c0.1630249-0.0131226,0.3135376-0.0245972,0.4516602-0.0310669c0.1381836-0.0064087,0.2639771-0.0114746,0.4232788-0.0183716   c0.1592407-0.0068359,0.3459473-0.0046387,0.5134888,0.0175781c0.1674805,0.0222778,0.3162231,0.059082,0.4448853,0.1125488   c0.1286621,0.0535278,0.236084,0.1233521,0.2831421,0.1625977c-0.0469971-0.0393066,0.0003052-0.0003662-0.1001587-0.0751343   C61.2206116,34.4370728,61.1006775,34.3735352,60.9619446,34.3162231z M55.8052063,34.2424316   c-0.0991211-0.0037231-0.1895142-0.0097656-0.2714233-0.015686c-0.0819702-0.0059204-0.1507568-0.0132446-0.4511719-0.0514526   c-0.300415-0.038269-0.559082-0.0665894-0.7751465-0.0854492c-0.1583252-0.0137939-0.2927856-0.0249023-0.4046021-0.032959   c-0.0403442-0.1409912,0.0921631-0.3329468,0.3987427-0.5762939c0.1880493-0.1637573,0.5217896-0.3082275,1.0010986-0.4334717   c-0.0004883,0.0840454,0.0159302,0.2104492,0.050415,0.3826294c0.059082,0.217041,0.1473389,0.4103394,0.2647095,0.5799561   c0.0786133,0.1009521,0.1707764,0.1779785,0.2749023,0.2338867C55.8633728,34.2432861,55.8331604,34.2434692,55.8052063,34.2424316   z M59.5664978,34.048584c-0.1494751-0.0076294-0.3115845-0.0143433-0.4862061-0.0150757   c-0.1745605-0.0006714-0.3619995-0.0015259-0.4404297-0.0028076c-0.0783691-0.0012207-0.1497192,0.0003662-0.21521,0.0014038   c-0.0654907,0.0010986-0.1248779,0.0042114-0.1785278,0.0071411s-0.1084595,0.0064697-0.270752,0.0252686   s-0.3007813,0.0353394-0.4162598,0.0511475c-0.0068359,0.0009155-0.0128174,0.0015869-0.0194702,0.0024414   c0.1777344-0.1230469,0.3146362-0.289917,0.4087524-0.5027466c0.0903931-0.1793823,0.1292725-0.3509521,0.1176147-0.5150146   c0.0608521,0.0245972,0.1077881,0.0445557,0.1391602,0.0592041c0.0898438,0.0384521,0.1726074,0.078064,0.2483521,0.1188354   l0.4022827,0.2299194l0.5726929,0.3828125c0.0304565,0.0203857,0.0803833,0.0477295,0.1497803,0.0820923   c0.0671387,0.0341187,0.1362915,0.0622559,0.2067871,0.0865479c0.0040283,0.0018921,0.0077515,0.0037842,0.0118408,0.0056763   C59.7237244,34.0584106,59.6471252,34.0527344,59.5664978,34.048584z"/><path d="M53.2242126,34.0911255c0.0163574-0.0049438,0.0332031-0.0089722,0.0499878-0.0130005   c-0.001709,0.0003662-0.00354,0.0004883-0.005249,0.0009155C53.2536316,34.0826416,53.238739,34.086792,53.2242126,34.0911255z"/><path d="M53.1344299,34.12323l0.000061-0.000061c-0.0054932,0.0022583-0.0096436,0.0040283-0.0118408,0.0049438   C53.1252136,34.1270142,53.1291199,34.1254272,53.1344299,34.12323z"/><path d="M53.134491,34.1231689c0.000061,0,0.0097656-0.0037842,0.017334-0.0067749   c-0.0018921,0.0007935-0.0047607,0.0015869-0.0065918,0.0023193C53.1405945,34.1206665,53.1376038,34.1218872,53.134491,34.1231689   z"/><path d="M53.2207336,34.0921631c-0.0298462,0.0092163-0.0532837,0.0181274-0.0689087,0.024231   C53.1717834,34.1083984,53.1948547,34.0999756,53.2207336,34.0921631z"/><path d="M47.9858704,44.3825073c-0.0794067-0.039856-0.1502686-0.0709229-0.211731-0.0919189   s-0.1740112-0.0577393-0.2820435-0.078125s-0.2077026-0.0219116-0.2974243-0.0050049   c-0.0142212,0.0026855-0.0275269,0.0063477-0.0411377,0.0098267c-0.0847168-0.0006104-0.1553345,0.0254517-0.211792,0.0782471   c-0.0421143,0.0490723-0.0351563,0.1012573,0.0210571,0.1566162c0.0883789,0.0764771,0.1761475,0.1299438,0.2634888,0.1605225   c0.0400391,0.0155029,0.0983887,0.034729,0.1749268,0.0576172c0.1201172,0.0264282,0.2694092,0.065979,0.4477539,0.1186523   c0.1098022,0.036438,0.2242432,0.0795898,0.3433228,0.1295776c0.0170898,0.0073242,0.0331421,0.0158081,0.0498657,0.0234985   c0.0333862,0.0311279,0.0699463,0.0656128,0.1126709,0.1065674c0.2026978,0.1943359,0.5526123,0.4830933,0.6184082,0.5280151   c0.0049438,0.0033569,0.0097656,0.0059204,0.0147095,0.0090942c0.0610352,0.0579224,0.1166992,0.1008911,0.166748,0.1276855   c0.0151978,0.0083618,0.0322266,0.0166626,0.0502319,0.0250244c0.0153809,0.0114746,0.0307617,0.0230103,0.0458374,0.0331421   c0.1130981,0.0647583,0.2236328,0.1120605,0.3317261,0.142395c0.1005859,0.0425415,0.2035522,0.0612183,0.309021,0.0554199   c0.0346069-0.0012207,0.0715942-0.0056152,0.1085205-0.0099487c0.0369263,0.0043335,0.0738525,0.008728,0.1084595,0.0099487   c0.1054688,0.0057983,0.2084961-0.0128784,0.309082-0.0554199c0.1080322-0.0303345,0.2185669-0.0776367,0.3317261-0.142395   c0.0150146-0.0101318,0.0303955-0.0216675,0.0457764-0.0331421c0.0180054-0.0083618,0.0350342-0.0166626,0.0502319-0.0250244   c0.0500488-0.0267944,0.1057739-0.0697632,0.166748-0.1276245c0.0049438-0.0031738,0.0097656-0.0057983,0.0147705-0.0091553   c0.0657349-0.0449219,0.4157104-0.3336792,0.6184082-0.5280151c0.0426636-0.0409546,0.0792847-0.0754395,0.1126709-0.1065674   c0.0167236-0.0076904,0.0327148-0.0161743,0.0498047-0.0234985c0.1190796-0.0499878,0.2335205-0.0931396,0.3433228-0.1295776   c0.1784058-0.0526733,0.3276367-0.0922241,0.4477539-0.1186523c0.0765991-0.0228882,0.1348877-0.0421143,0.1749878-0.0576172   c0.0872803-0.0305786,0.1751099-0.0840454,0.2634277-0.1605225c0.0562134-0.0553589,0.0632324-0.1075439,0.0210571-0.1566162   c-0.0564575-0.0527954-0.1270752-0.0788574-0.211731-0.0782471h-0.000061   c-0.0135498-0.003479-0.0268555-0.0071411-0.0411377-0.0098267c-0.0896606-0.0169067-0.1893311-0.0153809-0.2974243,0.0050049   c-0.1080322,0.0203857-0.22052,0.0571289-0.2820435,0.078125c-0.0614624,0.0209961-0.1322632,0.052063-0.211731,0.0919189   c-0.0794067,0.039917-0.1655884,0.0914917-0.2616577,0.1505127c-0.0960083,0.059021-0.2093506,0.1292114-0.5598145,0.4106445   c-0.3505249,0.2814331-0.3800049,0.2800293-0.4212036,0.3052979s-0.0838623,0.0480957-0.128418,0.0679321   c-0.0446167,0.0197754-0.0904541,0.0397949-0.1376953,0.0540771s-0.1660156,0.038147-0.2755127,0.0600586   c-0.0827637,0.0166016-0.1582031,0.0253906-0.2297974,0.0315552c-0.0716553-0.0061646-0.1470947-0.0149536-0.2297974-0.0315552   c-0.1095581-0.0219116-0.2282715-0.0457764-0.2755737-0.0600586c-0.0472412-0.0142822-0.0930786-0.0343018-0.1376343-0.0540771   c-0.0446167-0.0198364-0.0872803-0.0426636-0.128479-0.0679321s-0.0706787-0.0238647-0.4211426-0.3052979   c-0.3505249-0.2814331-0.4638672-0.3516235-0.5598755-0.4106445C48.1514587,44.473999,48.0652771,44.4224243,47.9858704,44.3825073   z"/><path d="M53.9739685,52.5137329c-0.2076416,0.105835-0.4052734,0.1984253-0.5927734,0.277832   c-0.187561,0.0794678-0.3671265,0.1408081-0.5357056,0.1934204c-0.1686401,0.0525513-0.4257813,0.1338501-0.6618042,0.2028198   c-0.2359619,0.0689087-0.4524536,0.1259766-0.6505737,0.166748c-0.1980591,0.0408325-0.3772583,0.0640869-0.5408325,0.0794067   c-0.1636353,0.0153198-0.3530273,0.0307617-0.5410767,0.057251c-0.144043,0.0202637-0.2956543,0.0321045-0.4511719,0.0404663   c-0.1555176-0.0083618-0.3071899-0.0202026-0.4512329-0.0404663c-0.1880493-0.0264893-0.3774414-0.0419312-0.5410156-0.057251   c-0.1636353-0.0153198-0.3428345-0.0385742-0.5408936-0.0794067c-0.1980591-0.0407715-0.4145508-0.0978394-0.6505737-0.166748   c-0.2359619-0.0689697-0.4931641-0.1502686-0.6617432-0.2028198c-0.1686401-0.0526123-0.3482056-0.1139526-0.5357056-0.1934204   c-0.187561-0.0794067-0.3851929-0.1719971-0.5928345-0.277832s-0.4115601-0.2440186-0.4115601-0.2440186   c-0.1013184-0.0700684-0.1013184-0.0700684,0.0499878,0.0360718c0.1512451,0.1060791,0.3359985,0.2571411,0.515625,0.3936157   c0.1796875,0.1364136,0.3543091,0.258606,0.5240479,0.3668823c0.1697388,0.1082153,0.3348999,0.2022705,0.5388794,0.3012085   c0.2039185,0.098938,0.4434814,0.2060547,0.6708374,0.2919922c0.227356,0.0859985,0.4412231,0.1549683,0.6410522,0.2110596   c0.1998901,0.0560913,0.3881836,0.0906982,0.5692139,0.1166382c0.1810303,0.026001,0.3886108,0.0283203,0.6015625,0.0201416   c0.0903931-0.003479,0.1819458-0.0101318,0.274353-0.0183716c0.0923462,0.0082397,0.18396,0.0148926,0.274292,0.0183716   c0.2129517,0.0081787,0.4205322,0.0058594,0.6015625-0.0201416c0.1810303-0.0259399,0.3693237-0.0605469,0.5692139-0.1166382   s0.4136963-0.125061,0.6410522-0.2110596c0.227356-0.0859375,0.46698-0.1930542,0.6708984-0.2919922   s0.3691406-0.1929932,0.5388184-0.3012085c0.1697388-0.1082764,0.3443604-0.2304688,0.5240479-0.3668823   c0.1796875-0.1364746,0.3643799-0.2875366,0.515686-0.3936157c0.1512451-0.1061401,0.1512451-0.1061401,0.0499878-0.0360718   C54.3855896,52.2697144,54.1816101,52.4078979,53.9739685,52.5137329z"/><path d="M61.8677063,30.329834c-0.0161133-0.0509644,0.1623535-0.0307007,0.5355225,0.0608521   c0.088562-0.0137329,0.1005249-0.052063,0.0360107-0.1149902c-0.4160767-0.3717651-1.1954956-0.8699951-2.3381348-1.4946289   c-0.0731201-0.0064697,0.1693115,0.2265015,0.727356,0.6989746c0.0192871,0.0203247,0.0186157,0.0337524-0.0018921,0.0402222   c-0.031311,0.0081177-0.0817871,0.0063477-0.1514282-0.0054321c-0.7053223-0.1797485-1.1469116-0.2813721-1.324585-0.3050537   c-0.0457764-0.0012817-0.053833,0.0212402-0.024231,0.0675049c0.005188,0.0245361,0.0782471,0.0875244,0.2192993,0.1889648   c0.0212402,0.0263672,0.0186157,0.0396118-0.0079346,0.0397949c-0.4824829-0.1776733-1.1861572-0.260498-2.111084-0.2483521   c-0.0615234,0.0067139-0.0283203,0.0428467,0.0996704,0.1084595c1.0333862,0.4262085,1.5009766,0.6343384,1.4026489,0.6245117   c-0.8717651-0.1551514-1.7643433-0.2341919-2.6776733-0.2372437c-0.0499878,0.012146-0.0567017,0.0288696-0.0200195,0.0501099   l0.6744385,0.2295532c0.0645752,0.0322876,0.0778809,0.0581665,0.039856,0.0775146   c-0.5585938-0.0107422-0.9782104,0.0053101-1.2588501,0.0480957c-0.0856323,0.0187378-0.1303101,0.0378418-0.1339722,0.057312   c0.0316772,0.1201782,0.0316162,0.1810913-0.0002441,0.1828003l-0.5861816-0.0791626   c-0.053894,0.0147705-0.0394897,0.0515137,0.0430908,0.1101685c-0.1619873-0.0633545-0.2404175-0.0792236-0.2354126-0.0476074   l0.0189819,0.1600952c-0.3765869-0.1266479-0.6075439-0.1743774-0.692688-0.1431885   c-0.1902466,0.0438232-0.3642578,0.1486816-0.5220337,0.3146973l0.1896362-0.520874   c-0.1732788,0.0881958-0.4016724,0.4210205-0.6851196,0.9984741c-0.0684204,0.1531372-0.1378174,0.3237305-0.2080688,0.5106812   c-0.0060425,0.0020142-0.0120239,0.0047607-0.0181274,0.0054321c-0.0184937,0.0001831-0.0263062-0.0146484-0.0234375-0.0445557   c-0.0048828,0.0067139,0.0053711-0.062439,0.0307617-0.2074585c0.0023193-0.0201416,0.0026855-0.0394287,0.0011597-0.0579834   l-0.0032959-0.6505737c-0.1860352,0.50177-0.2859497,0.8009033-0.2996216,0.8973389   c-0.0216675,0.0925903-0.0411987,0.1878662-0.0585938,0.2858276l-0.2095947,1.2131348   c0.008606,0.0413208,0.0244751,0.0413208,0.0475464,0c0.1390381-0.2831421,0.2486572-0.5009155,0.329834-0.6556396   c0.0150146,0.012207,0.0332642,0.0222168,0.0586548,0.0273438c0.0363159,0.0081177,0.2005005-0.0380859,0.4926758-0.1386719   c1.0474854-0.3968506,1.6000977-0.5980835,1.6578369-0.6038208c0.2861328-0.092041,0.6106567-0.1663818,0.9735718-0.2229614   c0.4137573-0.0653687,0.8302002-0.1113892,1.2492676-0.1380005c1.8203735-0.0748901,2.8770752-0.1134644,3.170105-0.1157227   c0.520813-0.0308838,0.8613281-0.0577393,1.0216675-0.0805054c0.1328125-0.0112305,0.2116699-0.0476685,0.2366333-0.109314   c-0.145874-0.2125854-0.1741943-0.324585-0.0849609-0.3359985c0.0238037-0.0182495,0.3227539,0.0424194,0.8966675,0.1818848   c0.0911865,0.017395,0.1414795,0.0118408,0.1508789-0.0167236c0.0082397-0.0553589-0.0097046-0.1031494-0.053833-0.1434326   C62.030365,30.4976807,61.839447,30.34375,61.8677063,30.329834z"/><path d="M53.0568542,44.8047485c-0.1395874,0.1696777-0.3178101,0.2583618-0.5346069,0.2659912   c0.1342163,0.0673218,0.3314209,0.0621948,0.5916748-0.0153198c0.2719116-0.1029663,0.4838257-0.2583008,0.6358643-0.4659424   c0.0843506-0.1266479,0.1414795-0.2808838,0.1715088-0.4627686c0.0424805-0.1937256,0.0540771-0.3830566,0.0348511-0.5679932   c-0.0011597-0.0125122-0.0040283-0.0267944-0.0057373-0.0397949c-0.0056152-0.0922241-0.015686-0.1987305-0.0307007-0.3209229   c-0.0830078-0.4678345-0.2267456-0.8508911-0.4295044-1.1517334c-0.2017822-0.427063-0.4355469-0.7279663-0.7019653-0.9004517   c0.156311,0.1942749,0.3022461,0.4747314,0.4378662,0.8413086c0.1325073,0.3395996,0.2164307,0.6473389,0.25177,0.9232178   c0.0774536,0.432312,0.072876,0.8322144-0.010498,1.2009277C53.3603821,44.406189,53.2236633,44.6376343,53.0568542,44.8047485z"/><path d="M46.7739563,41.9871216c0.1355591-0.3665771,0.2814941-0.6470337,0.4378052-0.8413086   c-0.2663574,0.1724854-0.5001831,0.4733887-0.7019653,0.9004517c-0.2027588,0.3008423-0.3464966,0.6838989-0.4294434,1.1517334   c-0.0150146,0.1221924-0.0251465,0.2287598-0.0307617,0.3209229c-0.0016479,0.0130615-0.0045166,0.0273438-0.0056763,0.0397949   c-0.0192871,0.1849365-0.0076904,0.3742676,0.03479,0.5679932c0.0300293,0.1818848,0.0872192,0.3361206,0.1715088,0.4627686   c0.1520386,0.2076416,0.3640137,0.3629761,0.6359253,0.4659424c0.2601929,0.0775146,0.4573975,0.0826416,0.5916138,0.0153198   c-0.2167969-0.0076294-0.3950195-0.0963135-0.5346069-0.2659912c-0.166748-0.1671143-0.3035278-0.3985596-0.4104614-0.6935425   c-0.0834351-0.3687134-0.0879517-0.7685547-0.0105591-1.2008667   C46.5574646,42.6344604,46.6413879,42.3267212,46.7739563,41.9871216z"/><path d="M56.0621033,50.0921631c-0.074707-0.0093384-0.1517334-0.0045166-0.2312012,0.0145264   c-0.1699829,0.0534058-0.3526001,0.1013794-0.546814,0.1444702c-0.0563965-0.0172119-0.1133423-0.0349121-0.1675415-0.0524292   c-0.178894-0.0577393-0.3269653-0.1108398-0.4431152-0.1603394c-0.1162109-0.0495605-0.2058716-0.0949707-0.3273315-0.1497803   c-0.1213989-0.0548096-0.293335-0.1422119-0.5172119-0.262207c-0.223877-0.1200562-0.4981689-0.2749634-0.819397-0.4711304   c-0.3212891-0.196106-0.7160034-0.3858643-0.807373-0.4255981c-0.0913086-0.0397339-0.1697998-0.0737915-0.2406616-0.0999146   c-0.0708618-0.0261841-0.133728-0.0464478-0.1898804-0.0613403c-0.0562134-0.0148926-0.1066895-0.0238647-0.211731-0.0345459   c-0.1050415-0.0106201-0.2084351-0.0159302-0.3095093-0.0137939c-0.1011353,0.0021362-0.199646,0.0128174-0.295105,0.0316162   s-0.1860962,0.0426025-0.2263794,0.0564575s-0.0773926,0.0287476-0.1135254,0.0443115   c-0.0361328,0.015625-0.0707397,0.0333252-0.1050415,0.0501709s-0.0636597,0.0332642-0.1012573,0.0539551   c-0.0376587,0.0206909-0.0828247,0.0491333-0.1338501,0.0847778s-0.1092529,0.0769043-0.1743774,0.1248779   c-0.0357056,0.0263062-0.0733643,0.0533447-0.100769,0.0731812c-0.0274048-0.0198364-0.0651245-0.046875-0.1008301-0.0731812   c-0.0651245-0.0479736-0.1233521-0.0892334-0.1743774-0.1248779s-0.0961914-0.0640869-0.1337891-0.0847778   c-0.0376587-0.0206909-0.0670166-0.0371094-0.1013184-0.0539551c-0.0342407-0.0168457-0.0688477-0.0345459-0.1049805-0.0501709   c-0.0361328-0.015564-0.0732422-0.0304565-0.1135864-0.0443115c-0.0402832-0.013855-0.1309204-0.0376587-0.2263794-0.0564575   s-0.1939697-0.02948-0.2950439-0.0316162c-0.1011353-0.0021362-0.2045288,0.0031738-0.3095703,0.0137939   c-0.1049805,0.0106812-0.1555176,0.0196533-0.2116699,0.0345459c-0.0562134,0.0148926-0.1190796,0.0351563-0.1899414,0.0613403   c-0.0708008,0.026123-0.149292,0.0601807-0.2406616,0.0999146c-0.0913086,0.0397339-0.486084,0.2294922-0.807312,0.4255981   c-0.3212891,0.196167-0.5955811,0.3510742-0.819458,0.4711304c-0.2238159,0.1199951-0.395752,0.2073975-0.5172119,0.262207   c-0.1184082,0.0534058-0.2069702,0.0980225-0.3189697,0.1461182l-0.1735229,0.0684204   c-0.0826416,0.0305176-0.1744995,0.0621948-0.2779541,0.0955811c-0.0541992,0.0175171-0.111145,0.0352173-0.1674805,0.0524292   c-0.1942139-0.0430908-0.3768921-0.0910645-0.546875-0.1444702c-0.0794678-0.019043-0.1564941-0.0238647-0.2311401-0.0145264   c-0.2102051,0.0568848-0.3110962,0.1639404-0.3026123,0.321167c0.0404053,0.1885376,0.1616211,0.3074341,0.3636475,0.3566895   c0.0985718,0.024231,0.2133789,0.0281982,0.3444214,0.0118408c0.0350342-0.0032959,0.0944824-0.0119629,0.1784058-0.0258789   c0.4067383-0.0742798,0.6112061-0.1102905,0.6133423-0.1082153c0.1190796-0.0186768,0.223938-0.0303345,0.3146362-0.0350342   c0.2076416-0.0081787,0.4103394-0.0023804,0.6085815,0.0159302c0.0981445,0.015625,0.1938477,0.0297852,0.2866821,0.0419312   c0.1797485,0.0234985,0.3494873,0.0411987,0.4550171,0.0553589c0.1054688,0.0141602,0.1565552,0.0200195,0.2084961,0.0258179   c0.0519409,0.0057373,0.1046143,0.0116577,0.1581421,0.0178223s0.1078491,0.0116577,0.1482544,0.0167847   c0.0404663,0.005127,0.0875244-0.0089722,0.1642456-0.0097046s0.18396-0.001709,0.3220215-0.0046387   c0.1380615-0.0028687,0.3068237-0.0019531,0.5438843-0.0032349c0.2369995-0.0012817,0.5278931-0.0031738,0.6533813-0.0100098   c0.1255493-0.006897,0.2313843-0.0145874,0.3189697-0.0218506s0.1568604-0.012207,0.2080078-0.0161133   c0.0511475-0.0038452,0.0834961-0.0067749,0.2050171-0.019043c0.0876465-0.0087891,0.1779785-0.0202637,0.2695313-0.0327759   c0.0914917,0.0125122,0.1818237,0.0239868,0.2694702,0.0327759c0.121521,0.0122681,0.1538696,0.0151978,0.2050171,0.019043   c0.0511475,0.0039063,0.1204834,0.0088501,0.2080688,0.0161133c0.0875244,0.0072632,0.1934204,0.0149536,0.3189087,0.0218506   c0.1254883,0.0068359,0.4163818,0.008728,0.6534424,0.0100098c0.2369995,0.0012817,0.4058228,0.0003662,0.5438232,0.0032349   c0.1380615,0.0029297,0.2453613,0.0039063,0.3220215,0.0046387c0.0767212,0.0007324,0.1238403,0.0148315,0.1642456,0.0097046   c0.0404663-0.005127,0.0947876-0.0106201,0.1482544-0.0167847c0.0535278-0.0061646,0.1062012-0.012085,0.1581421-0.0178223   c0.0519409-0.0057983,0.1030273-0.0116577,0.2085571-0.0258179c0.1054688-0.0141602,0.2752686-0.0318604,0.4549561-0.0553589   c0.0928345-0.012146,0.1885376-0.0263062,0.2866821-0.0419312c0.1983032-0.0183105,0.4009399-0.0241089,0.6086426-0.0159302   c0.0906982,0.0046997,0.1955566,0.0163574,0.3145752,0.0350342c0.0021362-0.0020752,0.206604,0.0339355,0.6133423,0.1082153   c0.0839233,0.013916,0.1434326,0.022583,0.1784058,0.0258789c0.1310425,0.0163574,0.2458496,0.0123901,0.3444214-0.0118408   c0.2020874-0.0492554,0.3233032-0.1681519,0.3636475-0.3566895C56.3731384,50.2561035,56.2723083,50.1490479,56.0621033,50.0921631   z M53.8772278,50.1004028c-0.0020752,0.0360107-0.0724487,0.1226807-0.2095947,0.2590332   c-0.0720215,0.0026855-0.1435547,0.005249-0.2119141,0.0072021c-0.1698608,0.0047607-0.3301392,0.0026245-0.3808594,0.000061   c-0.0507202-0.0026245-0.1017456-0.0028687-0.1535645-0.0041504c-0.0518799-0.0013428-0.1044312-0.0024414-0.1578979-0.0044556   c-0.0534058-0.0020142-0.1078491-0.0047607-0.1412964,0.0024414c-0.0333862,0.0072021-0.0986328,0.0106812-0.1950073,0.0147095   c-0.0963745,0.0039673-0.2237549,0.0102539-0.382019,0.0159302c-0.1582642,0.0057373-0.3503418,0.0106812-0.6392212,0.0361328   c-0.2888794,0.0253906-0.4159546,0.0341187-0.5274658,0.0452881s-0.2047119,0.0209961-0.279541,0.0283813   c-0.0748901,0.0074463-0.1313477,0.0122681-0.1696777,0.015564c-0.038269,0.0032959-0.1572876,0.0146484-0.2801514,0.0251465   c-0.0487671,0.0041504-0.0988159,0.0078125-0.1489868,0.0114746c-0.0502319-0.0036621-0.1002808-0.0073242-0.1490479-0.0114746   c-0.1228027-0.010498-0.2418213-0.0218506-0.2801514-0.0251465s-0.0947876-0.0081177-0.1696777-0.015564   c-0.0748291-0.0073853-0.1680298-0.0172119-0.27948-0.0283813c-0.1115112-0.0111694-0.2386475-0.0198975-0.5274658-0.0452881   c-0.2888794-0.0254517-0.4810181-0.0303955-0.6392822-0.0361328c-0.1582642-0.0056763-0.2855835-0.0119629-0.381958-0.0159302   c-0.0964355-0.0040283-0.1616821-0.0075073-0.1950684-0.0147095c-0.0334473-0.0072021-0.0878906-0.0044556-0.1412964-0.0024414   s-0.1060181,0.0031128-0.1578369,0.0044556c-0.0518799,0.0012817-0.1028442,0.0015259-0.1536255,0.0041504   c-0.0471191,0.0023804-0.189209,0.0043335-0.3453979,0.0007324c-0.0598755-0.0488281-0.1032715-0.1101074-0.1280518-0.1853027   c-0.0048828-0.0571899-0.0046997-0.1098633-0.0012207-0.1594849c0.215271-0.1824951,0.3973999-0.3250122,0.5446777-0.4254761   c0.2754517-0.1094971,0.5663452-0.2338257,0.7612915-0.3358765c0.2317505-0.1212769,0.3118286-0.1553345,0.3809814-0.1842041   c0.0692139-0.0289307,0.1270142-0.0528564,0.1732178-0.0704346c0.0461426-0.0175171,0.0792847-0.0285645,0.1361694-0.0422363   s0.1428833-0.0307007,0.2267456-0.0393677c0.0838013-0.008606,0.1651611-0.0128174,0.2445679-0.0119629   c0.0793457,0.0007935,0.1570435,0.006897,0.2105713,0.0159302c0.0339966,0.0057373,0.059082,0.0101318,0.0812378,0.0144043   c0.065979,0.0286865,0.1369019,0.0608521,0.2138062,0.0969238c0.1420288,0.0665894,0.3029785,0.1451416,0.4159546,0.1907959   s0.1282959,0.0446777,0.1436157,0.0424805c0.0056763-0.0007935,0.0111084-0.0026855,0.0167236-0.0038452   c0.0055542,0.0011597,0.0110474,0.0030518,0.0167236,0.0038452c0.0152588,0.0021973,0.0306396,0.0031738,0.1436157-0.0424805   s0.2739258-0.1242065,0.4159546-0.1907959c0.0769043-0.0360718,0.1477661-0.0682373,0.2137451-0.0969238   c0.0221558-0.0042725,0.0473022-0.008667,0.0812988-0.0144043c0.0534668-0.0090332,0.1311646-0.0151367,0.2105713-0.0159302   c0.0793457-0.0008545,0.1607056,0.0033569,0.2445679,0.0119629c0.0838013,0.008667,0.1698608,0.0256958,0.2266846,0.0393677   c0.0568848,0.0136719,0.0900269,0.0247192,0.1361694,0.0422363c0.0462036,0.0175781,0.1040649,0.0415039,0.1732178,0.0704346   c0.0691528,0.0288696,0.149292,0.0629272,0.3809814,0.1842041c0.2317505,0.1212769,0.5994873,0.2744141,0.9151001,0.3962402   c0.2908936,0.1122437,0.5311279,0.210022,0.7262573,0.2854004C53.9005432,50.0025024,53.8985901,50.0552368,53.8772278,50.1004028z   "/><path d="M43.9241028,35.4667358c0.0482178-0.0172119,0.1102905-0.0454102,0.2202759-0.1011963   c0.1100464-0.0557861,0.272583-0.1410522,0.4863892-0.2601929c0.2138672-0.1192017,0.4797363-0.2709961,0.6417236-0.3679199   c0.1619873-0.0969849,0.1972046-0.1142578,0.2450562-0.1350098c0.0477905-0.020752,0.1079712-0.0447388,0.1807861-0.0704956   c0.0727539-0.0257568,0.1592407-0.0484619,0.2302856-0.0665283c0.0072021-0.0018921,0.0132446-0.003418,0.019043-0.0048828   c-0.0197144,0.0050049-0.100769,0.0255127-0.1730347,0.0429688c-0.0829468,0.0200806-0.1550293,0.0336914-0.2149048,0.0464478   c-0.0598145,0.0127563-0.107605,0.0246582-0.1439209,0.0357666c-0.036377,0.0111084-0.3587036,0.1411133-0.6203613,0.2545776   c-0.2615967,0.1134644-0.4691772,0.1971436-0.6171875,0.2615356s-0.2392578,0.1013794-0.2727051,0.1124268   s-0.1139526,0.0400391-0.1889038,0.0637817c-0.0750122,0.0237427-0.1490479,0.0449219-0.2225952,0.0621948   s-0.1464844,0.0314331-0.2192993,0.0410767c-0.072876,0.0096436-0.1547241,0.0058594-0.2492065,0.0146484   c-0.0945435,0.008728-0.2058105,0.0147095-0.333374,0.0159302c-0.1275635,0.0011597-0.2710571-0.0023193-0.430542-0.0092163   c-0.1594849-0.006958-0.2211304-0.0112915-0.2816772-0.0144043c-0.0606079-0.0030518-0.1191406-0.0061646-0.1751099-0.0119019   c-0.0559692-0.0057983-0.1096191-0.0126343-0.1612549-0.0172119c-0.0516357-0.0046387-0.270813-0.0513306-0.451416-0.0924072   c-0.180542-0.0410767-0.3230591-0.0737305-0.4277344-0.0968628s-0.1713867-0.0374756-0.2005615-0.0415649   c-0.0290527-0.0040894-0.0747681-0.0126953-0.1192627-0.0186157c-0.0130005-0.001709-0.0249634-0.0015869-0.0377197-0.0028687   c0.0413818,0.0048218,0.0831909,0.0119629,0.1126099,0.017395c0.0310059,0.0057373,0.0722046,0.0141602,0.1508789,0.0339966   s0.194519,0.0516968,0.3475952,0.0950317s0.3432007,0.0991821,0.4752808,0.1426392   c0.132019,0.043396,0.1837769,0.0581055,0.237793,0.0724487c0.0540161,0.0144043,0.1104126,0.0282593,0.1689453,0.0430908   c0.0585327,0.0147705,0.1192017,0.031189,0.2334595,0.0509644c0.1141968,0.0197754,0.2692261,0.0482178,0.4107666,0.0661011   s0.2692261,0.031189,0.383728,0.0369873c0.1144409,0.0057983,0.2160645,0.0037231,0.3001099-0.0134277   s0.1642456-0.03125,0.244751-0.0485229c0.0805054-0.0172119,0.1610718-0.0388184,0.2418213-0.0640869   C43.7953796,35.5140991,43.875885,35.4838867,43.9241028,35.4667358z"/><path d="M40.2857361,35.1009521c0.0340576-0.0002441,0.0689087,0.0010376,0.1046753,0.0046387   c-0.0251465-0.0021362-0.0508423-0.0053711-0.0750732-0.0056763C40.3031921,35.0997314,40.2971497,35.100769,40.2857361,35.1009521   z"/><path d="M40.2531433,35.1020508c0.010498-0.0004883,0.0200195-0.0008545,0.0325928-0.0010986   c-0.0038452,0.000061-0.0079346-0.0006714-0.0117188-0.0005493C40.2654724,35.100647,40.2613831,35.1016235,40.2531433,35.1020508z   "/><path d="M40.1742859,35.1082153c0.0153198-0.0022583,0.0476074-0.0045166,0.0788574-0.0061646   c-0.0128784,0.0006714-0.0320435,0.0005493-0.0397339,0.0013428C40.1742859,35.1082153,40.193634,35.1053467,40.1742859,35.1082153   z"/><path d="M40.3904114,35.1055908c0.0055542,0.0004883,0.0109253,0.0006714,0.0164795,0.0012207   c-0.0021362-0.0002441-0.0042725-0.0005493-0.0064697-0.0007935C40.3970032,35.1056519,40.3938904,35.105957,40.3904114,35.1055908   z"/><path d="M45.974762,34.4536133c-0.0061035,0.0015259-0.0148926,0.0037842-0.0270996,0.006897   c0.0028687-0.0007324,0.0045776-0.0011597,0.0045776-0.0011597C45.9620667,34.4568481,45.9692078,34.4550171,45.974762,34.4536133z   "/><path d="M59.5931091,35.1068115c0.0056152-0.0005493,0.0109863-0.0007324,0.0164795-0.0012207   c-0.003418,0.0003662-0.0065918,0.000061-0.0100098,0.0004272C59.5974426,35.1062622,59.5953064,35.1065674,59.5931091,35.1068115z   "/><path d="M54.04776,34.4593506c0,0,0.001709,0.0004272,0.0045776,0.0011597   c-0.0119019-0.0030518-0.0205078-0.005249-0.0266113-0.0067749C54.0312195,34.4551392,54.0382385,34.4569092,54.04776,34.4593506z"/><path d="M59.7866516,35.1033936c-0.0077515-0.0007935-0.0269775-0.0006714-0.039856-0.0013428   c0.031189,0.0016479,0.0635986,0.0039063,0.0789185,0.0061646C59.806366,35.1053467,59.8257141,35.1082153,59.7866516,35.1033936z"/><path d="M59.6095886,35.1055908c0.0357666-0.0036011,0.0706177-0.0048828,0.1046753-0.0046387   c-0.0114136-0.0001831-0.0174561-0.0012207-0.0296021-0.0010376   C59.6604309,35.1002197,59.6347351,35.1034546,59.6095886,35.1055908z"/><path d="M59.7259827,35.1004028c-0.0037842-0.0001221-0.0079346,0.0006104-0.0117188,0.0005493   c0.0125122,0.0002441,0.0220337,0.0006104,0.0325317,0.0010986C59.7385559,35.1016235,59.7345276,35.100647,59.7259827,35.1004028z   "/><path d="M59.4361267,35.1282959c-0.0291138,0.0040894-0.0958862,0.0184326-0.2005005,0.0415649   c-0.1047363,0.0231323-0.2471924,0.0557861-0.4277954,0.0968628s-0.3997803,0.0877686-0.451416,0.0924072   c-0.0516357,0.0045776-0.1052856,0.0114136-0.1612549,0.0172119c-0.0559692,0.0057373-0.114502,0.0088501-0.1751099,0.0119019   c-0.0605469,0.0031128-0.1221924,0.0074463-0.2816162,0.0144043c-0.1594849,0.006897-0.3030396,0.010376-0.430603,0.0092163   c-0.1275635-0.0012207-0.2388306-0.0072021-0.333313-0.0159302c-0.0945435-0.0087891-0.1763916-0.0050049-0.2492676-0.0146484   c-0.0728149-0.0096436-0.145752-0.0238037-0.2192993-0.0410767s-0.147583-0.0384521-0.2225342-0.0621948   c-0.0750122-0.0237427-0.1555176-0.0527344-0.1889648-0.0637817s-0.1246948-0.0480347-0.2727051-0.1124268   s-0.3555908-0.1480713-0.6171875-0.2615356c-0.2616577-0.1134644-0.5839844-0.2434692-0.6203003-0.2545776   c-0.036377-0.0111084-0.0841675-0.0230103-0.1439819-0.0357666s-0.131897-0.0263672-0.2149048-0.0464478   c-0.0722656-0.0174561-0.1532593-0.0379639-0.1730347-0.0429688c0.0057983,0.0014648,0.0118408,0.0029907,0.019104,0.0048828   c0.0709839,0.0180664,0.1574707,0.0407715,0.2302856,0.0665283c0.0727539,0.0257568,0.1329346,0.0497437,0.1807251,0.0704956   c0.0478516,0.020752,0.0831299,0.0380249,0.2450562,0.1350098c0.1619873,0.0969238,0.4278564,0.2487183,0.6417236,0.3679199   c0.2138062,0.1191406,0.3763428,0.2044067,0.4863892,0.2601929s0.1721191,0.0839844,0.2203369,0.1011963   c0.0482178,0.0171509,0.1287231,0.0473633,0.2094727,0.0726929c0.0806885,0.0252686,0.1612549,0.046875,0.2417603,0.0640869   c0.0805664,0.0172729,0.1607056,0.0313721,0.244751,0.0485229c0.0841064,0.0171509,0.1856689,0.0192261,0.3001099,0.0134277   c0.114502-0.0057983,0.2422485-0.019104,0.3837891-0.0369873c0.1414795-0.0178833,0.2965088-0.0463257,0.4107666-0.0661011   c0.1141968-0.0197754,0.1748657-0.0361938,0.2333984-0.0509644c0.0585327-0.0148315,0.1149292-0.0286865,0.1690063-0.0430908   c0.0540161-0.0143433,0.1057129-0.0290527,0.237793-0.0724487c0.1320801-0.043457,0.3221436-0.0993042,0.4752197-0.1426392   c0.1531372-0.043335,0.2689209-0.0751953,0.3475952-0.0950317s0.1199341-0.0282593,0.1508789-0.0339966   c0.0294189-0.0054321,0.0712891-0.0125732,0.1126099-0.017395c-0.0127563,0.0012817-0.0247192,0.0011597-0.0377197,0.0028687   C59.5109558,35.1156006,59.4652405,35.1242065,59.4361267,35.1282959z"/><path d="M47.6517639,39.0534058c0.0023193-0.0053101,0.0050049-0.0112305,0.0079956-0.0178223   c-0.0022583,0.0050049-0.0038452,0.0085449-0.0038452,0.0085449C47.6543274,39.0476685,47.6531067,39.050293,47.6517639,39.0534058   z"/><path d="M47.8983459,33.8112793c-0.0415039-0.0914917-0.0877075-0.1782837-0.1124878-0.2200928   c-0.0512085-0.0821533-0.0254517-0.0413818-0.0518188-0.0817261c0.0262451,0.0404053,0.0743408,0.1247559,0.1154175,0.2144775   c0.0410767,0.0896606,0.0750732,0.1843872,0.1001587,0.2844849s0.0421753,0.204834,0.0558472,0.3121948   c0.0136108,0.1073608,0.0240479,0.2180176,0.0351563,0.3343506c0.0111084,0.116272,0.0231323,0.2383423,0.0304565,0.3669434   c0.0073853,0.1286011,0.0167847,0.2628784,0.0203247,0.3840942c0.00354,0.1212769,0.006897,0.2181396,0.0081787,0.3076172   c0.0013428,0.0895386-0.0006104,0.1716919-0.0025635,0.2460327c-0.0019531,0.0744019-0.0056763,0.1410522-0.0036011,0.2625122   s-0.0043335,0.2979126-0.010376,0.4615479s-0.0134888,0.3143921-0.0238647,0.4522095   c-0.010437,0.1378174-0.0228882,0.2628174-0.0492554,0.4324951c-0.0263062,0.1696167-0.0637207,0.3841553-0.1018066,0.5770264   s-0.0768433,0.3641968-0.1158447,0.5140991c-0.0390625,0.1499023-0.0869141,0.2749023-0.1240234,0.3571777   c-0.0031738,0.0070801-0.0059204,0.0131836-0.0084839,0.0188599c0.012207-0.0270996,0.0548096-0.1212158,0.1043701-0.2295532   c0.0588379-0.128418,0.1255493-0.2769165,0.1966553-0.4468994c0.071167-0.1699219,0.1448975-0.3618774,0.2227173-0.5762939   s0.1098633-0.3383789,0.1377563-0.4719849c0.027832-0.1335449,0.0523682-0.2799683,0.0736694-0.43927   c0.0213013-0.1592407,0.0377197-0.3314209,0.0556641-0.5166626c0.0179443-0.1851807,0.0126343-0.2591553,0.0039063-0.3355103   c-0.0087891-0.0762939-0.0193481-0.1584473-0.0350342-0.2463989s-0.0342407-0.1818848-0.0575562-0.281189   c-0.0232544-0.0993652-0.0518799-0.236145-0.0795898-0.3674927c-0.027771-0.1314087-0.0595093-0.2558594-0.088501-0.3745728   c-0.0289307-0.1186523-0.0571899-0.2311401-0.0872803-0.3369141c-0.0300903-0.1057129-0.0596924-0.2116699-0.0942383-0.3128052   C47.9777527,33.9988403,47.9397888,33.902771,47.8983459,33.8112793z"/><path d="M40.5549011,31.3197632c0.5405273,0.019165,1.3210449,0.0497437,2.3417969,0.0917358   c0.4191284,0.0266113,0.8355103,0.0726318,1.2492676,0.1380005c0.3629761,0.0565796,0.687439,0.1309204,0.9735718,0.2229614   c0.0577393,0.0057373,0.6104126,0.2069702,1.6578369,0.6038208c0.2921753,0.1005859,0.4564209,0.1467896,0.4927368,0.1386719   c0.0253906-0.005127,0.0436401-0.0151367,0.0585938-0.0273438c0.0811768,0.1547241,0.1907959,0.3724976,0.329895,0.6556396   c0.0230713,0.0413208,0.0389404,0.0413208,0.0475464,0l-0.2095947-1.2131348   c-0.0174561-0.0979614-0.0369873-0.1932373-0.0585938-0.2858276c-0.0137329-0.0964355-0.1135864-0.3955688-0.2996216-0.8973389   l-0.0033569,0.6505737c-0.0015259,0.0185547-0.0011597,0.0378418,0.0011597,0.0579834   c0.0253906,0.1450195,0.0357056,0.2141724,0.0307617,0.2074585c0.0029297,0.0299072-0.0049438,0.0447388-0.0234375,0.0445557   c-0.0061035-0.0006714-0.012085-0.003418-0.0181274-0.0054321c-0.0702515-0.1869507-0.1395874-0.3575439-0.2080688-0.5106812   c-0.2834473-0.5774536-0.5117798-0.9102783-0.6851196-0.9984741l0.1896362,0.520874   c-0.1577759-0.1660156-0.3317871-0.270874-0.5220337-0.3146973c-0.085144-0.031189-0.31604,0.0165405-0.692688,0.1431885   l0.0189819-0.1600952c0.0050659-0.0316162-0.0734253-0.0157471-0.2354126,0.0476074   c0.0825806-0.0586548,0.0969849-0.0953979,0.0430908-0.1101685l-0.5861816,0.0791626   c-0.0317993-0.001709-0.0318604-0.0626221-0.0002441-0.1828003c-0.0036621-0.0194702-0.0483398-0.0385742-0.1339111-0.057312   c-0.2806396-0.0427856-0.7003174-0.0588379-1.2589111-0.0480957c-0.0379639-0.0193481-0.0246582-0.0452271,0.039917-0.0775146   l0.6743774-0.2295532c0.0366821-0.0212402,0.0300293-0.0379639-0.0199585-0.0501099   c-0.9133911,0.0030518-1.8059082,0.0820923-2.6777344,0.2372437c-0.0982666,0.0098267,0.3692627-0.1983032,1.40271-0.6245117   c0.1279907-0.0656128,0.1611938-0.1017456,0.0996094-0.1084595c-0.9249268-0.012146-1.6286011,0.0706787-2.1110229,0.2483521   c-0.0265503-0.0001831-0.0291748-0.0134277-0.0079346-0.0397949c0.1409912-0.1014404,0.2141113-0.1644287,0.2192993-0.1889648   c0.0296021-0.0462646,0.0214844-0.0687866-0.024292-0.0675049c-0.1776733,0.0236816-0.6192017,0.1253052-1.324585,0.3050537   c-0.0695801,0.0117798-0.1200562,0.0135498-0.1514282,0.0054321c-0.0205078-0.0064697-0.0211182-0.0198975-0.0018921-0.0402222   c0.5580444-0.4724731,0.8004761-0.7054443,0.727356-0.6989746c-1.1426392,0.6246338-1.9219971,1.1228638-2.3380737,1.4946289   c-0.0645752,0.0629272-0.0525513,0.1012573,0.0360107,0.1149902c0.3731079-0.0915527,0.5516357-0.1118164,0.5354614-0.0608521   c0.0282593,0.013916-0.1626587,0.1678467-0.5726929,0.461853c-0.0441895,0.0402832-0.0621338,0.0880737-0.053833,0.1434326   c0.0093384,0.0285645,0.0596313,0.0341187,0.1508179,0.0167236c0.4111938-0.0999146,0.6803589-0.1591797,0.8092041-0.1781616   c-0.4107056,0.2120972-0.765686,0.4816895-0.9457397,0.6491699c-0.4439087,0.375061-0.2113647,0.1973877-0.4435425,0.3754883   c0.210144-0.1602783,0.6547241-0.3709106,1.105957-0.5622559c-0.0393677,0.0442505-0.0797119,0.0933228-0.1223755,0.147522   c-0.0174561,0.0220337-0.0353394,0.0447998-0.0530396,0.0673218c-0.3756714,0.2579956-0.7402344,0.553833-0.9169922,0.7333374   c-0.4008789,0.3539429-0.1835327,0.1918945-0.3984375,0.3571167c0.2180786-0.1610107,0.6885986-0.3954468,1.1148682-0.6282959   c0.4262695-0.2329102,0.8395386-0.4199219,1.2301636-0.5792236c0.0608521-0.0248413,0.1210327-0.0482788,0.1807251-0.0710449   c0.052002,0.0037231,0.1078491,0.0075684,0.1663208,0.0114746c-0.2244873,0.0717163-0.4262085,0.1419678-0.6045532,0.2095337   c-0.3670654,0.1390991-0.6351318,0.2703247-0.7366333,0.3311768c-0.1741333,0.1115723-0.0987549,0.0648193-0.1713257,0.1155396   c0.0734863-0.0487671,0.2896729-0.1377563,0.6032715-0.2215576c0.3136597-0.0837402,0.7229614-0.1693726,1.2301025-0.251709   C39.9752502,31.4133301,40.2721252,31.3646851,40.5549011,31.3197632z M38.1237488,31.3731079   c0.0383301-0.0315552,0.0758057-0.0588379,0.1118774-0.0819702c0.0415649-0.0266724,0.0803223-0.0484619,0.1189575-0.0683594   C38.2778625,31.2709961,38.2008362,31.3218384,38.1237488,31.3731079z"/><path d="M47.6777649,30.987854c0.0169067,0.1938477,0.0346069,0.4164429,0.0412598,0.6069336   c0.0065918,0.1904297,0.0584717,0.3162842,0.0852051,0.4342651c0.0266724,0.117981,0.0522461,0.2246704,0.0731201,0.3204956   c0.020874,0.0958862,0.0360107,0.1809692,0.0453491,0.2380981c0.0093384,0.0570679,0.0154419,0.0921021,0.0212402,0.12677   s0.0114746,0.0690308,0.0170898,0.1029663c0.0056763,0.0339966,0.0110474,0.067627,0.0194702,0.130188   s0.0192261,0.1464844,0.0274658,0.2174072c0.0082397,0.0709839,0.0095825,0.1290894,0.0109863,0.1742554   c0.0004272,0.0148315,0.0008545,0.0276489,0.0012817,0.0396118c-0.0013428-0.036438-0.0026855-0.0854492-0.0013428-0.1472168   c0.0012817-0.0625,0.0083008-0.1380615,0.0168457-0.2266846c0.0084839-0.088623,0.0106812-0.1233521,0.0126343-0.1578979   c0.0018921-0.0346069,0.0036011-0.0696411,0.0045776-0.1051025s0.0014038-0.0712891,0.0013428-0.1073608   c0-0.0360107,0.0004883-0.1160889-0.0003052-0.2081909s-0.0006714-0.1958618-0.0029297-0.3109131   c-0.0021973-0.1150513-0.0090942-0.2410889-0.022522-0.3788452c-0.0133667-0.1377563-0.0827026-0.3742676-0.1466675-0.5808105   c-0.0640259-0.206604-0.1235352-0.3837891-0.1772461-0.5317993c-0.053772-0.1479492-0.1004028-0.2671509-0.1209106-0.3174438   c-0.0377808-0.0916138-0.0211792-0.0499878-0.0383911-0.0913696c0.0170288,0.0414429,0.046814,0.1455078,0.0707397,0.2800903   S47.6608582,30.7940063,47.6777649,30.987854z"/><polygon points="48.0202942,33.380127 48.0202332,33.3788452 48.0203552,33.381958  "/><polygon points="48.0229797,33.4401855 48.0228577,33.4381714 48.0233459,33.4466553  "/><path d="M48.0228577,33.4381714c-0.0002441-0.0048828-0.0013428-0.0252686-0.0025024-0.0562134   c0.0008545,0.0230103,0.0016479,0.0410156,0.0023193,0.0523682C48.0227356,33.4359741,48.0227966,33.4368896,48.0228577,33.4381714   z"/><path d="M40.2586365,19.4248657h-0.0003052l-0.0183716,0.0059204c-0.0336914,0.0109863-0.052063,0.0171509-0.0551147,0.0184326   c-0.0111084,0.0040283-0.0211792,0.0083008-0.0301514,0.0128174c0.019043-0.0071411,0.0372314-0.013855,0.0545654-0.0200806   C40.2266541,19.43573,40.2431335,19.4300537,40.2586365,19.4248657z"/><path d="M59.8453674,19.4620361c-0.0090332-0.0045166-0.019104-0.0087891-0.0302124-0.0128174   c-0.0030518-0.0012817-0.0214233-0.0074463-0.0551147-0.0184326l-0.0183716-0.0059204h-0.0003052   c0.015564,0.005188,0.0319824,0.0108643,0.0493774,0.0170898C59.808075,19.4481812,59.8263245,19.454895,59.8453674,19.4620361z"/><path d="M39.3193054,21.2003784l-0.006897,0.0040894c-0.0246582,0.0147705-0.0390015,0.0237427-0.0428467,0.0269775   c0.0178223-0.0112305,0.0344849-0.0216064,0.0500488-0.0310669H39.3193054z"/><path d="M60.6875916,21.2044678l-0.006897-0.0040894h-0.0003052c0.015564,0.0094604,0.0322266,0.0198364,0.0500488,0.0310669   C60.726593,21.2282104,60.7123108,21.2192383,60.6875916,21.2044678z"/><path d="M39.1034851,20.4764404c-0.0576172,0.0420532-0.1121216,0.085144-0.1633911,0.1293335   c0.0317993-0.0229492,0.0678101-0.0499878,0.1079102-0.0811157c0.0067749-0.005188,0.0195313-0.0155029,0.0383911-0.0310059   l0.0175171-0.0149536l0.0126953-0.0113525h-0.0003052L39.1034851,20.4764404z"/><path d="M39.195343,20.4152832c-0.0299072,0.0151367-0.0458374,0.0236816-0.0478516,0.0256958   c-0.0036011,0.0023193-0.0067749,0.0046387-0.0096436,0.006958l-0.0043335,0.0037231l-0.0159302,0.0147705   c0.0181885-0.0127563,0.0352173-0.0241089,0.0510864-0.0340576c0.0028076-0.0018311,0.010437-0.0064697,0.0228271-0.0137939   c0.0026245-0.0016479,0.0096436-0.0055542,0.0209961-0.0117188h-0.0003052L39.195343,20.4152832z"/><path d="M38.934906,20.6095581l-0.0360718,0.026062c-0.0155029,0.0143433-0.0324707,0.0313721-0.0508423,0.0510254   l0.0386353-0.0344238c0.0127563-0.0113525,0.0299683-0.0263062,0.0516357-0.0449219h-0.0003052L38.934906,20.6095581z"/><path d="M60.8313904,20.432373c0.0158081,0.0099487,0.0328369,0.0213013,0.0510254,0.0340576l-0.0159302-0.0147705   l-0.0043335-0.0037231c-0.0028076-0.0023193-0.0060425-0.0046387-0.0095825-0.006958   c-0.0020142-0.0020142-0.0180054-0.0105591-0.0479126-0.0256958l-0.0168457-0.0084229h-0.0003052   c0.0114136,0.0061646,0.0184326,0.0100708,0.0209961,0.0117188C60.8209534,20.4259033,60.8285217,20.430542,60.8313904,20.432373z"/><path d="M60.9136047,20.4936523c0.0188599,0.0155029,0.0316772,0.0258179,0.0383911,0.0310059   c0.0401611,0.0311279,0.0761108,0.0581665,0.1079102,0.0811157c-0.0512695-0.0441895-0.1057739-0.0872803-0.1633911-0.1293335   l-0.0127563-0.0090942h-0.0003052l0.0126343,0.0113525L60.9136047,20.4936523z"/><path d="M61.1520081,20.6866455c-0.0183716-0.0196533-0.0352783-0.0366821-0.0508423-0.0510254l-0.0360718-0.026062   l-0.0030518-0.0022583h-0.0003052c0.0216675,0.0186157,0.0389404,0.0335693,0.0516968,0.0449219L61.1520081,20.6866455z"/><path d="M38.5205383,23.8357544h-0.0003052l-0.0010376,0.0009155l-0.0131226,0.0115356   c-0.0047607,0.0050049-0.0078125,0.0082397-0.0090942,0.0097046c-0.0128784,0.0144653-0.0254517,0.0294189-0.0375366,0.0447388   c0.0059814-0.0070801,0.0151978-0.0175781,0.0275879-0.0314941C38.4960632,23.861084,38.5072327,23.8492432,38.5205383,23.8357544z   "/><polygon points="38.5566101,23.8024902 38.554718,23.803833 38.5491028,23.8082275 38.5444031,23.8129883 38.5569153,23.8024902     "/><polygon points="38.5381165,23.8192749 38.5423279,23.8151245 38.5420227,23.8151245 38.5406189,23.8164673 38.5298157,23.8265381    38.5231628,23.8331299 38.5256042,23.8309326  "/><polygon points="61.4743958,23.8309326 61.4768372,23.8331299 61.4701843,23.8265381 61.4594421,23.8164673 61.4579773,23.8151245    61.4576721,23.8151245 61.4618835,23.8192749  "/><polygon points="61.4508972,23.8082275 61.445282,23.803833 61.4433899,23.8024902 61.4431458,23.8024902 61.4555969,23.8129883     "/><path d="M61.5406189,23.9026489c-0.012146-0.0153198-0.0246582-0.0302734-0.0375977-0.0447388   c-0.0012817-0.0014648-0.0043335-0.0046997-0.0090942-0.0097046l-0.0131226-0.0115356l-0.0010376-0.0009155h-0.0002441   c0.0132446,0.0134888,0.0244141,0.0253296,0.0334473,0.0354004C61.5254211,23.8850708,61.5345764,23.8955688,61.5406189,23.9026489   z"/><path d="M38.6636047,22.4807129c-0.0192261,0.0209351-0.0388184,0.0440063-0.0581665,0.0655518   c0.0315552-0.0380249,0.0618896-0.0717773,0.0906372-0.1001587L38.6636047,22.4807129z"/><path d="M38.7269592,22.4140625l-0.0039063,0.0037842c-0.0110474,0.0108032-0.0193481,0.0194702-0.0249023,0.026123   c0.0103149-0.0108032,0.0200195-0.020752,0.0291138-0.0299072H38.7269592z"/><path d="M61.276947,22.4178467l-0.0038452-0.0037842h-0.0003052c0.0090332,0.0091553,0.0187378,0.019104,0.0290527,0.0299072   C61.2963562,22.4373169,61.2880554,22.4286499,61.276947,22.4178467z"/><path d="M61.3039246,22.446106c0.0288086,0.0283813,0.0591431,0.0621338,0.0906372,0.1001587   c-0.0192871-0.0215454-0.0389404-0.0446167-0.0581665-0.0655518L61.3039246,22.446106z"/><path d="M39.2398987,88.1104736c0.0032959-0.0283203,0.0064697-0.0632935,0.0095215-0.1034546l-0.005249,0.0534058   L39.2398987,88.1104736z"/><path d="M60.7558899,88.0604248l-0.005249-0.0532837c0.0030518,0.0401001,0.0061646,0.0750122,0.0095215,0.1033325   L60.7558899,88.0604248z"/><path d="M32.3513489,80.97229c-0.0019531,0.0040894-0.0040894,0.0087891-0.0064087,0.0140381   c-0.0016479,0.0039673-0.0027466,0.0067749-0.0033569,0.0084229l0.00177-0.0036011l0.0028076-0.0059814   c0.0012817-0.0028687,0.0026245-0.0059204,0.0040283-0.0091553l0.0032349-0.0076294h-0.0002441L32.3513489,80.97229z"/><polygon points="32.3400574,80.9978638 32.3370056,81.00354 32.3338928,81.008667 32.3389587,81.0007935 32.3403625,80.9979858    32.3409729,80.996582 32.3407288,80.996582  "/><polygon points="32.4424133,80.6913452 32.4444885,80.6827393 32.4421082,80.6925049  "/><path d="M32.3746033,80.9130249c-0.0060425,0.0171509-0.0126343,0.0344238-0.0197144,0.0518188l0.0056152-0.0114746   c0.0003052-0.0006714,0.0014038-0.003479,0.0033569-0.0085449c0.0023804-0.0063477,0.005127-0.0140381,0.0081787-0.0230103   l0.0048218-0.0144043h-0.0002441L32.3746033,80.9130249z"/><path d="M32.6069641,74.501709c0.0142822-0.0912476,0.0282593-0.1850586,0.0420532-0.2800903l-0.0073242,0.0474243   L32.6069641,74.501709z"/></g><text x="0" y="115" fill="#000000" font-size="5px" font-weight="bold" font-family="'Helvetica Neue', Helvetica, Arial-Unicode, Arial, Sans-serif">Created by Jhonatan</text><text x="0" y="120" fill="#000000" font-size="5px" font-weight="bold" font-family="'Helvetica Neue', Helvetica, Arial-Unicode, Arial, Sans-serif">from the Noun Project</text></svg>