<svg xmlns="http://www.w3.org/2000/svg" viewBox="0 0 128 160" x="0px" y="0px"><g><path d="M43.459,107.884c.024.016.2.164.2.164a6.293,6.293,0,0,0,.788.618c.313.211.672.453,1.055.726a11.888,11.888,0,0,1-1.328-1.929,16.371,16.371,0,0,1-1.172-2.758,15.985,15.985,0,0,1-.75-5.343c.063-1.383.336-2.211.5-2.195.375.031.274,3.335,1.508,7.14.3.945.648,1.82.992,2.609a20.986,20.986,0,0,0,1.07,2.007c.125.219.242.407.36.586-.047-.9-.094-1.828-.2-2.578-.04-.273-.055-.531-.11-.812s-.125-.57-.2-.852c-.125-.562-.258-1.1-.375-1.632-.133-.547-.18-1.117-.258-1.641a11.389,11.389,0,0,1,.016-1.562A9.661,9.661,0,0,1,47.053,96.1c.57-.867.976-1.281,1.109-1.218s-.008.64-.328,1.609a12.327,12.327,0,0,0-.7,3.984,12.983,12.983,0,0,0,.125,1.3c.117.454.179.922.343,1.407.071.242.149.492.235.742.078.273.164.554.25.843.078.274.156.555.234.836s.125.633.188.953a19.2,19.2,0,0,1,.257,1.938c.039.328.063.648.086.968.024.344.055.7.078,1.047,0,.328.016.641.008,1.008-.008.351-.015.726-.039,1.062-.047.68-.094,1.375-.14,2.07a11.735,11.735,0,0,0,.234,4.07,5.049,5.049,0,0,0,.812,1.562c.211-.992.422-1.921.641-2.757.172-.625.3-1.211.43-1.75a8.111,8.111,0,0,1-.125-1.414,5.88,5.88,0,0,1-.5-1.281,13.586,13.586,0,0,1-.4-4.187,67.426,67.426,0,0,1,.906-7.312c.3-1.828.282-2.953.461-2.992.078,0,.227.25.328.8a10.752,10.752,0,0,1,.141,2.273c-.023,1.906-.4,4.492-.516,7.281a20.884,20.884,0,0,0,.016,2.1c.281-1.172.633-2.2.922-3.093.476-1.3.843-2.352,1.1-3.062s.414-1.1.547-1.086c.109.008.188.445.141,1.226a12.921,12.921,0,0,1-.172,1.391c.2-.3.406-.594.609-.9s.383-.586.57-.882l.282-.485.25-.476a19.47,19.47,0,0,0,1.546-3.851,5.6,5.6,0,0,0,.133-3.133,2.463,2.463,0,0,0-1.406-1.406c-.461-.211-.812-.305-.781-.406.023-.071.3-.172.922-.094a3.094,3.094,0,0,1,1.062.383,2.757,2.757,0,0,1,1.055,1.148,5.9,5.9,0,0,1,.2,3.789,17.076,17.076,0,0,1-1.555,4.179l-.281.531-.289.485c-.219.328-.43.656-.64.953-.422.578-.821,1.14-1.211,1.679a17.48,17.48,0,0,0-1.094,1.734,22.845,22.845,0,0,0-.476,3.414,7.757,7.757,0,0,0,.164,2.289,2.8,2.8,0,0,0,.335.281c.032-.25.063-.508.1-.765a11.624,11.624,0,0,1,1.461-4.219c1.875-3.046,4.413-5.007,5.343-7.3.1-.3.2-.578.3-.867.07-.289.117-.586.172-.875s.047-.578.078-.867a5.922,5.922,0,0,0,0-.914,11.594,11.594,0,0,0-.508-3.2,17.2,17.2,0,0,0-2.375-4.226c-.671-1-.992-1.6-.875-1.7s.664.313,1.547,1.141a13.281,13.281,0,0,1,3.187,4.218,12.614,12.614,0,0,1,.828,3.234c.055-.727.071-1.555.094-2.4a14.787,14.787,0,0,0-.9-4.75c-.367-1.289-.43-2.1-.266-2.164.18-.062.563.68,1.141,1.828A17.308,17.308,0,0,1,63.356,94a8.846,8.846,0,0,1,.437,2.961,20.529,20.529,0,0,1-.242,2.859,5.639,5.639,0,0,1-.125.656c-.07.219-.133.422-.2.625-.031.094-.062.195-.094.289a1.46,1.46,0,0,1-.14.281c-.094.157-.18.305-.258.446-.141.2-.266.367-.383.523-.023.117-.039.234-.062.351-.1.383-.211.766-.336,1.149a14.154,14.154,0,0,1-2.57,4.031c-.836,1.054-1.8,2.148-2.516,3.265.3-.266.61-.523.922-.781.3-.25.609-.5.922-.766l.234-.2.125-.1.031-.032a.008.008,0,0,0,.008-.008l.039-.039.453-.453A21.965,21.965,0,0,0,63.02,104.8l.359-.61.282-.585a11.8,11.8,0,0,0,.515-1.3l.055-.172c.008-.023.031-.1.031-.1l.086-.328c.062-.211.1-.43.156-.641.094-.422.172-.844.235-1.258a15.759,15.759,0,0,0,.093-4.413,9.472,9.472,0,0,0-.82-2.8c-.07-.164-.141-.3-.2-.429-.078-.133-.133-.243-.18-.336-.086-.2-.1-.321-.047-.375s.18-.032.375.054a2.5,2.5,0,0,1,.742.555,6.909,6.909,0,0,1,1.672,3,13.229,13.229,0,0,1,.453,4.132,6.57,6.57,0,0,0,.812-2.609c.008-.351.055-.719.04-1.109-.04-.391-.024-.8-.1-1.219-.062-.422-.109-.844-.227-1.336a9.6,9.6,0,0,0-.328-1.367,6.513,6.513,0,0,0-1.4-2.468,2.561,2.561,0,0,0-2.328-.867l-1.4.218.234-1.609c.031-.226.078-.445.125-.672.016-.281.031-.554.047-.835.016-.329.024-.657.039-.985l.07-.937.047-.867a3.31,3.31,0,0,0-.031-.828A9.411,9.411,0,0,0,62.106,80c-.125-.359-.273-.71-.406-1.062-.149-.344-.352-.664-.516-1a9.588,9.588,0,0,0-1.273-1.7,4.638,4.638,0,0,0-.828-.742l-.391-.32-.484-.336c-.633-.453-1.258-.891-1.859-1.32a16.913,16.913,0,0,0-3.43-1.992c-.273-.1-.554-.235-.82-.313s-.531-.14-.789-.2a4.58,4.58,0,0,0-.851-.148c-.289-.032-.578-.063-.852-.1H48.92c-.25.024-.5.039-.742.055q-.75.081-1.406.14a13.035,13.035,0,0,1-2.367.063,4.136,4.136,0,0,1-1.531-.414,7.737,7.737,0,0,0-1.141-.039c-.516.039-1.148.117-1.929.211-.2.023-.4.047-.625.062-.11,0-.219.008-.336.016-.039.008-.2.015-.289.023-.219.016-.446.032-.68.055l-.352.023c-.109.016-.21.032-.32.055-.219.039-.437.07-.664.109s-.453.133-.687.2a9.758,9.758,0,0,0-1.43.539l-.187.078-.047.015c-.008.008-.016.016-.024.016l-.093.047-.4.2-.39.2-.321.211a6.291,6.291,0,0,0-1.234,1.016l-.258.3-.132.149-.032.039-.039.07a3.125,3.125,0,0,0-.218.406c-.032.1-.063.18-.1.3-.172.524-.266,1.188-.461,1.945a6.129,6.129,0,0,1-.437,1.211l-.078.156-.024.039c-.008.016-.086.141-.086.141l-.039.055-.156.218L29.5,78.9l-.3.3a9.007,9.007,0,0,0-1.57,1.375,5.2,5.2,0,0,0-.766,1.578c-.046.148-.078.3-.117.445l-.047.227-.015.086v.023l-.039.531-.016.266.024.172c.023.109.023.218.039.336l.109.406a8.315,8.315,0,0,0,.3.836c.25.578.554,1.2.8,1.874a5.4,5.4,0,0,1,.164.524c.055.2.094.3.149.57.047.32.109.594.141.945a10,10,0,0,1-.024,2,13.091,13.091,0,0,1-.226,1.422,1.315,1.315,0,0,1,.1-.117c1.359-1.563,2.609-2.828,3.453-4a7.032,7.032,0,0,0,1.39-2.976c.141-.735.1-1.289.274-1.305.133-.015.461.336.6,1.32a6.33,6.33,0,0,1-.922,3.8A34.916,34.916,0,0,1,29.8,94c-1.18,1.539-2.477,3.344-2.3,5.109a5.357,5.357,0,0,0,1.117,2.578,9.674,9.674,0,0,0,1.961,2.031,18.078,18.078,0,0,0,1.609,1.125c-.18-.336-.359-.672-.515-1.016-.165-.4-.321-.789-.477-1.179-.133-.422-.25-.86-.367-1.274-.094-.406-.117-.757-.18-1.124l-.015-.141-.024-.031-.023-.1c0-.015.015-.094.015-.094l.008-.3L30.633,99a11.667,11.667,0,0,1,.859-4.148c1-2.336,2.125-3.945,2.679-5.117.61-1.2.938-1.9,1.1-1.844.125.055.093.813-.282,2.141-.351,1.382-1.281,3.164-2.007,5.359a12.937,12.937,0,0,0-.7,4.046,8.517,8.517,0,0,0,1.242,3.508,16.384,16.384,0,0,0,2.7,3.82,18.8,18.8,0,0,0,4.116,3.007,24.946,24.946,0,0,1,3.859,2.765,8.693,8.693,0,0,1,1.6,1.906c.023.047.047.094.07.149a2.78,2.78,0,0,0,.1-.719,4.483,4.483,0,0,0-.868-2.453,9.5,9.5,0,0,0-.749-.711c-.313-.25-.618-.492-.907-.726a7.484,7.484,0,0,1-.906-.828c-.1-.063-.2-.1-.3-.156a8,8,0,0,1-.828-.5c-.132-.094-.257-.18-.39-.274a3.615,3.615,0,0,1-.422-.328c-.523-.414-1.047-.875-1.562-1.367a11.453,11.453,0,0,1-2.477-3.281,7.5,7.5,0,0,1-.718-3.328,7.424,7.424,0,0,1,.367-2.218c.179-.484.328-.742.414-.727.218.039-.039,1.188.148,2.9a7.713,7.713,0,0,0,.875,2.827,12.248,12.248,0,0,0,2.305,2.883c.367.344.742.672,1.109.992-.024-.07-.055-.148-.086-.226a15.355,15.355,0,0,1-.414-1.61c-.383-1.937-.391-3.031-.227-3.078.2-.054.563,1.016,1.219,2.789.164.453.367.922.594,1.438.125.242.257.5.39.757.164.235.281.461.469.711l.328.4.086.1.016.016C43.452,107.877,43.452,107.877,43.459,107.884Zm69.033-83.866-.008-.008-.016-.016-.172-.132-.336-.274a27.551,27.551,0,0,0-3.148-2.133c-1.164-.71-2.382-1.507-3.585-2.281A35.573,35.573,0,0,0,101.68,17.1a18.443,18.443,0,0,0-1.7-.758c-.312-.11-.625-.211-.93-.313l-.226-.078-.188-.047-.453-.132c-2.413-.7-4.577-1.289-6.39-1.7-.9-.18-1.726-.36-2.453-.532-.749-.109-1.39-.211-1.921-.289-1.055-.179-1.633-.359-1.633-.507s.6-.282,1.672-.368c.531-.031,1.187-.093,1.945-.085.773.054,1.656.125,2.64.218a59.628,59.628,0,0,1,6.664,1.266l.461.117.281.062.234.071c.3.093.617.179.938.273a19.572,19.572,0,0,1,2.015.828,32.4,32.4,0,0,1,3.8,2.172c1.218.789,2.406,1.562,3.554,2.3a26.139,26.139,0,0,1,3.312,2.422l.375.336.187.164.024.023.062.071.039.039.079.086.148.171c.062.079.141.188.211.29a2.477,2.477,0,0,1,.3.593,4.993,4.993,0,0,1,1.1-.414c.281-.062-1.734-2.148-1.867-2.257a44.1,44.1,0,0,0-4.851-3.375,46.438,46.438,0,0,0-15.7-6.007,69.008,69.008,0,0,0-20.123-.953c-4.28.429-8.71.093-12.936,1C49.529,14.12,45.436,27.3,40.538,35.868c-1.883,3.3-4.3,8.132-8.429,8.874-2.781.5-5.593-2.546-7.046-4.476C20.93,34.782,21.555,29.1,22.946,23.26a1.081,1.081,0,0,1,.133-.562c.585-2.391,1.281-4.8,1.8-7.242.8-3.7,1.8-11.327-4.437-9.624a12.735,12.735,0,0,0-7.554,5.515c1.086,7.429,1.148,15.53,3.82,22.56a19.6,19.6,0,0,0,2.781,5.008,24.278,24.278,0,0,1-.375-4.539c-.008-.953,0-1.883-.031-2.765-.039-.914-.07-1.828-.11-2.719s-.031-1.828-.007-2.718c.047-.461.093-.914.14-1.367l.039-.336a2.052,2.052,0,0,1,.063-.352l.125-.617c.094-.414.156-.812.273-1.226s.235-.828.352-1.242c.218-.828.547-1.563.8-2.328.321-.735.617-1.445.961-2.156.32-.656.719-1.352,1.024-1.945a9.26,9.26,0,0,0,.718-1.766,9.269,9.269,0,0,0,.219-1.789,7.378,7.378,0,0,0-.024-.867,3.448,3.448,0,0,0-.148-.75,1.665,1.665,0,0,0-.765-.968,5.345,5.345,0,0,0-4.953.671,6.465,6.465,0,0,0-2.219,2.617c-.32.735-.39,1.18-.484,1.18-.062-.008-.141-.469.063-1.328a6.194,6.194,0,0,1,2.124-3.172A6.755,6.755,0,0,1,19.821,7.16a5.921,5.921,0,0,1,1.664-.187,6.593,6.593,0,0,1,.851.078,4.778,4.778,0,0,1,.977.289,2.974,2.974,0,0,1,1.461,1.632,6.12,6.12,0,0,1,.343,2.07,10.238,10.238,0,0,1-.187,2.141,10.145,10.145,0,0,1-.758,2.125,29.281,29.281,0,0,0-3.007,8.554l-.117.617a1.081,1.081,0,0,0-.039.273l-.024.3c-.039.4-.07.8-.1,1.211,0,.828-.008,1.648.062,2.554.055.891.109,1.8.156,2.711.047.953.055,1.882.078,2.82a17.9,17.9,0,0,0,.735,5.382,6.665,6.665,0,0,0,1.257,2.187l.266.274.1.109.015.016.039.031.063.063.546.492c.36.343.743.625,1.11.929a9.118,9.118,0,0,0,5.1,2.047l.8.039.8.023c.578.024,1.094.079,1.5.055a1.523,1.523,0,0,0,.289-.031.957.957,0,0,0,.211-.055.7.7,0,0,0,.242-.1l.18-.118.016-.078.039.039c.179-.132.367-.179.547-.335s.359-.313.531-.485a21.34,21.34,0,0,0,2-2.351c.328-.422.656-.852.984-1.273.367-.477.617-.836.929-1.258a38.134,38.134,0,0,0,3.133-5.218A102.635,102.635,0,0,1,48.56,24.361c.266-.382.532-.773.8-1.156l.2-.289c.093-.14.156-.2.234-.3l.453-.562c.6-.726,1.187-1.476,1.789-2.125s1.14-1.312,1.859-1.984c.336-.351.68-.594,1.008-.891l.9-.757c.281-.289.563-.578.844-.86a8.69,8.69,0,0,1,.984-.945,7.578,7.578,0,0,1,1.094-.781c.382-.234.672-.383,1.078-.594a13.169,13.169,0,0,1,4.577-1.281,29.1,29.1,0,0,1,4.172-.078c1.281.055,2.492.1,3.624.156,2.266.094,4.211.2,5.8.289,3.2.2,4.952.375,4.952.532s-1.765.265-4.96.343c-1.594.039-3.547.071-5.812.086l-3.633.024a28.73,28.73,0,0,0-3.96.226,10.84,10.84,0,0,0-7.421,4.164c-.336.3-.672.6-1.008.906-.3.281-.656.555-.914.836-.539.515-1.117,1.242-1.7,1.906C52.9,21.9,52.4,22.6,51.841,23.291l-.414.531c-.062.079-.156.188-.187.243l-.2.289c-.258.39-.516.781-.782,1.171a106.022,106.022,0,0,0-5.7,10.218,40.567,40.567,0,0,1-3.281,5.523c-.32.43-.648.867-.969,1.3-.32.421-.648.843-.976,1.273a24.478,24.478,0,0,1-2.2,2.586c-.211.21-.453.406-.672.609-.234.2-.508.375-.758.562l-.047.032-.023.015-.008.008a1.252,1.252,0,0,0-.133.07l-.085.047-.188.086c-.008.008-.031.016-.055.031,5.2-.1,10.3-1.023,15.468-1.5C63,45.258,74.855,45.008,86.768,40.985c5.71-1.93,11.1-3.937,16.1-7.374,3.616-2.485,6.3-6,9.827-8.507a1.373,1.373,0,0,0,.226-.407.274.274,0,0,0-.023-.2.76.76,0,0,0-.094-.148l-.062-.086-.157-.164-.086-.078ZM99.165,108.447c-.008.039-.024.086-.031.125a1.283,1.283,0,0,1-.086.211.7.7,0,0,1-.063.1c-.031.032.016-.015-.133.141a1.853,1.853,0,0,1-.437.289,1.471,1.471,0,0,1-1.164.062,1.982,1.982,0,0,1-.75-.515,3.737,3.737,0,0,1-.742-1.148,8.145,8.145,0,0,1-.563-4.289,9.243,9.243,0,0,1,1.188-3.25c.492-.875.968-1.57,1.336-2.2a8.9,8.9,0,0,0,1.148-2.867c.133-.648.172-.968.266-.976.07,0,.195.312.21,1.023a7.173,7.173,0,0,1-.812,3.242c-.32.7-.75,1.445-1.156,2.289a8.618,8.618,0,0,0-.891,2.882,7.061,7.061,0,0,0,.6,3.523,2.479,2.479,0,0,0,.484.711.343.343,0,0,0,.172.117c.008,0,.031-.031.055-.039.008-.023.023-.023.093-.117a.923.923,0,0,0,.133-.265,3.318,3.318,0,0,0,.25-.649,8.1,8.1,0,0,0,.211-.867q.492-2.613.992-5.335c.047.273.1.554.157.828l.078.312.015.078a.421.421,0,0,1,.024.133l.07.43c.039.289.086.578.125.867.1.617.2,1.234.289,1.867s.2,1.3.32,1.875c.063.3.125.593.188.9.031.156.07.3.1.445l.094.328c.078.3.18.594.273.9a15.869,15.869,0,0,0,.735,1.765,6.721,6.721,0,0,0,1.765,2.234,6.179,6.179,0,0,0,.039-1.671c-.062-.641-.172-1.289-.289-1.922s-.258-1.25-.4-1.875c-.141-.64-.219-1.273-.32-1.859-.2-1.187-.383-2.32-.461-3.414a26.759,26.759,0,0,1-.188-3.023c0-.929-.015-1.765.016-2.492.07-.734.14-1.359.2-1.875.133-1.007.242-1.57.336-1.57a4.257,4.257,0,0,1,.172,1.6c.015.507.015,1.132.015,1.851.047.711.1,1.531.164,2.429.032.907.188,1.883.321,2.93.117,1.039.3,2.172.531,3.359a6.3,6.3,0,0,1,.164,1.242,54.038,54.038,0,0,1,.586-5.664,27.094,27.094,0,0,0,.343-5.827,11.807,11.807,0,0,0-.226-1.414,5.712,5.712,0,0,0-.563-1.211c-.4-.687-.992-1.445-1.468-2.382-.008,0-.024.007-.039.007a2.673,2.673,0,0,1-1.469-.328,7.779,7.779,0,0,1-1.015-.632,21.118,21.118,0,0,1-2.891-2.789c-.187-.219-.343-.422-.523-.633a12.376,12.376,0,0,1,.8,2.015A5.2,5.2,0,0,1,97.8,90.5a8.854,8.854,0,0,1-.422,1.844A14.447,14.447,0,0,1,93.814,97.9c-.2.172-.383.359-.594.516a4.72,4.72,0,0,1-1.008.656c-.336.164-.656.336-1.007.476l-.516.219a2.337,2.337,0,0,1-.094-.508,14.057,14.057,0,0,1-.211-2.179c0-.227.008-.453.008-.68.016-.234.039-.453.063-.679a7.569,7.569,0,0,1,.2-1.289,4.831,4.831,0,0,1,.422-1.3c.39-.734.75-1.312.64-1.68-.07-.468-.351-.718-.906-.875-.539-.156-1.211-.218-1.843-.445a3.366,3.366,0,0,1-.922-.492,3.2,3.2,0,0,1-.656-.734A3.792,3.792,0,0,1,86.947,88c-.023.078-.039.156-.062.234a52.63,52.63,0,0,0-.961,6.867c-.031.273-.055.546-.07.812-.016.313-.039.617-.055.93-.031.476-.063.953-.086,1.429-.016.11-.008.25-.031.328l-.063.25-.117.485-.125.484-.031.117c-.024.008-.078-.039-.117-.062l-.25-.157c-.352-.211-.617-.39-.914-.586a9.382,9.382,0,0,1-.844-.765c-.242-.328-.539-.688-.734-.992a19.1,19.1,0,0,1-2.047-5.218A20.363,20.363,0,0,1,80,89.7c-.016-.164-.039-.336-.047-.5a4.481,4.481,0,0,1-2.094,1.945.9.9,0,0,1-.172.055,4.074,4.074,0,0,1,.867,1.117,7.255,7.255,0,0,1,.688,1.976c.273,1.273.351,2.453.515,3.547a9.578,9.578,0,0,0,.321,1.5l.117.305c.039.1.109.242.156.359l.352.727c.468.961.953,1.882,1.484,2.75a22.461,22.461,0,0,0,3.445,4.538c.047.047.1.086.148.133a9.767,9.767,0,0,1-.367-2.734c0-.3-.008-.617-.008-.937V104c.016-.18.024-.359.039-.539a9.62,9.62,0,0,1,.485-2.109c.468-1.367,1.023-2.562,1.461-3.664a12.753,12.753,0,0,0,.882-2.914,5.272,5.272,0,0,0-.086-1.945c-.172-.476-.273-.758-.187-.8.07-.047.305.132.625.546a4.238,4.238,0,0,1,.578,2.274c.008,2-1.133,4.4-2.016,6.921a9.3,9.3,0,0,0-.46,1.836c-.016.14-.024.281-.04.429s-.015.321-.023.477c-.016.312-.023.617-.039.914a9.036,9.036,0,0,0,.242,2.976,5.322,5.322,0,0,0,.461.992c.023.016.055.024.055.016-.008-.039-.032-.086-.047-.133-.063-.227-.133-.453-.195-.672a8.18,8.18,0,0,1-.172-1.031c0-.2.008-.32.015-.586a1.986,1.986,0,0,1,.141-.765c.18-.446.312-.907.531-1.328l.32-.625.164-.313.079-.148c.023-.047.078.054.109.078.32.344.633.687.937,1.023s.61.664.914.992l.11.117.062.086.117.157.235.3q.468.609.914,1.2c.586.774,1.156,1.469,1.7,2.125a15.2,15.2,0,0,0,3.406,2.937,14.807,14.807,0,0,0,3.038,1.391c-.273-.133-.554-.266-.812-.383l-.039-.023a14.281,14.281,0,0,1-2.57-1.758,17.131,17.131,0,0,1-2-1.968,13.434,13.434,0,0,1-2.476-3.938,6.67,6.67,0,0,1-.516-3.038c.07-.719.234-1.055.3-1.055.195.016-.18,1.578.945,3.773a14.256,14.256,0,0,0,2.547,3.531,16.478,16.478,0,0,0,4.343,3.328c.547.242,1.07.484,1.586.718a13.1,13.1,0,0,1-.711-1.234,14.8,14.8,0,0,1-.8-2.015c-.109-.336-.2-.664-.289-.992l-.031-.141-.008-.031-.008-.078-.047-.328-.007-.094A.067.067,0,0,0,99.165,108.447ZM118,24.1a.98.98,0,0,1-.719.945,9.811,9.811,0,0,0-3.851,1.937c-.2.2-.4.36-.586.531s-.351.336-.508.5l-.3.3-.266.242c-.289.25-.547.492-.82.719a41.809,41.809,0,0,1-3.789,3.672,49.981,49.981,0,0,1-9.687,6.1A89.645,89.645,0,0,1,87.1,43.156c2.343,3.813,7.749,8.273,5.327,12.905,0,.008-.008.008-.008.016.071.172.133.344.188.516.125.382.258.789.351,1.109a31.772,31.772,0,0,0,3,7.39c.7,1.093,1.391,2.164,2.062,3.2a7.715,7.715,0,0,1,1.219,3.851,24.33,24.33,0,0,1-.3,3.562,11.541,11.541,0,0,0-.093,3,8.682,8.682,0,0,0,2.6,4.64,24.817,24.817,0,0,1,1.773,2.148,5.839,5.839,0,0,1,1.125,2.664,3.047,3.047,0,0,1-.18,1.375l.1-.039a20.28,20.28,0,0,0,1.6,2.687,7.514,7.514,0,0,1,.774,1.718,13.864,13.864,0,0,1,.289,1.719,28.471,28.471,0,0,1-.289,6.257c-.211,1.93-.422,3.781-.516,5.539a25.493,25.493,0,0,0,.195,4.991c.071.422.133.836.2,1.242.141.688.274,1.375.407,2.055.515,1-.664.516-1.281.523-.352-.054-.7-.14-1.039-.211l-.516-.109c-.164-.062-.289-.133-.383-.172-.062-.031-.117-.062-.187-.094-.305.008-.656.008-1.039,0a12.738,12.738,0,0,1-2.82-.289,14.368,14.368,0,0,1-3.609-1.367,15.7,15.7,0,0,1-3.875-3.062c-.6-.679-1.234-1.39-1.843-2.156-.3-.383-.618-.765-.938-1.164-.14-.172-.289-.351-.429-.531l-.079-.078-.078-.07c-.015,0-.031.062-.047.086a.689.689,0,0,0-.015.109c-.008.015,0,.039,0,.047l-.008.289a6.867,6.867,0,0,0,.141.718,5.38,5.38,0,0,0,.421,1.055c.477,1.086,1.157,2.281,1.742,3.414l-.382-.078-.516-.141c-.344-.094-.687-.187-1.039-.281-.32-.094-.648-.188-.976-.281a2.7,2.7,0,0,1-.532-.219l-.546-.274L86.5,111.1a3.651,3.651,0,0,1-.453-.289c-.2-.141-.414-.281-.609-.43a14.777,14.777,0,0,1-1.125-.984,23.939,23.939,0,0,1-3.8-4.906c-.562-.914-1.085-1.882-1.578-2.89-.132-.25-.25-.5-.367-.758-.062-.14-.117-.25-.179-.406l-.188-.476a11.715,11.715,0,0,1-.4-1.828c-.18-1.172-.266-2.336-.5-3.414a5.459,5.459,0,0,0-.485-1.422,10.247,10.247,0,0,1-.96,1.523A9.708,9.708,0,0,1,75,95.8c-.164.156-.328.312-.484.468-.156.125-.3.25-.445.375-.149.11-.266.211-.391.321-.023.07-.039.14-.055.211-.179.476-.374.945-.562,1.406-.242.437-.516.859-.773,1.281-.274.4-.524.7-.782,1.054a26.551,26.551,0,0,0-2.6,3.828l-.609,1.18-.93-.867A3.09,3.09,0,0,1,66.5,103.6a4.466,4.466,0,0,1-.125-1.031l-.008.015-.023.094-.008.047-.031.109-.055.172a11.457,11.457,0,0,1-.531,1.445c-.125.258-.235.531-.367.781-.133.235-.274.477-.407.719a19.508,19.508,0,0,1-3.944,4.609c-.172.156-.344.305-.516.453l-.063.055-.07.054-.031.024-.125.094-.266.195c-.367.258-.711.492-1.039.711-.656.437-1.257.828-1.773,1.2a12.316,12.316,0,0,0-1.6,1.351c-.039.188-.086.375-.125.57-.071.493-.141.977-.211,1.461.047.039.078.071.07.1s-.039.047-.094.062c-.015.094-.031.2-.047.289-.054.336-.117.672-.2,1.016-.039.172-.109.375-.164.555a4.273,4.273,0,0,1-.3.664l-.617,1.171-1-.968a6.793,6.793,0,0,1-.851-1.047c-.18,1.2-.352,2.484-.547,3.859L51.224,124l-1.359-.875a7.216,7.216,0,0,1-2.945-3.734,8.972,8.972,0,0,1-.391-1.945c-.1.109-.2.219-.3.328L44.8,119.36l-.328-2.32a3.6,3.6,0,0,0-.515-1.484,6.77,6.77,0,0,0-1.235-1.4,25.341,25.341,0,0,0-3.546-2.484,19.5,19.5,0,0,1-4.531-3.406.121.121,0,0,1-.031-.039,9.58,9.58,0,0,1-.5,2.781,13.968,13.968,0,0,1-2.492,4.172c-.9,1.085-1.758,1.96-2.5,2.734-.734.75-1.359,1.468-1.968,2.039a12.758,12.758,0,0,1-2.094,1.726,11.178,11.178,0,0,1-.859.867c-.313.281-.617.477-.946.734-.32.235-.718.539-.976.711-.055-.547-.1-1.1-.148-1.664-.071-.539-.141-1.078-.219-1.617a2.121,2.121,0,0,0-.1-.523l-.1-.391c-.063-.265-.164-.531-.25-.8a34.938,34.938,0,0,0-1.406-3.367,41.732,41.732,0,0,1-1.625-3.844,17.936,17.936,0,0,1-.524-1.952c-.007.015-.023.039-.031.054-.117.18-.258.352-.39.531a2.416,2.416,0,0,1-.2.235c-.054.086-.1.172-.164.258a2.643,2.643,0,0,1-.547.57,1.624,1.624,0,0,1-.64.3,2.169,2.169,0,0,1-.75.281,3.291,3.291,0,0,1-.875.07h-.484c-.055.016-.024-.055-.032-.086l.008-.117.008-.242c.016-.648.039-1.3.063-1.969a3,3,0,0,1,.039-.554l.047-.313c.023-.211.054-.422.078-.632s.062-.422.093-.641c0-.2,0-.414.008-.625a12,12,0,0,0-.344-2.64,22.757,22.757,0,0,1-.906-6.351,23.236,23.236,0,0,1,1.586-6.914,47.816,47.816,0,0,0,1.664-5.3.605.605,0,0,0-.063.024,5.746,5.746,0,0,1-1.429.429c-.453.094-1.078.227-1.547.3a26.121,26.121,0,0,1,1.274-2.976c.148-.266.343-.547.515-.82l.43-.641c.2-.3.39-.586.57-.875a6.409,6.409,0,0,0,.812-1.8l.141-.484.086-.515a6.48,6.48,0,0,0,.109-1.047,23.592,23.592,0,0,0-.421-4.64c-.141-.828-.235-1.7-.336-2.57s-.227-1.774-.235-2.688c-.031-.906-.1-1.835-.093-2.773s.007-1.882.015-2.843c.024-.953.039-1.93.063-2.914.023-.5.086-1.039.132-1.562l.079-.8.171-.781a12.273,12.273,0,0,1,.4-1.578c.179-.516.359-1.039.547-1.555.234-.5.476-1,.71-1.5s.555-.968.829-1.453a47.016,47.016,0,0,1,3.484-4.843,1.12,1.12,0,0,1-.141-.3,19.949,19.949,0,0,1-6.484-7.858c-3.46-7.929-3.531-17.139-4.859-25.576a1.042,1.042,0,0,1,.516-1.062C15.564,3.879,28.7-.191,27.523,11.238c-.351,3.5-1.71,7.335-2.741,11.186A2.293,2.293,0,0,0,27.4,21.346a5.342,5.342,0,0,1,1.219-1.7c-.156-1.828-.32-3.648-.508-5.476a.952.952,0,0,1,.094-.508,3.018,3.018,0,0,1,.352-1.07,3.64,3.64,0,0,1,1.476-1.437,8.585,8.585,0,0,1,4.2-2.461A82.407,82.407,0,0,1,48.42,6.355c5.937-.46,11.944-1.3,17.912-.992,3.961.211,8.2.3,11.3,3.039a1.456,1.456,0,0,1,.109.117c.945-.039,1.891-.062,2.836-.047,9,.133,18.678,1.555,26.677,5.93C110.765,16.331,117.671,19.471,118,24.1Zm-15.28,65a1.587,1.587,0,0,0,.094-.789,3.688,3.688,0,0,0-.609-1.461c-.266-.242-.774-.976-1.68-1.843-.594-.563-1.336-1.188-2.2-1.914-.438-.375-.883-.774-1.312-1.195a17.671,17.671,0,0,1-1.274-1.531,8.879,8.879,0,0,1-1.468-3.57,12.639,12.639,0,0,1-.1-1.672c.047-.516.063-1,.149-1.43s.164-.812.242-1.148c.093-.328.187-.594.273-.82.164-.446.3-.688.391-.672s.125.289.109.765c0,.243-.031.532-.047.868s-.023.7-.047,1.1.024.852.024,1.32c.047.469.109.961.2,1.469a8.86,8.86,0,0,0,1.359,3.039c.211.289.438.578.664.851a6.563,6.563,0,0,1-.39-1.523c-.352-2.328.367-4.64.3-6.726a5.906,5.906,0,0,0-.984-2.961q-1.02-1.559-2.1-3.2a33.378,33.378,0,0,1-3.25-7.843c-.109-.374-.211-.656-.312-.968a4.228,4.228,0,0,0-.383-.906l-.219-.438-.281-.422-.281-.414-.328-.4a18.311,18.311,0,0,0-3.313-2.89c-1.265-.914-2.648-1.813-3.984-2.922A14.957,14.957,0,0,1,78.854,45.4c-.773.164-1.554.336-2.328.477a8.507,8.507,0,0,0,.485.781A11.747,11.747,0,0,0,79.1,48.922c1.68,1.468,3.883,2.734,6.093,4.4.555.437.961.835,1.438,1.242a11.626,11.626,0,0,1,1.3,1.32,20.722,20.722,0,0,1,2.156,2.8,22.737,22.737,0,0,1,1.469,2.813c.187.453.391.89.539,1.328s.266.859.383,1.265a14.059,14.059,0,0,1,.484,2.2c.055.328.117.633.149.914.015.289.023.547.039.781.039.938.015,1.445-.079,1.453s-.242-.5-.429-1.383c-.047-.226-.094-.468-.149-.742-.07-.265-.164-.554-.25-.867a16.155,16.155,0,0,0-.656-2.078c-.14-.375-.281-.773-.437-1.187-.172-.4-.391-.8-.586-1.227a19.913,19.913,0,0,0-3.554-5.171,12.384,12.384,0,0,0-1.242-1.234c-.454-.383-.954-.844-1.383-1.18-2.094-1.585-4.336-2.921-6.086-4.546a12.393,12.393,0,0,1-2.187-2.578,8.431,8.431,0,0,1-.617-1.211c-.664.11-1.336.227-1.992.32-.156.016-.32.032-.476.055a3.588,3.588,0,0,0,.421.633,10.178,10.178,0,0,0,2.125,1.711,23.033,23.033,0,0,1,2.531,1.773,6.068,6.068,0,0,1,1.164,1.265,5.874,5.874,0,0,1,.43.782,2.808,2.808,0,0,1,.242,1.054c.016.711-.125,1.149-.094,1.406a1.119,1.119,0,0,0,.078.336,2.875,2.875,0,0,0,.227.352,1.217,1.217,0,0,0,.289.258,5,5,0,0,0,.492.249c.359.165.789.313,1.242.493a8.189,8.189,0,0,1,.773.351l.618.461a10.589,10.589,0,0,1,1.117.93,19.027,19.027,0,0,1,1.859,2.078c2.093,2.8,4.148,5.515,5.335,8.663a11.462,11.462,0,0,1,.8,4.9l-.055.609-.109.6-.109.578-.078.46a6.062,6.062,0,0,0,.015,1.844,8.793,8.793,0,0,0,.867,2.367c.727.867,1.774,1.859,2.883,3.257.609.75,1.32,1.563,2.125,2.407a20.106,20.106,0,0,0,2.773,2.5,5.751,5.751,0,0,0,.812.477,1.334,1.334,0,0,0,.664.164C102.571,89.324,102.625,89.332,102.719,89.105Zm-6.6,1.258a3.513,3.513,0,0,0-.2-1.406,13.4,13.4,0,0,0-1.492-3.1c-.64-1.039-1.4-2.085-2.133-3.257a12.4,12.4,0,0,1-1.757-4.078,7.709,7.709,0,0,1-.039-2.437c.062-.367.125-.742.187-1.117l.094-.492.031-.5a9.6,9.6,0,0,0-.7-4.1c-1.047-2.766-3.031-5.406-5.1-8.14a16.93,16.93,0,0,0-1.664-1.844,7.673,7.673,0,0,0-.945-.781l-.469-.352c-.086-.031-.281-.14-.476-.2-.383-.156-.836-.3-1.313-.523a6.751,6.751,0,0,1-.742-.383,3.449,3.449,0,0,1-.757-.656,4.931,4.931,0,0,1-.524-.82,3.084,3.084,0,0,1-.234-1.031c-.024-.688.117-1.188.086-1.43a.774.774,0,0,0-.078-.336,3.56,3.56,0,0,0-.266-.476,4.113,4.113,0,0,0-.805-.867,24.283,24.283,0,0,0-2.327-1.617,11.678,11.678,0,0,1-2.555-2.094,5.446,5.446,0,0,1-.961-1.625c0-.015-.008-.023-.008-.039-1.007.117-2.015.234-3.015.336a7.556,7.556,0,0,0,1.484,3.843,24.889,24.889,0,0,0,3.773,4.086c.7.617,1.407,1.234,2.094,1.843.719.61,1.351,1.3,2.015,1.946.329.32.649.648.977.968l.484.485.43.515q.867,1.043,1.711,2.062a22.063,22.063,0,0,1,1.531,2.1c.476.718.992,1.4,1.421,2.117.407.726.813,1.445,1.211,2.156.2.359.4.711.594,1.062s.351.735.523,1.1c.219.484.422.968.61,1.46.093-.3.187-.593.273-.867.391-1.125.7-2,.836-2.6.094-.3.109-.57.156-.742s.078-.266.125-.266.094.086.141.258a2.664,2.664,0,0,1,.093.781,12.631,12.631,0,0,1-.453,2.82,11.969,11.969,0,0,0-.312,1.82c-.031.375-.055.789-.063,1.211a18.541,18.541,0,0,1,.664,4.617c.118.305.266.625.4.937a15.307,15.307,0,0,0,2.789,3.93,21,21,0,0,1,1.656,1.515,4.169,4.169,0,0,1,1,1.875,10.573,10.573,0,0,1,.171,2.9c-.039.656-.062,1.016-.164,1.031-.078.016-.226-.343-.351-1a18.347,18.347,0,0,0-.539-2.632,3.462,3.462,0,0,0-.906-1.422c-.453-.445-1.031-.828-1.7-1.383a13.665,13.665,0,0,1-2.492-3.07c-.086.7-.2,1.367-.344,2.031-.109.461-.219.914-.328,1.375a7.5,7.5,0,0,0,.226,1.258,3.325,3.325,0,0,0,.555,1.2,1.933,1.933,0,0,0,1.078.758c.492.156,1.078.187,1.8.351a2.73,2.73,0,0,1,1.148.555,2.593,2.593,0,0,1,.453.562,2.053,2.053,0,0,1,.242.688,2.117,2.117,0,0,1,.016.765,3.44,3.44,0,0,1-.188.664c-.164.414-.359.735-.515,1.071a3.289,3.289,0,0,0-.274.968,7.053,7.053,0,0,0-.148,1.149c-.016.2-.031.4-.047.593.008.2.016.406.016.617.007.125.023.235.039.344a.515.515,0,0,0,.015.078l.086-.039a.873.873,0,0,0,.149-.094,1.663,1.663,0,0,0,.14-.109c.172-.133.321-.3.485-.445a13.162,13.162,0,0,0,3.062-4.961A7,7,0,0,0,96.118,90.363ZM91.087,53.788c.2-3.312-4.288-7.343-5.89-10.03q-2.132.633-4.273,1.164c1.586,2.148,3.961,3.648,6.179,5.249a19.481,19.481,0,0,1,3.672,3.234ZM86.44,80.239a19.184,19.184,0,0,0-1.977-8.164c-.164-.335-.312-.687-.492-1.023s-.383-.672-.578-1.015q-.575-1.02-1.172-2.063c-.414-.687-.906-1.335-1.367-2.015a22.531,22.531,0,0,0-1.476-2.016c-.539-.64-1.086-1.3-1.641-1.952l-.414-.5-.461-.453c-.312-.313-.625-.618-.937-.93-.641-.609-1.234-1.266-1.937-1.859-.7-.61-1.4-1.227-2.117-1.859a26.252,26.252,0,0,1-4.078-4.43,10.488,10.488,0,0,1-1.484-2.921,8,8,0,0,1-.352-1.844c-1,.094-2,.18-3.007.266.75,4.96,3.46,9.194,6.866,12.819,1.867,1.992,4.023,3.609,5.234,6.038.32.422.656.852,1.008,1.313.289.375.578.773.882,1.179.266.406.547.82.828,1.25a26.989,26.989,0,0,1,1.7,2.875,11.2,11.2,0,0,1,1.141,3.648,6.333,6.333,0,0,1,.039.859c.1.156.187.305.289.469.2.312.375.687.578,1.07.078.211.156.43.242.648a4.007,4.007,0,0,1,.172.571c-.031-.43-.055-.852-.117-1.3a38.257,38.257,0,0,0-1.648-7.1q-.341-.9-.656-1.781c-.211-.586-.54-1.117-.789-1.672A28.163,28.163,0,0,0,77,65.342c-.273-.477-.672-.9-.984-1.336-.328-.414-.641-.875-.953-1.219-.672-.726-1.266-1.437-1.9-2.023-.61-.6-1.164-1.164-1.649-1.672a12.215,12.215,0,0,1-1.179-1.328c-.594-.765-.883-1.226-.821-1.281s.493.274,1.2.938c.343.343.8.726,1.32,1.156.515.445,1.109.945,1.765,1.507.672.547,1.344,1.25,2.078,1.985.391.4.68.8,1.039,1.218a14.155,14.155,0,0,1,1.039,1.32,24.634,24.634,0,0,1,1.914,3.156,18.988,18.988,0,0,1,.851,1.75c.227.625.461,1.25.7,1.891a34.67,34.67,0,0,1,1.6,7.374,15.643,15.643,0,0,1-.547,6.21,7.035,7.035,0,0,1-.508,1.2,8.939,8.939,0,0,1-.609.969c-.008.016-.016.023-.024.039-.007.094-.023.18-.031.273-.023.336-.039.672-.062,1.016a5.959,5.959,0,0,0,.086,1.039,20.391,20.391,0,0,0,.484,2.273,17.962,17.962,0,0,0,1.969,4.75,1.422,1.422,0,0,0,.226.265c.063.047.211.18.172,0V96.5c.016-.227.023-.461.031-.688.016-.273.031-.554.055-.828a53.441,53.441,0,0,1,.9-7.116q.422-1.828.867-3.757A19.616,19.616,0,0,0,86.44,80.239ZM81.065,81.9c.008-.243.055-.485.039-.711s-.055-.453-.078-.672a2.268,2.268,0,0,0-.133-.617c-.062-.2-.117-.4-.179-.586-.063-.148-.125-.289-.18-.422-.047.234-.094.469-.149.7-.109.328-.218.664-.335.969a3.339,3.339,0,0,1-.493.968c-.156.165-.453.211-.578.391a.637.637,0,0,0-.1.352,2.9,2.9,0,0,0,.679,1.32,11.374,11.374,0,0,1,.821,1.312c.031.063.054.125.078.188.133-.571.258-1.11.359-1.61A8.4,8.4,0,0,0,81.065,81.9Zm-2.1,5.71a2.286,2.286,0,0,0-.219-1.812,11.812,11.812,0,0,0-.773-1.031,8.237,8.237,0,0,1-.961-1.422,2.365,2.365,0,0,1-.258-1.32.864.864,0,0,1,.062-.328,1.572,1.572,0,0,1,.227-.485,3.04,3.04,0,0,1,.414-.492c.227-.219.227-.242.258-.3.109-.25.226-.5.336-.757.062-.211.133-.422.2-.641.047-.234.094-.469.141-.711a7.207,7.207,0,0,0,0-1.476,15.5,15.5,0,0,0-2.375-5.687c-.258-.453-.508-.883-.75-1.312-.039-.055-.07-.11-.109-.165a6.6,6.6,0,0,1,.054.993,5.645,5.645,0,0,1-.054.937,8.073,8.073,0,0,1-.563,2.1A6.648,6.648,0,0,1,74,74.786c-.109.149-.211.3-.32.453s-.219.3-.336.453A4.056,4.056,0,0,1,74,77.114a8.759,8.759,0,0,1,.071,2.961,3.893,3.893,0,0,0,.164,2.374,2.307,2.307,0,0,1,.117.227l.109.234.188.305c.117.195.242.406.4.617.32.438.641.891.969,1.344.164.25.336.476.5.742s.312.539.461.82l.187.469.086.226.047.117.023.063.008.023c.008.016.031.086.031.086.063.258.125.524.18.782a6.891,6.891,0,0,1,.117,1.679A5.147,5.147,0,0,0,78.964,87.613ZM75.347,91.5a5.379,5.379,0,0,0,.07-2.468c-.062-.242-.133-.485-.2-.735l-.008-.007-.008-.016-.015-.039-.032-.07-.062-.149-.117-.3c-.117-.2-.242-.406-.36-.617s-.289-.429-.437-.64c-.313-.446-.641-.891-.969-1.375a7.261,7.261,0,0,1-.476-.758l-.227-.391c-.07-.156-.14-.328-.211-.492l-.195-.507a1.871,1.871,0,0,1-.094-.407l-.078-.382-.015-.094-.024-.164V81.84l-.016-.234a9.731,9.731,0,0,1,.133-1.664,8.875,8.875,0,0,0,.18-2.445,2.848,2.848,0,0,0-.266-.828c-.039-.063-.07-.11-.1-.156a.534.534,0,0,1-.133-.032,2.05,2.05,0,0,1-.289-.093l-.3-.133a10.959,10.959,0,0,1-1.179-.578c-.391-.219-.758-.469-1.078-.672a6.168,6.168,0,0,0-.907-.484,3.79,3.79,0,0,0-.382-.141.944.944,0,0,0-.25-.063l-.289-.054a10.382,10.382,0,0,0-2-.086,32.1,32.1,0,0,1-3.906.094.389.389,0,0,0-.1-.016,2.732,2.732,0,0,1,.375.367,11.2,11.2,0,0,1,1.719,2.18c.211.406.453.8.64,1.226.164.437.352.875.5,1.32a11.112,11.112,0,0,1,.414,2.141,5.047,5.047,0,0,1,.032,1.093l-.071,1.031c-.031.313-.062.618-.086.93l-.046.867c-.024.242-.04.492-.063.734a3.868,3.868,0,0,1,.93.274,5.045,5.045,0,0,1,1.757,1.312,8.116,8.116,0,0,1,1.664,3.3,11.413,11.413,0,0,1,.274,1.6c.07.469.093.992.117,1.476a13.756,13.756,0,0,1-.016,1.4c-.031.445-.133.882-.187,1.289-.047.21-.11.421-.172.617-.024.343-.055.695-.11,1.046-.046.3-.085.6-.132.922-.063.3-.125.61-.188.93a11.454,11.454,0,0,0-.179,1.633c.484-.789,1.023-1.563,1.57-2.313.234-.336.515-.7.734-1.031.187-.328.375-.664.57-.992.141-.367.281-.734.43-1.1.086-.391.18-.789.273-1.188a11.458,11.458,0,0,0-.273-4.726,11.335,11.335,0,0,0-.367-1.172l-.1-.289-.008-.015L71,89.1l-.055-.1a2.273,2.273,0,0,0-.226-.4A12.972,12.972,0,0,0,69.269,87a5.349,5.349,0,0,1-.429-.469A4.674,4.674,0,0,1,68.433,86a3.887,3.887,0,0,1-.562-1.234,6.385,6.385,0,0,1,.078-2.25c.078-.664.188-1.2.2-1.625a3.347,3.347,0,0,0-.085-.586c-.086-.2-.165-.4-.243-.578l-.015-.039a12.41,12.41,0,0,1-1.094-2.351c-.031-.164-.055-.313-.07-.438a2.689,2.689,0,0,1,.023-.3c.024-.164.063-.25.117-.265s.125.055.211.2c.047.07.086.164.141.266s.117.2.187.3c.258.477.86.961,1.547,1.969.141.234.289.476.438.726a4.634,4.634,0,0,1,.289.961,15.142,15.142,0,0,1,0,1.883,5.427,5.427,0,0,0,.046,1.679,2.209,2.209,0,0,0,.383.649c.11.172.2.195.281.312.071.078.235.219.344.328A12.277,12.277,0,0,1,72.4,87.386a3.973,3.973,0,0,1,.406.625l.094.164.023.047.016.024v.008l.008.007.031.086.031.071.11.289a11.5,11.5,0,0,1,.429,1.21c.117.454.258.93.344,1.4.062.461.14.937.195,1.414.008.445.016.89.031,1.343.079-.125.164-.25.243-.367A8.206,8.206,0,0,0,75.347,91.5Zm-1.719-20.99a13.4,13.4,0,0,0,.242-2.437,1.013,1.013,0,0,1-.351-.461c-1.437-3.757-5.914-6.562-8.249-9.858A22.171,22.171,0,0,1,61.02,47.7v-.07c-5.82.476-11.639.882-17.451,1.578-3.9.461-8.14,1.164-12.03.234-.516-.125-1.031-.258-1.555-.4a1.523,1.523,0,0,1-.187-.032c-.774,2-1.625,3.82-.242,6.039a10.907,10.907,0,0,1,1.781,4.226c.375,2.125-.227,4.218.3,6.359.329,1.336.657,2.64.914,3.96.141-.211.289-.421.438-.648.539-.836.953-1.617,1.265-2.164.3-.617.547-1.008.727-.953.172.039.258.484.172,1.2a7.073,7.073,0,0,1-1.063,2.641c-.109.164-.218.312-.336.461a10.745,10.745,0,0,1,1.688-.485,8.2,8.2,0,0,1,.836-.148c.289-.024.562-.039.828-.063a4.073,4.073,0,0,1,.75,0c.234.008.46.024.679.032.117.007.242.007.36.015l.289.024c.187.015.39.023.578.031A13.6,13.6,0,0,1,41.8,69.7a10.9,10.9,0,0,0,4.765.023c.43-.094.9-.211,1.407-.312a9.877,9.877,0,0,1,1.757-.227c.281.008.563.024.86.031a5.065,5.065,0,0,1,.929.078c.336.063.688.125,1.039.188.344.078.664.2,1.008.305a15.32,15.32,0,0,1,2.3,1.031.251.251,0,0,1-.023-.039c-1.055-1.75-1.836-3.336-2.5-4.43-.633-1.078-1.132-1.765-.984-1.9.133-.1.828.313,1.742,1.352a31.04,31.04,0,0,1,2.859,4.288,23.433,23.433,0,0,0,1.531,2.234l.266.313a9.72,9.72,0,0,0,2.359.047c1.015-.1,2.234-.375,3.742-.563a9.98,9.98,0,0,1,2.523-.023l.289.039a3.5,3.5,0,0,1,.344.07,6.654,6.654,0,0,1,.757.242,7.768,7.768,0,0,1,1.274.657c.382.242.695.461,1.007.648.274.156.493.281.782.422.062-.07.117-.141.179-.211.11-.141.227-.281.344-.422A7.233,7.233,0,0,0,73.628,70.513ZM68.558,9.121c2.032-.078,4.063-.258,6.094-.414-3.266-1.688-7.828-1.5-11.3-1.422-3.992.094-7.952.453-11.936.781A82.7,82.7,0,0,0,38.725,9.644c-2.624.633-7.491,1.094-8.132,4.359.758,1.93,5.078,3.531,6.828,3.906,3.734.82,7.335-.016,11.069-.141,2.492-3.406,5.539-6.366,9.359-7.382A48.823,48.823,0,0,1,68.558,9.121ZM43.577,25.775c1.039-1.859,2.2-3.952,3.53-6-4.132.258-8.046.922-12.1-.664a17.582,17.582,0,0,1-4.7-2.437c.4,4.163.735,8.343.875,12.522.078,2.3.164,4.617.1,6.929-.07,2.461,2.179,3.234,4.125,3.789a1.043,1.043,0,0,1,.249.117,34.615,34.615,0,0,0,1.9-2.937C39.764,33.423,41.5,29.517,43.577,25.775ZM32.625,108.111a6.762,6.762,0,0,0-.086-.953,19.572,19.572,0,0,1-3.2-1.8,10.83,10.83,0,0,1-2.055-1.859c.117.734.242,1.906.375,3.632a43.655,43.655,0,0,1-.015,6.578,21.681,21.681,0,0,1-.789,4.375c.312-.4.648-.821,1.031-1.282.7-.828,1.492-1.726,2.3-2.773a13.226,13.226,0,0,0,2.078-3.648A7.685,7.685,0,0,0,32.625,108.111Zm-2.8-65.923a3.634,3.634,0,0,0,4.382-.594c-3.585-1.125-4.843-2.476-4.859-6.4-.023-4.171-.218-8.327-.515-12.483a3.635,3.635,0,0,1-1.3,1.211,4.933,4.933,0,0,1-3.242.406c-.89,3.805-1.265,7.578.149,11.015C25.469,37.829,27.375,40.875,29.828,42.188Zm1.109,29.434a.592.592,0,0,1-.023-.1c-.344-2.734-1.563-5.421-1.516-8.195a12.744,12.744,0,0,0-1.531-7.3,8.268,8.268,0,0,1-.711-1.711l-.047.118a13,13,0,0,0-.531,1.749c-.226.969-.218,1.719-.422,1.727-.164,0-.5-.6-.507-1.828a8.164,8.164,0,0,1,.3-2.023,17.767,17.767,0,0,1,.852-2.281c.125-.282.25-.547.367-.813.2-.828.5-1.664.812-2.593-.336-.141-.671-.3-1-.461a8.59,8.59,0,0,1-.734,2.07c-.328.664-.672,1.281-.976,1.867a6.208,6.208,0,0,0-.664,1.672c-.117.617-.235,1.21-.344,1.781s-.148,1.093-.227,1.6c-.054.508-.14.977-.164,1.43-.054.906-.148,1.687-.164,2.328a6.175,6.175,0,0,1-.218,2,5.848,5.848,0,0,1-.3-2c-.063-.641-.039-1.438-.055-2.367-.016-.461.039-.953.07-1.485.047-.523.047-1.093.141-1.656.078-.57.164-1.164.25-1.789a6.9,6.9,0,0,1,.7-1.984c.289-.617.617-1.218.906-1.859a6.9,6.9,0,0,0,.625-1.9,1.066,1.066,0,0,0,.008-.274c-.476-.351-.953-.96-1.437-.96h-.008a.967.967,0,0,0-.727.257,5.662,5.662,0,0,0-1.2,1.774c-.359.757-.648,1.546-1.085,2.406a23.588,23.588,0,0,0-1.258,2.226,8.282,8.282,0,0,0-.437,1.117,10.055,10.055,0,0,0-.321,1.148,10.22,10.22,0,0,0-.211,1.156,9.879,9.879,0,0,0-.125,1.157,10.97,10.97,0,0,0-.039,1.124V59.3l.039.578c.211,2.9,1.391,5.437,1.906,7.734a9.978,9.978,0,0,1-.007,5.578c-.133.312-.25.585-.344.82a5.971,5.971,0,0,1-.32.547c-.188.289-.3.429-.352.406s0-.195.109-.524c.047-.156.141-.359.2-.593s.132-.492.21-.8a10.426,10.426,0,0,0-.4-5.2c-.32-1.086-.766-2.25-1.2-3.546a21.009,21.009,0,0,1-.883-3.367c-.008.3-.015.617-.023.914-.016.945-.024,1.875-.031,2.8s.054,1.8.07,2.68a25.112,25.112,0,0,0,.219,2.578c.086.843.172,1.664.3,2.5a24.043,24.043,0,0,1,.4,5.016,8.559,8.559,0,0,1-.141,1.257l-.117.625-.18.6a8.106,8.106,0,0,1-1.031,2.218c-.211.328-.422.641-.625.93l-.164.234-.039.047a1.645,1.645,0,0,0-.14.234c.039.032.156-.007.226-.039a.909.909,0,0,0,.125-.062l.11-.078c.062-.039.125-.078.187-.125l.352-.289a17.613,17.613,0,0,0,2.468-2.531,19.877,19.877,0,0,0,3.109-5.367,9.88,9.88,0,0,0,.516-2.523,11.764,11.764,0,0,0-.188-2.328A33.85,33.85,0,0,0,22.305,66.3a22.405,22.405,0,0,1-1.14-5.117,5.85,5.85,0,0,1,.023-1.227c.031-.265.078-.382.125-.382s.094.117.149.375.117.64.242,1.164a33.936,33.936,0,0,0,1.57,4.859,30.18,30.18,0,0,1,1.281,4.015,12.624,12.624,0,0,1,.312,2.6,10.674,10.674,0,0,1-.5,2.937,16.287,16.287,0,0,1-1.3,2.953,23.106,23.106,0,0,1-1.906,2.945,18.01,18.01,0,0,1-2.656,2.844l-.125.1A33.757,33.757,0,0,1,16.345,91.7a22.051,22.051,0,0,0-1.508,6.343,20.954,20.954,0,0,0,.82,5.866l.118.586c.078-.273.164-.562.25-.828.187-.64.367-1.25.546-1.843q.129-.445.258-.868c.071-.289.125-.562.18-.835.117-.547.234-1.063.336-1.547s.148-.977.226-1.414c.141-.883.258-1.648.328-2.273a5.76,5.76,0,0,1,.383-1.953,5.686,5.686,0,0,1,.125,1.984c.016.641-.031,1.422-.1,2.328-.047.453-.055.937-.133,1.453s-.164,1.062-.25,1.632c-.055.29-.094.586-.149.883-.078.281-.148.578-.226.883-.149.6-.313,1.226-.477,1.875-.359,1.289-.734,2.648-1.023,4.085a14.841,14.841,0,0,0-.234,1.555.269.269,0,0,1,.054-.039l.063-.063c.055-.07.117-.125.172-.2.109-.14.226-.273.328-.429a12.3,12.3,0,0,0,.687-1.094c.227-.688.422-1.4.61-2.133.109-.406.21-.843.328-1.25.1-.414.2-.82.3-1.226.2-.805.414-1.6.531-2.39s.328-1.571.375-2.321c.078-.757.148-1.5.218-2.226-.007-1.5-.007-2.937-.007-4.273.023-.687.086-1.343.164-1.976.125-.625.179-1.234.351-1.789a20.107,20.107,0,0,1,1.984-5.086c.625-1.109,1.055-1.671,1.133-1.632a7,7,0,0,1-.672,1.867,25.962,25.962,0,0,0-1.539,5.038c-.125.539-.156,1.125-.25,1.719-.039.6-.078,1.226-.078,1.875.039,1.328.078,2.749.125,4.242-.054.773-.117,1.562-.172,2.366-.047.821-.242,1.6-.359,2.43-.078.523-.187,1.039-.312,1.554.749-1.429,1.445-2.741,2.07-3.929A16.1,16.1,0,0,0,23.5,93.761c.219-1.43.313-2.6.375-3.523.133-1.828.219-2.641.368-2.641.125,0,.3.789.414,2.649A25.818,25.818,0,0,1,24.6,93.9a15.919,15.919,0,0,1-1.414,5.351c-.883,1.907-1.945,4.039-3.148,6.508a7.985,7.985,0,0,1-.117.89c-.078.414-.157.789-.242,1.117a17.915,17.915,0,0,0,2.062,6.828,9.857,9.857,0,0,0-.313-2,5.315,5.315,0,0,0-.257-.656c-.1-.2-.2-.375-.3-.563-.109-.218-.234-.4-.328-.632s-.188-.469-.25-.7c-.047-.211-.094-.406-.141-.6a6.021,6.021,0,0,1-.062-.664,2.68,2.68,0,0,1,.023-.617,1.827,1.827,0,0,1,.1-.555,5.7,5.7,0,0,1,.726-1.656c.508-.813.844-1.211.922-1.172s-.109.547-.469,1.406a7.083,7.083,0,0,0-.461,1.563,1.948,1.948,0,0,0-.039.468,2.585,2.585,0,0,0,.024.492c.039.165.039.313.094.5s.117.391.179.594a5.8,5.8,0,0,0,.555,1.055c.133.218.265.437.4.664a5.813,5.813,0,0,1,.313.679,11.764,11.764,0,0,1,.539,3.305c.039.773.054,1.585.109,2.359.063.179.125.351.18.523.078.25.156.485.226.734.1-.484.2-.968.25-1.46.016-.289.039-.586.063-.875.008-.289-.008-.578-.016-.867a21.343,21.343,0,0,0-.476-3.352,26.371,26.371,0,0,1-.907-5.96,7.293,7.293,0,0,1,1.157-3.984c.546-.8.953-1.133,1.015-1.1.094.054-.187.523-.57,1.367a7.684,7.684,0,0,0-.672,3.7,30.978,30.978,0,0,0,1.164,5.7,22,22,0,0,1,.586,3.562c.008.32.023.641.023.969-.023.328-.047.656-.07.992a1.32,1.32,0,0,1-.023.164c.031-.078.07-.156.093-.227a21.291,21.291,0,0,0,.938-4.218c.328-2.625.375-4.757.437-6.39a28.265,28.265,0,0,1,.289-4.257,7.057,7.057,0,0,1-1.523-3.586,6.2,6.2,0,0,1,.515-3.015,16.422,16.422,0,0,1,.313-2.023,21.167,21.167,0,0,0,.383-3.016,9.173,9.173,0,0,0-.071-1.554c-.031-.258-.125-.586-.179-.891l-.117-.336a2.98,2.98,0,0,0-.141-.39c-.219-.524-.516-1.086-.82-1.735a10.286,10.286,0,0,1-.422-1.07l-.172-.593c-.047-.227-.07-.469-.1-.7l-.031-.352.008-.266.023-.539.008-.132.008-.016v-.039l.016-.078.023-.149.063-.3c.047-.2.093-.4.148-.594A7.189,7.189,0,0,1,25.727,79.4c.14-1.008.406-2.109.625-3.367.07-.359.14-.718.211-1.093.047-.313.07-.719.109-1.086a9.259,9.259,0,0,0,.047-1.156c-.008-.391.031-.8-.008-1.2-.023-1.593-.3-3.226-.32-4.687-.063-1.445-.11-2.734-.235-3.788a9.058,9.058,0,0,0-.539-2.406c-.187-.485-.507-.742-.437-.813.047-.047.406-.031.875.539a6.46,6.46,0,0,1,1.015,2.523,28.2,28.2,0,0,1,.532,3.867c.086,1.445.39,2.953.429,4.719.031.429,0,.851,0,1.273a9.245,9.245,0,0,1-.078,1.242c-.055.422-.078.789-.156,1.226-.086.367-.172.727-.258,1.086-.133.6-.289,1.172-.437,1.727.234-.18.421-.313.507-.383a.682.682,0,0,1,.1-.055l.164-.219.156-.2.039-.086a3.9,3.9,0,0,0,.3-.781c.172-.594.281-1.3.547-2.054.078-.2.18-.43.273-.641a4.5,4.5,0,0,1,.274-.461l.062-.1.078-.11.024-.031.047-.055.2-.211.391-.421A3.861,3.861,0,0,1,30.937,71.622Z"/><path d="M111.359,24.291l-.758.547c-.383.273-.773.547-1.164.828-.4.25-.8.5-1.2.75-.515.328-1.007.609-1.5.945-.242.172-.484.336-.726.508l-.18.125c-.015.008-.07.047-.062.047l-.071.062-.312.289c-.836.75-1.656,1.461-2.4,2.234a15.383,15.383,0,0,1-2.344,2.032c-.2.132-.406.273-.6.406l-.61.328a9.955,9.955,0,0,1-1.164.57A23.68,23.68,0,0,1,94.618,35.2c-.882.211-1.382.282-1.406.2s.414-.321,1.242-.688,2.016-.843,3.406-1.578c.344-.187.711-.375,1.063-.609.179-.117.359-.227.546-.344.172-.133.352-.265.532-.406a15.559,15.559,0,0,0,2.124-2c.7-.781,1.547-1.554,2.422-2.359l.328-.3.078-.078c.094-.078.078-.054.117-.093l.18-.125.727-.516c.492-.344,1.046-.664,1.57-1,.39-.242.789-.484,1.172-.726.109-.079.21-.149.312-.219A90.844,90.844,0,0,0,100.68,19.6c-2.406-1.14-3.882-1.812-3.827-1.984.046-.141,1.64.25,4.171,1.2a57.179,57.179,0,0,1,9.538,4.961Z"/><path d="M93.361,16.183c1.32.742,2.023,1.359,1.929,1.5-.1.172-.961-.156-2.3-.64a28.27,28.27,0,0,0-5.43-1.18c-4.335-.39-8-.172-8.022-.586-.016-.179.875-.421,2.335-.625a26.259,26.259,0,0,1,5.828-.1A16.819,16.819,0,0,1,93.361,16.183Z"/><path d="M87.822,28.611a2.507,2.507,0,0,1,.235,1.375,1.432,1.432,0,0,1-1.032,1.359,3.8,3.8,0,0,1-2.171-.32c-.321-.125-.641-.274-.969-.391a2.851,2.851,0,0,0-2.273.477c-.016.008-.031.008-.047.015a4.3,4.3,0,0,1-.312,1.188,1.627,1.627,0,0,0,2.156.429,3.1,3.1,0,0,1,1.695-.25,1.562,1.562,0,0,1,1.507,1.368,2.548,2.548,0,0,1-1.148,2.031c0,.007.008.007.008.015a3.944,3.944,0,0,0,.289.984,1.749,1.749,0,0,1,.07,1.039c-.3,1.508-3.132,2.055-4.163,1.235-.852-.68.21-2.094-.375-2.922a4.293,4.293,0,0,0-1.149-1.07A4.87,4.87,0,0,1,78.9,38.907,7.879,7.879,0,0,1,74.363,40.9,4.8,4.8,0,0,1,69.91,39.36c-.906-1.148-.563-2.664-.438-4.078a10.5,10.5,0,0,0-1.945,1.555c-.742.82-1.132,1.836-1.945,2.617-1.468,1.406-3.359-.039-2.906-1.859.313-1.258-1.023-1.774-.945-3.117a1.657,1.657,0,0,1,1.484-1.492c.789-.133,1.649,1.062,2.156.867A15.649,15.649,0,0,0,67.91,32.29c-.039-.054-.086-.093-.125-.148a3.525,3.525,0,0,1-.664-2.461,8.757,8.757,0,0,0-1.82-.9c-.976-.234-1.867.265-2.812.453a2.413,2.413,0,0,1-2.32-.914c-.5-.656-.922-1.844-.188-2.531a2.31,2.31,0,0,1,1.211-.633c.727-.14.68-.562.758-1.14.187-1.313,2.32-2.664,3.187-1.117a11.478,11.478,0,0,1,.687,2.031c.235.7,1.055,1.187,1.852,1.6-.805-6.507,6.866-13.03,12.514-7.491a7.751,7.751,0,0,1,2.437,4.429,11.435,11.435,0,0,1-.71,4.421,6.962,6.962,0,0,0,1.1-.492c.742-.437.562-.742.594-1.468a2.547,2.547,0,0,1,1.515-2.024,1.647,1.647,0,0,1,2.156.742,2.377,2.377,0,0,1-.25,2.422C86.729,27.689,87.518,28.15,87.822,28.611Zm-2.414,1.172c.3.109,1.328.586,1.289-.024-.054-.859-.984-1.25-1.109-2.132-.094-.617.828-1.836.516-2.289-.461-.664-1.25.484-1.125.93a1.535,1.535,0,0,1,.07.726c-.328,1.515-2.148,1.945-3.39,2.453,0,.047-.008.086-.008.133a3.164,3.164,0,0,1,2.086-.4A15.834,15.834,0,0,1,85.408,29.783Zm-.687,4.968a2.491,2.491,0,0,0,.461-.57.686.686,0,0,0-.938-.3c-.679.258-1.46.828-2.234.578a4.533,4.533,0,0,1-1.726-1.179c-.047.015-.094.031-.149.047v.249c1.141.789,2.375,1.469,2.7,2.946a2.976,2.976,0,0,1,.016,1.023c-.055.351-.359.789.141.664a4.828,4.828,0,0,0,1.093-.352c.508-.242.406-.4.242-.843a2.375,2.375,0,0,1-.093-1.86C84.362,34.954,84.565,34.907,84.721,34.751ZM81.1,25.674a7.673,7.673,0,0,0-.016-2.539,5.359,5.359,0,0,0-2.968-3.882c-5.593-2.641-10.64,2.929-8.8,8.405a.554.554,0,0,1-.148.625.7.7,0,0,1-.071.133,2.317,2.317,0,0,0,2.781,3.617.679.679,0,0,1,.7.07.715.715,0,0,1,.571.617c.086.672.187,1.3.929,1.476a13.488,13.488,0,0,0,1.867.3c1.1.11,1.672.024,1.859-1.187a2.084,2.084,0,0,1,.719-1.359c.3-.282.578-.149.883-.063a1.277,1.277,0,0,0,.351.055,1.461,1.461,0,0,0,1.008-.641,3.381,3.381,0,0,0,.391-1.875c0-.406-.032-.781-.063-1.171-.039-.492.07-.985.031-1.469A4.789,4.789,0,0,1,81.1,25.674Zm-2.328,9.265a1.285,1.285,0,0,1-.344.46c-.015,2.321-2.359,2.766-4.3,2.547-.976-.109-2.226-.289-2.828-1.172s-.32-1.789-.172-2.726c-.093.086-.195.172-.3.258.008.953-.164,1.867-.148,2.843.024,2.2,2.156,2.719,3.953,2.336,1.25-.266,3.148-.812,3.726-2.117A6.12,6.12,0,0,0,78.776,34.939Zm-1.828.929a10.426,10.426,0,0,1-1.882-.117,3.406,3.406,0,0,1-2.711-1.3,2.379,2.379,0,0,0-.047,1.313c.274.718,1.453.8,2.086.843C75.316,36.673,76.581,36.72,76.948,35.868Zm-7.46-2.234a.626.626,0,0,1,.094-.188,3.431,3.431,0,0,1-.555-.234c-1.148.633-2.4,2.047-3.757,2.047a2.054,2.054,0,0,1-1.5-.719c-.531.445-.563.789-.086,1.016l.258.257a1.545,1.545,0,0,1,.359.633c.094.344-.508,3.023.57,1.8.516-.594.828-1.281,1.289-1.906A14.766,14.766,0,0,1,69.488,33.634ZM67.52,28.377c.054-.1.109-.211.171-.313-1.125-.6-2.546-1.25-3.046-2.4-.227-.516-.3-1.07-.477-1.6-.429-1.219-.679.453-.836,1a1.611,1.611,0,0,1-1.085,1.249c-.266.071-1.7.258-1.133,1.008.765,1.023,1.64.4,2.437.2C65.192,27.111,66.192,27.744,67.52,28.377Z"/><path d="M79.136,27.541c.984.461,1.64,1.7.523,2.453-.539.351-1.25.5-1.672-.1a1.123,1.123,0,0,1-.148-.39,3.805,3.805,0,0,1-.32-.469c-.274-.5-.415-1.25.195-1.586A1.579,1.579,0,0,1,79.136,27.541Z"/><path d="M76.573,28.8a2.4,2.4,0,0,1,.7,3.155.943.943,0,0,1-1.422.375,1.278,1.278,0,0,1-1.672-.312,1.861,1.861,0,0,1-.1-1.516C74.378,29.478,75.362,28.166,76.573,28.8Z"/><path d="M73.089,27.361c.258,1.031.391,2.453-.617,3.148a1.97,1.97,0,0,1-2.312-.156.165.165,0,0,1-.063,0,.7.7,0,0,1-.476-.844,3.318,3.318,0,0,1,2.625-2.624A.711.711,0,0,1,73.089,27.361Z"/><path d="M70.082,14.355c1.984.125,3.2.281,3.21.461s-1.234.359-3.21.468c-.985.063-2.156.125-3.43.266a16.858,16.858,0,0,0-3.991.867c-.336.109-.641.273-.961.406a8.026,8.026,0,0,0-.86.492c-.14.1-.289.2-.429.3-.1.063-.25.211-.367.305-.25.219-.492.429-.735.633a14.131,14.131,0,0,0-1.3,1.257,15.78,15.78,0,0,0-1.071,1.172c-1.3,1.469-2.109,2.429-2.273,2.3-.125-.1.391-1.21,1.539-2.874a12.124,12.124,0,0,1,.984-1.32,11.832,11.832,0,0,1,1.289-1.422c.243-.235.5-.477.758-.719.149-.125.234-.234.43-.375.14-.1.281-.2.422-.312a11.52,11.52,0,0,1,1.023-.61,8.468,8.468,0,0,1,1.094-.468,14.767,14.767,0,0,1,4.343-.844A30.764,30.764,0,0,1,70.082,14.355Z"/><path d="M58.645,43.274c2.8-.047,4.539.007,4.555.187,0,.18-1.727.453-4.516.75-2.812.32-6.694.359-10.944.523-.508.032-.992.086-1.484.125-.484.055-1,.188-1.492.274-.812.133-1.734.765-2.961.7l-1-.062.516-.844c1.469-2.422,2.773-4.359,3.484-5.843.727-1.445.992-2.438,1.148-2.391.1.032.11,1.016-.468,2.68a32.81,32.81,0,0,1-2.461,5,10.56,10.56,0,0,1,1.476-.492c.5-.1.977-.234,1.516-.3.539-.054,1.1-.117,1.656-.156C51.982,43.25,55.857,43.36,58.645,43.274Z"/><path d="M60.684,82.332a15.213,15.213,0,0,1-.086,3.18c-.242,1.757-.547,2.8-.718,2.8-.188-.016-.211-1.125-.219-2.859a21.993,21.993,0,0,0-.188-2.976A7.392,7.392,0,0,0,58.3,79.262a6.608,6.608,0,0,0-.555-.679c-.234-.211-.461-.414-.687-.61a11.224,11.224,0,0,0-1.4-.937c-.968-.578-1.914-1.078-2.648-1.617a6.32,6.32,0,0,1-.953-.8,2.969,2.969,0,0,1-.6-.719c-.274-.445-.375-.71-.3-.757.187-.117.844.711,2.351,1.476.742.406,1.7.805,2.75,1.352A11.682,11.682,0,0,1,57.919,77c.25.226.453.383.758.664a6.25,6.25,0,0,1,.7.851A7.85,7.85,0,0,1,60.684,82.332Z"/><path d="M32.875,82.973c0-.008-.016.015-.016.015l-.047.047-.156.172c-.11.117-.219.235-.32.352-.063.093-.133.187-.2.289s-.133.172-.2.273-.117.219-.172.328a3.694,3.694,0,0,0-.3.649,5.6,5.6,0,0,0-.234.64c-.516,1.688-.688,2.859-.984,2.836-.133,0-.25-.289-.344-.813a8.167,8.167,0,0,1-.055-2.312,3.683,3.683,0,0,1-.156-.367,4.516,4.516,0,0,1-.125-2.008,12.085,12.085,0,0,1,2.851-5.757,12.935,12.935,0,0,1,5.109-3.882,4.76,4.76,0,0,1,1.976-.344c.493.031.7.172.7.25.007.1-.282.133-.672.258a8.383,8.383,0,0,0-1.625.679,16.89,16.89,0,0,0-4.484,3.883,15.746,15.746,0,0,0-2.812,4.7c.093-.156.187-.335.281-.484.086-.125.18-.25.273-.383l.141-.187.078-.1.047-.054a.171.171,0,0,0,.039-.039l.047-.047c.141-.133.281-.266.422-.406a6.994,6.994,0,0,1,.867-.711c.273-.2.554-.414.836-.625.265-.211.468-.414.711-.617l.976-.8.687.945c.227.3.43.578.633.836,0-.195-.008-.4-.008-.617a4.929,4.929,0,0,1,.055-.8,2.493,2.493,0,0,1,.133-.57c.039-.11.047-.117.07-.18l.031-.07.079-.149c.007-.007.039-.046.039-.046a6.226,6.226,0,0,1,.515-.649,5.118,5.118,0,0,1,.6-.515,7.135,7.135,0,0,1,2.4-.992c.711-.18,1.32-.305,1.82-.477a2.809,2.809,0,0,0,1.133-.617,1.772,1.772,0,0,0,.343-.391c.18-.2.2-.562.422-.7.992-.632.813.485.9.977.117.664.664.875,1.265,1.015a10.286,10.286,0,0,0,1.8.2c1.07.055,2.273-.289,3.265.313l.039.031.024.008c.007.008.093.062.093.062l.063.047.125.094a2.151,2.151,0,0,1,.273.211,3.1,3.1,0,0,1,.922,1.812,8.421,8.421,0,0,0,.2,1.164.346.346,0,0,1,.024.086c.2-.18.4-.359.593-.539l.766-.695.726.719A7.2,7.2,0,0,1,57.4,83.551c.023.187.015.367.023.547,0,.156.008.3.008.461s.015.312.015.468c.008.071.008.157.016.227l.031.156a3.2,3.2,0,0,0,.141.664,4.865,4.865,0,0,0,.25.648,18.14,18.14,0,0,1,.945,2.2c.133.578.141.906.016.96s-.383-.171-.719-.593c-.359-.422-.867-.961-1.508-1.844a4.63,4.63,0,0,1-.453-.758,4.337,4.337,0,0,1-.375-.976l-.078-.273c-.023-.086-.023-.149-.039-.227-.023-.156-.047-.312-.078-.469-.016-.164-.039-.336-.062-.507-.024-.149-.032-.3-.071-.446a6.241,6.241,0,0,0-.945-2.46,3.408,3.408,0,0,1-.586.453c-.094.047-.187.093-.281.132a2.082,2.082,0,0,1-.4.1,1.552,1.552,0,0,1-.976-.2,1.9,1.9,0,0,1-.594-.57,2.925,2.925,0,0,1-.265-.469c-.094-.188-.1-.242-.157-.359a1.132,1.132,0,0,1-.046-.149c-.375.078-.914-.094-1.172.195-.266.313,0,.969-.031,1.336-.008.094-.024.2-.039.313a5.155,5.155,0,0,1,2.281.351,2.225,2.225,0,0,1,1.085.914c.157.3.164.485.1.516-.156.094-.523-.461-1.453-.641a4.184,4.184,0,0,0-1.078-.078,5.564,5.564,0,0,1,1.515,1.312,9.522,9.522,0,0,1,1.289,2.2c.539,1.3.727,2.148.571,2.226s-.664-.641-1.4-1.789c-.734-1.109-1.757-2.726-3.546-3.179a5.882,5.882,0,0,0-1.422-.188l-.211-.008c.094.157.188.3.289.446A16.986,16.986,0,0,0,49.1,85.715a11.914,11.914,0,0,1,1.1,1.632,4.413,4.413,0,0,1,.547,1.844,3.134,3.134,0,0,1-.313,1.578,3.246,3.246,0,0,1-.64.922c-.422.429-.742.554-.852.461-.133-.1-.039-.414.1-.914a3.176,3.176,0,0,0,.133-1.836,6.37,6.37,0,0,0-1.649-2.344,15.768,15.768,0,0,1-1.351-1.624c-.2-.29-.4-.579-.609-.868-.039-.062-.086-.132-.133-.2a1.592,1.592,0,0,1-.188.07,19.868,19.868,0,0,1,1.133,5.094c.055,1.507-.078,2.421-.234,2.421-.188,0-.375-.89-.649-2.3a36.937,36.937,0,0,0-1.359-4.453c.055.141-.836,1.133-.891,1.461-.132.828.157,1.711.047,2.554-.023.141-.047.235-.07.352-.039.164-.086.258-.125.383a5.374,5.374,0,0,1-.3.632c-.437.727-.789,1.227-.968,1.594-.2.359-.274.648-.375.625-.079-.024-.188-.25-.125-.75a8.1,8.1,0,0,1,.625-1.867,4.866,4.866,0,0,0,.171-.539,1.945,1.945,0,0,0,.055-.266c.008-.109.039-.242.039-.336a12.1,12.1,0,0,0-.156-1.359,4.529,4.529,0,0,1-.031-.937,3.509,3.509,0,0,1,.445-1.414l.266-.485c.062-.093.132-.164.2-.25-.016-.007-.039-.007-.063-.015a1.84,1.84,0,0,1-.75-.438,1.781,1.781,0,0,1-.179.172,6.907,6.907,0,0,1-1.11.813,7.232,7.232,0,0,0-.789.57l-.273.273-.1.141-.149.226a15.338,15.338,0,0,0-1.445,3.219c-.352.984-.523,1.8-.68,2.367-.125.562-.218.906-.375.937-.14.032-.343-.289-.484-.945a8.459,8.459,0,0,1,.016-2.711,12.973,12.973,0,0,1,.39-1.835,10.134,10.134,0,0,1,.344-1.032,8.925,8.925,0,0,1,.484-1.062l.133-.234.07-.125.032-.055c.007-.016.07-.109.07-.109l.023-.039c.157-.18.3-.383.477-.555a8.476,8.476,0,0,1,1.039-.836c.164-.117.3-.219.437-.312-.14-.024-.281-.047-.414-.078a3.032,3.032,0,0,1-1.164-.6c-.007.016-.015.024-.023.039a1.342,1.342,0,0,1-.391.359,1.224,1.224,0,0,1-.484.211,1.916,1.916,0,0,1-.445.063c-.141-.008-.282-.024-.414-.039a2,2,0,0,1-.758-.328,2.708,2.708,0,0,1-.391-.328,6.119,6.119,0,0,1-.539-.6l-.117-.164c-.312.2-.617.406-.906.594a6.257,6.257,0,0,0-.758.531c-.109.086-.218.164-.32.25l-.039.031Zm18.1-3.594c-.039-.359.117-1.171-.039-1.46-.2-.352-.781-.227-1.1-.243l-.367-.023-.289-.039c-.375-.047-.758-.1-1.125-.156a9.449,9.449,0,0,1-2.094-.555,2.918,2.918,0,0,1-1.609-1.336c-.008-.015-.016-.023-.016-.039a4.92,4.92,0,0,1-.445.477,5.654,5.654,0,0,1-.844.562c-1.2.656-2.71.93-3.624,1.68a3.5,3.5,0,0,0-.3.289c-.086.1-.148.226-.226.336a.122.122,0,0,0-.016.039.274.274,0,0,0-.031.086c.023.015.023-.047.015.054a3.454,3.454,0,0,0-.008.492c.008.383.055.821.047,1.375,0,.047-.007.094-.007.141a1.7,1.7,0,0,0,1.046.328,2.038,2.038,0,0,0,1.336-.351l.1-.11.07-.164.055.039.57-.578.656,1.18c.1.179.2.359.3.531a3.6,3.6,0,0,0,.773.351.386.386,0,0,0,.094.016,8.727,8.727,0,0,0,.844-.6l.835-.649.391.453a.385.385,0,0,0,.055-.031c.164-.07.328-.141.492-.195.593-.188,1.25.3,1.8.015.579-.3.3-1.132.743-1.593a.555.555,0,0,1,.062-.071.4.4,0,0,1,.063-.039l.086-.062c.117-.07.234-.141.343-.2a3.293,3.293,0,0,1,.383-.086A2.4,2.4,0,0,1,50.974,79.379Z"/><path d="M50.349,65.482a2.332,2.332,0,0,1-.054.742,3.584,3.584,0,0,1-2.047,2.219,5.8,5.8,0,0,1-.742.305,4.343,4.343,0,0,1-.852.187,1.085,1.085,0,0,1-.765-.172c-.6-.382-.1-1.578-1.266-.953-.429.235-.9.6-1.492.906a3.414,3.414,0,0,1-1.046.36A2.462,2.462,0,0,1,40.928,69c-.71-.227-1.234-.594-1.687-.719a.692.692,0,0,0-.656.062l-.547.336-.367-.484a3.109,3.109,0,0,1-.656-2.031,4.277,4.277,0,0,1,.672-1.828c.289-.484.57-.937.773-1.344a12.863,12.863,0,0,0,.531-1.359,19.107,19.107,0,0,0,.57-2.695c.032-.219.063-.429.094-.64.039-.227.078-.446.125-.649.094-.406.18-.789.266-1.156a6.341,6.341,0,0,0,.156-3.32c-.242-.7-.711-.961-.633-1.054.024-.032.141,0,.344.093a1.945,1.945,0,0,1,.734.758,5.925,5.925,0,0,1,.281,3.687c-.054.367-.117.758-.179,1.172-.032.2-.055.4-.078.594s-.039.429-.063.656a16.164,16.164,0,0,1-.484,2.89,12.811,12.811,0,0,1-.539,1.531c-.242.539-.531,1-.789,1.469a3.238,3.238,0,0,0-.485,1.281,1.59,1.59,0,0,0,.165.734c.078-.015.156-.047.242-.062a2.346,2.346,0,0,1,.9.093c.742.243,1.242.6,1.7.727a1.123,1.123,0,0,0,.625.039,2.461,2.461,0,0,0,.617-.219c.461-.218.914-.562,1.484-.859a2.781,2.781,0,0,1,1.024-.328,1.956,1.956,0,0,1,.633.07,1.271,1.271,0,0,1,.281.11l.125.062a.975.975,0,0,1,.117.078c0,.008.023.024.023.024l.039.031a.737.737,0,0,1,.094.094,1.731,1.731,0,0,1,.156.2,1.1,1.1,0,0,1,.141.359,2.937,2.937,0,0,0,.125.352c.133-.024.266-.055.406-.086a4.84,4.84,0,0,0,.617-.219A2.688,2.688,0,0,0,49.4,65.982c.016-.148.1-.336.071-.429a2.747,2.747,0,0,0-.047-.539c-.047-.133-.063-.266-.117-.407s-.125-.273-.188-.406a4.727,4.727,0,0,0-.969-1.195c-.648-.578-1.124-.758-1.093-.859.008-.071.578-.063,1.4.445a4.608,4.608,0,0,1,1.289,1.219c.086.156.188.312.281.476a4.046,4.046,0,0,1,.227.609A2.794,2.794,0,0,1,50.349,65.482Z"/><path d="M46.342,16.573c.023.188-1.047.461-2.773.547a21.659,21.659,0,0,1-3.062-.055,16.12,16.12,0,0,1-1.821-.273,7.062,7.062,0,0,1-1.968-.7,2.572,2.572,0,0,1-.938-.844,1.765,1.765,0,0,1-.273-.672,1.685,1.685,0,0,1,.016-.7,2.167,2.167,0,0,1,.617-1.1,4.669,4.669,0,0,1,.445-.352c.149-.078.3-.164.453-.242a9.5,9.5,0,0,1,3.133-.562c.867-.032,1.546-.016,2.023-.016.445.016.742,0,.758.094s-.18.258-.68.414a16.636,16.636,0,0,1-2,.437,10.978,10.978,0,0,0-2.718.735,1.264,1.264,0,0,0-.766.843l-.023.11c0,.031.008.023.015.039s-.007.023.008.062a.464.464,0,0,0,.086.2,1.467,1.467,0,0,0,.5.422,10.527,10.527,0,0,0,3.281.906c1.086.165,2.086.258,2.929.336C45.272,16.339,46.318,16.4,46.342,16.573Z"/><path d="M38.382,22.166c1.336.594,2.187.813,2.164.985-.008.132-.953.187-2.43-.211-1.312-.321-2.968-1.125-4.851-1.547.016.625.055,1.266.117,1.93.157,1.507.36,2.96.461,4.3a19.107,19.107,0,0,1-.008,3.624,8.863,8.863,0,0,1-.586,2.414c-.242.508-.429.774-.515.75s-.063-.351.031-.914a18.01,18.01,0,0,0,.141-2.3,27.237,27.237,0,0,0-.274-3.453c-.164-1.3-.406-2.742-.562-4.3a20.687,20.687,0,0,1-.1-2.851l.024-.742.7.125a14.461,14.461,0,0,1,3.3,1.086C36.905,21.487,37.71,21.862,38.382,22.166Z"/></g><text x="0" y="143" fill="#000000" font-size="5px" font-weight="bold" font-family="'Helvetica Neue', Helvetica, Arial-Unicode, Arial, Sans-serif">Created by Hey Rabbit</text><text x="0" y="148" fill="#000000" font-size="5px" font-weight="bold" font-family="'Helvetica Neue', Helvetica, Arial-Unicode, Arial, Sans-serif">from the Noun Project</text></svg>