<svg xmlns="http://www.w3.org/2000/svg" xmlns:xlink="http://www.w3.org/1999/xlink" version="1.1" x="0px" y="0px" viewBox="0 0 100 125" enable-background="new 0 0 100 100" xml:space="preserve"><path d="M46.59,53.66c-3.014-2.012-6.508-3.149-10.197-3.001c-2.443,0.096-4.414,0.647-6.324,1.733  c-1.613,0.914-1.047,1.907,0.74,1.379c5.684-1.674,12.064,0.9,14.541,2.56C47.092,57.503,48.334,54.835,46.59,53.66z M36.402,60.085  c-0.096,1.347,0.926,2.524,2.273,2.618c1.352,0.09,2.521-0.926,2.621-2.283c0.059-0.848-0.326-1.629-0.955-2.109  c1.891,0.491,3.238,1.627,3.691,2.83c0.396,1.09,2.039,0.488,1.631-0.61c-0.867-2.341-3.592-3.986-6.68-4.204  c-1.992-0.141-3.859,0.335-5.262,1.264l-1.334-0.594c-1.008-0.446-1.688,1.07-0.672,1.52l0.66,0.293  c-0.066,0.092-0.135,0.176-0.203,0.27l-1.492-0.43c-1.068-0.301-1.529,1.293-0.465,1.601l2.191,0.629  c0.467,0.136,0.822-0.101,1.006-0.476c0.65-1.211,2.236-2.185,4.32-2.334C36.992,58.448,36.463,59.189,36.402,60.085z   M84.229,54.104c-0.168-0.086-0.338-0.168-0.504-0.236c2.385-6.115,3.043-12.705,2.012-19.058c-0.555-3.434-1.52-6.479-2.969-9.635  c-0.016-0.037-0.037-0.075-0.061-0.112c-2.805-5.875-7.004-10.684-12.018-14.198l0.082,0.57c1.694,12.514,0.211,20.133-4.228,25.078  c3.021-0.271,4.593,1.649,4.979,4.101c0.871,5.497,2.084,8.232,2.908,10.755c0.779,2.364,1.187,4.514,0.488,8.97  c-0.17,1.129,1.219,1.48,1.609,0.412c0.943-2.622,3.559-6.896,6.877-5.2c1.822,1.159,1.162,4.558,0.693,6.167  c-1.41,4.815-4.578,8.446-9.57,9.524l-0.586,0.116c-0.273,0.064-0.572,0.266-0.652,0.65l-0.092,0.487l-0.057,0.299  c-0.722,3.603-1.998,7.097-3.974,10.207c-3.762,5.92-11.494,11.358-18.688,11.358c-2.041,0-6.197-0.787-10.449-3.334  c-6.816-4.076-10.748-10.696-12.246-18.396l-0.115-0.613c-0.104-0.473-0.447-0.64-0.713-0.679c-2.643-0.329-5.547-2.092-7.213-4.022  c-1.723-1.99-4.766-8.629-2.803-11.203c2.348,4.979,5.855,9.492,10.465,13.098c0.846,0.65,1.695,0.062,1.363-0.955  c-2.979-9.097-4.648-24.854,9.281-25.527c2.143-0.098,5.494,0.01,9.24-0.277c4.912-0.384,9.09-1.405,12.525-3.092  c7.932-4.003,11.492-11.006,9.229-27.684l-0.287-2.07c-12.77-7.815-29.957-7.712-42.844,3.489  C13.4,23.973,10.533,40.74,16.217,54.479c-3.031,2.565-0.855,8.703,0.559,11.405c1.855,3.535,5.25,6.048,9.137,6.948l0.23,0.049  c1.084,5.582,3.389,10.788,7.305,14.96c4.098,4.379,10.988,8.187,17.033,8.187c1.688,0,4.43-0.452,7.482-1.676  c9.277-3.729,14.889-11.609,16.809-21.23c0.019-0.084,0.027-0.16,0.031-0.237l0.057-0.01c3.937-0.851,7.429-3.38,9.32-6.989  C85.768,62.871,87.953,56.404,84.229,54.104z M67.58,60.439c0.158,0.336,0.508,0.571,0.975,0.437l2.195-0.629  c1.064-0.308,0.605-1.899-0.465-1.601l-1.496,0.43c-0.064-0.094-0.133-0.178-0.201-0.27l0.664-0.293  c1.01-0.447,0.336-1.966-0.674-1.52l-1.338,0.594c-1.396-0.929-3.27-1.404-5.258-1.264c-3.088,0.218-5.812,1.863-6.685,4.203  c-0.399,1.101,1.229,1.701,1.644,0.611c0.438-1.203,1.793-2.339,3.68-2.83c-0.625,0.48-1.006,1.262-0.949,2.109  c0.092,1.357,1.268,2.373,2.615,2.283c1.352-0.094,2.373-1.271,2.279-2.618c-0.064-0.896-0.596-1.638-1.334-2.019  C65.316,58.217,66.902,59.189,67.58,60.439z M81.717,58.843c1.004-0.56,0.25-1.973-0.754-1.407  c-1.285,0.723-2.422,2.316-3.264,4.299c-0.184,0.391-0.453,1.043-0.77,2.09c-0.873,2.967,1.145,2.222,1.991,0.154  c0.271-0.651,0.281-0.99,0.22-1.459C79.902,60.622,80.877,59.32,81.717,58.843z M70.902,52.393  c-1.916-1.086-3.881-1.638-6.332-1.732c-3.678-0.148-7.188,0.99-10.191,3.001c-1.75,1.175-0.504,3.843,1.238,2.671  c2.469-1.658,8.861-4.232,14.545-2.561C71.945,54.301,72.51,53.309,70.902,52.393z M45.598,72.896  c-0.748,0.814,0.479,1.938,1.223,1.119c0.266-0.192,0.535-0.088,0.791,0.104c0.938,0.705,1.578,1.038,2.855,1.038  c0.756,0,1.354-0.144,1.83-0.37c0.449-0.198,1.385-1.098,1.834-0.771c0.75,0.819,1.975-0.305,1.227-1.119  c0,0-0.092-0.105-0.26-0.228c-1.774-1.299-2.865,0.83-4.631,0.83c-1.756,0-2.82-2.14-4.607-0.83  C45.689,72.791,45.598,72.896,45.598,72.896z M39.734,80.373c0.127,0.054,0.279,0.105,0.453,0.156  c0.689,0.255,1.326,0.642,1.852,1.169c0.816,0.809,1.531,1.487,2.221,2.043c1.73,1.575,3.607,2.868,6.154,2.924h0.178  c2.219-0.047,3.934-1.036,5.48-2.323c1.846-1.279,2.68-3.037,4.758-3.816c0.166-0.047,0.32-0.102,0.451-0.151  c0.988-0.406,0.406-1.935-0.623-1.547l-0.061,0.021l-0.16,0.053c-2.615,0.795-6.756-0.947-9.939,0.545  c-3.178-1.492-7.309,0.246-9.922-0.545l-0.166-0.053l-0.064-0.021C39.324,78.439,38.74,79.967,39.734,80.373z M49.531,85.846  c-0.521-0.078-0.82-0.092-1.344-0.291c-0.611-0.228-0.264-1.147,0.352-0.912c0.416,0.162,0.703,0.176,1.131,0.24  C50.322,84.973,50.178,85.936,49.531,85.846z M50.434,81.305h0.146c1.301-0.005,4.105-0.062,6.582-0.255  c-0.619,0.607-1.256,1.249-1.928,1.832c-1.06,0.726-2.455,1.246-4.717,1.257c-2.28-0.007-3.681-0.523-4.736-1.257  c-0.682-0.583-1.322-1.225-1.938-1.832C46.32,81.243,49.133,81.3,50.434,81.305z"/><text x="0" y="115" fill="#000000" font-size="5px" font-weight="bold" font-family="'Helvetica Neue', Helvetica, Arial-Unicode, Arial, Sans-serif">Created by Simon Child</text><text x="0" y="120" fill="#000000" font-size="5px" font-weight="bold" font-family="'Helvetica Neue', Helvetica, Arial-Unicode, Arial, Sans-serif">from the Noun Project</text></svg>