<svg xmlns="http://www.w3.org/2000/svg" xmlns:xlink="http://www.w3.org/1999/xlink" version="1.1" x="0px" y="0px" viewBox="0 0 64 80" enable-background="new 0 0 64 64" xml:space="preserve"><g><g><path d="M29.34,48.1c1.17-0.91,2.37-1.86,2.49-2.58c0.06-0.39,0.04-0.89,0.01-1.41c-0.08-1.51-0.2-3.58,1.9-5.41    c0.83-0.73,0.7-2.94,0.51-4.24c-0.37,0.17-0.87,0.33-1.4,0.33c-0.62,0-1.5-0.22-2.16-1.31c-0.85-1.38-1.1-4.13-0.13-5.86    c0.82-1.46,2.33-1.9,4.23-1.18c1,0.38,1.29,1.1,1.51,1.62c0.16,0.38,0.22,0.5,0.35,0.54c0.6-0.87,2.77-4.23,2.65-6.97    c-0.01-0.26,0.18-0.49,0.43-0.52c0.27-0.03,0.5,0.14,0.56,0.39c0.05,0.23,1.2,5.61-0.84,9.28c-1.69,3.02-1.58,5.02-1.44,7.54    c0.02,0.33,0.04,0.65,0.05,0.99c0.02,0.47,0.05,0.93,0.08,1.38c0.05,0.92,0.1,1.79,0.09,2.64c0.34-1.21,0.59-2.69,0.56-4.43    c-0.07-4.14,0.44-5.15,1.38-6.99c0.3-0.6,0.65-1.28,1.04-2.21c1.01-2.41,0.72-4.22,0.48-5.67c-0.12-0.72-0.22-1.35-0.15-1.93    c0.11-0.93,0.69-1.46,1.31-2.02c0.73-0.65,1.55-1.39,2.11-3.03c0.64-1.85,2.39-2.74,3.8-3.45c1.28-0.64,1.82-0.97,1.66-1.43    C49.82,10.51,46.4,6.18,37.81,6h-0.39c-4.8,0-6.44,1.86-8.03,3.65c-1.1,1.26-2.15,2.45-4.12,2.84c-0.61,0.12-1.16,0.22-1.65,0.3    c-3.07,0.55-3.62,0.64-4.66,4.46c-0.85,3.16-2.22,3.68-3.43,4.15c-0.74,0.28-1.37,0.52-1.96,1.32c-0.78,1.07-0.45,2.12-0.06,3.35    c0.35,1.12,0.75,2.38,0.1,3.63c-0.51,0.98-1.19,1.45-1.73,1.84c-0.82,0.58-1.27,0.89-0.88,2.68c0.72,3.32,0.11,4.16-1.9,6.97    l-0.57,0.8c-0.75,1.06-0.38,1.82,0.41,3.19c0.44,0.78,0.95,1.66,1.14,2.73c0.11,0.64,0.08,1.4,0.04,2.2    c-0.06,1.47-0.14,3.14,0.75,4.06c0.24,0.26,0.55,0.45,0.94,0.59c0.51-0.1,2.53-0.6,2.93-2.26c0.14-0.58,0.24-1.13,0.34-1.66    c0.29-1.55,0.57-3.01,1.63-4.18c0.19-0.21,0.51-0.22,0.71-0.04c0.2,0.19,0.22,0.5,0.03,0.71c-0.87,0.96-1.1,2.17-1.38,3.7    c-0.11,0.54-0.21,1.11-0.36,1.71c-0.27,1.11-1.01,1.82-1.78,2.28c0.27-0.01,0.54-0.03,0.83-0.06c0.71-0.08,1.34-0.25,1.95-0.41    c0.68-0.18,1.33-0.35,1.95-0.35c0.84,0,1.53,0.33,2.12,1c0.48,0.54,0.78,1.07,1.04,1.53c0.51,0.9,0.75,1.27,1.62,1.27    c0.19,0,0.4-0.02,0.64-0.06c1.13-0.18,1.37-1.6,1.61-3.75c0.15-1.29,0.28-2.5,0.8-3.35C27.08,49.87,28.23,48.97,29.34,48.1z     M37.43,19.24c0.53-2.53,2.72-3.23,2.81-3.26c0.27-0.08,0.55,0.07,0.63,0.33s-0.07,0.54-0.33,0.63c-0.07,0.02-1.72,0.57-2.14,2.5    c-0.52,2.48-2.52,3.47-2.61,3.51C35.72,22.98,35.65,23,35.58,23c-0.19,0-0.37-0.11-0.45-0.29c-0.12-0.24-0.02-0.54,0.23-0.66    C35.43,22.01,37,21.22,37.43,19.24z M30.04,16.88c0.11-0.04,1.39-0.48,2.02-3.17c0.66-2.79,3.33-3.32,4.64-3.22    c0.27,0.02,0.48,0.26,0.46,0.53c-0.02,0.28-0.25,0.48-0.54,0.46c-0.12,0-2.97-0.18-3.59,2.46c-0.77,3.28-2.52,3.93-2.98,3.93    h-0.03c-0.28-0.02-0.48-0.26-0.46-0.53C29.58,17.08,29.79,16.89,30.04,16.88z M21.29,28.94c-0.58,4.46-3.92,5.52-4.06,5.56    c-0.05,0.02-0.1,0.02-0.15,0.02c-0.21,0-0.41-0.14-0.47-0.35c-0.08-0.26,0.06-0.54,0.33-0.63c0.13-0.04,2.86-0.94,3.36-4.73    c0.58-4.44,3.05-5.32,3.16-5.35c0.26-0.09,0.54,0.05,0.63,0.31c0.09,0.26-0.05,0.54-0.32,0.63C23.7,24.43,21.79,25.17,21.29,28.94    z M26.26,33.71c-0.37,0.39-1.73,2.74-1.33,5.24c0.52,3.24-1.09,5.2-2.01,5.79c-0.08,0.05-0.18,0.08-0.27,0.08    c-0.16,0-0.32-0.09-0.42-0.24c-0.15-0.23-0.08-0.54,0.15-0.69c0.59-0.37,2.02-1.95,1.57-4.78c-0.48-2.96,1.09-5.52,1.54-6.04    c0.13-0.15,0.29-0.3,0.53-0.3c0.28,0,0.5,0.22,0.5,0.5C26.52,33.46,26.42,33.62,26.26,33.71z"/><path d="M53.25,32.53c1.22,0.08,2.01-0.41,2.41-0.76c-2.32-2.23-4.12-4.85-3.6-11.78c0.18-2.28-0.23-3.91-1.18-4.71    c-0.71-0.6-1.58-0.63-2.05-0.59c-1.21,0.62-2.47,1.36-2.93,2.69c-0.64,1.88-1.65,2.78-2.38,3.44c-0.61,0.55-0.93,0.86-0.99,1.39    c-0.05,0.45,0.04,1.01,0.15,1.65c0.24,1.5,0.58,3.55-0.55,6.22c-0.4,0.97-0.76,1.67-1.07,2.28c-0.89,1.75-1.34,2.63-1.27,6.53    c0.09,5.51-2.39,8.64-2.5,8.77c-0.16,0.19-0.44,0.24-0.65,0.11c-0.22-0.14-0.3-0.41-0.19-0.64c0.95-1.99,0.83-4.03,0.69-6.38    c-0.03-0.46-0.06-0.92-0.08-1.39c-0.01-0.34-0.03-0.66-0.05-0.98c-0.14-2.58-0.26-4.81,1.56-8.09c0.88-1.58,1.1-3.57,1.08-5.23    c-0.86,2.31-2.25,4.23-2.34,4.34c-0.09,0.12-0.22,0.2-0.37,0.21H36.8c-0.94,0-1.22-0.67-1.42-1.16c-0.19-0.46-0.35-0.85-0.94-1.07    c-1.42-0.54-2.43-0.31-3.01,0.72c-0.77,1.38-0.57,3.74,0.11,4.86c0.34,0.56,0.77,0.83,1.31,0.83c0.75,0,1.46-0.51,1.47-0.51    c0.13-0.1,0.31-0.13,0.47-0.07c0.16,0.06,0.28,0.2,0.31,0.36c0.1,0.45,0.94,4.45-0.71,5.88c-1.72,1.51-1.63,3.16-1.55,4.61    c0.03,0.58,0.06,1.12-0.02,1.63c-0.14,0.83-0.91,1.61-1.87,2.4c1.36,1.08,4.96,3.45,9.56,2.97c0.09-3.6,1.63-6.16,2.35-7.16    c-0.37-0.23-0.75-0.48-1.12-0.75c-0.22-0.16-0.27-0.47-0.11-0.7c0.17-0.22,0.48-0.27,0.7-0.11c3.8,2.78,7.33,3.21,9.14,2.4    c0.9-0.4,1.41-1.08,1.52-2.05c0.13-1.22,0.14-2.72,0.1-4.18c-0.24,0.1-0.51,0.19-0.86,0.21c-0.09,0.01-0.18,0.02-0.27,0.02    c-1.22,0-2.58-0.65-4.07-1.92c-0.21-0.18-0.23-0.49-0.05-0.7c0.18-0.21,0.49-0.23,0.7-0.06c2.7,2.31,4.1,1.66,4.5,1.36    c-0.1-2.34-0.31-4.3-0.32-4.34c-0.01-0.14,0.04-0.29,0.14-0.39C52.96,32.58,53.11,32.53,53.25,32.53z M34.69,29.68    c-0.21,0.13-0.48,0.07-0.62-0.13c-0.02-0.03-0.07-0.09-0.21-0.16c-0.53-0.27-0.71-0.08-0.78-0.01c-0.37,0.41-0.38,1.55-0.09,2.02    c0.11,0.18,0.25,0.29,0.54,0.19c0.24-0.08,0.49,0.05,0.57,0.29c0.08,0.23-0.05,0.49-0.29,0.56c-0.16,0.06-0.33,0.09-0.48,0.09    c-0.45,0-0.84-0.23-1.11-0.67c-0.42-0.69-0.52-2.3,0.21-3.08c0.26-0.29,0.85-0.69,1.84-0.19c0.24,0.13,0.43,0.28,0.55,0.47    C34.95,29.26,34.9,29.54,34.69,29.68z M49.71,27.23c0,0.28-0.23,0.5-0.5,0.5c-0.28,0-0.5-0.22-0.5-0.5v-1.1    c0-0.27,0.22-0.5,0.5-0.5c0.27,0,0.5,0.23,0.5,0.5V27.23z M50.77,24.26c-0.08,0.26-0.35,0.42-0.62,0.34    c-2.79-0.8-4.33,1.51-4.35,1.53c-0.09,0.15-0.25,0.23-0.41,0.23c-0.1,0-0.19-0.03-0.28-0.08c-0.23-0.15-0.29-0.46-0.14-0.7    c0.02-0.03,1.98-2.94,5.46-1.94C50.69,23.72,50.85,23.99,50.77,24.26z"/><path d="M40.53,52.07c-0.42,0.04-0.83,0.07-1.23,0.07c-4.54,0-7.95-2.43-9.15-3.41c-0.06,0.05-0.12,0.1-0.19,0.15    c-1.04,0.82-2.12,1.66-2.62,2.48c-0.26,0.43-0.4,1.08-0.5,1.78l0.03,0.03c4.97,5.06,12.54,5.39,14.4,4.17    c0.44-0.28,0.35-0.5,0.3-0.62C40.9,55.05,40.6,53.49,40.53,52.07z"/></g></g><text x="0" y="79" fill="#000000" font-size="5px" font-weight="bold" font-family="'Helvetica Neue', Helvetica, Arial-Unicode, Arial, Sans-serif">Created by farra nugraha</text><text x="0" y="84" fill="#000000" font-size="5px" font-weight="bold" font-family="'Helvetica Neue', Helvetica, Arial-Unicode, Arial, Sans-serif">from the Noun Project</text></svg>